<?xml version="1.0" standalone="no"?>
<!DOCTYPE svg PUBLIC "-//W3C//DTD SVG 1.1//EN" "http://www.w3.org/Graphics/SVG/1.1/DTD/svg11.dtd">
<svg width="100%" height="100%" viewBox="0 0 4067 1900" version="1.1" xmlns="http://www.w3.org/2000/svg" xmlns:xlink="http://www.w3.org/1999/xlink" xml:space="preserve" style="fill-rule:evenodd;clip-rule:evenodd;stroke-linejoin:round;stroke-miterlimit:1.41421;">
    <g transform="matrix(4.16667,0,0,4.16667,0,0)">
        <path d="M381.22,241.031L381.22,95.44L415.255,95.44L415.255,155.851L440.686,95.44L475.477,95.44L443.9,159.16L476.233,241.031L440.497,241.031L422.629,188.372L415.255,202.27L415.255,241.031L381.22,241.031Z" style="fill:rgb(62,61,62);fill-rule:nonzero;"/>
        <path d="M504.601,186.387C504.601,201.766 505.279,211.393 506.634,215.269C507.989,219.145 510.526,221.083 514.244,221.083C517.963,221.083 520.5,219.224 521.854,215.505C523.21,211.787 523.887,202.081 523.887,186.387C523.887,170.693 523.21,160.972 521.854,157.221C520.5,153.471 517.963,151.596 514.244,151.596C510.526,151.596 507.989,153.55 506.634,157.458C505.279,161.365 504.601,171.009 504.601,186.387ZM473.592,186.387C473.592,165.084 476.649,150.147 482.762,141.575C488.876,133.003 499.37,128.718 514.244,128.718C529.119,128.718 539.613,132.972 545.726,141.481C551.84,149.989 554.897,164.958 554.897,186.387C554.897,207.69 551.84,222.612 545.726,231.152C539.613,239.692 529.119,243.962 514.244,243.962C499.307,243.962 488.797,239.723 482.715,231.246C476.633,222.769 473.592,207.816 473.592,186.387Z" style="fill:rgb(62,61,62);fill-rule:nonzero;"/>
        <path d="M565.022,241.031L565.022,131.648L592.06,131.648L592.06,144.6C595.334,139.369 598.993,135.54 603.027,133.114C607.057,130.687 611.819,129.474 617.302,129.474C622.278,129.474 626.58,130.766 630.207,133.35C633.831,135.934 636.62,139.684 638.574,144.6C641.848,139.432 645.554,135.619 649.682,133.161C653.807,130.703 658.553,129.474 663.911,129.474C672.041,129.474 677.981,132.279 681.731,137.888C685.478,143.497 687.357,152.447 687.357,164.737L687.357,241.031L658.144,241.031L658.144,171.733C658.144,163.918 657.589,158.986 656.489,156.938C655.386,154.889 653.477,153.865 650.77,153.865C647.492,153.865 644.921,155.535 643.065,158.876C641.205,162.216 640.276,166.817 640.276,172.679L640.276,241.031L611.63,241.031L611.63,171.733C611.63,163.918 611.094,158.986 610.023,156.938C608.948,154.889 607.029,153.865 604.256,153.865C601.042,153.865 598.502,155.535 596.645,158.876C594.786,162.216 593.857,166.817 593.857,172.679L593.857,241.031L565.022,241.031Z" style="fill:rgb(62,61,62);fill-rule:nonzero;"/>
        <path d="M727.07,186.387C727.07,201.766 727.744,211.393 729.102,215.269C730.457,219.145 732.991,221.083 736.713,221.083C740.431,221.083 742.965,219.224 744.323,215.505C745.678,211.787 746.356,202.081 746.356,186.387C746.356,170.693 745.678,160.972 744.323,157.221C742.965,153.471 740.431,151.596 736.713,151.596C732.991,151.596 730.457,153.55 729.102,157.458C727.744,161.365 727.07,171.009 727.07,186.387ZM696.061,186.387C696.061,165.084 699.117,150.147 705.231,141.575C711.341,133.003 721.835,128.718 736.713,128.718C751.587,128.718 762.081,132.972 768.195,141.481C774.305,149.989 777.365,164.958 777.365,186.387C777.365,207.69 774.305,222.612 768.195,231.152C762.081,239.692 751.587,243.962 736.713,243.962C721.775,243.962 711.266,239.723 705.184,231.246C699.098,222.769 696.061,207.816 696.061,186.387Z" style="fill:rgb(62,61,62);fill-rule:nonzero;"/>
        <path d="M826.346,155.094C822.502,155.094 819.867,157.08 818.449,161.05C817.031,165.021 816.325,173.813 816.325,187.427C816.325,201.608 816.987,210.447 818.31,213.945C819.634,217.443 822.06,219.192 825.59,219.192C829.624,219.192 832.409,217.081 833.954,212.858C835.498,208.635 836.273,197.511 836.273,179.486C836.273,170.221 835.529,163.839 834.048,160.341C832.567,156.843 830.002,155.094 826.346,155.094ZM866.053,95.44L866.053,241.031L837.975,241.031L837.975,229.025C835.075,233.941 831.527,237.691 827.336,240.275C823.144,242.859 818.499,244.151 813.394,244.151C809.108,244.151 805.213,243.379 801.715,241.835C798.217,240.291 795.271,238.1 792.876,235.264C790.166,231.861 788.259,227.307 787.156,221.603C786.053,215.899 785.502,205.201 785.502,189.507C785.502,164.8 787.582,148.555 791.741,140.771C795.901,132.988 803.37,129.096 814.151,129.096C818.752,129.096 822.785,130.12 826.252,132.168C829.718,134.217 832.838,137.384 835.611,141.67L835.611,95.44L866.053,95.44Z" style="fill:rgb(62,61,62);fill-rule:nonzero;"/>
        <path d="M907.184,186.387C907.184,201.766 907.862,211.393 909.217,215.269C910.572,219.145 913.109,221.083 916.827,221.083C920.546,221.083 923.083,219.224 924.438,215.505C925.793,211.787 926.47,202.081 926.47,186.387C926.47,170.693 925.793,160.972 924.438,157.221C923.083,153.471 920.546,151.596 916.827,151.596C913.109,151.596 910.572,153.55 909.217,157.458C907.862,161.365 907.184,171.009 907.184,186.387ZM876.175,186.387C876.175,165.084 879.232,150.147 885.346,141.575C891.459,133.003 901.953,128.718 916.827,128.718C931.702,128.718 942.196,132.972 948.309,141.481C954.423,149.989 957.48,164.958 957.48,186.387C957.48,207.69 954.423,222.612 948.309,231.152C942.196,239.692 931.702,243.962 916.827,243.962C901.89,243.962 891.38,239.723 885.298,231.246C879.216,222.769 876.175,207.816 876.175,186.387Z" style="fill:rgb(62,61,62);fill-rule:nonzero;"/>
        <path d="M957.568,109.802L960.609,109.802C963.729,109.802 964.74,108.907 964.74,107.073C964.74,105.475 963.962,104.577 961.04,104.577L957.568,104.577L957.568,109.802ZM957.568,119.158L954.996,119.158L954.996,102.472L961.39,102.472C965.364,102.472 967.311,103.953 967.311,107.23C967.311,110.23 965.446,111.516 962.947,111.828L967.705,119.158L964.898,119.158L960.454,111.907L957.568,111.907L957.568,119.158ZM960.65,98.691C953.944,98.691 948.76,103.877 948.76,110.775C948.76,117.832 953.944,122.937 960.65,122.937C967.274,122.937 972.458,117.832 972.458,110.775C972.458,103.877 967.274,98.691 960.65,98.691ZM960.65,96.352C968.522,96.352 975.269,102.472 975.269,110.775C975.269,119.158 968.522,125.275 960.65,125.275C952.696,125.275 945.952,119.158 945.952,110.775C945.952,102.472 952.696,96.352 960.65,96.352Z" style="fill:rgb(62,61,62);fill-rule:nonzero;"/>
        <rect x="380.536" y="262.583" width="34.035" height="145.592" style="fill:rgb(62,61,62);fill-rule:nonzero;"/>
        <path d="M464.683,289.716L464.683,381.609C465.377,381.735 466.038,381.798 466.669,381.798C467.299,381.798 468.276,381.798 469.599,381.798C473.255,381.798 476.296,381.294 478.722,380.286C481.149,379.277 483.119,377.67 484.631,375.464C485.892,373.699 486.758,370.296 487.231,365.254C487.704,360.212 487.94,350.316 487.94,335.568L487.94,328.95C487.94,316.849 487.72,308.671 487.278,304.417C486.837,300.163 486.018,297.248 484.82,295.672C483.497,293.592 481.559,292.048 479.006,291.04C476.454,290.031 473.192,289.527 469.221,289.527C468.024,289.527 467.094,289.543 466.432,289.574C465.771,289.606 465.188,289.653 464.683,289.716ZM430.46,408.175L430.46,262.583L467.992,262.583C481.732,262.583 491.911,263.765 498.529,266.128C505.146,268.492 510.409,272.541 514.317,278.277C517.341,282.752 519.485,288.534 520.745,295.625C522.005,302.715 522.636,315.967 522.636,335.379C522.636,354.791 522.005,368.027 520.745,375.086C519.485,382.145 517.341,387.943 514.317,392.481C510.409,398.217 505.146,402.266 498.529,404.63C491.911,406.993 481.732,408.175 467.992,408.175L430.46,408.175Z" style="fill:rgb(62,61,62);fill-rule:nonzero;"/>
        <path d="M535.598,408.175L535.598,262.583L614.822,262.583L614.822,290.851L569.443,290.851L569.443,317.605L611.324,317.605L611.324,346.818L569.443,346.818L569.443,378.584L614.822,378.584L614.822,408.175L535.598,408.175Z" style="fill:rgb(62,61,62);fill-rule:nonzero;"/>
        <path d="M174.974,36.088L0,141.074L0,351.027L174.974,456L349.911,351.027L349.911,141.074L174.974,36.088Z" style="fill:rgb(252,179,21);fill-rule:nonzero;"/>
        <path d="M111.833,180.481C82.492,226.024 140.425,303.806 140.425,303.806C140.425,303.806 59.126,235.664 93.764,174.969C121.765,125.904 187.776,127.916 216.151,150.856C219.139,151.588 221.955,152.782 224.479,153.955C297.855,188.059 274.854,240.803 264.835,232.059C193.69,169.969 217.62,170.616 217.62,170.616C217.62,170.616 227.759,175.919 235.249,184.704C237.396,187.223 230.59,195.636 245.756,196.197C251.509,193.212 269.536,214.098 263.757,204.464C265.279,207.001 234.314,162.109 213.158,153.883C185.208,146.032 134.913,144.654 111.833,180.481ZM279.063,287.035C272.267,298.865 248.018,334.249 209.859,324.548C171.7,314.846 164.585,281.861 172.993,283.154C181.401,284.448 178.167,301.911 182.695,303.204C187.222,304.498 201.676,305.845 205.332,304.498C208.987,303.151 195.082,297.114 195.082,297.114C195.082,297.114 209.437,292.586 210.506,290.269C211.574,287.952 193.141,290.215 193.141,290.215C193.141,290.215 199.34,280.083 201.334,277.064C203.328,274.046 187.869,286.388 187.869,286.388C187.869,286.388 196.277,263.105 190.456,257.284C184.635,251.463 159.411,248.876 154.237,253.403C149.063,257.93 164.053,231.045 163.292,206.835C163.184,203.412 173.592,214.648 176.874,228.178C178.28,233.973 203.391,244.995 207.919,245.642C212.446,246.289 195.243,234.593 195.243,234.593C195.243,234.593 207.012,238.58 210.506,238.527C214,238.474 197.669,230.227 197.669,230.227C197.669,230.227 205.233,226.453 207.919,223.651C210.604,220.849 187.967,226.023 187.967,226.023C187.967,226.023 194.122,209.093 184.733,203.332C156.276,185.87 206.625,192.209 206.625,192.209C206.625,192.209 187.456,179.5 185.483,169.971C184.125,163.409 213.14,157.936 205.297,177.118C199.297,191.792 228.95,197.493 262.587,242.896C270.436,253.491 285.622,225.269 285.353,222.362C279.648,160.859 199.511,131.163 199.511,131.163C199.511,131.163 130.658,104.541 86.326,166.735C51.318,215.848 66.781,274.397 84.341,282.652C106.428,293.036 74.617,289.826 60.553,305.414C48.887,318.345 77.366,338.364 98.712,329.884C124.897,319.482 86.262,351.982 86.262,351.982L107.023,342.657L101.202,364.001L113.49,346.538L114.137,366.588L127.073,328.428C127.073,328.428 108.576,302.827 120.38,308.648C124.421,310.641 149.573,348.125 183.009,354.677C227.696,363.433 283.105,335.778 290.157,283.101C291.978,269.502 296.526,256.637 279.063,287.035Z" style="fill:white;fill-rule:nonzero;"/>
        <path d="M578.573,33.78L585.626,33.78L585.626,27.47C585.626,24.219 584.791,22.549 582.1,22.549C579.501,22.549 578.573,24.219 578.573,27.47L578.573,33.78ZM582.1,61.45C584.791,61.45 585.626,59.872 585.626,56.53L585.626,49.566L601.596,49.566L601.596,54.301C601.596,66.744 595.189,72.869 582.1,72.869C569.009,72.869 562.697,66.744 562.697,54.301L562.697,29.698C562.697,17.257 569.009,11.131 582.1,11.131C595.189,11.131 601.596,17.257 601.596,29.698L601.596,44.646L578.573,44.646L578.573,56.53C578.573,59.776 579.41,61.45 582.1,61.45ZM520.834,13.269L537.451,13.269L539.586,36.662C539.771,39.26 540.238,45.389 540.982,55.136C541.628,45.481 542.188,39.354 542.465,36.569L544.972,13.269L560.85,13.269L550.077,71.756L531.788,71.756L520.834,13.269ZM501.059,13.202L516.749,13.202L516.749,71.756L501.059,71.756L501.059,13.202ZM501.059,0.363L516.749,0.363L516.749,9.279L501.059,9.279L501.059,0.363ZM496.701,72.314C494.659,72.682 492.524,72.869 490.484,72.869C478.414,72.869 477.022,67.672 477.022,55.415L477.022,24.591L473.123,24.591L473.123,13.266L477.022,13.266L477.022,0.825L492.433,0.825L492.433,13.266L496.701,13.266L496.701,24.591L492.153,24.591L492.153,57.456C492.153,59.591 493.642,60.611 496.332,60.611L496.701,60.611L496.701,72.314ZM451.675,22.549C449.076,22.549 448.149,24.219 448.149,27.47L448.149,56.53C448.149,59.776 448.984,61.45 451.675,61.45C454.367,61.45 455.204,59.872 455.204,56.53L455.204,46.502L471.173,46.502L471.173,54.301C471.173,66.744 464.767,72.869 451.675,72.869C438.586,72.869 432.273,66.744 432.273,54.301L432.273,29.698C432.273,17.257 438.586,11.131 451.675,11.131C464.767,11.131 471.173,17.257 471.173,29.698L471.173,34.803L455.204,34.803L455.204,27.47C455.204,24.219 454.367,22.549 451.675,22.549ZM410.178,45.996L407.578,24.162C407.114,20.151 406.741,16.049 406.371,11.952C405.999,15.784 405.535,19.882 404.98,24.249L402.102,45.996L410.178,45.996ZM395.231,0.363L417.789,0.363L431.345,71.756L413.428,71.756L411.755,58.919L400.149,58.919L398.48,71.756L381.49,71.756L395.231,0.363Z" style="fill:rgb(62,61,62);fill-rule:nonzero;"/>
        <path d="M762.458,33.78L769.516,33.78L769.516,27.47C769.516,24.219 768.681,22.549 765.989,22.549C763.389,22.549 762.458,24.219 762.458,27.47L762.458,33.78ZM765.989,61.45C768.681,61.45 769.516,59.872 769.516,56.53L769.516,49.566L785.483,49.566L785.483,54.301C785.483,66.744 779.078,72.869 765.989,72.869C752.9,72.869 746.583,66.744 746.583,54.301L746.583,29.698C746.583,17.257 752.9,11.131 765.989,11.131C779.078,11.131 785.483,17.257 785.483,29.698L785.483,44.646L762.458,44.646L762.458,56.53C762.458,59.776 763.297,61.45 765.989,61.45ZM743.988,72.314C741.942,72.682 739.809,72.869 737.766,72.869C725.697,72.869 724.305,67.672 724.305,55.415L724.305,24.591L720.406,24.591L720.406,13.266L724.305,13.266L724.305,0.825L739.712,0.825L739.712,13.266L743.988,13.266L743.988,24.591L739.436,24.591L739.436,57.456C739.436,59.591 740.921,60.611 743.614,60.611L743.988,60.611L743.988,72.314ZM694.569,51.606L694.569,57.641C694.569,60.983 694.75,63.122 697.447,63.122C700.139,63.122 701.902,60.705 701.902,55.693L701.902,42.046C696.33,45.107 694.569,46.872 694.569,51.606ZM690.949,72.869C683.428,72.869 678.784,67.297 678.784,58.57L678.784,53.836C678.784,46.037 682.216,40.932 689.832,37.402C697.167,33.968 701.902,32.668 701.902,27.657L701.902,25.52C701.902,23.384 700.324,21.713 698.282,21.713C696.054,21.713 694.473,23.756 694.473,27.47L694.473,31.183L679.806,31.183L679.806,27.47C679.806,17.257 686.583,11.131 698.652,11.131C712.486,11.131 717.5,16.886 717.5,28.772L717.5,71.756L702.829,71.756L702.552,67.482C698.932,71.106 695.308,72.869 690.949,72.869ZM675.827,72.314C673.784,72.682 671.649,72.869 669.603,72.869C657.536,72.869 656.143,67.672 656.143,55.415L656.143,24.591L652.244,24.591L652.244,13.266L656.143,13.266L656.143,0.825L671.555,0.825L671.555,13.266L675.827,13.266L675.827,24.591L671.275,24.591L671.275,57.456C671.275,59.591 672.762,60.611 675.456,60.611L675.827,60.611L675.827,72.314ZM621.721,49.777L621.721,53.261C621.721,58.009 623.496,60.296 627.241,60.296C630.607,60.296 632.855,58.009 632.855,54.58C632.855,51.582 630.889,48.686 627.054,45.781C621.249,41.47 615.916,37.863 611.799,33.905C607.868,30.122 605.901,25.021 605.901,19.211C605.901,7.514 613.859,0.476 627.897,0.476C641.748,0.476 648.77,6.461 648.77,18.425L648.77,24.625L632.763,24.625L632.763,19.391C632.763,14.904 631.17,12.791 627.428,12.791C624.432,12.791 622.469,14.904 622.469,17.982C622.469,22.028 626.679,25.194 634.069,30.916C640.343,35.842 645.022,39.359 647.081,42.965C648.77,45.869 649.698,49.476 649.698,53.61C649.698,65.573 641.47,72.875 626.866,72.875C612.548,72.875 604.968,65.926 604.968,52.82L604.968,49.777L621.721,49.777Z" style="fill:rgb(196,45,27);fill-rule:nonzero;"/>
        <path d="M696.464,351.363L626.151,264.492L712.257,264.492L737.476,304.231L764.735,264.492L849.824,264.492L778.492,351.363L858.994,448.422L769.831,448.422L736.968,399.002L703.341,448.422L614.432,448.422L696.464,351.363Z" style="fill:rgb(252,179,21);fill-rule:nonzero;"/>
    </g>
</svg>
