<?xml version="1.0" standalone="no"?>
<!DOCTYPE svg PUBLIC "-//W3C//DTD SVG 1.1//EN" "http://www.w3.org/Graphics/SVG/1.1/DTD/svg11.dtd">
<svg width="100%" height="100%" viewBox="0 0 3767 750" version="1.1" xmlns="http://www.w3.org/2000/svg" xmlns:xlink="http://www.w3.org/1999/xlink" xml:space="preserve" style="fill-rule:evenodd;clip-rule:evenodd;stroke-linejoin:round;stroke-miterlimit:1.41421;">
    <g transform="matrix(4.16667,0,0,4.16667,-210.417,-266.667)">
        <path d="M302.689,169.906C299.245,177.192 295.8,182.11 292.153,184.842C286.884,188.667 281.211,190.67 274.727,190.67C265.609,190.67 258.517,187.027 253.046,179.56C247.777,172.092 245.143,163.349 245.143,153.695C245.143,144.041 247.777,136.391 253.248,130.562C257.098,126.191 262.569,124.005 269.053,124.005C273.106,124.005 276.348,124.916 278.577,126.737C281.008,128.559 282.224,131.291 282.629,134.752C283.035,138.213 283.845,140.58 285.061,141.855C286.884,144.223 289.721,145.316 293.774,145.316C296.611,145.316 298.84,144.588 300.461,143.313C302.082,141.855 302.892,140.034 302.892,137.666C302.892,133.113 300.055,128.741 294.382,124.552C288.506,120.362 281.211,118.177 272.295,118.177C260.543,118.177 250.411,122.184 241.901,130.198C233.391,138.213 229.135,148.595 229.135,161.345C229.135,174.642 232.985,185.024 240.685,192.856C248.183,200.688 257.301,204.513 267.432,204.513C276.145,204.513 284.048,201.599 291.14,195.953C298.232,190.124 303.095,181.927 305.526,171.181L302.689,169.906Z" style="fill:rgb(86,45,135);fill-rule:nonzero;"/>
        <path d="M340.753,118.177L313.398,128.195L314.411,131.473C317.045,130.562 319.274,130.198 321.3,130.198C322.921,130.198 324.34,130.562 325.556,131.291C326.771,132.202 327.582,133.477 327.987,135.298C328.392,137.12 328.595,142.766 328.595,152.238L328.595,183.749C328.595,188.485 328.392,191.399 328.19,192.31C327.379,194.495 326.366,195.953 324.745,196.863C322.516,198.138 319.071,198.867 314.411,198.867L314.411,202.145L360.813,202.145L360.813,198.867C356.76,198.867 353.518,198.32 351.492,197.228C349.263,196.317 347.642,194.86 346.832,193.403C345.616,191.035 345.008,187.574 345.008,183.02L345.008,144.041C348.25,138.395 351.289,134.388 354.126,132.02C355.545,130.745 356.76,130.198 357.976,130.198C359.394,130.198 361.421,131.291 364.258,133.295C367.297,135.298 369.729,136.391 371.957,136.391C374.389,136.391 376.415,135.663 378.036,134.023C379.86,132.384 380.67,130.38 380.67,128.012C380.67,125.462 379.455,123.095 377.226,121.091C374.794,119.087 371.755,118.177 368.107,118.177C360.205,118.177 352.505,124.37 345.008,136.573L345.008,118.177L340.753,118.177Z" style="fill:rgb(86,45,135);fill-rule:nonzero;"/>
        <path d="M440.042,200.506C441.866,202.51 444.5,203.603 447.742,203.603C454.428,203.603 461.52,199.049 469.018,190.124L469.018,185.206C464.965,188.667 462.331,190.853 460.913,191.763C460.102,192.128 459.292,192.31 458.278,192.31C457.265,192.31 456.252,191.945 455.644,191.399C454.834,190.853 454.226,189.577 453.821,187.938C453.618,186.117 453.415,181.381 453.415,173.731L453.415,146.045C453.415,138.213 452.807,132.93 451.592,130.38C449.768,126.555 446.931,123.641 443.081,121.82C437.813,119.452 431.329,118.177 423.224,118.177C412.687,118.177 404.582,120.362 398.706,124.552C392.83,128.923 389.993,133.477 389.993,138.759C389.993,141.309 390.803,143.495 392.424,144.952C393.843,146.591 395.869,147.32 398.301,147.32C400.935,147.32 402.961,146.591 404.379,145.134C406,143.677 406.811,141.491 406.811,138.759L406.608,133.659C406.608,130.927 407.824,128.741 410.458,126.737C412.89,124.734 416.132,123.641 420.184,123.641C425.655,123.641 429.91,125.098 432.747,128.195C435.584,131.109 437.002,136.755 437.002,144.77L437.002,148.048C421.4,153.148 410.256,157.52 403.569,160.981C396.882,164.624 392.222,168.449 389.588,172.456C387.561,175.37 386.548,178.831 386.548,182.838C386.548,189.031 388.574,194.131 392.627,197.956C396.679,201.781 401.948,203.785 408.027,203.785C412.079,203.785 415.929,203.056 419.576,201.599C421.805,200.506 427.682,196.863 437.002,190.306C437.002,195.224 438.016,198.503 440.042,200.506ZM417.145,193.403C413.295,193.403 410.053,191.945 407.216,189.213C404.379,186.299 402.961,182.838 402.961,178.649C402.961,175.188 404.177,172.092 406.406,169.177C408.635,166.445 412.282,163.713 417.55,160.981C420.59,159.524 427.074,157.156 437.002,153.513L437.002,184.477C428.695,190.488 422.211,193.403 417.145,193.403Z" style="fill:rgb(86,45,135);fill-rule:nonzero;"/>
        <path d="M491.681,78.105C489.858,79.926 488.844,82.112 488.844,84.48C488.844,87.03 489.858,89.216 491.884,90.855C493.707,92.676 496.139,93.587 498.976,93.587C501.61,93.587 504.042,92.676 506.068,90.855C507.891,89.216 508.905,87.03 508.905,84.48C508.905,82.112 507.891,79.926 506.068,78.105C504.042,76.465 501.61,75.555 498.976,75.555C496.139,75.555 493.707,76.465 491.681,78.105ZM502.826,118.177L475.471,128.195L476.889,131.473C479.524,130.562 481.752,130.198 483.576,130.198C485.197,130.198 486.615,130.562 487.629,131.291C488.642,132.02 489.25,133.295 489.858,135.116C490.465,137.848 490.668,143.495 490.668,152.238L490.668,183.749C490.668,188.667 490.263,192.128 489.25,193.949C488.439,195.77 487.223,196.863 485.805,197.774C484.184,198.503 481.347,198.867 476.889,198.867L476.889,202.145L520.86,202.145L520.86,198.867C516.604,198.867 513.565,198.503 511.944,197.592C510.323,196.863 509.107,195.588 508.297,193.949C507.486,192.128 507.081,188.849 507.081,183.749L507.081,118.177L502.826,118.177Z" style="fill:rgb(86,45,135);fill-rule:nonzero;"/>
        <path d="M543.317,184.113C541.494,187.027 540.48,189.395 540.48,191.581C540.48,193.403 541.088,195.042 542.507,196.499C543.925,197.956 546.357,199.595 549.801,201.417C543.52,207.246 540.278,210.524 539.872,211.071C536.225,214.896 533.996,217.992 532.781,220.178C532.173,221.635 531.767,223.092 531.767,224.549C531.767,227.646 534.199,230.742 539.265,233.657C547.978,238.939 558.717,241.489 571.482,241.489C587.895,241.489 601.471,237.117 611.603,228.557C618.695,222.546 622.139,216.353 622.139,209.613C622.139,204.696 620.316,200.688 616.669,197.41C613.021,193.949 608.158,191.945 601.877,191.217C597.824,190.67 589.111,190.124 575.535,189.942C568.038,189.76 563.58,189.395 561.756,189.213C558.514,188.849 556.285,188.12 555.272,187.21C554.259,186.299 553.651,185.206 553.651,184.295C553.651,183.02 554.259,181.563 555.272,179.924C556.285,178.102 558.109,176.281 561.148,173.913C565.809,175.188 570.267,175.734 574.725,175.734C585.666,175.734 594.177,173.002 600.661,167.72C607.145,162.256 610.387,155.699 610.387,148.231C610.387,141.491 608.563,136.027 604.916,131.838L616.669,131.838C619.505,131.838 621.126,131.838 621.532,131.655C622.139,131.473 622.545,131.109 622.747,130.927C622.95,130.198 623.153,129.105 623.153,127.648C623.153,126.373 622.95,125.28 622.545,124.734C622.342,124.37 621.937,124.187 621.532,124.005C621.126,123.823 619.505,123.823 616.669,123.823L597.419,123.823C591.137,119.998 583.64,118.177 575.13,118.177C564.593,118.177 555.88,121.091 549.193,126.92C542.507,132.748 539.062,139.67 539.062,147.684C539.062,152.966 540.48,157.702 543.52,162.074C546.559,166.445 550.612,169.906 556.285,172.274C549.396,177.374 545.141,181.381 543.317,184.113ZM586.274,128.377C590.935,133.659 593.164,141.127 593.164,150.416C593.164,157.702 591.543,162.984 588.301,166.263C585.059,169.724 581.006,171.363 575.94,171.363C570.672,171.363 566.417,169.359 562.972,165.534C558.514,160.434 556.285,153.148 556.285,143.859C556.285,136.573 557.906,131.291 561.148,127.83C564.593,124.37 568.646,122.548 573.509,122.548C578.777,122.548 583.032,124.552 586.274,128.377ZM589.516,204.149C599.648,204.331 606.334,205.242 609.779,206.517C613.224,207.792 614.845,209.978 614.845,213.074C614.845,217.264 612.008,221.271 606.334,225.096C600.864,228.921 591.948,230.742 580.195,230.742C567.835,230.742 558.312,228.921 551.625,225.278C547.775,223.092 545.951,220.542 545.951,217.81C545.951,215.624 546.762,213.256 548.383,210.524C549.801,207.974 552.233,205.242 555.272,202.145C563.175,203.056 574.725,203.785 589.516,204.149Z" style="fill:rgb(86,45,135);fill-rule:nonzero;"/>
        <path d="M688.602,118.177C687.791,119.634 687.183,120.545 686.575,120.909C685.967,121.455 685.157,121.637 684.144,121.637C682.928,121.637 680.699,121.091 677.254,120.18C672.189,118.905 667.933,118.177 664.489,118.177C656.384,118.177 649.697,120.362 644.631,124.916C639.566,129.47 636.931,135.116 636.931,141.855C636.931,146.956 638.35,151.145 641.389,154.606C644.226,158.066 650.507,161.891 660.234,166.081C669.757,170.452 676.039,173.913 679.281,176.645C682.523,179.377 684.144,182.838 684.144,187.027C684.144,190.306 682.725,193.22 679.889,195.588C677.052,197.956 673.202,199.231 668.744,199.231C662.26,199.231 656.384,197.045 651.115,192.856C646.05,188.667 642.402,182.474 640.579,174.095L637.337,174.095L637.337,203.238L640.579,203.238C641.389,201.781 642.605,201.053 644.226,201.053C645.442,201.053 647.265,201.417 649.494,201.963C656.586,203.603 662.868,204.513 668.541,204.513C676.241,204.513 683.131,202.328 689.412,197.774C695.693,193.22 698.733,187.21 698.733,179.742C698.733,170.27 692.046,162.438 678.673,156.609L664.286,150.234C658.005,147.502 653.749,144.952 651.723,142.584C649.697,140.216 648.684,137.302 648.684,134.023C648.684,131.291 650.102,128.923 652.939,126.737C655.776,124.552 659.423,123.459 664.084,123.459C670.162,123.459 675.025,125.098 679.078,128.195C682.928,131.291 686.17,137.12 688.602,145.863L691.844,145.863L691.844,118.177L688.602,118.177Z" style="fill:rgb(86,45,135);fill-rule:nonzero;"/>
        <path d="M739.088,75.555L712.139,85.573L713.76,88.851C716.394,87.941 718.623,87.394 720.244,87.394C721.865,87.394 723.283,87.758 724.296,88.669C725.309,89.398 725.917,90.855 726.525,92.858C726.93,94.862 727.133,100.509 727.133,109.616L727.133,183.749C727.133,188.667 726.728,192.128 725.917,193.949C724.904,195.77 723.891,196.863 722.27,197.774C720.852,198.503 718.015,198.867 713.76,198.867L713.76,202.145L758.135,202.145L758.135,198.867C753.475,198.867 750.233,198.503 748.612,197.592C746.788,196.681 745.572,195.406 744.762,193.767C743.951,192.128 743.546,188.849 743.546,183.749L743.546,75.555L739.088,75.555Z" style="fill:rgb(86,45,135);fill-rule:nonzero;"/>
        <path d="M784.443,78.105C782.619,79.926 781.606,82.112 781.606,84.48C781.606,87.03 782.619,89.216 784.645,90.855C786.469,92.676 788.9,93.587 791.737,93.587C794.371,93.587 796.803,92.676 798.829,90.855C800.653,89.216 801.666,87.03 801.666,84.48C801.666,82.112 800.653,79.926 798.829,78.105C796.803,76.465 794.371,75.555 791.737,75.555C788.9,75.555 786.469,76.465 784.443,78.105ZM795.587,118.177L768.232,128.195L769.651,131.473C772.285,130.562 774.514,130.198 776.338,130.198C777.959,130.198 779.377,130.562 780.39,131.291C781.403,132.02 782.011,133.295 782.619,135.116C783.227,137.848 783.43,143.495 783.43,152.238L783.43,183.749C783.43,188.667 783.024,192.128 782.011,193.949C781.201,195.77 779.985,196.863 778.566,197.774C776.945,198.503 774.109,198.867 769.651,198.867L769.651,202.145L813.621,202.145L813.621,198.867C809.366,198.867 806.327,198.503 804.705,197.592C803.084,196.863 801.869,195.588 801.058,193.949C800.248,192.128 799.842,188.849 799.842,183.749L799.842,118.177L795.587,118.177Z" style="fill:rgb(86,45,135);fill-rule:nonzero;"/>
        <path d="M880.049,118.177C879.238,119.634 878.631,120.545 878.023,120.909C877.415,121.455 876.604,121.637 875.591,121.637C874.375,121.637 872.146,121.091 868.702,120.18C863.636,118.905 859.381,118.177 855.936,118.177C847.831,118.177 841.144,120.362 836.079,124.916C831.013,129.47 828.379,135.116 828.379,141.855C828.379,146.956 829.797,151.145 832.837,154.606C835.673,158.066 841.955,161.891 851.681,166.081C861.205,170.452 867.486,173.913 870.728,176.645C873.97,179.377 875.591,182.838 875.591,187.027C875.591,190.306 874.173,193.22 871.336,195.588C868.499,197.956 864.649,199.231 860.191,199.231C853.707,199.231 847.831,197.045 842.563,192.856C837.497,188.667 833.85,182.474 832.026,174.095L828.784,174.095L828.784,203.238L832.026,203.238C832.837,201.781 834.052,201.053 835.673,201.053C836.889,201.053 838.713,201.417 840.942,201.963C848.034,203.603 854.315,204.513 859.989,204.513C867.689,204.513 874.578,202.328 880.859,197.774C887.141,193.22 890.18,187.21 890.18,179.742C890.18,170.27 883.494,162.438 870.12,156.609L855.734,150.234C849.452,147.502 845.197,144.952 843.171,142.584C841.144,140.216 840.131,137.302 840.131,134.023C840.131,131.291 841.55,128.923 844.386,126.737C847.223,124.552 850.871,123.459 855.531,123.459C861.61,123.459 866.473,125.098 870.525,128.195C874.375,131.291 877.617,137.12 880.049,145.863L883.291,145.863L883.291,118.177L880.049,118.177Z" style="fill:rgb(86,45,135);fill-rule:nonzero;"/>
        <path d="M927.091,93.769C924.457,99.78 922.228,103.969 920.607,106.155C917.77,110.344 914.325,114.169 910.475,117.084C906.625,120.18 902.978,122.366 899.331,123.641L899.331,126.555L913.717,126.555L913.717,181.563C913.717,187.392 914.325,191.763 915.744,194.678C917.162,197.41 919.391,199.595 922.228,201.053C925.065,202.692 928.104,203.421 931.143,203.421C935.601,203.421 940.059,201.963 944.314,199.049C948.367,195.953 951.812,191.581 954.04,185.752L950.191,185.752C948.975,188.12 947.556,189.942 945.53,191.217C943.504,192.492 941.275,193.038 939.046,193.038C936.412,193.038 934.386,192.128 932.562,190.306C930.941,188.485 930.13,184.842 930.13,179.56L930.13,126.737L951.204,126.555L951.204,120.545L930.13,120.545L930.13,93.769L927.091,93.769Z" style="fill:rgb(86,45,135);fill-rule:nonzero;"/>
        <path d="M116.213,95.986L116.213,151.341L77.094,190.463C68.979,180.046 64.695,167.591 64.695,154.385C64.695,124.608 86.779,99.656 116.213,95.986ZM116.213,172.123L116.213,212.785C105.747,211.473 95.848,207.362 87.484,200.851L116.213,172.123ZM130.909,212.785L130.909,172.123L159.639,200.851C151.273,207.362 141.375,211.473 130.909,212.785ZM130.909,151.341L130.909,95.986C160.343,99.656 182.427,124.608 182.427,154.385C182.427,167.593 178.143,180.048 170.028,190.463L130.909,151.341ZM123.562,80.824C82.999,80.824 50,113.823 50,154.385C50,194.947 82.999,227.946 123.562,227.946C164.123,227.946 197.123,194.947 197.123,154.385C197.123,113.823 164.123,80.824 123.562,80.824Z" style="fill:rgb(86,45,135);fill-rule:nonzero;"/>
    </g>
</svg>
