<svg id="Layer_1" data-name="Layer 1" xmlns="http://www.w3.org/2000/svg" viewBox="0 0 432 60.14"><defs><style>.cls-1{fill:#fdfefe;}.cls-2{fill:#2e7978;}.cls-3{fill:#143e51;}.cls-4{fill:#133d50;}.cls-5{fill:#3a9898;}.cls-6{fill:#255a5a;}.cls-7{fill:#143d50;}.cls-8{fill:#153e51;}.cls-9{fill:#133d4f;}.cls-10{fill:#163f52;}.cls-11{fill:#174052;}.cls-12{fill:#fdfdfd;}.cls-13{fill:#fefefe;}.cls-14{fill:#143e50;}.cls-15{fill:#fbfdfd;}.cls-16{fill:#b8dada;}.cls-17{fill:#214759;}.cls-18{fill:#92c6c6;}.cls-19{fill:#83bfbe;}.cls-20{fill:#fcfcfd;}.cls-21{fill:#fbfbfc;}.cls-22{fill:#fcfdfd;}.cls-23{fill:#f8f9fa;}</style></defs><title>Full-Logo</title><path class="cls-1" d="M271.27,246.28H253.48c1-.25,1.95-0.47,2.9-0.76,10.92-3.34,13.19-16.53,7.74-24.29-3.69-5.25-10.77-7.58-17.56-5.77-6.46,1.72-10.58,6.71-11.17,13.91s3.41,14.36,11.26,16.38c0.59,0.15,1.17.35,1.75,0.53H227.65l0.54-.21c1.11-.42,2.23-0.82,3.32-1.3a0.93,0.93,0,0,0,.41-0.8c-0.46-1.84-1-3.66-1.49-5.43-0.58.22-1.06,0.44-1.57,0.57-2.19.56-3.59-.4-3.89-2.62a7.28,7.28,0,0,1,0-1q0-5.5,0-11v-1.11h6v-6.82h-6v-9a3.17,3.17,0,0,0-3.73,1.39c-2.65,3.78-5.48,7.44-8.32,11.08a4,4,0,0,0-.71,3.45H217c0,0.51,0,.9,0,1.29,0,4.69,0,9.39,0,14.08,0.06,3.83,2.1,6.26,5.81,7.16a3.36,3.36,0,0,1,.54.23H199.06a4.42,4.42,0,0,1,.66-0.21,13.62,13.62,0,0,0,6.91-2.93c4.11-3.46,4.08-11.31-1.56-14a33.27,33.27,0,0,0-5.25-1.87c-2.06-.59-4.18-1-6.25-1.55a2,2,0,0,1-1.72-1.76,2.21,2.21,0,0,1,1.48-2.24,10.06,10.06,0,0,1,3.25-.75A17.33,17.33,0,0,1,205,222.7l3.79-5.06A26,26,0,0,0,194,215.07a12.56,12.56,0,0,0-6.43,2.47c-4.74,3.54-4.86,11.75,1.62,14.34a64.48,64.48,0,0,0,6.47,1.9,46.14,46.14,0,0,1,4.76,1.33c1.91,0.77,2,2.89.35,4.1a3.28,3.28,0,0,1-1.52.68,27.8,27.8,0,0,1-4.73.11,20.62,20.62,0,0,1-7.95-2.52L183.21,243a17.68,17.68,0,0,0,5.85,2.48c1.28,0.31,2.57.56,3.86,0.84H162.42a2.09,2.09,0,0,1,.45-0.18,13.68,13.68,0,0,0,7.57-3.68c0.16-.15.35-0.29,0.68-0.56v3.61h7.74V215.7h-7.79v0.81c0,5.72-.12,11.44.06,17.15A4.36,4.36,0,0,1,168.6,238a10.48,10.48,0,0,1-2.12.92c-4.79,1.41-7.68-.75-7.7-5.7,0-.18,0-0.35,0-0.53q0-7.94,0-15.88v-1.17h-7.9v1.2c0,4.13,0,8.26,0,12.38,0,3,0,6,.11,9,0.19,4.15,2.6,6.87,6.65,7.78a7.92,7.92,0,0,1,.76.25H131.93a0.92,0.92,0,0,1,.32-0.2,17.6,17.6,0,0,0,9.24-3.83,20.32,20.32,0,0,0,5.11-6.14l-7.47-3.61c-0.49.69-.89,1.36-1.39,1.95-5,6-14.85,5.2-19.09-1.72a14.06,14.06,0,0,1,.18-15.88c4.18-6.46,13.42-7.32,18.49-1.88,0.66,0.71,1.2,1.54,1.84,2.37l7.46-3.68c-3.56-6.05-8.62-9.52-15.59-10-12-.85-22.35,6.71-23.55,18.91-1.05,10.74,5,20.13,15.5,22.89,1.14,0.3,2.29.55,3.43,0.82H80.89a0.6,0.6,0,0,1,.21-0.19A11.17,11.17,0,0,0,90,235.77c0.33-6.65.14-13.32,0.17-20,0-.21,0-0.42,0-0.63q0-12,0-24c0-.16,0-0.32,0-0.62-0.44.28-.76,0.48-1.07,0.69L46,221.11a7.88,7.88,0,0,1-1.09.54,0.27,0.27,0,0,0-.05-0.09c-5.7-4-11.39-8-17.11-11.89a1.32,1.32,0,0,0-1.17.11c-1.77,1.16-3.48,2.4-5.23,3.6q-3.79,2.6-7.59,5.19c0-5.89,0-11.77,0-17.66a1.55,1.55,0,0,0-.75-1.47c-2.53-1.72-5-3.51-7.55-5.25C3.8,193,2.1,191.92.41,190.78a0.24,0.24,0,0,0-.2,0c0-1.41,0-2.82,0-4.24a1.18,1.18,0,0,1,.2-0.42,8.06,8.06,0,0,0,.75.67c5.12,3.56,10.23,7.13,15.38,10.65a1.69,1.69,0,0,1,.83,1.63c0,3.88,0,7.76,0,11.64,0,0.29,0,.59.05,1,3.07-2.12,6-4.14,9-6.22a1.25,1.25,0,0,1,1.73,0c5.34,3.74,10.72,7.42,16,11.18a1.5,1.5,0,0,0,2.08,0q15.83-11,31.7-22c4-2.75,7.91-5.52,11.86-8.29l0.22-.21H432.21q0,30.09,0,60.14H418.45a0.58,0.58,0,0,1,.21-0.19,14.87,14.87,0,0,0,13.21-13.31c0.87-6.68-2.18-13.09-7.82-16.06-6-3.16-14.16-2.22-18.87,2.24-3.87,3.67-5.14,8.29-4.72,13.47a14.86,14.86,0,0,0,11,13.24c0.69,0.19,1.38.4,2.07,0.6H396.21c0-.39,0-0.77,0-1.16q0-13.75,0-27.51v-1.17h-7.91v1.29q0,13.65,0,27.3c0,0.42-.06.83-0.09,1.25H377.58a2.52,2.52,0,0,1,.42-0.21,5,5,0,1,0-6.13-5.92,5,5,0,0,0,3.28,5.79c0.25,0.09.49,0.23,0.73,0.34H363.18a1.84,1.84,0,0,1-.05-0.31c0-6.28,0-12.56,0-18.85a2.15,2.15,0,0,1,.65-1.34,8.7,8.7,0,0,1,4.65-2.35,41.07,41.07,0,0,1,4.11-.33v-7.48a13.27,13.27,0,0,0-9.43,4.72v-3.87h-7.92v1.23q0,13.71,0,27.42c0,0.38,0,.77-0.07,1.15H339c0.6-.14,1.19-0.29,1.79-0.42a16.56,16.56,0,0,0,8-3.74l-3.3-4.83a38.27,38.27,0,0,1-4.54,2.1c-3.31,1-6.56,1-9.43-1.29a7,7,0,0,1-2.71-5h22.11c0-1,0-1.86,0-2.74s-0.12-1.62-.23-2.42a14.68,14.68,0,0,0-18.27-12.64c-7.07,1.63-11.62,7.31-11.91,14.89A15,15,0,0,0,332,245.76c0.59,0.15,1.17.35,1.76,0.52H316.16c0-1.55,0-3.1,0-4.65,0-6,0-12.07-.06-18.1-0.06-3.8-2.13-6.55-5.44-7.46a11.72,11.72,0,0,0-5.66-.17,13,13,0,0,0-7.9,5.11,7.47,7.47,0,0,0-5.18-5,11.26,11.26,0,0,0-5.55-.14,14,14,0,0,0-7.36,4.26v-3.7h-7.84c0,2.4,0,4.72,0,7.05Q271.25,234.9,271.27,246.28Zm125.6-37.8a4.69,4.69,0,0,0-9.38,0A4.69,4.69,0,1,0,396.87,208.48Z" transform="translate(-0.21 -186.14)"/><path class="cls-2" d="M44.91,221.65a7.88,7.88,0,0,0,1.09-.54l43.05-29.89c0.31-.21.63-0.41,1.07-0.69,0,0.31,0,.46,0,0.62q0,12,0,24c0,0.21,0,.42,0,0.63a8.32,8.32,0,0,0-1.21.58q-10.65,7.4-21.29,14.83c-6.23,4.33-12.49,8.64-18.72,13-0.9.63-1.69,1.39-2.54,2.1h-36a8,8,0,0,1,1-1c2.53-1.78,5.07-3.54,7.61-5.3q11.78-8.17,23.55-16.35C43.38,223,44.13,222.31,44.91,221.65Z" transform="translate(-0.21 -186.14)"/><path class="cls-3" d="M89.78,186.35c-4,2.76-7.9,5.54-11.86,8.29q-15.85,11-31.7,22a1.5,1.5,0,0,1-2.08,0c-5.32-3.76-10.7-7.44-16-11.18a1.25,1.25,0,0,0-1.73,0c-2.92,2.08-5.89,4.1-9,6.22,0-.41-0.05-0.71-0.05-1,0-3.88,0-7.76,0-11.64a1.69,1.69,0,0,0-.83-1.63c-5.14-3.53-10.26-7.09-15.38-10.65a8.06,8.06,0,0,1-.75-0.67H64a6,6,0,0,0,1.1.2H89.78ZM29.11,201.72c0.43,0.32.69,0.53,1,.73,4.75,3.3,9.5,6.58,14.23,9.9a1.3,1.3,0,0,0,1.74,0q16.36-10.8,32.75-21.55c0.26-.17.5-0.35,0.76-0.53l-0.07-.18Zm-17.2-11.94c0.47,0.36.73,0.57,1,.76,2.54,1.77,5.07,3.57,7.65,5.29a2.75,2.75,0,0,0,1.74.43c7.75-1,15.49-2.13,23.24-3.21l23.76-3.31,7.7-1.09,0-.23Z" transform="translate(-0.21 -186.14)"/><path class="cls-4" d="M271.27,246.28q0-11.38,0-22.76c0-2.33,0-4.65,0-7.05h7.84v3.7a14,14,0,0,1,7.36-4.26A11.26,11.26,0,0,1,292,216a7.47,7.47,0,0,1,5.18,5,13,13,0,0,1,7.9-5.11,11.72,11.72,0,0,1,5.66.17c3.31,0.91,5.38,3.66,5.44,7.46,0.09,6,0,12.07.06,18.1,0,1.55,0,3.1,0,4.65h-7.84q0-9.2,0-18.4a10.73,10.73,0,0,0-.21-2.2,3.59,3.59,0,0,0-3.2-2.93,7.14,7.14,0,0,0-6.58,2.6,2.58,2.58,0,0,0-.6,1.58c0,5.29,0,10.58,0,15.86,0,1.16,0,2.32.06,3.48h-8q0-6.13,0-12.26c0-2.4,0-4.79,0-7.19a4,4,0,0,0-4.72-4.18,7.51,7.51,0,0,0-5.26,2.8,2.51,2.51,0,0,0-.58,1.48c0,6.45,0,12.89,0,19.34h-7.84Z" transform="translate(-0.21 -186.14)"/><path class="cls-5" d="M44.91,221.65c-0.79.66-1.53,1.39-2.37,2Q30.78,231.81,19,240c-2.54,1.76-5.09,3.52-7.61,5.3a8,8,0,0,0-1,1H9.53a1.12,1.12,0,0,0-.34-0.2c-5.27-.92-8.52-6.57-8.8-10.57q0-3.73,0-7.45l0.06-.17a0.66,0.66,0,0,0,.2-0.06q5.09-3.54,10.18-7.09c1-.7,2-1.45,2.94-2.18q3.8-2.59,7.59-5.19c1.74-1.2,3.46-2.44,5.23-3.6a1.32,1.32,0,0,1,1.17-.11c5.72,3.94,11.42,7.92,17.11,11.89A0.27,0.27,0,0,1,44.91,221.65Z" transform="translate(-0.21 -186.14)"/><path class="cls-4" d="M126.42,246.28c-1.14-.27-2.3-0.52-3.43-0.82-10.53-2.77-16.55-12.15-15.5-22.89,1.19-12.2,11.57-19.76,23.55-18.91,7,0.49,12,4,15.59,10l-7.46,3.68c-0.64-.83-1.18-1.66-1.84-2.37-5.07-5.44-14.31-4.57-18.49,1.88a14.06,14.06,0,0,0-.18,15.88c4.24,6.92,14.07,7.71,19.09,1.72,0.49-.59.9-1.25,1.39-1.95l7.47,3.61a20.32,20.32,0,0,1-5.11,6.14,17.6,17.6,0,0,1-9.24,3.83,0.92,0.92,0,0,0-.32.2h-5.51Z" transform="translate(-0.21 -186.14)"/><path class="cls-6" d="M46.38,246.28c0.84-.7,1.64-1.47,2.54-2.1,6.23-4.34,12.48-8.65,18.72-13q10.65-7.4,21.29-14.83a8.32,8.32,0,0,1,1.21-.58c0,6.66.16,13.33-.17,20a11.17,11.17,0,0,1-8.85,10.32,0.6,0.6,0,0,0-.21.19H46.38Z" transform="translate(-0.21 -186.14)"/><path class="cls-4" d="M248.4,246.28c-0.58-.18-1.16-0.38-1.75-0.53-7.85-2-11.86-9.1-11.26-16.38s4.71-12.18,11.17-13.91c6.79-1.81,13.87.52,17.56,5.77,5.45,7.76,3.18,20.94-7.74,24.29-1,.29-1.93.51-2.9,0.76H248.4Zm-5-15.72c0.11,0.84.16,1.66,0.32,2.45a7.4,7.4,0,0,0,7.07,6.27c3.7,0.09,6.49-2.08,7.54-5.83a10.91,10.91,0,0,0,.15-5.23,7.46,7.46,0,0,0-7.17-6.3,7.31,7.31,0,0,0-7.55,6.06C243.61,228.83,243.56,229.72,243.45,230.56Z" transform="translate(-0.21 -186.14)"/><path class="cls-4" d="M413.58,246.28c-0.69-.2-1.38-0.41-2.07-0.6a14.86,14.86,0,0,1-11-13.24c-0.42-5.18.84-9.81,4.72-13.47,4.71-4.46,12.86-5.4,18.87-2.24,5.64,3,8.69,9.38,7.82,16.06a14.87,14.87,0,0,1-13.21,13.31,0.58,0.58,0,0,0-.21.19h-4.87Zm10.33-15.47c-0.16-1.13-.21-2-0.4-2.8a7.39,7.39,0,0,0-6.9-6.09,7.25,7.25,0,0,0-7.62,5.55,10.8,10.8,0,0,0,.15,6.65,7.36,7.36,0,0,0,14,.11A27.79,27.79,0,0,0,423.91,230.81Z" transform="translate(-0.21 -186.14)"/><path class="cls-7" d="M333.74,246.28c-0.59-.17-1.17-0.37-1.76-0.52a15,15,0,0,1-11.49-15.59c0.29-7.57,4.84-13.26,11.91-14.89a14.68,14.68,0,0,1,18.27,12.64c0.11,0.8.19,1.61,0.23,2.42s0,1.76,0,2.74H328.8a7,7,0,0,0,2.71,5c2.87,2.25,6.13,2.33,9.43,1.29a38.27,38.27,0,0,0,4.54-2.1l3.3,4.83a16.56,16.56,0,0,1-8,3.74c-0.6.12-1.19,0.28-1.79,0.42h-5.29Zm9.47-18.56c0.16-3.6-3.14-6.58-7.22-6.58s-7.43,3.17-7.22,6.58h14.45Z" transform="translate(-0.21 -186.14)"/><path class="cls-8" d="M158.4,246.28a7.92,7.92,0,0,0-.76-0.25c-4-.9-6.46-3.63-6.65-7.78-0.14-3-.1-6-0.11-9,0-4.13,0-8.26,0-12.38v-1.2h7.9v1.17q0,7.94,0,15.88c0,0.18,0,.35,0,0.53,0,5,2.91,7.11,7.7,5.7a10.48,10.48,0,0,0,2.12-.92,4.36,4.36,0,0,0,2.55-4.38c-0.18-5.71-.06-11.43-0.06-17.15V215.7h7.79v29.77h-7.74v-3.61c-0.33.27-.52,0.4-0.68,0.56a13.68,13.68,0,0,1-7.57,3.68,2.09,2.09,0,0,0-.45.18h-4Z" transform="translate(-0.21 -186.14)"/><path class="cls-7" d="M192.92,246.28c-1.29-.28-2.58-0.53-3.86-0.84a17.68,17.68,0,0,1-5.85-2.48l3.38-5.48a20.62,20.62,0,0,0,7.95,2.52,27.8,27.8,0,0,0,4.73-.11,3.28,3.28,0,0,0,1.52-.68c1.69-1.21,1.56-3.34-.35-4.1a46.14,46.14,0,0,0-4.76-1.33,64.48,64.48,0,0,1-6.47-1.9c-6.49-2.59-6.36-10.8-1.62-14.34a12.56,12.56,0,0,1,6.43-2.47,26,26,0,0,1,14.76,2.57L205,222.7a17.33,17.33,0,0,0-8.41-1.76,10.06,10.06,0,0,0-3.25.75,2.21,2.21,0,0,0-1.48,2.24,2,2,0,0,0,1.72,1.76c2.07,0.58,4.19,1,6.25,1.55a33.27,33.27,0,0,1,5.25,1.87c5.64,2.73,5.67,10.58,1.56,14a13.62,13.62,0,0,1-6.91,2.93,4.42,4.42,0,0,0-.66.21h-6.14Z" transform="translate(-0.21 -186.14)"/><path class="cls-9" d="M223.41,246.28a3.36,3.36,0,0,0-.54-0.23c-3.71-.9-5.75-3.33-5.81-7.16-0.07-4.69,0-9.39,0-14.08,0-.39,0-0.77,0-1.29h-4.87a4,4,0,0,1,.71-3.45c2.84-3.64,5.66-7.3,8.32-11.08a3.17,3.17,0,0,1,3.73-1.39v9h6v6.82h-6v1.11q0,5.5,0,11a7.28,7.28,0,0,0,0,1c0.3,2.22,1.7,3.18,3.89,2.62,0.5-.13,1-0.36,1.57-0.57,0.5,1.78,1,3.6,1.49,5.43a0.93,0.93,0,0,1-.41.8c-1.08.48-2.21,0.87-3.32,1.3l-0.54.21h-4.24Z" transform="translate(-0.21 -186.14)"/><path class="cls-10" d="M355.13,246.28c0-.38.07-0.77,0.07-1.15q0-13.71,0-27.42v-1.23h7.92v3.87a13.27,13.27,0,0,1,9.43-4.72v7.48a41.07,41.07,0,0,0-4.11.33,8.7,8.7,0,0,0-4.65,2.35,2.15,2.15,0,0,0-.65,1.34c0,6.28,0,12.56,0,18.85a1.84,1.84,0,0,0,.05.31h-8Z" transform="translate(-0.21 -186.14)"/><path class="cls-11" d="M388.16,246.28c0-.42.09-0.83,0.09-1.25q0-13.65,0-27.3v-1.29h7.91v1.17q0,13.75,0,27.51c0,0.39,0,.77,0,1.16h-8Z" transform="translate(-0.21 -186.14)"/><path class="cls-12" d="M297.74,246.28c0-1.16-.06-2.32-0.06-3.48,0-5.29,0-10.58,0-15.86a2.58,2.58,0,0,1,.6-1.58,7.14,7.14,0,0,1,6.58-2.6,3.59,3.59,0,0,1,3.2,2.93,10.73,10.73,0,0,1,.21,2.2q0,9.2,0,18.4H297.74Z" transform="translate(-0.21 -186.14)"/><path class="cls-13" d="M279.11,246.28c0-6.45,0-12.89,0-19.34a2.51,2.51,0,0,1,.58-1.48,7.51,7.51,0,0,1,5.26-2.8,4,4,0,0,1,4.72,4.18c0.07,2.39,0,4.79,0,7.19q0,6.13,0,12.26H279.11Z" transform="translate(-0.21 -186.14)"/><path class="cls-14" d="M375.88,246.28c-0.24-.11-0.48-0.24-0.73-0.34a5,5,0,0,1-3.28-5.79,5,5,0,1,1,6.13,5.92,2.52,2.52,0,0,0-.42.21h-1.69Z" transform="translate(-0.21 -186.14)"/><path class="cls-15" d="M0.39,235.51c0.28,4,3.53,9.65,8.8,10.57a1.12,1.12,0,0,1,.34.2H0.21v-10.8Z" transform="translate(-0.21 -186.14)"/><path class="cls-16" d="M0.44,227.88l-0.06.17-0.18,0V190.8a0.24,0.24,0,0,1,.2,0c0,1.62,0,3.24,0,4.86Q0.44,211.76.44,227.88Z" transform="translate(-0.21 -186.14)"/><path class="cls-17" d="M89.78,186.35H65a6,6,0,0,1-1.1-.2H90Z" transform="translate(-0.21 -186.14)"/><path class="cls-18" d="M0.21,228.07l0.18,0q0,3.73,0,7.45l-0.18,0v-7.41Z" transform="translate(-0.21 -186.14)"/><path class="cls-19" d="M0.44,227.88q0-16.12,0-32.23c0-1.62,0-3.24,0-4.86,1.69,1.13,3.39,2.25,5.07,3.4,2.52,1.74,5,3.52,7.55,5.25a1.55,1.55,0,0,1,.75,1.47c0,5.89,0,11.77,0,17.66-1,.73-1.94,1.48-2.94,2.18Q5.75,224.3.65,227.82A0.66,0.66,0,0,1,.44,227.88Z" transform="translate(-0.21 -186.14)"/><path class="cls-7" d="M396.87,208.48a4.69,4.69,0,1,1-9.38,0A4.69,4.69,0,0,1,396.87,208.48Z" transform="translate(-0.21 -186.14)"/><path class="cls-20" d="M29.11,201.72L79.5,190.1l0.07,0.18c-0.25.18-.5,0.36-0.76,0.53q-16.38,10.77-32.75,21.55a1.3,1.3,0,0,1-1.74,0c-4.73-3.33-9.48-6.61-14.23-9.9C29.81,202.25,29.54,202,29.11,201.72Z" transform="translate(-0.21 -186.14)"/><path class="cls-21" d="M11.91,189.78L77,188.41l0,0.23-7.7,1.09L45.55,193c-7.75,1.08-15.49,2.17-23.24,3.21a2.75,2.75,0,0,1-1.74-.43c-2.58-1.72-5.11-3.52-7.65-5.29C12.64,190.35,12.38,190.13,11.91,189.78Z" transform="translate(-0.21 -186.14)"/><path class="cls-12" d="M243.45,230.56c0.12-.85.16-1.73,0.37-2.58a7.31,7.31,0,0,1,7.55-6.06,7.46,7.46,0,0,1,7.17,6.3,10.91,10.91,0,0,1-.15,5.23c-1,3.75-3.84,5.92-7.54,5.83a7.4,7.4,0,0,1-7.07-6.27C243.61,232.22,243.56,231.41,243.45,230.56Z" transform="translate(-0.21 -186.14)"/><path class="cls-22" d="M423.91,230.81a27.79,27.79,0,0,1-.76,3.43,7.36,7.36,0,0,1-14-.11,10.8,10.8,0,0,1-.15-6.65,7.25,7.25,0,0,1,7.62-5.55,7.39,7.39,0,0,1,6.9,6.09C423.7,228.83,423.75,229.68,423.91,230.81Z" transform="translate(-0.21 -186.14)"/><path class="cls-23" d="M343.21,227.73H328.76c-0.2-3.41,3.28-6.58,7.22-6.58S343.37,224.13,343.21,227.73Z" transform="translate(-0.21 -186.14)"/></svg>