<?xml version="1.0" standalone="no"?>
<!DOCTYPE svg PUBLIC "-//W3C//DTD SVG 1.1//EN" "http://www.w3.org/Graphics/SVG/1.1/DTD/svg11.dtd">
<svg width="100%" height="100%" viewBox="0 0 285 145" version="1.1" xmlns="http://www.w3.org/2000/svg" xmlns:xlink="http://www.w3.org/1999/xlink" xml:space="preserve" style="fill-rule:evenodd;clip-rule:evenodd;stroke-linejoin:round;stroke-miterlimit:1.41421;">
    <g id="Name">
        <path d="M52.579,54.934L46.673,54.934L46.673,21.079C46.673,18.407 46.837,15.15 47.165,11.305L47.024,11.305C46.462,13.579 45.958,15.207 45.513,16.192L28.321,54.934L25.438,54.934L8.212,16.473C7.743,15.442 7.239,13.719 6.7,11.305L6.559,11.305C6.747,13.322 6.841,16.602 6.841,21.149L6.841,54.934L1.145,54.934L1.145,4.52L8.95,4.52L24.419,39.676C25.591,42.348 26.352,44.365 26.704,45.723L26.95,45.723C28.122,42.489 28.931,40.427 29.376,39.536L45.161,4.52L52.579,4.52L52.579,54.934Z" style="fill:rgb(0,120,215);fill-rule:nonzero;"/>
        <path d="M68.846,54.934L63.08,54.934L63.08,18.934L68.846,18.934L68.846,54.934ZM69.83,6.031C69.83,7.11 69.455,8.006 68.705,8.721C67.955,9.437 67.064,9.793 66.033,9.793C64.979,9.793 64.088,9.447 63.361,8.756C62.635,8.066 62.271,7.156 62.271,6.031C62.271,5.025 62.629,4.151 63.344,3.412C64.059,2.674 64.955,2.305 66.033,2.305C67.111,2.305 68.014,2.669 68.74,3.395C69.467,4.121 69.83,5 69.83,6.031" style="fill:rgb(0,120,215);fill-rule:nonzero;"/>
        <path d="M102.832,53.281C100.043,54.968 96.75,55.812 92.953,55.812C89.672,55.812 86.725,55.056 84.111,53.545C81.498,52.033 79.465,49.894 78.012,47.129C76.559,44.364 75.832,41.258 75.832,37.812C75.832,31.859 77.537,27.078 80.947,23.469C84.357,19.86 88.898,18.054 94.57,18.054C97.711,18.054 100.488,18.665 102.902,19.883L102.902,25.789C100.207,23.914 97.348,22.976 94.324,22.976C90.598,22.976 87.568,24.307 85.236,26.967C82.904,29.627 81.738,33.066 81.738,37.285C81.738,41.481 82.846,44.797 85.061,47.234C87.275,49.673 90.246,50.89 93.973,50.89C97.113,50.89 100.066,49.859 102.832,47.797L102.832,53.281Z" style="fill:rgb(0,120,215);fill-rule:nonzero;"/>
        <path d="M128.38,24.77C127.349,23.997 125.884,23.61 123.985,23.61C121.431,23.61 119.357,24.811 117.763,27.213C116.169,29.617 115.372,32.739 115.372,36.583L115.372,54.934L109.607,54.934L109.607,18.934L115.372,18.934L115.372,26.352L115.513,26.352C116.31,23.869 117.54,21.905 119.204,20.463C120.868,19.022 122.778,18.301 124.935,18.301C126.435,18.301 127.583,18.465 128.38,18.793L128.38,24.77Z" style="fill:rgb(0,120,215);fill-rule:nonzero;"/>
        <path d="M158.568,37.004C158.568,32.482 157.566,29.012 155.562,26.598C153.558,24.185 150.693,22.977 146.966,22.977C143.263,22.977 140.334,24.213 138.177,26.686C136.021,29.159 134.943,32.645 134.943,37.145C134.943,41.457 136.027,44.826 138.195,47.252C140.363,49.678 143.287,50.891 146.966,50.891C150.716,50.891 153.588,49.695 155.58,47.305C157.572,44.914 158.568,41.482 158.568,37.004M164.474,36.793C164.474,42.512 162.851,47.111 159.605,50.592C156.359,54.072 152.006,55.813 146.545,55.813C141.224,55.813 136.976,54.12 133.8,50.733C130.625,47.346 129.037,42.888 129.037,37.356C129.037,31.402 130.666,26.698 133.923,23.24C137.181,19.783 141.67,18.055 147.388,18.055C152.732,18.055 156.916,19.725 159.939,23.065C162.963,26.404 164.474,30.981 164.474,36.793" style="fill:rgb(0,120,215);fill-rule:nonzero;"/>
        <path d="M191.113,45.301C191.113,48.418 189.912,50.949 187.509,52.895C185.107,54.841 181.914,55.813 177.929,55.813C174.531,55.813 171.554,55.086 169,53.633L169,47.446C171.836,49.743 174.953,50.891 178.351,50.891C182.922,50.891 185.207,49.216 185.207,45.863C185.207,44.505 184.761,43.398 183.871,42.541C182.98,41.686 180.953,40.532 177.789,39.078C174.601,37.72 172.351,36.261 171.039,34.701C169.726,33.143 169.07,31.075 169.07,28.496C169.07,25.521 170.265,23.035 172.656,21.043C175.047,19.052 178.082,18.055 181.761,18.055C184.597,18.055 187.164,18.617 189.461,19.742L189.461,25.543C187.117,23.833 184.398,22.977 181.304,22.977C179.406,22.977 177.877,23.447 176.717,24.383C175.556,25.321 174.976,26.528 174.976,28.004C174.976,29.599 175.422,30.822 176.312,31.678C177.203,32.534 179.043,33.547 181.832,34.719C185.254,36.173 187.656,37.696 189.039,39.289C190.422,40.884 191.113,42.888 191.113,45.301" style="fill:rgb(0,120,215);fill-rule:nonzero;"/>
        <path d="M224.396,37.004C224.396,32.482 223.394,29.012 221.39,26.598C219.386,24.185 216.521,22.977 212.794,22.977C209.091,22.977 206.162,24.213 204.005,26.686C201.849,29.159 200.771,32.645 200.771,37.145C200.771,41.457 201.855,44.826 204.023,47.252C206.191,49.678 209.115,50.891 212.794,50.891C216.544,50.891 219.416,49.695 221.408,47.305C223.4,44.914 224.396,41.482 224.396,37.004M230.302,36.793C230.302,42.512 228.679,47.111 225.433,50.592C222.187,54.072 217.834,55.813 212.373,55.813C207.052,55.813 202.804,54.12 199.628,50.733C196.453,47.346 194.865,42.888 194.865,37.356C194.865,31.402 196.494,26.698 199.751,23.24C203.009,19.783 207.498,18.055 213.216,18.055C218.56,18.055 222.744,19.725 225.767,23.065C228.791,26.404 230.302,30.981 230.302,36.793" style="fill:rgb(0,120,215);fill-rule:nonzero;"/>
        <path d="M253.775,6.699C252.65,6.066 251.373,5.75 249.943,5.75C245.912,5.75 243.896,8.294 243.896,13.379L243.896,18.933L252.334,18.933L252.334,23.82L243.896,23.82L243.896,54.933L238.13,54.933L238.13,23.82L232.013,23.82L232.013,18.933L238.13,18.933L238.13,13.097C238.13,9.441 239.209,6.488 241.365,4.238C243.521,1.988 246.263,0.863 249.591,0.863C251.349,0.863 252.744,1.074 253.775,1.496L253.775,6.699Z" style="fill:rgb(0,120,215);fill-rule:nonzero;"/>
        <path d="M273.277,54.582C271.894,55.355 270.089,55.742 267.863,55.742C261.582,55.742 258.441,52.204 258.441,45.125L258.441,23.82L252.254,23.82L252.254,18.934L258.441,18.934L258.441,10.144L264.207,8.281L264.207,18.934L273.277,18.934L273.277,23.82L264.207,23.82L264.207,44.141C264.207,46.555 264.617,48.271 265.437,49.291C266.257,50.311 267.629,50.82 269.55,50.82C270.98,50.82 272.222,50.434 273.277,49.66L273.277,54.582Z" style="fill:rgb(0,120,215);fill-rule:nonzero;"/>
        <path d="M27.864,126.934L1.145,126.934L1.145,76.52L26.704,76.52L26.704,81.864L7.051,81.864L7.051,98.633L25.262,98.633L25.262,103.977L7.051,103.977L7.051,121.59L27.864,121.59L27.864,126.934Z" style="fill:rgb(0,120,215);fill-rule:nonzero;"/>
        <path d="M59.529,110.656L59.529,105.347C59.529,102.372 58.539,99.898 56.558,97.929C54.578,95.961 52.17,94.976 49.334,94.976C45.865,94.976 43.111,96.26 41.072,98.826C39.033,101.392 38.013,104.949 38.013,109.496C38.013,113.622 38.974,116.885 40.896,119.287C42.818,121.69 45.408,122.89 48.666,122.89C51.83,122.89 54.431,121.743 56.47,119.445C58.509,117.148 59.529,114.219 59.529,110.656M65.295,126.933L59.529,126.933L59.529,120.816L59.388,120.816C56.716,125.48 52.592,127.812 47.013,127.812C42.467,127.812 38.845,126.177 36.15,122.908C33.455,119.638 32.107,115.274 32.107,109.812C32.107,103.859 33.601,99.078 36.59,95.468C39.578,91.86 43.58,90.054 48.595,90.054C53.517,90.054 57.115,92.001 59.388,95.89L59.529,95.89L59.529,73.636L65.295,73.636L65.295,126.933Z" style="fill:rgb(0,120,215);fill-rule:nonzero;"/>
        <path d="M99.703,110.656L99.703,105.347C99.703,102.442 98.707,99.986 96.715,97.982C94.723,95.978 92.344,94.976 89.578,94.976C85.992,94.976 83.197,96.277 81.193,98.879C79.189,101.48 78.187,105.101 78.187,109.742C78.187,113.679 79.148,116.856 81.07,119.269C82.992,121.683 85.558,122.89 88.769,122.89C91.98,122.89 94.605,121.748 96.644,119.463C98.683,117.177 99.703,114.242 99.703,110.656M105.469,124.051C105.469,137.246 99.141,143.844 86.484,143.844C82.078,143.844 78.187,143.011 74.812,141.347L74.812,135.582C78.844,137.832 82.699,138.957 86.379,138.957C95.262,138.957 99.703,134.258 99.703,124.859L99.703,120.886L99.562,120.886C96.82,125.505 92.695,127.812 87.187,127.812C84.281,127.812 81.691,127.086 79.418,125.633C77.144,124.179 75.387,122.105 74.144,119.41C72.902,116.716 72.281,113.609 72.281,110.094C72.281,103.954 73.775,99.078 76.764,95.468C79.752,91.86 83.754,90.054 88.769,90.054C93.621,90.054 97.219,92.001 99.562,95.89L99.703,95.89L99.703,90.933L105.469,90.933L105.469,124.051Z" style="fill:rgb(0,120,215);fill-rule:nonzero;"/>
        <path d="M137.942,105.489C137.895,102.162 137.092,99.578 135.534,97.737C133.975,95.897 131.778,94.977 128.942,94.977C126.27,94.977 123.985,95.939 122.087,97.86C120.188,99.782 118.993,102.325 118.501,105.489L137.942,105.489ZM143.848,110.376L118.43,110.376C118.524,114.431 119.596,117.53 121.647,119.675C123.698,121.819 126.54,122.891 130.172,122.891C134.251,122.891 137.965,121.579 141.317,118.954L141.317,124.333C138.176,126.653 134.004,127.813 128.801,127.813C123.669,127.813 119.661,126.156 116.778,122.839C113.895,119.522 112.454,114.934 112.454,109.075C112.454,105.512 113.174,102.26 114.616,99.319C116.057,96.379 118.044,94.098 120.575,92.481C123.106,90.864 125.919,90.055 129.012,90.055C133.676,90.055 137.315,91.573 139.928,94.608C142.542,97.644 143.848,101.891 143.848,107.352L143.848,110.376Z" style="fill:rgb(0,120,215);fill-rule:nonzero;"/>
    </g>
</svg>
