<?xml version="1.0" encoding="UTF-8" standalone="no"?>
<!DOCTYPE svg PUBLIC "-//W3C//DTD SVG 1.1//EN" "http://www.w3.org/Graphics/SVG/1.1/DTD/svg11.dtd">
<svg width="100%" height="100%" viewBox="0 0 286 146" version="1.1" xmlns="http://www.w3.org/2000/svg" xmlns:xlink="http://www.w3.org/1999/xlink" xml:space="preserve" style="fill-rule:evenodd;clip-rule:evenodd;stroke-linejoin:round;stroke-miterlimit:1.41421;">
    <g id="Layer-1" transform="matrix(1,0,0,1,-73,-143)">
        <g>
            <path d="M143.081,150.339C143.101,148.141 141.447,146.485 139.245,146.496C137.145,146.507 135.429,148.222 135.44,150.301C135.451,152.431 137.106,154.072 139.25,154.079C141.381,154.086 143.062,152.445 143.081,150.339M142.051,163.243L136.398,163.243L136.398,199.15L142.051,199.15L142.051,163.243ZM188.645,199.135L188.645,197.784C188.645,192.225 188.65,186.667 188.643,181.108C188.639,178.324 188.98,175.607 190.149,173.048C191.933,169.145 194.787,167.468 198.845,168.02C199.771,168.145 200.661,168.533 201.64,168.822C201.64,167.07 201.669,165.319 201.609,163.57C201.6,163.296 201.229,162.852 200.96,162.796C197.652,162.105 194.505,162.451 192.099,165.033C190.722,166.51 189.716,168.333 188.592,169.931L188.592,163.241L182.852,163.241L182.852,199.135L188.645,199.135ZM176.103,192.266C174.371,193.058 172.874,193.931 171.263,194.448C164.228,196.706 157.586,193.356 155.677,186.561C154.629,182.827 154.718,179.051 156.052,175.368C156.886,173.066 158.224,171.072 160.228,169.642C164.874,166.327 169.698,166.631 174.579,169.111C175.091,169.371 175.583,169.669 176.201,170.015C176.201,168.22 176.164,166.622 176.217,165.026C176.241,164.319 176.017,163.955 175.354,163.687C173.028,162.744 170.615,162.261 168.117,162.249C161.001,162.216 155.261,164.808 151.609,171.158C149.473,174.871 148.863,178.961 149.085,183.182C149.921,199.065 164.99,203.268 175.421,197.92C175.718,197.768 176.06,197.357 176.073,197.054C176.138,195.471 176.103,193.884 176.103,192.266M262.747,169.84C262.747,167.978 262.715,166.39 262.762,164.803C262.783,164.126 262.548,163.74 261.91,163.581C260.251,163.168 258.611,162.579 256.926,162.382C252.95,161.917 249.228,162.639 245.956,165.16C240.769,169.154 241.079,177.769 246.545,180.967C247.852,181.732 249.199,182.43 250.538,183.139C252.371,184.11 254.27,184.971 256.04,186.045C258.118,187.307 258.751,189.027 258.277,191.389C257.914,193.194 256.396,194.472 254.153,194.872C250.163,195.584 246.547,194.66 243.238,192.386C242.936,192.178 242.638,191.963 242.199,191.654C242.199,193.624 242.237,195.344 242.181,197.061C242.158,197.74 242.427,198.036 242.994,198.319C245.218,199.425 247.583,199.948 250.038,200.06C254.05,200.244 257.85,199.614 261.059,196.937C265.649,193.108 265.562,185.651 260.752,182.112C258.971,180.802 256.883,179.902 254.918,178.849C253.406,178.039 251.809,177.375 250.356,176.476C248.516,175.338 247.996,173.509 248.344,171.465C248.756,169.05 250.92,167.438 253.774,167.281C256.948,167.106 259.868,167.874 262.747,169.84M268.079,181.669C267.878,191.916 274.34,199.363 283.802,200.035C292.051,200.621 298.91,197.216 302.05,189.577C303.554,185.919 303.772,182.083 303.446,178.163C302.642,168.483 296.385,162.414 286.758,162.261C280.419,162.16 274.943,164.103 271.245,169.622C268.849,173.199 268.079,177.24 268.079,181.669M219.747,200.125C227.812,200.152 234.131,195.938 236.55,188.7C238.339,183.347 238.259,177.909 236.375,172.594C234.67,167.782 231.348,164.404 226.374,163.075C224.061,162.456 221.552,162.226 219.155,162.332C212.113,162.642 206.785,165.812 203.905,172.452C202.383,175.962 202.107,179.688 202.312,183.487C202.848,193.393 209.832,200.091 219.747,200.125M191.839,254.619L217.117,254.619C217.211,250.701 217.16,246.957 215.823,243.363C214.335,239.362 211.711,236.454 207.6,235.06C200.316,232.589 192.529,235.476 188.605,242.109C185.469,247.41 185.087,253.128 186.213,259.032C187.013,263.224 188.922,266.784 192.446,269.334C194.778,271.02 197.439,271.821 200.28,272.012C204.993,272.328 209.534,271.727 213.661,269.223C214.034,268.997 214.534,268.586 214.555,268.236C214.65,266.62 214.597,264.995 214.597,263.205C214.277,263.397 214.109,263.48 213.959,263.589C211.287,265.54 208.32,266.722 205.015,267.033C196.315,267.854 191.614,262.323 191.839,254.619M98.474,242.869L80.409,242.869L80.409,226.056L99.873,226.056L99.873,220.837L74.481,220.837L74.481,271.131L101.049,271.131L101.049,265.812L80.416,265.812L80.416,248.127L98.474,248.127L98.474,242.869ZM132.693,217.929L132.693,239.741C131.64,238.675 130.717,237.484 129.557,236.608C123.929,232.354 114.255,233.821 109.743,239.808C104.398,246.901 104.113,254.869 106.927,262.928C108.833,268.383 112.977,271.582 118.881,272.034C124.47,272.462 129.105,270.676 132.244,265.78C132.352,265.611 132.513,265.476 132.818,265.139L132.818,271.122L138.473,271.122L138.473,217.929L132.693,217.929ZM316.992,163.098C317.133,160.3 317.061,157.568 317.457,154.906C317.968,151.471 320.229,149.805 323.598,150.043C324.694,150.121 325.772,150.458 327.014,150.708L327.014,148.475C327.014,145.263 327.014,145.263 323.76,145.11C317.526,144.817 312.698,148.329 311.678,154.211C311.251,156.667 311.418,159.226 311.322,161.739C311.305,162.196 311.32,162.654 311.32,163.23L305.314,163.23L305.314,168.103L311.345,168.103L311.345,199.118L317.146,199.118L317.146,168.179L331.684,168.179C331.684,168.735 331.683,169.206 331.684,169.677C331.695,176.797 331.626,183.917 331.755,191.035C331.812,194.177 332.792,197.111 335.772,198.75C339.017,200.534 342.453,200.337 345.863,199.161C346.154,199.061 346.517,198.638 346.531,198.35C346.599,196.929 346.562,195.503 346.562,193.955C346.077,194.18 345.729,194.352 345.373,194.506C341.408,196.222 338.087,194.366 337.545,190.119C337.479,189.605 337.483,189.081 337.482,188.561C337.479,182.162 337.479,175.762 337.482,169.362C337.482,168.976 337.515,168.589 337.538,168.074L346.468,168.074L346.468,163.113L337.426,163.113L337.426,152.63C337.18,152.641 337.054,152.622 336.945,152.656C335.803,153.018 334.662,153.382 333.524,153.757C331.683,154.364 331.684,154.368 331.684,156.351L331.684,163.098L316.992,163.098ZM172.642,265.508C172.762,265.542 172.883,265.577 173.003,265.612C172.856,268.188 172.913,270.796 172.52,273.335C171.695,278.669 168.59,281.793 163.277,282.837C158.587,283.759 154.154,282.78 149.909,280.737C149.316,280.451 148.729,280.151 147.973,279.774C147.973,281.481 148.026,282.992 147.952,284.497C147.91,285.36 148.218,285.775 149.008,286.09C154.964,288.466 161.045,288.796 167.205,287.12C172.181,285.765 175.528,282.559 177.301,277.715C178.301,274.983 178.721,272.137 178.731,269.253C178.77,258.257 178.748,247.26 178.744,236.264C178.744,235.921 178.695,235.578 178.669,235.244L172.846,235.244L172.846,239.463C171.36,238.233 169.972,236.662 168.24,235.726C161.976,232.344 153.269,234.607 149.22,240.721C144.922,247.211 144.437,254.38 146.625,261.652C149.028,269.643 156.161,273.537 164.272,271.666C167.933,270.821 170.636,268.639 172.642,265.508M125.787,148.763C123.566,148.763 121.453,148.799 119.342,148.744C118.575,148.724 118.216,149.007 117.917,149.684C116.274,153.409 114.56,157.103 112.917,160.829C108.697,170.397 104.502,179.976 100.292,189.548C100.25,189.642 100.13,189.701 100.115,189.714C98.587,186.132 97.087,182.534 95.523,178.964C91.261,169.238 86.975,159.523 82.68,149.812C82.506,149.419 82.144,148.823 81.854,148.814C79.395,148.734 76.933,148.768 74.499,148.768L74.499,199.127L80.029,199.127L80.029,156.529C80.489,157.925 80.818,159.32 81.391,160.606C87.004,173.227 92.656,185.83 98.306,198.434C98.428,198.707 98.614,199.046 98.858,199.152C100.11,199.699 101.687,199.054 102.228,197.806C108.198,184.01 114.625,170.412 120.056,157.185L120.056,199.129L125.787,199.129L125.787,148.763ZM73.24,289.44L73.24,144.24C168.36,144.24 263.48,144.24 358.6,144.24L358.6,289.44C263.48,289.44 168.36,289.44 73.24,289.44" style="fill:rgb(254,254,254);fill-rule:nonzero;"/>
            <path d="M125.787,148.763L125.787,199.13L120.056,199.13L120.056,157.185C114.625,170.413 108.198,184.01 102.228,197.806C101.687,199.054 100.11,199.699 98.858,199.152C98.614,199.046 98.428,198.707 98.306,198.434C92.656,185.83 87.004,173.227 81.391,160.607C80.818,159.32 80.489,157.925 80.029,156.53L80.029,199.127L74.499,199.127L74.499,148.768C76.933,148.768 79.395,148.734 81.854,148.814C82.144,148.824 82.506,149.419 82.68,149.812C86.975,159.523 91.261,169.238 95.523,178.964C97.087,182.534 98.587,186.132 100.115,189.714C100.13,189.702 100.25,189.642 100.292,189.548C104.502,179.976 108.697,170.397 112.917,160.829C114.56,157.104 116.274,153.409 117.917,149.684C118.216,149.007 118.575,148.724 119.342,148.744C121.453,148.799 123.566,148.763 125.787,148.763" style="fill:rgb(116,116,116);fill-rule:nonzero;"/>
            <path d="M173.183,252.572L172.876,252.526C172.876,251.447 172.898,250.367 172.872,249.289C172.773,245.142 170.778,242.114 167.159,240.266C161.586,237.419 154.996,240.203 152.714,246.331C151.213,250.362 151.02,254.54 152.032,258.709C152.76,261.707 154.294,264.263 157.073,265.851C162.699,269.064 169.985,266.236 172.046,259.847C172.79,257.54 172.825,255.004 173.183,252.572M172.642,265.508C170.636,268.639 167.933,270.821 164.272,271.666C156.161,273.537 149.028,269.643 146.625,261.652C144.438,254.38 144.923,247.211 149.22,240.721C153.269,234.607 161.977,232.344 168.24,235.726C169.972,236.662 171.36,238.233 172.846,239.463L172.846,235.244L178.67,235.244C178.695,235.578 178.744,235.921 178.744,236.264C178.748,247.26 178.77,258.257 178.731,269.253C178.721,272.137 178.301,274.983 177.301,277.715C175.528,282.559 172.181,285.765 167.205,287.12C161.045,288.796 154.965,288.466 149.008,286.09C148.219,285.775 147.91,285.36 147.953,284.497C148.027,282.992 147.973,281.481 147.973,279.774C148.729,280.151 149.316,280.451 149.909,280.737C154.154,282.781 158.587,283.759 163.277,282.837C168.59,281.793 171.695,278.669 172.52,273.335C172.913,270.796 172.857,268.188 173.004,265.612C172.883,265.577 172.762,265.542 172.642,265.508" style="fill:rgb(116,116,116);fill-rule:nonzero;"/>
            <path d="M316.992,163.098L331.684,163.098L331.684,156.351C331.684,154.368 331.683,154.364 333.524,153.757C334.662,153.382 335.803,153.018 336.945,152.656C337.054,152.622 337.18,152.641 337.426,152.63L337.426,163.113L346.468,163.113L346.468,168.074L337.538,168.074C337.515,168.589 337.482,168.976 337.482,169.362C337.479,175.762 337.479,182.162 337.483,188.561C337.483,189.081 337.479,189.605 337.545,190.119C338.087,194.366 341.408,196.222 345.373,194.506C345.729,194.352 346.077,194.18 346.562,193.955C346.562,195.503 346.6,196.929 346.531,198.35C346.517,198.638 346.155,199.061 345.863,199.161C342.453,200.337 339.017,200.534 335.772,198.75C332.792,197.111 331.812,194.177 331.755,191.035C331.626,183.917 331.695,176.797 331.684,169.677C331.683,169.206 331.684,168.735 331.684,168.179L317.146,168.179L317.146,199.118L311.345,199.118L311.345,168.103L305.314,168.103L305.314,163.23L311.32,163.23C311.32,162.654 311.305,162.196 311.323,161.739C311.419,159.226 311.252,156.667 311.678,154.211C312.698,148.329 317.526,144.817 323.76,145.11C327.014,145.263 327.014,145.263 327.014,148.475L327.014,150.708C325.772,150.458 324.694,150.121 323.598,150.043C320.229,149.805 317.969,151.471 317.457,154.906C317.061,157.568 317.133,160.3 316.992,163.098" style="fill:rgb(115,115,115);fill-rule:nonzero;"/>
            <path d="M132.953,252.522C132.878,252.515 132.804,252.508 132.729,252.5C132.729,251.303 132.772,250.103 132.719,248.907C132.632,246.953 132.062,245.139 130.908,243.541C126.195,237.013 116.272,237.994 112.929,245.413C110.745,250.263 110.684,255.318 112.396,260.349C113.105,262.434 114.392,264.167 116.227,265.431C122.137,269.503 130.483,266.089 132.225,258.797C132.711,256.763 132.723,254.617 132.953,252.522M132.693,217.929L138.473,217.929L138.473,271.123L132.818,271.123L132.818,265.14C132.513,265.477 132.352,265.611 132.244,265.78C129.104,270.676 124.47,272.463 118.881,272.034C112.977,271.582 108.833,268.384 106.927,262.928C104.113,254.869 104.398,246.901 109.743,239.809C114.255,233.822 123.928,232.355 129.557,236.608C130.717,237.485 131.64,238.675 132.693,239.741L132.693,217.929Z" style="fill:rgb(115,115,115);fill-rule:nonzero;"/>
            <path d="M98.474,242.869L98.474,248.127L80.416,248.127L80.416,265.812L101.049,265.812L101.049,271.131L74.481,271.131L74.481,220.837L99.873,220.837L99.873,226.056L80.409,226.056L80.409,242.869L98.474,242.869Z" style="fill:rgb(115,115,115);fill-rule:nonzero;"/>
            <path d="M211.168,249.675C211.105,248.892 211.069,248.15 210.983,247.413C210.501,243.275 208.096,240.32 204.561,239.503C198.34,238.065 192.141,243.007 191.891,249.675L211.168,249.675ZM191.839,254.619C191.614,262.323 196.315,267.854 205.015,267.033C208.32,266.722 211.287,265.54 213.959,263.589C214.108,263.48 214.276,263.397 214.597,263.205C214.597,264.995 214.65,266.62 214.555,268.236C214.534,268.586 214.034,268.997 213.66,269.223C209.534,271.727 204.993,272.328 200.279,272.012C197.438,271.821 194.777,271.02 192.446,269.334C188.921,266.784 187.012,263.224 186.213,259.032C185.086,253.128 185.468,247.41 188.605,242.109C192.528,235.476 200.315,232.589 207.6,235.06C211.71,236.454 214.335,239.362 215.823,243.363C217.159,246.957 217.211,250.701 217.117,254.619L191.839,254.619Z" style="fill:rgb(115,115,115);fill-rule:nonzero;"/>
            <path d="M231.909,181.306C231.861,181.297 231.812,181.288 231.764,181.28C231.722,180.362 231.729,179.439 231.63,178.528C231.26,175.153 230.325,171.99 227.613,169.712C221.7,164.747 212.144,167.257 209.351,174.466C208.151,177.565 208.078,180.795 208.381,184.034C208.955,190.176 212.743,194.302 218.675,194.994C224.718,195.699 229.604,193.049 231.136,186.617C231.549,184.884 231.66,183.078 231.909,181.306M219.746,200.125C209.831,200.091 202.847,193.393 202.312,183.488C202.107,179.688 202.383,175.962 203.905,172.452C206.784,165.813 212.113,162.642 219.155,162.332C221.552,162.226 224.061,162.456 226.374,163.075C231.348,164.405 234.67,167.782 236.375,172.594C238.258,177.909 238.339,183.348 236.55,188.7C234.131,195.938 227.812,200.153 219.746,200.125" style="fill:rgb(116,116,116);fill-rule:nonzero;"/>
            <path d="M297.757,181.468C297.536,179.651 297.426,178.013 297.125,176.411C296.12,171.058 292.37,167.606 287.319,167.291C281.209,166.911 276.88,169.624 275.029,174.915C274.041,177.736 273.947,180.635 274.144,183.553C274.575,189.946 278.381,194.261 284.499,194.995C290.324,195.693 295.314,193.255 296.934,186.738C297.374,184.969 297.507,183.124 297.757,181.468M268.079,181.67C268.079,177.241 268.849,173.199 271.245,169.623C274.943,164.104 280.418,162.161 286.758,162.262C296.385,162.415 302.642,168.483 303.446,178.163C303.772,182.084 303.554,185.919 302.05,189.578C298.91,197.217 292.051,200.622 283.801,200.036C274.34,199.363 267.878,191.916 268.079,181.67" style="fill:rgb(116,116,116);fill-rule:nonzero;"/>
            <path d="M262.747,169.84C259.868,167.874 256.948,167.106 253.774,167.281C250.92,167.438 248.756,169.05 248.344,171.465C247.996,173.508 248.516,175.338 250.355,176.476C251.809,177.375 253.406,178.039 254.918,178.849C256.883,179.902 258.97,180.801 260.752,182.112C265.562,185.651 265.649,193.108 261.059,196.937C257.85,199.614 254.05,200.244 250.037,200.06C247.583,199.948 245.218,199.425 242.994,198.318C242.427,198.036 242.158,197.74 242.181,197.061C242.237,195.344 242.199,193.624 242.199,191.654C242.638,191.963 242.936,192.178 243.238,192.386C246.547,194.66 250.163,195.584 254.153,194.872C256.396,194.472 257.914,193.194 258.277,191.389C258.751,189.027 258.118,187.307 256.04,186.045C254.27,184.971 252.371,184.11 250.538,183.139C249.199,182.43 247.852,181.732 246.545,180.967C241.079,177.768 240.769,169.154 245.955,165.16C249.228,162.639 252.95,161.917 256.926,162.382C258.611,162.579 260.251,163.167 261.91,163.581C262.548,163.74 262.782,164.126 262.762,164.803C262.715,166.389 262.747,167.978 262.747,169.84" style="fill:rgb(116,116,116);fill-rule:nonzero;"/>
            <path d="M176.103,192.266C176.103,193.884 176.138,195.471 176.073,197.054C176.06,197.357 175.718,197.768 175.421,197.92C164.99,203.268 149.92,199.066 149.085,183.182C148.863,178.961 149.473,174.872 151.609,171.158C155.261,164.808 161.001,162.216 168.117,162.249C170.614,162.261 173.028,162.744 175.354,163.687C176.017,163.955 176.241,164.32 176.217,165.026C176.164,166.622 176.2,168.22 176.2,170.015C175.582,169.669 175.09,169.371 174.579,169.111C169.698,166.631 164.874,166.327 160.227,169.642C158.224,171.072 156.886,173.066 156.052,175.368C154.717,179.051 154.628,182.827 155.677,186.561C157.585,193.356 164.228,196.706 171.263,194.448C172.874,193.931 174.371,193.058 176.103,192.266" style="fill:rgb(116,116,116);fill-rule:nonzero;"/>
            <path d="M188.645,199.136L182.853,199.136L182.853,163.241L188.592,163.241L188.592,169.932C189.716,168.334 190.722,166.511 192.099,165.034C194.505,162.452 197.653,162.106 200.96,162.797C201.229,162.853 201.6,163.297 201.61,163.571C201.669,165.319 201.64,167.071 201.64,168.822C200.661,168.534 199.771,168.146 198.845,168.02C194.787,167.469 191.933,169.145 190.15,173.048C188.98,175.608 188.639,178.325 188.643,181.109C188.651,186.667 188.645,192.226 188.645,197.785L188.645,199.136Z" style="fill:rgb(116,116,116);fill-rule:nonzero;"/>
            <rect x="136.398" y="163.243" width="5.653" height="35.907" style="fill:rgb(115,115,115);fill-rule:nonzero;"/>
            <path d="M143.081,150.339C143.062,152.445 141.381,154.086 139.25,154.079C137.106,154.072 135.451,152.431 135.44,150.301C135.429,148.222 137.145,146.507 139.245,146.496C141.447,146.485 143.101,148.141 143.081,150.339" style="fill:rgb(116,116,116);fill-rule:nonzero;"/>
            <path d="M173.183,252.572C172.825,255.004 172.79,257.54 172.046,259.847C169.985,266.236 162.699,269.064 157.073,265.851C154.294,264.263 152.76,261.707 152.032,258.709C151.02,254.54 151.213,250.362 152.714,246.331C154.996,240.203 161.586,237.419 167.159,240.266C170.778,242.114 172.773,245.142 172.872,249.289C172.898,250.367 172.876,251.447 172.876,252.526L173.183,252.572Z" style="fill:rgb(253,253,253);fill-rule:nonzero;"/>
            <path d="M132.953,252.522C132.723,254.617 132.711,256.763 132.225,258.797C130.483,266.089 122.137,269.503 116.227,265.431C114.392,264.167 113.105,262.434 112.396,260.349C110.684,255.318 110.745,250.263 112.929,245.413C116.272,237.994 126.195,237.013 130.908,243.541C132.062,245.139 132.632,246.953 132.719,248.907C132.772,250.103 132.729,251.303 132.729,252.5C132.804,252.508 132.878,252.515 132.953,252.522" style="fill:rgb(253,253,253);fill-rule:nonzero;"/>
            <path d="M211.168,249.675L191.891,249.675C192.141,243.007 198.34,238.065 204.561,239.503C208.096,240.32 210.501,243.275 210.983,247.413C211.069,248.15 211.105,248.892 211.168,249.675" style="fill:rgb(251,251,251);fill-rule:nonzero;"/>
            <path d="M231.909,181.306C231.66,183.078 231.549,184.884 231.136,186.617C229.604,193.049 224.718,195.699 218.675,194.994C212.743,194.302 208.955,190.176 208.381,184.034C208.078,180.795 208.151,177.565 209.351,174.466C212.144,167.257 221.7,164.747 227.613,169.712C230.325,171.99 231.26,175.153 231.63,178.528C231.729,179.439 231.722,180.362 231.764,181.28C231.812,181.288 231.861,181.297 231.909,181.306" style="fill:rgb(254,254,254);fill-rule:nonzero;"/>
            <path d="M297.757,181.468C297.507,183.124 297.374,184.969 296.934,186.738C295.314,193.255 290.324,195.693 284.499,194.995C278.381,194.261 274.575,189.946 274.144,183.553C273.947,180.635 274.041,177.736 275.029,174.915C276.88,169.624 281.209,166.911 287.319,167.291C292.37,167.606 296.12,171.058 297.125,176.411C297.426,178.013 297.536,179.651 297.757,181.468" style="fill:rgb(253,253,253);fill-rule:nonzero;"/>
        </g>
    </g>
</svg>
