<?xml version="1.0" encoding="UTF-8" standalone="no"?>
<!DOCTYPE svg PUBLIC "-//W3C//DTD SVG 1.1//EN" "http://www.w3.org/Graphics/SVG/1.1/DTD/svg11.dtd">
<svg width="100%" height="100%" viewBox="0 0 1492 471" version="1.1" xmlns="http://www.w3.org/2000/svg" xmlns:xlink="http://www.w3.org/1999/xlink" xml:space="preserve" style="fill-rule:evenodd;clip-rule:evenodd;stroke-linejoin:round;stroke-miterlimit:1.41421;">
    <g transform="matrix(4.16667,0,0,4.16667,0,0)">
        <path d="M75.071,98.696C75.071,99.252 75.165,99.789 75.354,100.305C75.543,100.822 75.82,101.278 76.189,101.676C76.556,102.073 76.998,102.39 77.514,102.629C78.031,102.867 78.617,102.986 79.272,102.986C79.928,102.986 80.514,102.867 81.031,102.629C81.547,102.39 81.989,102.073 82.357,101.676C82.724,101.278 83.002,100.822 83.191,100.305C83.38,99.789 83.475,99.252 83.475,98.696C83.475,98.14 83.38,97.604 83.191,97.086C83.002,96.571 82.724,96.114 82.357,95.716C81.989,95.319 81.547,95 81.031,94.762C80.514,94.524 79.928,94.405 79.272,94.405C78.617,94.405 78.031,94.524 77.514,94.762C76.998,95 76.556,95.319 76.189,95.716C75.82,96.114 75.543,96.571 75.354,97.086C75.165,97.604 75.071,98.14 75.071,98.696ZM71.495,98.696C71.495,97.564 71.698,96.535 72.106,95.612C72.513,94.688 73.064,93.899 73.76,93.243C74.455,92.586 75.279,92.08 76.233,91.723C77.187,91.366 78.2,91.186 79.272,91.186C80.345,91.186 81.358,91.366 82.312,91.723C83.266,92.08 84.09,92.586 84.786,93.243C85.481,93.899 86.032,94.688 86.439,95.612C86.847,96.535 87.05,97.564 87.05,98.696C87.05,99.828 86.847,100.855 86.439,101.779C86.032,102.703 85.481,103.494 84.786,104.148C84.09,104.805 83.266,105.31 82.312,105.669C81.358,106.026 80.345,106.205 79.272,106.205C78.2,106.205 77.187,106.026 76.233,105.669C75.279,105.31 74.455,104.805 73.76,104.148C73.064,103.494 72.513,102.703 72.106,101.779C71.698,100.855 71.495,99.828 71.495,98.696Z" style="fill:rgb(3,4,4);fill-rule:nonzero;"/>
        <rect x="90.447" y="83.319" width="3.576" height="22.529" style="fill:rgb(3,4,4);fill-rule:nonzero;"/>
        <path d="M96.199,91.543L100.133,91.543L104.126,101.467L104.186,101.467L107.762,91.543L111.487,91.543L104.722,108.917C104.464,109.592 104.181,110.183 103.873,110.689C103.564,111.197 103.202,111.623 102.785,111.972C102.368,112.318 101.876,112.577 101.31,112.746C100.744,112.915 100.063,113 99.268,113C98.334,113 97.42,112.881 96.526,112.642L96.974,109.424C97.252,109.523 97.544,109.607 97.853,109.677C98.161,109.746 98.473,109.781 98.792,109.781C99.228,109.781 99.596,109.741 99.894,109.662C100.192,109.582 100.446,109.458 100.654,109.289C100.863,109.121 101.037,108.902 101.176,108.634C101.314,108.365 101.463,108.043 101.623,107.666L102.308,105.967L96.199,91.543Z" style="fill:rgb(3,4,4);fill-rule:nonzero;"/>
        <path d="M113.454,91.543L116.851,91.543L116.851,93.78L116.91,93.78C117.228,93.104 117.74,92.502 118.445,91.976C119.15,91.45 120.099,91.186 121.291,91.186C123.536,91.186 125.026,92.071 125.761,93.838C126.277,92.925 126.923,92.254 127.698,91.826C128.473,91.401 129.396,91.186 130.468,91.186C131.423,91.186 132.228,91.346 132.883,91.663C133.539,91.981 134.07,92.418 134.478,92.975C134.884,93.531 135.178,94.182 135.356,94.926C135.535,95.671 135.625,96.471 135.625,97.325L135.625,105.848L132.049,105.848L132.049,97.743C132.049,97.305 132.009,96.883 131.93,96.476C131.85,96.069 131.711,95.711 131.512,95.403C131.313,95.096 131.045,94.852 130.707,94.673C130.369,94.494 129.933,94.405 129.396,94.405C128.84,94.405 128.369,94.509 127.981,94.717C127.594,94.926 127.276,95.205 127.027,95.552C126.779,95.9 126.6,96.297 126.491,96.744C126.382,97.192 126.327,97.643 126.327,98.1L126.327,105.848L122.751,105.848L122.751,97.325C122.751,96.431 122.562,95.721 122.185,95.195C121.807,94.668 121.182,94.405 120.308,94.405C119.711,94.405 119.209,94.504 118.803,94.703C118.395,94.902 118.058,95.17 117.79,95.507C117.521,95.846 117.328,96.233 117.208,96.67C117.089,97.107 117.03,97.564 117.03,98.04L117.03,105.848L113.454,105.848L113.454,91.543Z" style="fill:rgb(3,4,4);fill-rule:nonzero;"/>
        <path d="M151.389,98.696C151.389,98.14 151.294,97.604 151.106,97.086C150.917,96.571 150.639,96.114 150.272,95.716C149.904,95.319 149.462,95 148.946,94.762C148.429,94.524 147.843,94.405 147.187,94.405C146.532,94.405 145.946,94.524 145.429,94.762C144.913,95 144.47,95.319 144.103,95.716C143.735,96.114 143.458,96.571 143.269,97.086C143.08,97.604 142.986,98.14 142.986,98.696C142.986,99.252 143.08,99.789 143.269,100.305C143.458,100.822 143.735,101.278 144.103,101.676C144.47,102.073 144.913,102.39 145.429,102.629C145.946,102.867 146.532,102.986 147.187,102.986C147.843,102.986 148.429,102.867 148.946,102.629C149.462,102.39 149.904,102.073 150.272,101.676C150.639,101.278 150.917,100.822 151.106,100.305C151.294,99.789 151.389,99.252 151.389,98.696ZM139.529,91.543L142.926,91.543L142.926,93.69L142.986,93.69C143.502,92.816 144.197,92.18 145.072,91.783C145.946,91.385 146.889,91.186 147.903,91.186C148.995,91.186 149.978,91.38 150.853,91.768C151.727,92.155 152.472,92.687 153.087,93.362C153.704,94.037 154.17,94.832 154.489,95.746C154.806,96.66 154.965,97.643 154.965,98.696C154.965,99.749 154.796,100.732 154.458,101.646C154.121,102.56 153.649,103.354 153.043,104.029C152.437,104.705 151.707,105.236 150.853,105.624C149.999,106.012 149.065,106.205 148.051,106.205C147.376,106.205 146.78,106.135 146.263,105.996C145.747,105.857 145.29,105.68 144.893,105.461C144.496,105.242 144.158,105.009 143.879,104.76C143.601,104.512 143.373,104.267 143.194,104.029L143.105,104.029L143.105,112.642L139.529,112.642L139.529,91.543Z" style="fill:rgb(3,4,4);fill-rule:nonzero;"/>
        <path d="M158.362,91.543L161.938,91.543L161.938,105.848L158.362,105.848L158.362,91.543ZM157.855,86.686C157.855,86.111 158.069,85.61 158.496,85.182C158.923,84.754 159.464,84.541 160.12,84.541C160.776,84.541 161.327,84.744 161.774,85.152C162.221,85.559 162.445,86.071 162.445,86.686C162.445,87.303 162.221,87.815 161.774,88.221C161.327,88.629 160.776,88.832 160.12,88.832C159.464,88.832 158.923,88.619 158.496,88.192C158.069,87.764 157.855,87.263 157.855,86.686Z" style="fill:rgb(3,4,4);fill-rule:nonzero;"/>
        <path d="M174.781,99.441L174.037,99.441C173.539,99.441 172.984,99.461 172.367,99.5C171.752,99.541 171.17,99.635 170.625,99.784C170.078,99.932 169.616,100.151 169.239,100.439C168.861,100.726 168.672,101.129 168.672,101.646C168.672,101.984 168.748,102.267 168.896,102.495C169.045,102.724 169.239,102.918 169.477,103.076C169.715,103.235 169.984,103.349 170.281,103.419C170.58,103.488 170.877,103.523 171.176,103.523C172.408,103.523 173.316,103.23 173.902,102.644C174.488,102.058 174.781,101.258 174.781,100.245L174.781,99.441ZM174.99,103.881L174.9,103.881C174.385,104.695 173.729,105.287 172.934,105.654C172.139,106.021 171.266,106.205 170.313,106.205C169.656,106.205 169.015,106.115 168.389,105.937C167.764,105.758 167.208,105.49 166.721,105.133C166.234,104.775 165.841,104.328 165.543,103.791C165.246,103.255 165.097,102.629 165.097,101.914C165.097,101.139 165.236,100.478 165.514,99.932C165.792,99.387 166.165,98.93 166.631,98.562C167.098,98.195 167.639,97.902 168.255,97.683C168.871,97.464 169.512,97.301 170.178,97.192C170.844,97.082 171.514,97.012 172.189,96.983C172.865,96.952 173.5,96.938 174.096,96.938L174.99,96.938L174.99,96.551C174.99,95.657 174.682,94.986 174.066,94.539C173.451,94.092 172.666,93.868 171.713,93.868C170.957,93.868 170.252,94.002 169.596,94.271C168.941,94.539 168.375,94.902 167.898,95.358L166.021,93.481C166.815,92.666 167.744,92.08 168.807,91.723C169.87,91.366 170.967,91.186 172.1,91.186C173.113,91.186 173.967,91.301 174.662,91.53C175.357,91.758 175.934,92.051 176.391,92.409C176.848,92.766 177.199,93.178 177.449,93.645C177.697,94.112 177.875,94.584 177.984,95.061C178.094,95.537 178.158,95.998 178.18,96.446C178.199,96.893 178.209,97.285 178.209,97.623L178.209,105.848L174.99,105.848L174.99,103.881Z" style="fill:rgb(3,4,4);fill-rule:nonzero;"/>
        <path d="M183.244,101.735L186.879,101.735L184.348,109.602L181.158,109.602L183.244,101.735Z" style="fill:rgb(3,4,4);fill-rule:nonzero;"/>
        <path d="M197.756,91.543L201.631,91.543L204.729,101.557L204.789,101.557L207.68,91.543L211.553,91.543L214.652,101.557L214.713,101.557L217.691,91.543L221.299,91.543L216.441,105.848L212.895,105.848L209.498,96.074L209.438,96.074L206.428,105.848L202.732,105.848L197.756,91.543Z" style="fill:rgb(3,4,4);fill-rule:nonzero;"/>
        <path d="M232.145,99.441L231.4,99.441C230.902,99.441 230.348,99.461 229.73,99.5C229.115,99.541 228.533,99.635 227.988,99.784C227.441,99.932 226.979,100.151 226.602,100.439C226.225,100.726 226.035,101.129 226.035,101.646C226.035,101.984 226.111,102.267 226.26,102.495C226.408,102.724 226.602,102.918 226.84,103.076C227.078,103.235 227.348,103.349 227.645,103.419C227.943,103.488 228.24,103.523 228.539,103.523C229.771,103.523 230.68,103.23 231.266,102.644C231.852,102.058 232.145,101.258 232.145,100.245L232.145,99.441ZM232.354,103.881L232.264,103.881C231.748,104.695 231.092,105.287 230.297,105.654C229.502,106.021 228.629,106.205 227.676,106.205C227.02,106.205 226.379,106.115 225.752,105.937C225.127,105.758 224.57,105.49 224.084,105.133C223.598,104.775 223.205,104.328 222.906,103.791C222.609,103.255 222.461,102.629 222.461,101.914C222.461,101.139 222.6,100.478 222.877,99.932C223.154,99.387 223.527,98.93 223.994,98.562C224.461,98.195 225.002,97.902 225.619,97.683C226.234,97.464 226.875,97.301 227.541,97.192C228.207,97.082 228.877,97.012 229.553,96.983C230.229,96.952 230.863,96.938 231.459,96.938L232.354,96.938L232.354,96.551C232.354,95.657 232.045,94.986 231.43,94.539C230.814,94.092 230.029,93.868 229.076,93.868C228.32,93.868 227.615,94.002 226.959,94.271C226.305,94.539 225.738,94.902 225.262,95.358L223.385,93.481C224.178,92.666 225.107,92.08 226.17,91.723C227.232,91.366 228.33,91.186 229.463,91.186C230.477,91.186 231.33,91.301 232.025,91.53C232.721,91.758 233.297,92.051 233.754,92.409C234.211,92.766 234.563,93.178 234.813,93.645C235.061,94.112 235.238,94.584 235.348,95.061C235.457,95.537 235.521,95.998 235.543,96.446C235.563,96.893 235.572,97.285 235.572,97.623L235.572,105.848L232.354,105.848L232.354,103.881Z" style="fill:rgb(3,4,4);fill-rule:nonzero;"/>
        <path d="M247.045,95.507C246.35,94.534 245.416,94.047 244.242,94.047C243.766,94.047 243.299,94.166 242.842,94.405C242.385,94.643 242.156,95.031 242.156,95.567C242.156,96.004 242.346,96.323 242.723,96.52C243.1,96.719 243.578,96.889 244.154,97.028C244.73,97.166 245.35,97.311 246.016,97.459C246.682,97.608 247.303,97.836 247.879,98.145C248.455,98.453 248.932,98.875 249.309,99.41C249.686,99.948 249.875,100.682 249.875,101.616C249.875,102.471 249.691,103.191 249.324,103.776C248.957,104.363 248.479,104.834 247.895,105.191C247.307,105.55 246.646,105.808 245.912,105.967C245.176,106.125 244.441,106.205 243.707,106.205C242.594,106.205 241.57,106.046 240.637,105.728C239.703,105.411 238.869,104.834 238.135,104L240.518,101.765C240.975,102.281 241.467,102.703 241.994,103.031C242.52,103.359 243.16,103.523 243.916,103.523C244.174,103.523 244.441,103.494 244.721,103.433C244.998,103.374 245.256,103.275 245.494,103.136C245.732,102.997 245.928,102.822 246.076,102.614C246.225,102.406 246.299,102.162 246.299,101.885C246.299,101.388 246.109,101.019 245.732,100.781C245.355,100.543 244.879,100.349 244.303,100.201C243.727,100.052 243.105,99.912 242.439,99.784C241.775,99.655 241.154,99.446 240.578,99.159C240.002,98.869 239.525,98.467 239.146,97.951C238.77,97.434 238.582,96.719 238.582,95.805C238.582,95.011 238.744,94.321 239.072,93.735C239.4,93.149 239.832,92.666 240.369,92.289C240.906,91.912 241.521,91.633 242.217,91.454C242.912,91.276 243.617,91.186 244.332,91.186C245.287,91.186 246.23,91.35 247.164,91.678C248.098,92.006 248.852,92.567 249.428,93.362L247.045,95.507Z" style="fill:rgb(3,4,4);fill-rule:nonzero;"/>
        <path d="M256.222,93.54L256.281,93.54C256.561,92.945 257.051,92.404 257.756,91.916C258.461,91.43 259.371,91.186 260.484,91.186C261.437,91.186 262.246,91.346 262.912,91.663C263.578,91.981 264.119,92.399 264.537,92.914C264.953,93.432 265.252,94.028 265.43,94.703C265.609,95.378 265.699,96.084 265.699,96.819L265.699,105.848L262.122,105.848L262.122,98.607C262.122,98.209 262.101,97.768 262.062,97.281C262.023,96.793 261.918,96.337 261.75,95.909C261.579,95.483 261.318,95.125 260.961,94.836C260.604,94.549 260.114,94.405 259.5,94.405C258.903,94.405 258.402,94.504 257.996,94.703C257.588,94.902 257.25,95.17 256.982,95.507C256.713,95.846 256.519,96.233 256.4,96.67C256.281,97.107 256.222,97.564 256.222,98.04L256.222,105.848L252.646,105.848L252.646,83.319L256.222,83.319L256.222,93.54Z" style="fill:rgb(3,4,4);fill-rule:nonzero;"/>
        <path d="M269.811,91.543L273.387,91.543L273.387,105.848L269.811,105.848L269.811,91.543ZM269.303,86.686C269.303,86.111 269.518,85.61 269.943,85.182C270.371,84.754 270.912,84.541 271.568,84.541C272.225,84.541 272.775,84.744 273.223,85.152C273.67,85.559 273.893,86.071 273.893,86.686C273.893,87.303 273.67,87.815 273.223,88.221C272.775,88.629 272.225,88.832 271.568,88.832C270.912,88.832 270.371,88.619 269.943,88.192C269.518,87.764 269.303,87.263 269.303,86.686Z" style="fill:rgb(3,4,4);fill-rule:nonzero;"/>
        <path d="M277.498,91.543L280.896,91.543L280.896,93.838L280.955,93.838C281.293,93.123 281.809,92.502 282.506,91.976C283.199,91.45 284.145,91.186 285.336,91.186C286.289,91.186 287.1,91.346 287.766,91.663C288.43,91.981 288.971,92.399 289.389,92.914C289.807,93.432 290.104,94.028 290.283,94.703C290.461,95.378 290.551,96.084 290.551,96.819L290.551,105.848L286.975,105.848L286.975,98.607C286.975,98.209 286.955,97.768 286.916,97.281C286.875,96.793 286.771,96.337 286.602,95.909C286.434,95.483 286.17,95.125 285.813,94.836C285.455,94.549 284.969,94.405 284.354,94.405C283.756,94.405 283.254,94.504 282.848,94.703C282.439,94.902 282.104,95.17 281.834,95.507C281.566,95.846 281.373,96.233 281.254,96.67C281.135,97.107 281.074,97.564 281.074,98.04L281.074,105.848L277.498,105.848L277.498,91.543Z" style="fill:rgb(3,4,4);fill-rule:nonzero;"/>
        <path d="M301.695,94.405C301.059,94.405 300.484,94.509 299.967,94.717C299.451,94.926 299.008,95.215 298.641,95.582C298.273,95.95 297.986,96.397 297.777,96.922C297.568,97.45 297.463,98.031 297.463,98.666C297.463,99.243 297.568,99.78 297.777,100.275C297.986,100.771 298.277,101.209 298.656,101.586C299.033,101.964 299.48,102.262 299.996,102.48C300.514,102.699 301.07,102.808 301.666,102.808C302.32,102.808 302.912,102.699 303.439,102.48C303.965,102.262 304.412,101.969 304.779,101.601C305.146,101.234 305.43,100.792 305.629,100.275C305.828,99.759 305.928,99.202 305.928,98.607C305.928,97.355 305.549,96.342 304.795,95.567C304.039,94.792 303.006,94.405 301.695,94.405ZM309.324,91.543L309.324,104.566C309.324,105.857 309.164,107.025 308.848,108.068C308.529,109.111 308.037,109.994 307.373,110.72C306.707,111.445 305.867,112.006 304.854,112.404C303.842,112.801 302.639,113 301.248,113C299.918,113 298.656,112.83 297.463,112.493C296.271,112.154 295.17,111.539 294.156,110.645L296.301,107.724C297.018,108.381 297.762,108.887 298.537,109.244C299.311,109.602 300.205,109.781 301.219,109.781C302.072,109.781 302.793,109.662 303.379,109.424C303.965,109.185 304.432,108.857 304.779,108.44C305.127,108.023 305.375,107.521 305.525,106.935C305.674,106.349 305.748,105.699 305.748,104.983L305.748,103.94L305.689,103.94C305.172,104.637 304.486,105.158 303.633,105.505C302.777,105.852 301.904,106.026 301.01,106.026C299.938,106.026 298.963,105.832 298.09,105.445C297.215,105.058 296.465,104.537 295.84,103.881C295.215,103.224 294.732,102.451 294.395,101.557C294.057,100.662 293.889,99.709 293.889,98.696C293.889,97.643 294.047,96.66 294.365,95.746C294.682,94.832 295.148,94.037 295.766,93.362C296.381,92.687 297.121,92.155 297.986,91.768C298.85,91.38 299.838,91.186 300.951,91.186C301.963,91.186 302.906,91.385 303.781,91.783C304.656,92.18 305.352,92.816 305.867,93.69L305.928,93.69L305.928,91.543L309.324,91.543Z" style="fill:rgb(3,4,4);fill-rule:nonzero;"/>
        <path d="M311.707,94.584L311.707,91.543L314.658,91.543L314.658,87.402L318.234,87.402L318.234,91.543L322.168,91.543L322.168,94.584L318.234,94.584L318.234,100.842C318.234,101.557 318.367,102.123 318.637,102.54C318.904,102.957 319.436,103.166 320.23,103.166C320.549,103.166 320.896,103.131 321.273,103.061C321.65,102.992 321.949,102.878 322.168,102.719L322.168,105.728C321.789,105.907 321.328,106.031 320.781,106.101C320.234,106.17 319.754,106.205 319.336,106.205C318.383,106.205 317.604,106.101 316.998,105.892C316.391,105.683 315.914,105.366 315.566,104.939C315.219,104.512 314.98,103.98 314.852,103.344C314.723,102.709 314.658,101.974 314.658,101.139L314.658,94.584L311.707,94.584Z" style="fill:rgb(3,4,4);fill-rule:nonzero;"/>
        <path d="M327.828,98.696C327.828,99.252 327.924,99.789 328.111,100.305C328.301,100.822 328.578,101.278 328.947,101.676C329.314,102.073 329.756,102.39 330.273,102.629C330.789,102.867 331.375,102.986 332.031,102.986C332.686,102.986 333.271,102.867 333.789,102.629C334.305,102.39 334.748,102.073 335.115,101.676C335.482,101.278 335.76,100.822 335.949,100.305C336.139,99.789 336.232,99.252 336.232,98.696C336.232,98.14 336.139,97.604 335.949,97.086C335.76,96.571 335.482,96.114 335.115,95.716C334.748,95.319 334.305,95 333.789,94.762C333.271,94.524 332.686,94.405 332.031,94.405C331.375,94.405 330.789,94.524 330.273,94.762C329.756,95 329.314,95.319 328.947,95.716C328.578,96.114 328.301,96.571 328.111,97.086C327.924,97.604 327.828,98.14 327.828,98.696ZM324.254,98.696C324.254,97.564 324.457,96.535 324.863,95.612C325.271,94.688 325.822,93.899 326.518,93.243C327.213,92.586 328.037,92.08 328.992,91.723C329.945,91.366 330.959,91.186 332.031,91.186C333.104,91.186 334.117,91.366 335.07,91.723C336.023,92.08 336.848,92.586 337.543,93.243C338.238,93.899 338.791,94.688 339.197,95.612C339.605,96.535 339.809,97.564 339.809,98.696C339.809,99.828 339.605,100.855 339.197,101.779C338.791,102.703 338.238,103.494 337.543,104.148C336.848,104.805 336.023,105.31 335.07,105.669C334.117,106.026 333.104,106.205 332.031,106.205C330.959,106.205 329.945,106.026 328.992,105.669C328.037,105.31 327.213,104.805 326.518,104.148C325.822,103.494 325.271,102.703 324.863,101.779C324.457,100.855 324.254,99.828 324.254,98.696Z" style="fill:rgb(3,4,4);fill-rule:nonzero;"/>
        <path d="M343.146,91.543L346.543,91.543L346.543,93.838L346.604,93.838C346.939,93.123 347.457,92.502 348.152,91.976C348.848,91.45 349.791,91.186 350.984,91.186C351.938,91.186 352.746,91.346 353.412,91.663C354.078,91.981 354.619,92.399 355.037,92.914C355.453,93.432 355.752,94.028 355.93,94.703C356.109,95.378 356.199,96.084 356.199,96.819L356.199,105.848L352.623,105.848L352.623,98.607C352.623,98.209 352.602,97.768 352.563,97.281C352.523,96.793 352.418,96.337 352.25,95.909C352.08,95.483 351.818,95.125 351.461,94.836C351.104,94.549 350.615,94.405 350,94.405C349.404,94.405 348.902,94.504 348.496,94.703C348.088,94.902 347.75,95.17 347.482,95.507C347.213,95.846 347.02,96.233 346.9,96.67C346.781,97.107 346.723,97.564 346.723,98.04L346.723,105.848L343.146,105.848L343.146,91.543Z" style="fill:rgb(3,4,4);fill-rule:nonzero;"/>
        <path d="M80.678,16.721L80.678,12.222L85.045,12.222L85.045,6.09L90.339,6.09L90.339,12.222L96.162,12.222L96.162,16.721L90.339,16.721L90.339,25.986C90.339,28.103 90.956,29.427 93.294,29.427C94.221,29.427 95.5,29.25 96.162,28.765L96.162,33.22C95.059,33.75 93.206,33.926 91.971,33.926C86.368,33.926 85.045,31.411 85.045,26.427L85.045,16.721L80.678,16.721Z" style="fill:rgb(34,30,31);fill-rule:nonzero;"/>
        <path d="M105.603,15.178L105.691,15.178C106.53,13.413 108.647,11.693 111.912,11.693C117.602,11.693 119.631,15.707 119.631,20.03L119.631,33.397L114.337,33.397L114.337,22.677C114.337,20.339 114.161,16.457 110.455,16.457C106.971,16.457 105.603,19.016 105.603,21.839L105.603,33.397L100.31,33.397L100.31,0.047L105.603,0.047L105.603,15.178Z" style="fill:rgb(34,30,31);fill-rule:nonzero;"/>
        <path d="M138.513,20.692C138.469,17.604 136.439,15.663 133.131,15.663C129.998,15.663 128.058,17.648 127.66,20.692L138.513,20.692ZM127.66,24.662C128.013,27.794 130.396,29.691 133.351,29.691C135.998,29.691 137.718,28.456 139.042,26.824L142.835,29.691C140.365,32.736 137.233,33.926 133.88,33.926C127.484,33.926 122.367,29.47 122.367,22.81C122.367,16.148 127.484,11.693 133.88,11.693C139.792,11.693 143.806,15.84 143.806,23.206L143.806,24.662L127.66,24.662Z" style="fill:rgb(34,30,31);fill-rule:nonzero;"/>
        <path d="M172.479,20.692C172.437,17.604 170.406,15.663 167.099,15.663C163.966,15.663 162.025,17.648 161.628,20.692L172.479,20.692ZM161.628,24.662C161.982,27.794 164.363,29.691 167.319,29.691C169.966,29.691 171.687,28.456 173.009,26.824L176.804,29.691C174.334,32.736 171.201,33.926 167.849,33.926C161.452,33.926 156.335,29.47 156.335,22.81C156.335,16.148 161.452,11.693 167.849,11.693C173.76,11.693 177.774,15.84 177.774,23.206L177.774,24.662L161.628,24.662Z" style="fill:rgb(34,30,31);fill-rule:nonzero;"/>
        <path d="M177.643,12.222L183.421,12.222L189.068,27.044L189.155,27.044L194.846,12.222L200.272,12.222L191.936,33.397L186.288,33.397L177.643,12.222Z" style="fill:rgb(34,30,31);fill-rule:nonzero;"/>
        <path d="M216.242,20.692C216.199,17.604 214.169,15.663 210.861,15.663C207.729,15.663 205.788,17.648 205.39,20.692L216.242,20.692ZM205.39,24.662C205.743,27.794 208.125,29.691 211.081,29.691C213.727,29.691 215.449,28.456 216.772,26.824L220.564,29.691C218.097,32.736 214.964,33.926 211.611,33.926C205.216,33.926 200.097,29.47 200.097,22.81C200.097,16.148 205.216,11.693 211.611,11.693C217.523,11.693 221.535,15.84 221.535,23.206L221.535,24.662L205.39,24.662Z" style="fill:rgb(34,30,31);fill-rule:nonzero;"/>
        <path d="M224.934,12.222L230.227,12.222L230.227,15.575L230.314,15.575C231.462,13.149 233.8,11.693 236.579,11.693C237.24,11.693 237.859,11.826 238.477,12.001L238.477,17.118C237.594,16.899 236.756,16.721 235.917,16.721C230.934,16.721 230.227,20.912 230.227,22.059L230.227,33.397L224.934,33.397L224.934,12.222Z" style="fill:rgb(34,30,31);fill-rule:nonzero;"/>
        <path d="M244.961,22.765C244.961,26.118 247.609,28.897 251.182,28.897C255.107,28.897 257.489,26.206 257.489,22.677C257.489,19.016 255.063,16.457 251.226,16.457C247.521,16.457 244.961,19.016 244.961,22.765ZM262.519,12.222L262.519,31.5C262.519,39.132 258.814,43.984 250.563,43.984C246.639,43.984 243.064,43.146 240.065,40.499L243.242,36.176C245.359,38.117 247.564,39.22 250.519,39.22C255.637,39.22 257.226,36.308 257.226,32.117L257.226,30.573L257.137,30.573C255.594,32.647 252.857,33.661 250.21,33.661C243.859,33.661 239.668,28.809 239.668,22.81C239.668,16.545 243.595,11.693 250.123,11.693C253.078,11.693 255.858,12.839 257.402,15.398L257.489,15.398L257.489,12.222L262.519,12.222Z" style="fill:rgb(34,30,31);fill-rule:nonzero;"/>
        <path d="M265.828,12.222L271.122,12.222L271.122,15.575L271.209,15.575C272.357,13.149 274.693,11.693 277.475,11.693C278.136,11.693 278.755,11.826 279.371,12.001L279.371,17.118C278.488,16.899 277.651,16.721 276.813,16.721C271.829,16.721 271.122,20.912 271.122,22.059L271.122,33.397L265.828,33.397L265.828,12.222Z" style="fill:rgb(34,30,31);fill-rule:nonzero;"/>
        <path d="M296.753,20.692C296.709,17.604 294.679,15.663 291.37,15.663C288.238,15.663 286.298,17.648 285.902,20.692L296.753,20.692ZM285.902,24.662C286.254,27.794 288.636,29.691 291.592,29.691C294.239,29.691 295.957,28.456 297.282,26.824L301.076,29.691C298.606,32.736 295.473,33.926 292.12,33.926C285.724,33.926 280.608,29.47 280.608,22.81C280.608,16.148 285.724,11.693 292.12,11.693C298.031,11.693 302.048,15.84 302.048,23.206L302.048,24.662L285.902,24.662Z" style="fill:rgb(34,30,31);fill-rule:nonzero;"/>
        <path d="M320.75,20.692C320.706,17.604 318.677,15.663 315.369,15.663C312.237,15.663 310.295,17.648 309.898,20.692L320.75,20.692ZM309.898,24.662C310.253,27.794 312.633,29.691 315.589,29.691C318.236,29.691 319.956,28.456 321.28,26.824L325.073,29.691C322.603,32.736 319.472,33.926 316.117,33.926C309.723,33.926 304.604,29.47 304.604,22.81C304.604,16.148 309.723,11.693 316.117,11.693C322.029,11.693 326.044,15.84 326.044,23.206L326.044,24.662L309.898,24.662Z" style="fill:rgb(34,30,31);fill-rule:nonzero;"/>
        <path d="M329.309,12.222L334.338,12.222L334.338,15.619L334.425,15.619C335.396,13.501 337.381,11.693 340.91,11.693C346.601,11.693 348.631,15.707 348.631,20.03L348.631,33.397L343.337,33.397L343.337,22.677C343.337,20.339 343.159,16.457 339.455,16.457C335.971,16.457 334.603,19.016 334.603,21.839L334.603,33.397L329.309,33.397L329.309,12.222Z" style="fill:rgb(34,30,31);fill-rule:nonzero;"/>
        <path d="M118.23,57.87C117.215,56.458 115.892,55.708 114.083,55.708C112.671,55.708 110.995,56.37 110.995,57.958C110.995,61.752 122.42,58.664 122.42,66.914C122.42,71.944 117.611,73.707 113.288,73.707C110.024,73.707 107.201,72.87 105.04,70.444L108.569,67.134C109.936,68.634 111.348,69.738 113.597,69.738C115.142,69.738 117.127,68.987 117.127,67.311C117.127,62.944 105.701,66.385 105.701,58.313C105.701,53.593 109.936,51.474 114.215,51.474C117.038,51.474 120.038,52.356 121.759,54.695L118.23,57.87Z" style="fill:rgb(34,30,31);fill-rule:nonzero;"/>
        <path d="M124.052,56.503L124.052,52.004L128.42,52.004L128.42,45.872L133.713,45.872L133.713,52.004L139.537,52.004L139.537,56.503L133.713,56.503L133.713,65.767C133.713,67.884 134.331,69.207 136.669,69.207C137.595,69.207 138.875,69.032 139.537,68.547L139.537,73.002C138.434,73.532 136.581,73.707 135.346,73.707C129.743,73.707 128.42,71.193 128.42,66.208L128.42,56.503L124.052,56.503Z" style="fill:rgb(34,30,31);fill-rule:nonzero;"/>
        <path d="M156.609,63.694L155.506,63.694C152.595,63.694 147.566,63.913 147.566,66.959C147.566,68.899 149.551,69.738 151.271,69.738C154.889,69.738 156.609,67.84 156.609,64.885L156.609,63.694ZM156.918,70.266L156.786,70.266C155.286,72.65 152.815,73.707 149.992,73.707C146.066,73.707 142.272,71.545 142.272,67.356C142.272,60.474 150.301,59.988 155.595,59.988L156.918,59.988L156.918,59.414C156.918,56.813 154.889,55.443 152.065,55.443C149.86,55.443 147.83,56.326 146.419,57.649L143.64,54.872C145.978,52.489 149.287,51.474 152.639,51.474C161.683,51.474 161.683,58.003 161.683,61.002L161.683,73.178L156.918,73.178L156.918,70.266Z" style="fill:rgb(34,30,31);fill-rule:nonzero;"/>
        <path d="M164.461,56.503L164.461,52.004L168.829,52.004L168.829,45.872L174.124,45.872L174.124,52.004L179.946,52.004L179.946,56.503L174.124,56.503L174.124,65.767C174.124,67.884 174.739,69.207 177.079,69.207C178.004,69.207 179.284,69.032 179.946,68.547L179.946,73.002C178.844,73.532 176.99,73.707 175.755,73.707C170.151,73.707 168.829,71.193 168.829,66.208L168.829,56.503L164.461,56.503Z" style="fill:rgb(34,30,31);fill-rule:nonzero;"/>
        <path d="M199.18,60.474C199.136,57.386 197.106,55.443 193.799,55.443C190.666,55.443 188.725,57.43 188.33,60.474L199.18,60.474ZM188.33,64.443C188.681,67.576 191.063,69.474 194.02,69.474C196.666,69.474 198.385,68.238 199.71,66.606L203.502,69.474C201.033,72.517 197.9,73.707 194.547,73.707C188.151,73.707 183.035,69.252 183.035,62.591C183.035,55.93 188.151,51.474 194.547,51.474C200.459,51.474 204.475,55.621 204.475,62.989L204.475,64.443L188.33,64.443Z" style="fill:rgb(34,30,31);fill-rule:nonzero;"/>
        <path d="M234.735,58.357C233.5,57.077 232.135,56.239 230.722,56.239C226.84,56.239 224.502,59.283 224.502,62.591C224.502,65.899 226.84,68.942 230.722,68.942C232.354,68.942 233.853,68.238 234.823,66.959L238.353,70.752C236.191,72.914 232.574,73.707 230.722,73.707C224.325,73.707 219.207,69.252 219.207,62.591C219.207,55.93 224.325,51.474 230.722,51.474C233.413,51.474 236.368,52.446 238.397,54.695L234.735,58.357Z" style="fill:rgb(34,30,31);fill-rule:nonzero;"/>
        <path d="M251.544,68.942C255.427,68.942 257.765,65.899 257.765,62.591C257.765,59.283 255.427,56.239 251.544,56.239C247.663,56.239 245.325,59.283 245.325,62.591C245.325,65.899 247.663,68.942 251.544,68.942ZM251.544,51.474C257.94,51.474 263.058,55.93 263.058,62.591C263.058,69.252 257.94,73.707 251.544,73.707C245.148,73.707 240.03,69.252 240.03,62.591C240.03,55.93 245.148,51.474 251.544,51.474Z" style="fill:rgb(34,30,31);fill-rule:nonzero;"/>
        <rect x="265.97" y="39.828" width="5.294" height="33.35" style="fill:rgb(34,30,31);fill-rule:nonzero;"/>
        <rect x="277.263" y="39.828" width="5.294" height="33.35" style="fill:rgb(34,30,31);fill-rule:nonzero;"/>
        <path d="M302.144,60.474C302.1,57.386 300.071,55.443 296.763,55.443C293.63,55.443 291.688,57.43 291.292,60.474L302.144,60.474ZM291.292,64.443C291.645,67.576 294.025,69.474 296.983,69.474C299.629,69.474 301.35,68.238 302.673,66.606L306.466,69.474C303.996,72.517 300.864,73.707 297.511,73.707C291.115,73.707 285.998,69.252 285.998,62.591C285.998,55.93 291.115,51.474 297.511,51.474C303.424,51.474 307.437,55.621 307.437,62.989L307.437,64.443L291.292,64.443Z" style="fill:rgb(34,30,31);fill-rule:nonzero;"/>
        <path d="M315.157,62.547C315.157,65.899 317.804,68.679 321.379,68.679C325.304,68.679 327.685,65.988 327.685,62.458C327.685,58.796 325.259,56.239 321.422,56.239C317.717,56.239 315.157,58.796 315.157,62.547ZM332.714,52.004L332.714,71.28C332.714,78.913 329.009,83.766 320.76,83.766C316.834,83.766 313.261,82.928 310.262,80.28L313.438,75.957C315.554,77.898 317.76,79 320.716,79C325.833,79 327.421,76.089 327.421,71.9L327.421,70.356L327.332,70.356C325.788,72.427 323.053,73.443 320.407,73.443C314.054,73.443 309.863,68.591 309.863,62.591C309.863,56.326 313.79,51.474 320.318,51.474C323.274,51.474 326.054,52.621 327.597,55.18L327.685,55.18L327.685,52.004L332.714,52.004Z" style="fill:rgb(34,30,31);fill-rule:nonzero;"/>
        <path d="M351.685,60.474C351.64,57.386 349.611,55.443 346.302,55.443C343.17,55.443 341.229,57.43 340.833,60.474L351.685,60.474ZM340.833,64.443C341.186,67.576 343.568,69.474 346.522,69.474C349.171,69.474 350.89,68.238 352.213,66.606L356.008,69.474C353.538,72.517 350.404,73.707 347.053,73.707C340.655,73.707 335.539,69.252 335.539,62.591C335.539,55.93 340.655,51.474 347.053,51.474C352.963,51.474 356.979,55.621 356.979,62.989L356.979,64.443L340.833,64.443Z" style="fill:rgb(34,30,31);fill-rule:nonzero;"/>
        <path d="M16.432,24.233C16.239,24.126 15.992,23.805 15.921,23.595L15.921,22.829C15.841,22.471 15.713,21.99 15.625,21.638C15.543,21.315 15.595,20.911 15.539,20.616C15.486,20.328 15.671,19.941 15.584,19.595C15.475,19.178 15.527,18.983 15.625,18.616C15.708,18.296 15.537,17.919 15.584,17.681L15.584,16.449C15.625,16.259 15.713,15.998 15.751,15.849C15.861,15.446 15.71,15.046 15.838,14.703C16.039,14.157 16.556,13.97 16.858,13.554C17.262,12.998 17.801,12.554 18.39,12.193C18.554,12.094 18.751,12.087 18.902,11.98C19.074,11.859 19.202,11.637 19.37,11.513C19.798,11.187 20.239,10.877 20.603,10.491C21.094,10.498 21.934,10.781 22.305,10.703C22.614,10.637 23.027,10.682 23.325,10.576C23.512,10.509 23.752,10.34 23.963,10.278C24.177,10.263 24.391,10.251 24.601,10.234C24.734,10.199 24.954,10.103 25.113,10.064C25.644,9.941 26.057,10.269 26.515,10.151C26.69,10.106 26.984,10.122 27.196,10.064C27.551,9.971 28.132,9.703 28.643,9.81C28.878,9.86 29.291,9.787 29.58,9.854C30.344,10.022 31.217,9.992 32.046,10.109C32.526,10.175 33.251,9.986 33.707,10.064C34.047,10.122 34.589,10.025 34.983,10.109C35.83,10.287 37.076,10.232 37.833,10.064C38.3,9.962 38.663,10.178 39.152,10.064C39.866,9.9 40.785,9.863 41.576,9.598C41.919,9.482 42.28,9.215 42.599,9.087C43.146,8.867 43.705,8.796 44.172,8.491C44.476,8.29 44.606,7.88 44.894,7.683C45.059,7.573 45.214,7.539 45.361,7.428C45.531,7.301 45.639,7.063 45.83,6.962C45.901,6.945 45.972,6.932 46.045,6.917C46.127,6.862 46.141,6.731 46.213,6.661C46.315,6.564 46.9,6.174 47.021,6.108C47.497,5.856 48.103,5.834 48.637,5.64C49.016,5.506 49.409,5.202 49.786,5.088C50.217,4.959 50.602,5.048 51.062,4.916C51.328,4.844 51.599,4.634 51.829,4.535C52.2,4.375 52.535,4.463 52.976,4.365C53.384,4.272 54.028,4.058 54.639,4.193C55.198,4.32 55.687,4.406 56.253,4.535C56.887,4.678 57.541,4.537 57.954,4.874C58,4.989 58.04,5.101 58.083,5.216C58.155,5.273 58.224,5.33 58.296,5.385C58.547,5.756 58.657,6.236 58.978,6.534C59.111,6.661 60.21,6.978 60.467,7.044L61.064,7.044C61.284,7.121 61.446,7.4 61.703,7.471C62.238,7.618 63.006,7.093 63.273,6.917C63.565,6.725 63.958,6.69 64.254,6.492C64.405,6.389 64.444,6.22 64.55,6.065C64.897,5.567 65.626,5.318 66.421,5.515C66.658,5.874 66.882,6.174 66.891,6.789C67.07,6.898 67.307,7.017 67.488,7.129C67.457,7.205 67.479,7.173 67.443,7.215C67.338,7.476 66.995,7.531 66.891,7.81C66.759,8.167 67.079,8.491 66.932,8.917C66.889,9.042 66.718,9.149 66.678,9.299C66.577,9.659 66.84,9.929 66.806,10.151C66.763,10.428 66.558,10.628 66.548,11.044C66.963,11.035 67.135,10.905 67.443,10.832C67.799,10.817 68.153,10.803 68.506,10.789C68.661,10.748 68.836,10.583 69.061,10.619C69.269,10.652 70.019,10.863 70.167,10.958C70.265,11.023 70.342,11.161 70.465,11.214C70.674,11.257 70.89,11.3 71.103,11.343C71.539,11.525 71.946,11.871 72.336,12.108C72.964,12.492 73.819,12.47 74.167,13.128C74.624,14.001 74.465,14.951 74.72,16.019L74.72,16.53C74.909,17.364 75.167,18.198 75.358,18.956C75.431,19.253 75.471,19.719 75.483,19.981L75.483,20.659C75.547,20.895 75.663,21.549 75.612,21.85C75.596,21.949 75.536,22.193 75.571,22.361C75.595,22.476 75.657,22.774 75.612,22.957C75.553,23.194 75.416,23.431 75.358,23.68C75.343,23.963 75.327,24.245 75.316,24.531C75.152,25.119 74.689,25.947 74.889,26.827C75.206,28.23 75.082,29.896 75.399,31.336L75.399,32.187C75.399,32.765 75.421,33.312 75.528,33.721L75.528,34.656C75.627,35.112 75.578,35.82 75.655,36.315C75.464,36.806 75.401,37.582 75.399,38.187L75.399,39.209C75.18,40.227 75.119,42.16 75.358,43.248C75.343,44.213 75.327,45.177 75.316,46.141C75.551,47.219 75.624,48.409 75.865,49.503C76.013,50.151 75.814,50.995 75.954,51.629C75.985,51.785 75.93,52.011 75.91,52.099C75.834,52.461 76.012,52.74 75.954,53.077C75.91,53.327 75.816,53.713 75.865,54.011C75.919,54.315 75.976,54.735 76.037,55.032C76.023,55.315 76.01,55.599 75.994,55.884C76.189,56.605 76.287,57.563 76.122,58.31C76.039,58.699 76.167,59.282 76.122,59.548C76.165,60.24 76.208,60.935 76.251,61.63C76.234,61.841 76.22,62.054 76.208,62.266C76.262,62.539 76.389,63.044 76.293,63.42C76.167,63.91 76.209,64.518 76.336,65.031L76.336,65.627C76.39,65.826 76.535,66.069 76.59,66.31L76.59,67.369C76.793,68.283 76.451,69.416 76.677,70.436L76.677,70.902C76.891,71.875 76.981,72.617 76.975,73.626C76.97,74.042 76.975,74.528 76.887,74.818C76.874,75.059 76.859,75.298 76.845,75.543C76.758,75.805 76.175,76.159 75.994,76.52C75.84,76.83 75.898,77.208 75.74,77.5C75.603,77.753 75.291,77.955 75.187,78.222C75.157,78.376 75.129,78.534 75.099,78.69C74.989,78.868 74.74,78.927 74.59,79.073C74.491,79.169 74.448,79.326 74.337,79.414C74.036,79.637 73.747,79.826 73.443,80.049C73.076,80.319 72.836,80.806 72.421,81.029C72.237,81.072 72.052,81.114 71.869,81.158C71.585,81.261 71.321,81.475 71.06,81.579C70.814,81.687 70.594,81.696 70.38,81.836C70.294,81.937 70.209,82.036 70.123,82.136C69.699,82.422 69.213,82.554 68.719,82.775C68.487,82.876 68.304,83.038 67.997,83.112L67.358,83.112C66.287,83.357 64.994,83.073 63.826,83.326C63.401,83.341 62.977,83.357 62.551,83.371C62.479,83.357 62.261,83.288 62.126,83.326C62.085,83.337 61.961,83.441 61.913,83.452C61.515,83.465 61.117,83.483 60.721,83.496C59.547,83.765 58.383,83.78 57.191,83.924C57.037,83.94 56.574,83.869 56.425,83.84C56.259,83.804 56.011,83.863 55.914,83.878C55.817,83.901 55.041,83.805 54.978,83.793C54.476,83.7 53.831,83.904 53.402,83.84C53.151,83.796 52.834,83.63 52.467,83.71C51.5,83.915 49.878,84.07 48.851,83.924C48.311,83.951 47.773,83.979 47.236,84.005C46.925,83.94 46.545,83.855 46.298,83.793C46.082,83.742 45.349,83.908 45.065,83.878C44.756,83.852 44.334,83.735 44.043,83.666C43.659,83.576 43.144,83.654 42.853,83.583L41.663,83.583C41.461,83.536 40.999,83.423 40.81,83.452C40.748,83.463 40.569,83.574 40.511,83.583C40.361,83.604 40.016,83.486 39.79,83.536C39.413,83.626 38.768,83.596 38.302,83.496C37.916,83.413 37.398,83.527 37.068,83.452C36.533,83.337 36.185,83.651 35.662,83.536C35.434,83.491 35.141,83.586 34.897,83.536C34.383,83.441 33.455,83.441 32.939,83.536C32.533,83.616 32.229,83.308 31.749,83.413C30.862,83.601 29.872,83.362 28.898,83.583C28.643,83.57 28.388,83.553 28.132,83.536C26.918,83.805 25.436,83.69 24.22,83.924C23.831,83.996 23.272,83.784 22.816,83.878C22.187,84.011 21.399,83.995 20.856,83.878C20.733,83.855 20.626,83.912 20.559,83.924C20.203,83.976 19.776,83.894 19.54,83.84L18.604,83.84C17.861,83.644 16.735,83.531 15.921,83.71C15.524,83.796 14.894,83.626 14.605,83.71C14.408,83.769 14.347,84.055 14.049,84.005C13.807,83.971 13.471,83.811 13.243,83.753L12.69,83.753C12.405,83.681 11.877,83.601 11.626,83.536C11.328,83.553 11.031,83.57 10.733,83.583C10.126,83.423 9.204,83.465 8.605,83.326L7.965,83.326C7.355,83.161 6.786,82.626 6.265,82.303C5.958,82.116 5.593,82.139 5.244,81.967C4.98,81.831 4.728,81.566 4.478,81.413C4.226,81.258 3.924,81.231 3.669,81.072C3.472,80.949 3.47,80.784 3.331,80.603C3.227,80.471 2.949,80.44 2.86,80.303C2.848,80.221 2.833,80.136 2.819,80.049C2.741,79.87 2.557,79.707 2.478,79.541C2.373,79.307 2.407,79.077 2.309,78.818C2.135,78.362 1.912,77.85 1.797,77.285C1.724,76.918 1.98,76.537 1.883,76.094C1.758,75.539 1.796,74.743 1.671,74.18C1.656,73.554 1.641,72.931 1.627,72.307C1.506,71.752 1.604,71.099 1.5,70.646L1.5,69.837C1.428,69.54 1.511,69.19 1.415,68.777C1.174,67.75 1.059,66.519 0.989,65.374C0.981,65.248 1.049,64.896 1.075,64.778L1.075,63.752C1.172,63.293 1.147,62.656 1.244,62.223L1.244,61.584C1.324,61.221 1.381,60.443 1.286,60.012C1.008,58.731 1.344,57.326 1.032,56.053C0.936,55.662 1.063,55.122 0.989,54.781C1.004,54.368 1.017,53.958 1.032,53.545C0.856,52.749 0.917,51.7 0.734,50.862L0.734,50.268C0.651,49.912 0.67,49.453 0.564,49.036C0.221,47.678 -0.078,45.516 0.181,43.718C0.305,42.856 -0.153,42.206 0.054,41.291C0.157,40.838 0.108,40.262 0.225,39.762C0.359,39.181 0.506,38.557 0.649,37.972L0.649,36.995C0.843,36.109 0.666,34.959 0.862,34.06C0.925,33.765 0.795,32.567 0.734,32.272C0.749,31.82 0.762,31.367 0.776,30.91C0.746,30.052 0.734,29.048 0.564,28.275C0.42,27.618 0.576,26.701 0.692,26.19C0.706,25.878 0.718,25.566 0.734,25.255C0.93,24.482 0.981,23.412 1.161,22.659C1.188,22.163 1.216,21.666 1.244,21.169C1.23,21.057 1.216,20.941 1.202,20.829C1.4,19.793 1.415,18.682 1.415,17.511C1.4,16.844 1.387,16.178 1.372,15.513C1.462,15.113 1.501,14.627 1.586,14.276L1.586,13.768C1.847,12.722 2.012,11.736 2.266,10.661C2.378,10.185 2.302,9.847 2.435,9.386C2.465,9.286 2.578,9.146 2.605,9.044L2.605,8.662C2.657,8.552 2.857,8.452 2.903,8.322L2.903,8.022C2.998,7.734 3.143,7.437 3.289,7.215C3.443,6.969 3.373,6.561 3.669,6.449C3.75,6.564 3.771,6.427 3.967,6.433C3.997,6.354 4.008,6.408 4.011,6.279C3.902,6.215 3.875,6.215 3.84,6.065C3.941,5.963 3.976,5.765 4.096,5.682C4.392,5.584 4.69,5.486 4.989,5.385C5.133,5.288 5.222,5.101 5.328,4.959C5.431,4.826 5.569,4.805 5.712,4.703C5.979,4.519 6.171,4.169 6.435,3.982C6.576,3.88 6.738,3.898 6.903,3.81C7.224,3.646 7.615,3.372 7.924,3.217L8.138,3.217C8.523,2.95 8.91,2.499 9.37,2.322C9.484,2.308 9.598,2.293 9.709,2.281C9.854,2.224 10.019,2.071 10.179,2.022C10.335,2.009 10.491,1.995 10.647,1.982C11.438,1.722 12.351,1.376 13.157,1.131C13.601,0.997 14.198,1.107 14.605,0.92C14.705,0.929 14.769,1.05 14.943,1.003C15.018,0.984 15.21,0.855 15.284,0.832C16.092,0.819 16.9,0.804 17.708,0.788C18.338,0.671 20.119,0.746 20.9,0.92C21.085,0.957 21.289,0.862 21.411,0.875C22.179,0.954 23.135,1.05 23.878,1.216L24.688,1.216C25.676,1.439 27.025,1.214 28.005,1.427C28.245,1.482 28.642,1.424 28.813,1.385C29.463,1.244 30.172,1.432 30.77,1.301C31.189,1.208 31.634,1.36 31.961,1.301C32.749,1.157 33.921,1.187 34.727,1.003C35.293,1.018 35.862,1.032 36.428,1.045C36.803,0.965 37.132,1.101 37.578,1.003C38.125,0.884 39.255,0.875 39.748,0.961C40.102,1.02 40.691,0.816 40.98,0.748C41.28,0.677 41.621,0.746 41.832,0.748C42.518,0.757 43.154,0.744 43.705,0.62L44.428,0.62C44.697,0.557 45.183,0.512 45.449,0.452L46.045,0.452C46.564,0.33 47.191,0.227 47.659,0.111L48.552,0.111C48.726,0.071 49.21,-0.007 49.446,0.068C49.549,0.101 49.687,0.244 49.786,0.28C50.015,0.363 50.451,0.317 50.681,0.366C51.048,0.351 51.418,0.337 51.786,0.32C52.146,0.403 53.039,0.495 53.36,0.452C53.801,0.384 54.315,0.266 54.724,0.366L56.21,0.366C57.384,0.626 58.633,0.421 59.743,0.41C60.277,0.403 60.902,0.426 61.401,0.536C61.654,0.59 61.985,0.474 62.166,0.493C62.63,0.541 63.201,0.612 63.572,0.707C64.324,0.635 65.077,0.562 65.825,0.493C66.208,0.579 66.732,0.612 67.148,0.748C67.406,0.834 67.683,1.018 67.953,1.089C68.342,1.19 68.647,1.12 68.976,1.257C69.181,1.345 69.408,1.552 69.613,1.642C69.988,1.807 70.314,1.793 70.718,1.941C70.925,2.014 71.421,2.346 71.612,2.491C71.951,2.749 72.137,3.196 72.381,3.556C72.449,3.613 72.52,3.67 72.591,3.724C72.711,3.913 72.637,4.123 72.719,4.365C72.768,4.503 72.928,4.634 72.974,4.789C73.003,5.214 73.029,5.64 73.061,6.065C73.254,6.176 73.712,6.399 73.784,6.62C73.989,7.266 73.26,7.653 73.104,7.938C73.043,8.04 73.115,8.185 73.019,8.236L72.336,8.236C72.277,8.188 72.213,8.173 72.124,8.151C72.034,7.896 71.755,7.816 71.657,7.555C71.612,7.272 71.568,6.987 71.527,6.704C71.471,6.543 71.322,6.348 71.273,6.15C71.181,5.786 71.356,5.513 71.231,5.173C71.202,5.1 71.088,4.99 71.06,4.916C71.047,4.818 71.031,4.719 71.017,4.619C70.951,4.507 70.755,4.433 70.674,4.323C70.569,4.166 70.529,4.004 70.38,3.897C70.053,3.659 69.751,3.521 69.4,3.302C69.292,3.229 69.179,3.062 69.061,3.001C69.007,2.977 68.644,2.913 68.636,3.001C68.515,2.856 68.54,2.769 68.337,2.703C67.997,2.662 67.656,2.62 67.315,2.578C67.069,2.506 66.763,2.347 66.506,2.281L65.743,2.281C65.111,2.14 64.298,2.133 63.655,1.982C63.122,1.857 62.285,1.995 61.869,2.065C61.656,2.104 61.06,2.028 60.851,1.982C60.506,1.902 60.034,2.006 59.743,1.941C59.433,1.869 58.881,1.927 58.637,1.982C58.111,2.102 57.739,1.822 57.233,1.899C56.838,1.955 56.229,1.843 55.785,1.941C55.719,1.955 55.537,2.01 55.403,1.982C54.812,1.85 54.055,1.956 53.402,1.811C52.902,1.698 52.385,1.585 51.913,1.471C51.361,1.339 50.524,1.648 50.085,1.726C49.914,1.713 49.744,1.698 49.573,1.684C49.319,1.74 48.92,1.755 48.681,1.811C48.424,1.871 48.021,1.798 47.831,1.768C47.058,1.649 46.07,1.749 45.449,1.899C44.386,1.884 43.321,1.869 42.258,1.855C41.645,2.007 40.884,2.077 40.215,2.237L39.236,2.237C38.472,2.237 37.678,2.254 37.024,2.237C36.84,2.224 36.654,2.208 36.47,2.195C35.945,2.308 35.31,2.151 34.727,2.281C34.292,2.376 33.527,2.531 32.984,2.406C32.68,2.34 32.208,2.28 31.791,2.322C31.097,2.394 30.191,2.484 29.28,2.491C29.112,2.506 28.941,2.521 28.772,2.536C28.366,2.456 27.83,2.572 27.281,2.491C27.208,2.481 27.074,2.419 26.941,2.45C26.781,2.484 26.444,2.536 26.26,2.578L25.751,2.578C25.664,2.609 25.607,2.758 25.537,2.788C25.37,2.866 24.89,2.816 24.772,2.834C24.657,2.852 24.438,2.77 24.347,2.747C23.873,2.637 23.319,2.719 22.901,2.62C22.39,2.634 21.878,2.649 21.369,2.662C21.084,2.598 20.689,2.63 20.349,2.536C20,2.439 19.536,2.257 19.198,2.151L18.856,2.151C18.004,1.956 17.238,2.001 16.475,2.195C15.879,2.346 15.2,2.275 14.647,2.406C14.264,2.421 13.881,2.436 13.498,2.45C13.167,2.534 12.709,2.574 12.349,2.703C12.097,2.794 11.845,3.022 11.583,3.131C11.043,3.351 10.37,3.349 9.839,3.556C9.37,3.74 8.91,4.141 8.477,4.365C8.35,4.394 8.222,4.421 8.095,4.448C7.94,4.532 7.815,4.74 7.67,4.832C7.467,4.959 7.224,4.959 7.03,5.088C6.699,5.309 5.747,6.02 5.541,6.321C5.459,6.444 5.459,6.588 5.37,6.704C5.107,7.05 4.667,7.311 4.436,7.683C4.32,7.868 4.155,8.179 4.096,8.363C4.023,8.59 4.216,8.795 4.18,8.917C4.158,8.994 3.96,9.112 3.924,9.215C3.739,9.767 3.985,10.409 3.84,10.958C3.73,11.387 3.604,11.949 3.5,12.364L3.5,12.832C3.476,12.902 3.356,13.014 3.331,13.087C3.301,13.342 3.274,13.596 3.244,13.852C3.136,14.237 2.96,14.57 2.86,14.999C2.745,15.493 3.069,15.634 3.159,15.892C3.283,16.249 3.011,16.603 2.946,16.829C2.796,17.361 2.933,18.25 2.86,18.701L2.86,19.297C2.833,19.403 2.719,19.574 2.691,19.68C2.529,20.258 2.652,20.935 2.52,21.51C2.507,21.99 2.493,22.473 2.478,22.957C2.341,23.569 2.323,24.354 2.394,24.956C2.402,25.038 2.322,25.158 2.309,25.212L2.309,25.893C2.23,26.176 2.005,26.677 2.096,27.084C2.253,27.784 2.017,28.665 2.18,29.465C2.272,29.913 2.18,30.528 2.18,31.127C2.18,31.367 2.242,31.716 2.222,31.889C2.159,32.54 2.136,33.367 2.012,33.889C2.024,34.129 2.04,34.372 2.055,34.612C2.018,35.047 1.985,35.565 1.883,36.014C1.896,36.257 1.91,36.497 1.926,36.741C1.92,37.202 1.892,37.823 1.797,38.23L1.797,39.337C1.691,39.767 1.781,40.458 1.671,40.951C1.411,42.111 1.343,44.091 1.671,45.378C1.815,45.941 1.713,46.637 1.842,47.163L1.842,48.099C2.082,49.008 1.989,50.2 2.222,51.118C2.208,51.418 2.195,51.715 2.18,52.014C2.226,52.546 2.242,53.275 2.138,53.754C2.152,53.97 2.166,54.183 2.18,54.395C2.064,54.94 2.151,56.756 2.309,57.374C2.432,57.857 2.306,58.519 2.394,58.909L2.394,59.628C2.502,60.121 2.454,60.918 2.352,61.373C2.272,61.714 2.332,62.333 2.394,62.608C2.469,62.95 2.333,63.579 2.266,63.839C2.196,64.112 2.361,64.489 2.309,64.688C2.28,64.706 2.251,64.718 2.222,64.735C2.098,65.109 2.283,65.65 2.309,65.923C2.294,66.209 2.28,66.493 2.266,66.778C2.375,67.249 2.353,68.04 2.478,68.605C2.507,68.742 2.446,68.871 2.435,68.945C2.451,69.485 2.462,70.02 2.478,70.561C2.615,71.131 2.588,71.843 2.734,72.479L2.734,73.244C2.824,73.584 2.778,74.149 2.903,74.519C2.989,74.769 3.137,75.11 3.2,75.412C3.187,75.614 3.173,75.808 3.159,76.01C3.384,76.939 3.707,77.856 4.096,78.607C4.151,78.773 4.208,78.949 4.265,79.115C4.362,79.261 5.06,79.963 5.202,80.049C5.378,80.159 5.552,80.117 5.753,80.221C6.524,80.605 7.325,81.13 8.179,81.458C8.435,81.495 8.691,81.539 8.945,81.579C9.543,81.753 10.248,81.943 10.901,82.093C11.256,82.173 11.526,82.003 11.795,82.006C12.178,82.015 12.793,82.133 13.113,82.219C13.427,82.207 13.739,82.193 14.049,82.178C14.322,82.24 14.637,82.328 14.902,82.391C15.022,82.419 15.188,82.356 15.242,82.35C15.333,82.33 15.966,82.396 16.136,82.432C16.697,82.559 17.372,82.646 17.922,82.562C18.081,82.537 18.224,82.754 18.516,82.691C18.767,82.632 19.187,82.691 19.37,82.731C20.106,82.702 20.843,82.676 21.58,82.646C21.88,82.599 22.399,82.751 22.857,82.646C23.365,82.531 23.892,82.35 24.391,82.219C24.751,82.125 25.31,82.219 25.622,82.178C25.763,82.207 25.907,82.235 26.048,82.261C26.541,82.31 27.109,82.314 27.451,82.219C27.849,82.114 28.417,82.258 28.772,82.178C29.709,81.965 30.356,82.547 31.198,82.35C31.756,82.215 32.61,82.281 33.238,82.136L33.664,82.136C33.804,82.099 34.032,81.992 34.174,81.967C34.259,81.982 34.345,81.993 34.429,82.006C34.926,81.993 35.423,81.982 35.918,81.967C36.559,81.826 37.481,81.86 38.13,82.006C38.605,82.116 39.304,82.015 39.619,81.967C39.732,81.949 40.031,82.06 40.215,82.006C40.301,81.982 40.402,81.848 40.555,81.879C40.628,81.9 40.769,82.024 40.852,82.05C41.051,82.063 41.25,82.081 41.45,82.093C41.591,82.145 41.756,82.306 41.916,82.35C42.078,82.391 42.111,82.283 42.173,82.261C42.208,82.248 43.37,82.323 43.492,82.35C45.067,82.712 47.502,82.608 49.105,82.391C49.26,82.37 49.562,82.454 49.786,82.432C50.644,82.356 51.537,82.489 52.253,82.35C52.68,82.264 53.193,82.399 53.489,82.475C53.838,82.568 54.549,82.475 55.021,82.475C55.692,82.475 56.252,82.373 56.849,82.391C57.596,82.413 58.607,82.468 59.234,82.303C59.335,82.28 60.394,82.288 60.467,82.303C60.598,82.334 60.807,82.45 61.018,82.391C61.341,82.303 61.789,82.133 62.126,82.05L62.891,82.05C62.979,82.04 63.05,81.979 63.101,81.967C63.209,81.943 63.82,82.06 63.957,82.093C64.356,82.185 64.766,82.027 65.016,81.967C65.23,81.982 65.444,81.993 65.659,82.006C65.945,81.936 66.376,81.829 66.678,81.753L67.148,81.753C67.39,81.687 67.663,81.482 67.871,81.413C68.025,81.428 68.18,81.441 68.337,81.458C68.386,81.441 68.477,81.343 68.506,81.328C68.622,81.312 68.735,81.298 68.848,81.284C69.116,81.187 69.401,80.91 69.654,80.775C70.106,80.532 70.646,80.457 71.06,80.179C71.296,80.02 71.483,79.719 71.741,79.58C72.044,79.418 72.327,79.361 72.591,79.157C72.605,79.115 72.619,79.073 72.635,79.031C72.762,78.869 72.945,78.779 73.104,78.647C73.159,78.602 73.173,78.485 73.23,78.433C73.37,78.301 73.72,78.141 73.826,78.009C73.966,77.835 73.997,77.552 74.167,77.416C74.298,77.303 74.546,77.264 74.633,77.114C74.72,76.97 74.664,76.774 74.761,76.648C74.815,76.575 74.964,76.554 75.017,76.477C75.119,76.322 75.187,75.964 75.229,75.792L75.229,75.073C75.282,74.832 75.356,74.615 75.358,74.307L75.358,73.626C75.68,72.528 75.663,70.825 75.399,69.756L75.399,69.201C75.288,68.732 75.307,68.138 75.187,67.627C75.2,67.472 75.213,67.318 75.229,67.159C75.146,66.621 75.117,65.858 75.017,65.331C74.957,65.025 75.116,64.668 75.017,64.311C74.966,64.127 74.881,63.789 74.846,63.541C74.821,63.363 74.892,62.934 74.846,62.733L74.846,61.971C74.771,61.63 74.639,61.153 74.72,60.735C74.785,60.396 74.65,59.817 74.59,59.415C74.566,59.253 74.686,58.889 74.633,58.651C74.536,58.203 74.686,57.695 74.59,57.245C74.584,57.217 74.508,57.031 74.507,56.991C74.493,56.589 74.601,56.044 74.675,55.716C74.7,55.602 74.643,55.46 74.633,55.415C74.599,55.248 74.691,55.066 74.72,54.951C74.752,54.808 74.693,54.6 74.675,54.523C74.615,54.261 74.71,53.488 74.761,53.248C74.783,53.146 74.728,53.029 74.72,52.99L74.72,52.142C74.674,51.943 74.572,51.546 74.59,51.333C74.63,50.904 74.542,50.518 74.59,49.972C74.609,49.745 74.643,49.385 74.59,49.163C74.509,48.81 74.652,48.454 74.59,48.184C74.481,47.707 74.599,47.079 74.507,46.699L74.507,45.847C74.471,45.704 74.403,45.412 74.379,45.249C74.393,45.166 74.407,45.08 74.422,44.997C74.365,44.701 74.254,44.417 74.208,44.101C74.172,43.85 74.283,43.461 74.208,43.121C74.124,42.743 74.13,42.218 74.036,41.803C74.052,41.573 74.067,41.349 74.081,41.121C74.063,40.915 74.011,40.671 74.081,40.443C74.105,40.361 74.228,40.245 74.25,40.187C74.455,39.674 73.993,39.102 74.081,38.656C74.208,38.009 74.507,36.655 74.337,35.889C74.077,34.722 74.337,33.369 74.081,32.272C73.95,31.715 74.306,31.282 74.167,30.7C74.011,30.048 73.837,29.406 73.696,28.742C73.602,28.281 73.945,27.707 73.867,27.295C73.797,26.923 73.772,26.531 73.657,26.148C73.614,26.011 73.469,25.822 73.443,25.677C73.458,25.537 73.471,25.394 73.483,25.255C73.469,25.051 73.335,24.817 73.4,24.531C73.461,24.252 73.525,24.027 73.527,23.68C74.558,22.971 74.803,21.415 74.337,19.892L74.337,19.382C74.243,19 74.172,18.458 74.081,18.062L74.081,17.385C73.974,16.935 73.816,16.461 73.696,16.019C73.498,15.292 73.517,14.561 73.144,14.022C72.977,13.781 72.241,13.135 71.953,13.045C71.752,12.979 71.58,13.169 71.4,13.045C71.372,12.987 71.343,12.929 71.315,12.874C71.201,12.753 70.866,12.503 70.718,12.449C70.502,12.367 70.332,12.43 70.123,12.364C69.053,12.014 67.969,11.739 66.678,12.021C66.098,12.15 65.461,11.949 64.978,12.15C64.49,12.35 64.037,12.722 63.701,13.087C63.408,13.075 63.112,12.902 62.764,12.998C62.502,13.075 62.093,13.339 61.744,13.297C61.628,13.286 61.487,13.162 61.401,13.128C61.153,13.026 59.762,12.671 59.444,12.747C59.17,12.811 58.937,12.748 58.637,12.832C58.364,12.904 57.957,13.018 57.616,13.087C57.387,13.132 57.295,12.998 57.061,12.998C56.833,13.002 56.66,13.068 56.383,12.998C56.129,12.941 55.844,12.88 55.66,12.747C55.447,12.592 55.518,12.391 55.147,12.364C55.041,12.43 54.768,12.412 54.594,12.406C54.472,12.589 54.189,12.892 54.383,13.256C54.525,13.531 54.841,13.805 54.978,14.108C55.156,14.508 55.064,14.985 55.189,15.468C55.231,15.631 55.334,15.883 55.36,16.064C55.403,16.351 55.164,16.783 55.106,17.044C55.021,17.42 55.219,18.204 55.318,18.446C55.481,18.516 55.837,18.587 55.914,18.743C55.927,18.872 55.943,18.999 55.958,19.128C56.105,19.397 56.739,19.676 57.061,19.764C57.674,19.931 58.278,19.501 58.51,20.063C58.712,20.286 58.612,20.741 58.594,21.084C57.812,21.604 57.41,21.299 56.722,20.999C56.411,20.864 56.096,20.932 55.785,20.829C55.454,20.722 55.236,20.543 54.806,20.616L54.806,20.702C54.429,21.291 55.227,21.646 55.318,21.935C55.423,22.271 55.215,22.504 55.318,22.871C55.401,23.164 55.646,23.525 55.743,23.806C55.85,24.123 55.776,24.693 55.785,25.084C55.979,25.205 56.168,25.293 56.383,25.425C56.55,25.622 56.722,25.819 56.892,26.02C57.115,26.184 57.352,26.273 57.574,26.445C57.808,26.629 58.022,26.984 58.34,27.084C58.539,27.068 58.736,27.054 58.936,27.041C59.198,27.12 59.354,27.328 59.699,27.254C60.28,27.126 61.347,27.452 61.574,26.913C61.67,26.756 61.703,26.352 61.744,26.19C62.172,25.99 62.776,25.692 63.316,25.638C63.755,26.089 64.685,26.44 64.721,27.254C64.415,27.7 64.31,28.495 63.614,28.531C63.507,28.455 63.293,28.421 63.146,28.401C62.823,28.746 62.463,29.051 62.126,29.379C61.744,29.384 61.242,29.365 60.976,29.211C60.83,29.124 60.688,28.929 60.508,28.871C59.979,28.701 59.593,29.242 59.191,29.294C59.164,29.3 58.013,28.964 57.872,28.912C57.604,28.814 57.301,28.525 57.019,28.401C56.764,28.33 56.508,28.26 56.253,28.191C56.026,28.038 56.01,27.767 55.66,27.722C55.614,27.755 55.646,27.737 55.572,27.761C55.415,28.072 55.245,28.385 55.147,28.784L55.147,29.465C55.113,29.591 54.972,29.736 54.935,29.85C54.804,30.244 54.808,30.72 54.724,31.081C54.737,31.336 54.751,31.593 54.764,31.847C54.697,32.181 54.502,33.37 54.639,33.763C54.67,33.854 54.802,33.902 54.849,33.974C55.043,34.269 55.115,34.564 55.318,34.825C55.456,35.004 55.705,35.037 55.785,35.294C55.887,35.615 55.682,36.057 55.743,36.401C55.895,36.473 56.136,36.509 56.297,36.613C56.587,36.797 56.815,37.184 57.106,37.379C57.37,37.555 57.68,37.546 58,37.677C58.196,37.759 58.471,37.953 58.68,38.017C59.025,38.123 59.939,37.771 60.169,37.677C61.183,37.262 62.504,36.746 63.701,37.039C63.85,37.33 64.031,37.476 64.038,37.932C63.97,38.048 63.898,38.159 63.826,38.273C63.467,38.527 62.944,38.563 62.891,39.122C63.013,39.166 63.218,39.168 63.401,39.166C63.625,39.306 63.859,39.124 63.999,39.081C64.279,38.99 64.546,39.09 64.721,39.122C64.864,39.507 65.34,39.411 65.36,39.888C65.325,39.938 65.327,39.959 65.315,40.057C65.1,40.194 64.933,40.428 64.764,40.613C64.409,40.61 64.192,40.683 63.957,40.738C63.71,40.798 63.305,40.699 63.101,40.654C62.318,40.484 61.347,40.662 60.679,40.525C60.11,40.412 59.236,40.599 59.106,40.951C59.068,41.002 59.071,41.025 59.063,41.121C59.278,41.244 59.799,41.354 59.955,41.549C60.178,41.826 60.116,42.376 60.253,42.739C60.525,42.865 60.793,42.993 61.064,43.121C61.189,43.279 61.317,43.434 61.446,43.589C61.73,43.781 62.145,43.859 62.465,44.015C62.579,44.07 62.667,44.229 62.807,44.272L63.401,44.272C63.784,44.368 64.245,44.428 64.592,44.527C64.734,44.566 64.883,44.51 64.978,44.568C65.519,44.735 65.631,45.671 65.486,46.269C65.153,46.498 65.222,46.576 64.592,46.57C64.413,46.457 64.152,46.489 63.957,46.397C63.84,46.346 63.753,46.206 63.655,46.141C63.289,45.899 62.863,45.838 62.425,45.674C62.325,45.638 62.218,45.498 62.126,45.463C61.915,45.381 61.608,45.34 61.446,45.291L61.064,45.291C60.968,45.252 60.888,45.093 60.809,45.038C60.56,44.871 60.198,44.877 59.955,44.698C59.699,44.504 59.852,44.288 59.36,44.272C59.236,44.44 58.987,44.543 58.893,44.74C58.797,44.938 58.893,45.18 58.72,45.291C58.606,45.37 58.4,45.311 58.296,45.291C58.197,45.306 58.099,45.322 58,45.334C57.57,45.352 57.227,45.201 57.061,44.952C56.61,44.368 57.481,43.689 57.616,43.378C57.699,43.175 57.614,42.997 57.616,42.739C57.122,42.416 56.949,41.74 56.337,41.549C55.384,41.245 55.497,42.954 55.36,43.589C55.215,44.255 55.403,45.028 55.743,45.463C55.918,45.685 56.268,45.814 56.425,46.059C56.589,46.316 56.595,46.619 56.764,46.866C56.981,47.182 57.404,47.222 57.701,47.463C57.77,47.561 57.844,47.659 57.913,47.761C58.018,47.831 58.13,47.777 58.252,47.843C58.326,47.931 58.397,48.014 58.466,48.099C59.055,48.482 59.74,48.616 60.34,48.993C60.54,49.119 60.641,49.379 60.891,49.461C61.317,49.503 61.744,49.546 62.166,49.589C62.608,49.751 62.983,50.151 63.358,50.397C63.716,50.624 64.179,50.702 64.508,50.95C64.674,51.075 64.81,51.46 64.934,51.544C65.016,51.558 65.103,51.575 65.189,51.587C65.307,51.651 65.438,51.84 65.572,51.887L66.337,51.887C66.593,51.968 66.818,52.221 67.017,52.354C67.176,52.458 67.913,52.768 68.082,52.823L68.677,52.823C69.018,52.807 69.359,52.792 69.699,52.78C69.787,52.746 69.876,52.613 69.953,52.566C70.066,52.497 70.153,52.534 70.294,52.482C70.487,52.405 70.65,52.221 70.846,52.142C71.126,52.029 71.534,52.134 71.786,52.18C71.999,52.223 72.1,52.13 72.251,52.142C72.281,52.226 72.245,52.448 72.294,52.566C72.381,52.777 72.747,52.827 72.635,53.248C72.489,53.79 72.027,53.97 71.741,54.357C71.57,54.579 71.463,54.921 71.187,55.032C70.575,55.289 69.753,55.1 69.061,55.289C68.786,55.365 68.479,55.558 68.208,55.632C67.647,55.783 66.87,55.574 66.293,55.716C66.144,55.752 65.754,55.86 65.613,55.884C65.44,55.917 65.093,55.783 64.849,55.843C64.399,55.952 63.964,56.116 63.444,56.223C63.103,56.297 61.536,56.112 61.272,56.012C61.204,55.986 61.091,55.868 61.018,55.843C60.793,55.814 60.566,55.785 60.34,55.756C60.11,55.693 59.671,55.539 59.316,55.632C59.011,55.707 58.68,55.926 58.425,56.012L57.742,56.012C57.073,56.19 56.939,56.09 56.337,55.926C56.077,55.857 55.803,56.065 55.743,56.223C55.548,56.49 55.892,57.388 55.958,57.757C55.983,57.909 55.827,58.541 55.785,58.736C55.772,59.415 55.756,60.096 55.743,60.776C55.654,61.186 55.772,61.754 55.701,62.223C55.621,62.761 55.66,63.444 55.66,64.055C55.656,64.427 55.683,64.901 55.614,65.201L55.614,65.843C55.512,66.309 55.468,66.761 55.36,67.242C55.345,67.597 55.331,67.953 55.318,68.31C55.182,68.857 55.015,69.422 54.892,69.968C54.864,70.576 54.835,71.184 54.806,71.794C54.73,72.145 54.647,72.553 54.639,72.989C54.765,73.087 54.841,73.282 54.978,73.37C55.169,73.492 56.249,73.75 56.637,73.626C56.75,73.59 56.865,73.492 57.019,73.454C57.064,73.173 57.11,72.984 57.36,72.903C57.667,72.67 58.436,72.914 58.764,72.691C58.955,72.56 59.278,72.204 59.36,71.965C59.431,71.762 59.38,71.534 59.487,71.37C59.658,71.23 59.829,71.087 59.999,70.944C60.183,70.68 60.283,70.447 60.467,70.179C60.695,69.994 60.918,69.81 61.148,69.625L61.359,69.625C61.568,69.826 61.833,69.837 61.869,70.219C61.931,70.308 61.897,70.697 61.829,70.944C61.676,71.486 61.508,72.193 61.656,72.82C61.956,72.994 62.267,73.201 62.551,73.412C62.949,73.708 63.11,74.234 63.614,74.433C64.147,74.647 64.422,74.096 65.016,74.222C65.622,74.349 66.395,74.296 67.017,74.222C67.098,74.213 67.258,74.293 67.315,74.307C67.759,74.409 68.397,74.343 68.804,74.349C68.964,74.547 69.027,74.581 69.018,74.991C69.053,75.034 69.034,75.001 69.061,75.073C69.597,75.34 69.966,75.786 70.38,76.182L70.38,76.69C69.704,77.118 70.232,77.343 70.38,77.793L70.38,78.265C70.441,78.508 70.518,78.72 70.465,79.031C70.249,79.101 70.106,79.274 69.869,79.326C69.608,79.384 69.298,79.212 69.103,79.157C68.917,79.142 68.735,79.126 68.55,79.115C68.24,79.019 67.873,78.9 67.488,78.818C67.031,78.717 65.863,78.689 65.444,78.773C65.174,78.832 64.703,78.739 64.465,78.69C63.913,78.717 63.358,78.744 62.807,78.773C62.645,79.045 62.218,79.531 61.703,79.414C61.467,79.361 61.165,79.207 60.809,79.283C60.167,79.426 59.476,79.5 58.72,79.497C58.629,79.643 58.499,79.756 58.383,79.877C57.972,79.846 57.674,79.834 57.36,79.622C57.288,79.577 57.239,79.447 57.147,79.414C56.943,79.341 56.727,79.471 56.637,79.497C56.411,79.556 56.244,79.402 56.083,79.37C55.943,79.398 55.801,79.426 55.66,79.456C55.451,79.426 55.231,79.233 55.063,79.157C54.397,78.861 53.621,78.618 53.444,77.838C53.35,77.418 53.649,76.483 53.785,76.221C53.833,76.131 53.967,76.028 53.999,75.92C54.092,75.632 53.864,75.233 53.785,75.03C53.613,74.97 53.303,74.988 53.062,74.991C52.878,75.139 52.698,75.121 52.424,75.2C50.858,75.658 49.867,74.429 48.764,74.051C48.046,73.805 47.572,74.367 46.98,74.222C46.288,74.055 45.944,73.703 45.321,73.496C44.735,73.306 43.974,73.565 43.492,73.2C43.419,73.104 43.349,73.002 43.278,72.903C43.177,72.844 43.069,72.887 42.98,72.82C42.918,72.769 42.767,72.542 42.725,72.479C42.684,72.35 42.639,72.221 42.599,72.094C42.453,71.901 42.027,71.725 41.874,71.54C41.759,71.402 41.774,71.178 41.663,71.028C41.575,70.917 41.009,70.627 40.852,70.52C40.739,70.378 40.626,70.237 40.511,70.093C40.307,69.965 39.69,69.881 39.366,69.879C39.15,70.09 38.878,70.252 38.641,70.436C38.502,70.541 38.49,70.754 38.342,70.859C38.106,71.031 37.206,70.868 36.811,70.986C36.511,71.081 36.081,71.239 35.748,71.327L35.11,71.327C34.842,71.37 34.571,71.413 34.301,71.458C34.092,71.518 33.824,71.659 33.578,71.714C33.431,71.743 33.339,71.678 33.238,71.666C33.039,71.684 32.841,71.699 32.643,71.714C32.469,71.678 32.16,71.657 31.92,71.666C31.5,71.693 30.191,71.899 29.919,71.752C29.639,71.657 29.435,71.348 29.197,71.201C28.977,71.062 28.572,71.047 28.303,70.986C27.637,70.841 26.791,71.044 26.302,71.159C25.831,71.268 24.071,70.92 23.793,70.774C22.999,70.364 22.062,69.876 21.369,69.329C20.96,69.004 20.532,68.473 20.22,68.052C20.106,67.897 19.985,67.657 19.836,67.542C19.665,67.409 18.695,67.008 18.476,66.945C17.897,66.787 17.044,66.843 16.475,66.862L15.284,66.862C15.013,66.926 14.611,66.987 14.264,66.905C13.977,66.837 13.575,66.81 13.286,66.692C13.068,66.603 12.864,66.421 12.646,66.35C12.233,66.212 11.795,66.315 11.456,66.138C11.363,66.089 11.287,65.932 11.202,65.885C10.947,65.738 10.735,65.704 10.519,65.543C10.412,65.464 10.353,65.302 10.223,65.245C9.905,65.103 9.346,65.094 9.03,65.031C8.565,64.945 7.764,65.517 7.328,65.627C7.124,65.68 6.915,65.57 6.775,65.543C6.634,65.559 6.492,65.572 6.35,65.586C6.2,65.547 5.949,65.49 5.753,65.415C5.333,65.257 4.967,64.892 4.521,64.778C3.727,64.577 3.434,65.115 2.691,64.948C2.584,64.784 2.493,64.752 2.478,64.479C2.529,64.395 2.467,64.215 2.52,64.094C2.593,63.938 2.897,63.477 3.075,63.42C3.551,63.074 4.408,63.207 5.072,63.033C5.527,62.915 5.894,62.672 6.316,62.484C6.425,62.439 6.751,62.272 6.873,62.234C7.358,62.076 7.875,62.211 8.138,61.841C8.328,61.588 8.075,61.373 8.138,61.119C8.192,60.884 8.451,60.055 8.605,59.927C9.134,59.483 10.128,59.622 10.817,59.331C11.302,59.125 11.915,58.846 12.391,58.651C12.801,58.482 13.212,58.467 13.626,58.31C13.889,58.212 14.165,58.016 14.476,57.97C14.599,57.951 14.662,58.035 14.731,58.054L15.412,58.054C15.543,58.09 15.668,58.225 15.879,58.181C16.392,58.084 16.957,58.14 17.539,58.01L18.262,58.01C19.28,57.76 20.531,57.744 21.539,57.459C22.683,57.134 24.062,56.856 25.155,56.525C25.66,56.368 26.223,56.454 26.686,56.27C27.266,56.034 27.83,55.681 28.346,55.376C28.576,55.239 28.803,55.215 29.026,55.075C29.195,54.972 29.436,54.773 29.621,54.693C29.765,54.633 30.258,54.558 30.386,54.523L30.941,54.523C31.457,54.384 32.106,54.16 32.684,54.011C33.11,53.985 33.534,53.958 33.961,53.926C34.679,53.728 35.022,53.084 35.835,52.905C36.403,52.782 36.545,53.461 37.068,53.33C37.228,53.29 37.428,53.143 37.578,53.077C37.811,52.981 38.044,53.007 38.302,52.905C38.597,52.786 38.923,52.503 39.236,52.354C39.393,52.277 39.522,52.33 39.704,52.267C40.241,52.084 40.776,51.802 41.364,51.673C41.506,51.685 41.647,51.7 41.791,51.715C42.246,51.615 42.792,51.476 43.193,51.374C43.589,51.275 43.756,51.608 43.96,51.715C44.183,51.834 44.443,51.802 44.684,51.928C44.839,52.011 45.049,52.191 45.236,52.267C45.378,52.297 45.519,52.324 45.661,52.354C45.81,52.416 45.919,52.6 46.086,52.648C46.643,52.814 47.042,52.428 47.363,52.311C47.599,52.223 47.861,52.154 48.042,52.099L48.807,52.099C49.051,52.001 49.203,51.81 49.573,51.758C50.142,52.365 50.667,51.868 51.233,51.673C51.481,51.587 51.734,51.591 51.958,51.458C52.303,51.258 52.33,50.938 52.553,50.61C52.637,50.539 52.722,50.466 52.806,50.397C52.82,50.312 52.835,50.226 52.85,50.141C52.918,50.084 52.991,50.025 53.062,49.972C53.214,49.74 53.197,49.518 53.277,49.206C53.335,48.96 53.551,48.476 53.444,48.139C53.394,47.984 53.295,47.963 53.277,47.716C53.502,47.567 53.431,47.509 53.53,47.206C53.765,46.494 53.651,46.468 53.36,45.887C53.301,45.771 53.338,45.651 53.277,45.546C52.882,44.883 52.171,44.467 51.403,44.184C51.205,44.157 51.008,44.13 50.807,44.101C50.209,43.878 50.01,43.31 49.532,42.993C49.346,42.875 49.046,42.89 48.893,42.739C48.492,42.337 48.495,41.169 47.915,40.951C47.753,40.853 46.922,40.917 46.597,40.826C46.147,40.696 46.042,40.245 45.49,40.228C45.17,40.561 44.748,40.838 44.47,41.209C44.359,41.352 44.274,41.567 44.129,41.676C44.019,41.756 43.916,41.732 43.79,41.803C43.582,41.923 43.468,42.213 43.278,42.358C43.064,42.517 42.758,42.656 42.599,42.865C42.356,43.181 41.846,44.014 41.533,44.184C41.366,44.278 41.129,44.214 40.98,44.312C40.712,44.492 40.713,44.866 40.301,44.908C39.978,44.603 39.687,44.276 39.366,43.972C39.387,43.264 39.887,43.136 40.301,42.823C40.831,42.425 41.167,41.79 41.746,41.419C42.095,41.2 42.621,41.191 42.684,40.697C42.099,40.704 41.759,41.054 41.364,41.25C41.056,41.404 40.721,41.336 40.384,41.462C40.126,41.558 39.795,41.724 39.493,41.803C39.134,41.895 37.505,41.573 37.281,41.462C37.076,41.36 36.724,40.996 36.428,41.037C35.512,41.161 34.99,41.879 34.131,42.016C33.892,42.054 33.692,41.826 33.534,41.759C33.049,41.554 32.591,41.37 32.088,41.166C31.728,41.017 31.25,41.087 30.855,40.951C30.391,40.792 29.953,40.476 29.537,40.314C29.294,40.218 28.956,40.218 28.772,40.057C28.673,39.974 28.613,39.81 28.516,39.72C28.382,39.588 28.198,39.531 28.047,39.422C27.863,39.284 27.73,39.047 27.537,38.91C27.173,38.654 26.535,38.489 26.26,38.145C26.074,37.877 26.223,37.464 25.793,37.422C25.604,37.309 25.312,37.494 25.029,37.422C24.899,37.388 24.6,37.28 24.474,37.251C24.361,37.225 22.977,37.494 22.857,37.549C22.708,37.619 22.562,37.805 22.434,37.889C22.155,38.071 21.806,38.045 21.624,38.315C21.571,38.393 21.476,38.586 21.453,38.656L21.453,39.166C21.405,39.258 20.995,39.461 20.9,39.588C20.561,40.055 20.206,40.555 19.794,40.951C19.572,41.168 19.256,41.251 19.071,41.505C18.668,42.058 18.373,42.701 17.964,43.248C17.603,43.734 17.023,44.094 16.603,44.527C16.261,44.877 15.916,45.954 15.539,46.184C15.264,46.355 14.631,46.213 14.347,46.397C14.159,46.522 13.623,46.996 13.54,47.206C13.461,47.405 13.519,47.605 13.411,47.761C13.182,48.09 12.758,48.145 12.349,48.31C12.112,48.408 11.892,48.552 11.583,48.482C11.14,48.382 10.621,48.354 10.476,47.972C10.224,47.675 10.601,46.757 10.817,46.61C11.397,46.213 12.24,46.163 12.774,45.719C13.001,45.531 13.159,44.891 13.327,44.612C13.441,44.527 13.554,44.441 13.668,44.355C14.118,43.728 14.176,43.955 15.028,43.805C15.25,43.346 15.477,43.473 15.838,43.205C16.187,42.948 16.335,42.433 16.688,42.185C16.837,42.085 17.081,42.12 17.241,42.016C17.406,41.911 17.937,41.041 18.092,40.826C18.686,40.001 19.461,39.317 20.007,38.443C20.157,38.2 20.302,37.853 20.39,37.592C20.404,37.464 20.419,37.337 20.433,37.208C20.603,37.024 20.773,36.839 20.942,36.655C21.195,36.183 21.091,35.903 21.624,35.677C21.789,35.607 21.901,35.648 22.092,35.592C22.431,35.491 22.926,35.276 23.283,35.208C23.425,35.222 23.567,35.236 23.71,35.251C23.775,35.23 23.866,35.108 23.921,35.08C24.42,34.828 25.242,34.725 25.793,34.953C25.995,35.037 26.13,35.233 26.302,35.336C26.602,35.515 27.14,35.622 27.239,35.974C27.313,36.23 27.046,36.373 27.025,36.655C27.077,36.701 27.097,36.741 27.155,36.784C27.283,36.881 27.651,36.983 27.833,36.995C27.932,36.98 28.035,36.968 28.132,36.953C28.549,37.042 28.84,37.388 29.197,37.507C29.517,37.613 29.806,37.486 30.047,37.634C30.433,37.868 30.505,38.151 30.729,38.571C30.887,38.871 31.643,39.694 31.92,39.888C32.325,40.179 33.075,40.218 33.664,40.314C33.933,40.299 34.204,40.284 34.47,40.273C34.728,40.334 35.085,40.552 35.492,40.443C35.832,40.35 36.32,40.2 36.684,40.057C36.845,39.998 37.03,39.817 37.194,39.762C37.759,39.566 38.271,39.82 38.727,39.932C39.236,40.057 39.68,39.735 39.961,39.588C40.178,39.48 40.417,39.489 40.511,39.248C40.556,39.184 40.556,39.078 40.555,38.953C40.116,38.96 39.925,39.161 39.576,39.248C39.169,39.356 38.79,39.163 38.386,39.248C37.942,39.346 37.351,39.382 36.939,39.294C36.91,39.248 36.883,39.209 36.856,39.166C36.728,39.009 36.79,38.791 36.811,38.571C37.062,38.382 37.194,38.091 37.535,37.972C37.853,37.865 38.199,37.911 38.472,37.805C38.559,37.498 38.514,37.402 38.938,37.422C39.126,37.309 39.478,37.485 39.664,37.507C40.045,37.534 40.428,37.561 40.81,37.592C41.247,37.704 41.647,37.911 42.173,37.932C42.187,37.889 42.202,37.846 42.214,37.805C42.356,37.498 41.937,37.056 42.469,36.699C42.619,36.589 42.792,36.667 43.023,36.613C44.295,36.312 44.704,37.452 45.917,37.124C47.367,36.731 49.135,36.574 50.552,36.145C50.911,36.037 51.314,36.054 51.617,35.932C51.716,35.763 51.893,35.522 51.958,35.336C51.971,35.181 51.984,35.024 52,34.868C52.036,34.767 52.162,34.691 52.212,34.612C52.462,34.225 52.648,33.807 52.68,33.209C52.497,33.019 52.365,32.696 52.126,32.574C51.373,32.188 50.255,32.933 49.701,33.168C49.446,33.237 49.191,33.309 48.936,33.379C48.734,33.496 48.608,33.786 48.424,33.889C48.181,34.027 47.753,33.847 47.447,33.932C46.932,34.074 46.456,34.347 45.874,34.485C45.23,34.639 44.138,33.778 43.577,33.634C43.252,33.55 42.859,33.727 42.599,33.677C42.502,33.659 42.358,33.561 42.214,33.591C42.06,33.625 41.932,33.701 41.791,33.677C41.392,33.608 40.594,33.75 40.215,33.805C39.875,33.854 39.529,33.564 39.108,33.721C38.786,33.837 38.32,34.524 37.875,34.229C37.711,34.177 37.269,33.698 37.238,33.508C37.208,33.451 37.254,33.369 37.281,33.251C37.387,33.183 37.495,33.035 37.62,32.995C37.942,32.895 38.288,33.094 38.641,32.995C38.738,32.969 38.885,32.843 38.98,32.827C39.255,32.775 39.694,32.995 40.087,32.91C40.309,32.863 40.758,32.954 41.023,32.87C42.129,32.528 43.569,32.722 44.684,32.954C45.263,33.075 45.236,32.581 45.789,32.574C45.906,32.647 46.993,32.772 47.236,32.7C47.534,32.606 47.686,32.224 47.958,32.102C48.127,32.075 48.296,32.048 48.47,32.018C49.052,31.823 49.508,31.576 49.956,31.253C50.213,31.068 50.178,30.601 50.424,30.4C50.591,30.279 51.189,30.07 51.403,30.019C51.504,29.807 51.672,29.638 51.744,29.423C52.146,28.218 51.79,25.83 51.574,24.744C51.587,24.616 51.602,24.487 51.617,24.361C51.625,24.014 51.543,23.759 51.574,23.466C51.599,23.209 51.721,22.981 51.659,22.659C51.585,22.633 51.523,22.622 51.403,22.617C51.23,22.753 50.946,22.786 50.807,22.957C50.634,23.172 50.522,23.607 50.299,23.764C50.015,23.968 49.733,24.084 49.532,24.361C49.357,24.598 49.235,24.798 49.064,25.04C48.906,25.168 48.752,25.297 48.597,25.425C48.527,25.513 48.511,25.617 48.424,25.677C48.24,25.819 47.981,25.929 47.831,26.106C47.641,26.327 47.466,26.654 47.236,26.827C46.888,27.087 46.454,27.146 46.174,27.465C46.063,27.591 46.007,27.798 45.874,27.891C45.723,27.998 45.555,28.001 45.449,28.147C45.208,28.473 44.665,29.187 44.342,29.379C44.147,29.497 42.827,29.688 42.639,29.678C42.496,29.503 42.258,29.488 42.173,29.252C41.944,28.865 42.463,28.318 42.599,28.103C42.627,28.016 42.654,27.932 42.684,27.847C42.837,27.625 43.657,27.21 43.96,27.125L44.299,27.125C44.603,27.023 44.658,26.645 44.852,26.53C44.978,26.458 45.078,26.585 45.28,26.53C45.504,26.47 45.698,26.279 45.874,26.148C46.861,25.402 47.638,24.407 48.552,23.595C48.733,23.434 48.95,23.356 49.147,23.212C49.752,22.774 50.793,21.127 51.105,20.361C51.375,19.701 51.131,18.88 51.319,18.105C51.587,17 51.549,16.062 51.319,14.958C51.274,14.944 51.233,14.93 51.19,14.914C50.862,14.743 50.602,15.616 50.299,15.724L49.828,15.724C49.668,15.767 49.346,15.843 49.191,15.938C49.145,15.962 49.068,16.086 49.021,16.105C48.688,16.25 48.351,16.226 48.042,16.405C47.805,16.542 47.621,16.838 47.406,16.998C47.156,17.187 46.824,17.357 46.555,17.511C46.285,17.661 45.578,17.828 45.28,17.638C44.789,17.456 44.578,16.339 45.065,16.064C45.314,15.924 45.551,16.013 45.874,15.938C46.258,15.843 46.623,15.742 47.021,15.594C47.528,15.412 47.955,14.909 48.424,14.703C48.866,14.508 49.454,14.428 49.617,13.981C49.766,13.664 49.175,13.555 48.979,13.428C48.863,13.348 48.889,13.245 48.807,13.128C48.701,12.974 48.205,12.679 47.915,12.747C47.382,12.867 46.848,13.15 46.298,13.297C45.977,13.385 45.578,13.202 45.321,13.256C45.088,13.303 44.398,13.504 43.96,13.385C43.778,13.332 43.603,13.178 43.405,13.128C42.993,13.026 42.512,13.264 42.214,13.342C41.703,13.479 41.398,13.186 40.897,13.297C40.428,13.404 39.904,13.492 39.45,13.596C38.813,13.744 37.958,13.588 37.406,13.469C37.116,13.404 36.889,13.561 36.684,13.596C36.599,13.582 36.513,13.567 36.428,13.554C35.921,13.667 35.655,14.079 35.194,14.237C34.819,14.36 34.484,14.326 34.088,14.449C33.72,14.576 33.351,14.703 32.984,14.83C32.576,14.947 32.133,14.869 31.92,15.171C31.828,15.281 31.828,15.467 31.834,15.68C32.394,16.097 32.461,17.151 32.046,17.765C31.848,18.059 31.44,18.181 31.282,18.531C31.268,18.673 31.252,18.815 31.238,18.956C31.126,19.324 30.958,19.844 30.855,20.193C30.764,20.5 30.83,20.653 30.684,20.871C29.978,21.957 28.901,22.738 27.877,23.51C27.496,23.795 27.305,24.346 26.856,24.574C26.671,24.601 26.487,24.628 26.302,24.659C26.163,24.71 25.972,24.826 25.793,24.872L24.772,24.872C24.283,24.999 23.602,24.999 22.983,24.999C22.8,24.984 22.616,24.971 22.434,24.956C22.147,25.005 21.818,24.89 21.497,24.956C20.63,25.139 18.71,24.984 17.964,24.659C17.871,24.618 17.803,24.487 17.708,24.446C17.346,24.282 16.871,24.194 16.475,24.233M53.233,5.515C52.779,5.821 52.094,5.833 51.53,6.023C50.864,6.248 49.977,6.474 49.276,6.661C48.947,6.749 48.743,6.689 48.424,6.789C48.141,6.945 47.858,7.101 47.575,7.257C47.318,7.313 47.064,7.369 46.809,7.428C46.136,7.713 45.934,8.576 45.321,8.959C44.838,9.26 44.268,9.488 43.705,9.684C43.577,9.696 43.448,9.709 43.321,9.724C42.737,9.933 42.145,10.196 41.576,10.407C41.241,10.528 40.984,10.509 40.64,10.619C40.038,10.809 39.484,11.26 38.854,11.343C38.773,11.351 38.574,11.269 38.514,11.257C38.421,11.235 36.926,11.26 36.769,11.3C36.639,11.334 36.423,11.436 36.3,11.47C35.95,11.565 34.498,11.251 34.174,11.172L32.513,11.172C32.299,11.124 31.803,11.088 31.578,11.088C31.433,11.088 31.189,11.175 30.982,11.13C30.402,10.998 29.377,10.913 28.685,11.044C28.657,11.124 28.646,11.208 28.643,11.343C28.718,11.397 28.742,11.503 28.813,11.555C29.068,11.733 29.566,11.83 29.75,12.066C29.86,12.205 29.826,12.506 29.961,12.616C30.182,12.796 30.556,12.778 30.729,12.998C30.876,13.196 30.925,13.428 31.067,13.636C31.199,13.83 31.421,13.982 31.578,14.149C32.501,14.163 33.75,13.351 34.47,13.045C34.74,12.929 34.922,12.966 35.237,12.874C35.931,12.671 36.801,12.333 37.535,12.15C38.514,11.907 39.205,12.616 40.045,12.406C40.352,12.328 41.488,11.98 41.791,12.021C42.31,12.097 42.812,12.17 43.278,12.279L44.556,12.279C44.859,12.345 45.248,12.324 45.577,12.321C45.661,12.333 45.746,12.348 45.83,12.364C45.923,12.339 46.05,12.221 46.127,12.193C46.27,12.178 46.412,12.164 46.555,12.15C46.605,12.129 46.703,12.003 46.765,11.98C47.064,11.876 47.308,11.937 47.575,11.811C47.6,11.798 47.666,11.694 47.704,11.68C47.83,11.637 48.774,11.535 48.851,11.555C49.01,11.593 49.267,11.777 49.487,11.64C49.655,11.58 49.666,11.464 49.786,11.385C50.02,11.225 50.308,11.184 50.467,10.958C50.571,10.817 50.58,10.637 50.681,10.491C50.968,10.072 51.523,9.887 51.701,9.344C51.716,9.13 51.731,8.917 51.744,8.704C51.734,8.671 51.623,8.565 51.617,8.533C51.565,8.308 51.786,8.242 51.829,8.11C52.002,7.591 51.65,6.951 52.338,6.917C52.483,7.006 53.308,7.005 53.489,7.044C53.746,7.45 54.077,7.731 54.211,8.278C54.329,8.755 54.006,9.121 53.914,9.47C53.785,9.953 53.906,10.411 53.954,10.789C53.982,10.992 53.871,11.235 53.914,11.47C53.954,11.484 53.999,11.497 54.042,11.513C54.223,11.626 54.439,11.464 54.594,11.426C54.897,11.358 55.185,11.637 55.529,11.513C55.593,11.49 56.147,11.07 56.21,11.002C56.425,11.041 56.62,10.977 56.807,11.044C57.265,11.202 57.883,11.5 58.34,11.64C58.835,11.793 59.275,11.351 59.743,11.426C60.309,11.519 60.922,11.362 61.487,11.214L62.082,11.214C62.671,11.077 63.326,11 64.038,10.916C64.146,10.765 64.339,10.663 64.423,10.491C64.539,10.244 64.522,10.004 64.679,9.81C64.747,9.767 64.82,9.724 64.891,9.684C64.956,9.575 64.907,9.438 64.978,9.344C65.075,9.203 65.195,9.298 65.36,9.215C65.428,9.115 65.502,9.015 65.572,8.917C65.613,8.467 65.526,7.692 65.146,7.555C64.909,7.41 64.346,7.573 64.125,7.64C63.822,7.731 63.588,7.868 63.316,7.98C62.938,8.135 62.525,8.167 62.126,8.278C61.919,8.334 61.548,8.491 61.272,8.407C61.051,8.335 60.766,8.173 60.508,8.11C60.206,8.035 59.922,8.148 59.699,8.11C59.272,8.033 58.71,7.89 58.383,7.683C57.91,7.387 57.641,6.859 57.316,6.405C57.26,6.363 57.203,6.321 57.147,6.279C57.033,6.082 57.038,5.874 56.849,5.768C56.441,5.537 55.809,5.756 55.274,5.64C55.092,5.6 54.791,5.507 54.552,5.555C54.464,5.573 54.24,5.631 54.084,5.597C53.833,5.545 53.547,5.515 53.233,5.515ZM25.58,11.811C25.478,11.874 25.309,11.814 25.155,11.853C24.979,11.895 24.774,12.078 24.644,12.108C24.239,12.199 23.773,11.798 23.24,11.894C23.217,11.962 23.207,11.997 23.199,12.108C23.585,12.199 23.978,12.427 24.347,12.534C24.778,12.655 25.133,12.488 25.537,12.616C25.804,12.704 26.14,12.904 26.389,12.998C26.743,13.087 27.099,13.172 27.451,13.256C27.689,13.364 27.781,13.615 27.962,13.768C28.064,13.849 28.195,13.859 28.303,13.936C28.959,14.412 28.875,14.656 30.09,14.662C30.148,14.551 30.172,14.513 30.174,14.318C30.126,14.261 30.111,14.198 30.09,14.108C29.958,14.027 29.836,13.887 29.706,13.81C29.359,13.594 28.659,13.534 28.516,13.128C28.444,13.013 28.504,12.738 28.429,12.616C28.275,12.367 28.072,12.43 27.751,12.321C27.088,12.097 26.515,11.811 25.58,11.811ZM22.816,13.722C22.752,13.816 22.74,13.805 22.73,13.981C22.764,14.024 22.746,13.99 22.772,14.066C22.995,14.195 23.307,14.452 23.539,14.532C23.647,14.568 24.581,14.715 24.644,14.703C24.742,14.683 24.991,14.623 25.155,14.662C25.566,14.756 25.973,14.825 26.559,14.83C26.585,14.756 26.596,14.699 26.601,14.576L26.559,14.576L26.559,14.532C26.361,14.513 26.205,14.394 25.962,14.449C25.847,14.474 25.656,14.593 25.453,14.532C24.603,14.276 23.931,13.76 22.816,13.722ZM19.794,13.893C19.041,14.501 17.314,14.947 17.325,16.234C17.45,16.386 17.571,16.665 17.624,16.87L17.624,17.594C17.705,17.922 17.897,18.432 18.049,18.743C18.171,18.994 19.21,19.415 19.498,19.637C19.709,19.803 19.832,20.522 20.134,20.744C20.548,21.047 21.203,21.296 21.752,21.425C22.032,21.492 22.352,21.273 22.559,21.34C22.629,21.425 22.702,21.51 22.772,21.596C22.958,21.718 23.102,21.649 23.367,21.723C23.467,21.75 23.607,21.865 23.71,21.895C24.058,21.99 25.625,21.616 25.877,21.51C26.223,21.367 26.676,21.135 26.984,20.914C27.134,20.805 27.255,20.592 27.41,20.488C27.665,20.403 27.92,20.319 28.173,20.233C28.317,20.123 28.357,19.871 28.516,19.764C28.776,19.592 29.114,19.599 29.366,19.424C29.673,19.212 29.759,18.701 29.919,18.317C30.15,17.765 30.533,17.312 30.218,16.53C30.03,16.449 29.765,16.391 29.58,16.274C29.406,16.169 29.239,15.956 29.026,15.892C28.681,15.795 28.307,15.971 28.088,16.019C27.746,16.104 27.581,15.869 27.281,15.938C27.104,15.977 26.898,16.14 26.601,16.064C26.272,15.979 25.771,15.921 25.453,15.767C25.34,15.711 25.182,15.591 25.029,15.552C24.488,15.58 23.949,15.609 23.413,15.639C22.931,15.492 22.442,15.086 21.965,14.958C21.78,14.972 21.596,14.985 21.411,14.999C21.177,14.951 20.743,14.739 20.518,14.617C20.244,14.47 20.245,14.057 19.964,13.936C19.915,13.901 19.894,13.905 19.794,13.893ZM53.317,18.488L53.673,18.488C53.717,18.365 53.719,18.162 53.717,17.976C53.683,17.934 53.559,17.824 53.53,17.749C53.466,17.726 53.456,17.865 53.36,17.851C53.308,18.002 53.315,18.271 53.317,18.488ZM16.858,20.147C16.398,20.917 16.712,21.877 17.155,22.489C17.423,22.858 17.792,23.136 18.306,23.255L18.902,23.255C18.97,23.276 19.087,23.397 19.155,23.425C19.578,23.581 20.106,23.62 20.518,23.723C20.757,23.737 21,23.75 21.242,23.764C21.604,23.846 22.201,24.002 22.688,23.892C23.08,23.805 23.421,23.677 23.793,23.595L23.793,23.425C23.361,23.259 22.826,23.131 22.346,22.999C22.02,22.971 21.695,22.943 21.369,22.912C20.822,22.75 20.295,22.415 19.836,22.148C19.681,22.09 19.525,22.034 19.37,21.978C19.024,21.764 18.716,21.443 18.39,21.21C18.238,21.104 18.071,21.068 17.922,20.956C17.582,20.709 17.411,20.172 16.858,20.147ZM54.552,22.865L54.338,22.865C54.284,23.084 54.253,23.784 54.255,24.105C54.37,24.166 54.578,24.188 54.78,24.191C54.806,24.108 54.821,24.025 54.822,23.892C54.736,23.768 54.572,23.047 54.552,22.865ZM54.508,24.446C54.338,24.601 54.251,24.562 54.255,24.915C54.402,25.054 54.446,25.092 54.764,25.084C54.835,24.952 54.854,24.807 54.849,24.574C54.815,24.528 54.834,24.562 54.806,24.487C54.73,24.461 54.64,24.449 54.508,24.446ZM49.487,40.143C49.461,39.649 49.071,39.561 49.021,38.996C49.218,38.867 49.392,38.628 49.404,38.315C48.705,38.297 48.264,38.62 47.788,38.823C47.491,38.952 47.21,38.881 47.191,39.294C47.333,39.329 47.423,39.428 47.531,39.464C47.845,39.564 48.12,39.43 48.382,39.548C48.791,39.729 48.862,40.123 49.487,40.143ZM49.786,40.143L49.786,40.314C49.896,40.379 50.041,40.493 50.168,40.525C50.458,40.603 50.624,40.389 50.766,40.443C51.136,40.546 51.654,40.862 51.786,41.209C51.914,41.546 51.899,41.826 52.083,42.1C52.225,42.215 52.368,42.329 52.509,42.44C52.608,42.598 52.522,42.801 52.596,42.993C52.657,43.165 52.899,43.293 53.02,43.418L53.233,43.418C53.266,43.325 53.277,43.188 53.277,43.035C53.184,42.865 53.317,42.376 53.317,42.058C53.303,41.279 53.29,40.498 53.277,39.72C53.344,39.424 53.47,38.642 53.277,38.358C53.219,38.319 53.169,38.319 53.062,38.315C52.85,38.631 52.385,38.726 52.083,38.953C51.952,39.054 51.927,39.193 51.829,39.337C51.433,39.902 50.774,40.143 49.786,40.143ZM55.318,39.464C55.243,39.697 55.138,39.859 55.189,40.143C55.743,40.28 55.994,40.771 56.55,40.866C56.578,40.794 56.589,40.732 56.592,40.613C56.536,40.455 56.481,40.299 56.425,40.143C56.252,39.886 55.919,39.686 55.701,39.464L55.318,39.464ZM55.614,48.525C55.442,49.05 55.795,49.579 55.614,50.097C55.568,50.236 55.377,50.336 55.318,50.481C55.262,50.92 55.205,51.362 55.147,51.8C55.236,52.223 55.463,52.6 55.488,52.99C55.075,53.372 55.225,53.945 55.36,54.479C55.831,54.687 56.468,54.64 56.935,54.523C57.268,54.442 57.552,54.575 57.828,54.523C58.093,54.476 58.321,54.43 58.637,54.357C58.923,54.283 59.484,54.119 59.829,54.183C60.097,54.234 60.334,54.371 60.552,54.439C60.798,54.512 60.983,54.419 61.189,54.523C61.368,54.615 61.536,54.801 61.783,54.865C62.154,54.956 62.678,54.834 62.935,54.781L63.444,54.781C63.753,54.707 64.072,54.655 64.508,54.652C64.635,54.651 64.771,54.594 64.849,54.609C64.946,54.625 65.097,54.786 65.189,54.82C65.729,55.023 66.7,54.912 67.06,54.652C67.092,54.603 67.087,54.611 67.102,54.523C66.846,54.407 66.385,54.419 66.041,54.357C65.688,53.767 65.212,53.439 64.679,53.034C64.453,52.78 64.225,52.524 63.999,52.267C63.926,52.251 63.856,52.242 63.784,52.225C63.716,52.142 63.642,52.056 63.572,51.968C63.378,51.86 63.16,51.874 62.977,51.758C62.816,51.655 62.626,51.487 62.425,51.418C62.282,51.403 62.139,51.388 61.997,51.374C61.93,51.349 61.814,51.227 61.744,51.205C61.588,51.154 61.365,51.278 61.272,51.248C61.19,51.215 61.119,51.032 61.018,50.993C60.863,50.976 60.709,50.965 60.552,50.95C60.329,50.865 60.081,50.643 59.829,50.567C59.692,50.526 59.521,50.6 59.444,50.61C59.185,50.643 58.939,50.524 58.72,50.438C58.39,50.311 57.868,49.892 57.574,49.672C57.499,49.589 57.432,49.503 57.36,49.418C57.067,49.223 56.417,49.139 56.168,48.951C55.938,48.772 56.088,48.573 55.614,48.525ZM52.935,52.18C52.259,52.716 51.442,53.047 50.51,53.33C50.099,53.455 49.675,53.269 49.659,53.802L49.744,53.802C50.026,53.99 50.678,53.938 51.02,53.844C51.693,53.652 53.363,53.034 53.444,52.354C53.298,52.215 53.256,52.175 52.935,52.18ZM42.045,52.862C41.657,53.096 41.162,52.905 40.64,53.034C39.991,53.195 39.173,53.287 38.557,53.545C38.135,53.719 37.64,53.944 37.238,54.183C36.887,54.392 36.708,54.868 36.47,55.206C36.433,55.261 35.504,55.684 35.409,55.716C34.848,55.892 34.613,55.349 34.387,55.245L33.366,55.245C33.012,55.451 32.494,55.14 32.088,55.245C31.591,55.382 30.916,55.441 30.43,55.632C29.559,55.965 28.768,56.653 27.877,56.991C27.679,57.02 27.479,57.048 27.281,57.076C27.023,57.158 26.73,57.322 26.472,57.414C26.169,57.524 25.909,57.506 25.622,57.63C25.156,57.827 24.803,58.226 24.262,58.352C24.009,58.41 23.685,58.212 23.325,58.31C22.936,58.416 22.513,58.661 22.134,58.778C21.865,58.765 21.596,58.75 21.324,58.736C21.073,58.736 20.899,58.781 20.73,58.819C20.361,58.833 19.993,58.848 19.625,58.863C19.12,58.978 18.678,59.13 18.262,59.247C17.722,59.275 17.184,59.303 16.646,59.331C16.328,59.41 15.859,59.519 15.539,59.588C15.211,59.662 14.991,59.439 14.647,59.548C14.379,59.622 14.112,59.834 13.838,59.927C13.161,60.159 12.411,60.207 11.752,60.481C11.364,60.641 10.945,61.091 10.647,61.373C10.629,61.837 10.629,62.614 10.859,62.991C10.988,63.197 11.242,63.315 11.371,63.498C11.469,63.641 11.46,63.859 11.583,63.968C11.673,64.048 11.865,64.029 11.924,64.14C12.001,64.282 11.882,64.396 12.009,64.479C12.116,64.55 12.233,64.503 12.349,64.565C12.469,64.625 12.561,64.809 12.69,64.862C13.028,65.002 13.258,65.004 13.626,65.118C14.045,65.245 14.506,65.47 14.943,65.586C15.32,65.683 15.751,65.517 16.007,65.458C16.617,65.314 17.438,65.543 17.964,65.672C18.186,65.724 18.431,65.625 18.604,65.713C19.566,66.209 20.672,66.705 21.539,67.329C21.777,67.5 21.927,67.767 22.134,67.965C22.271,68.099 22.492,68.151 22.644,68.265C22.922,68.471 23.127,68.834 23.413,69.03C23.814,69.311 24.318,69.652 24.772,69.837C25.357,70.077 26.195,69.924 26.729,69.797L27.325,69.797C27.515,69.756 27.912,69.716 28.132,69.667L28.856,69.667C29.312,69.553 29.854,69.32 30.303,69.242C30.896,69.141 31.319,69.636 31.707,69.797C31.893,69.872 32.188,69.924 32.344,69.968C32.817,70.09 33.955,69.947 34.259,69.879C34.9,69.74 35.576,70.156 36.345,69.968C37.042,69.793 37.075,69.369 37.535,69.116C37.821,68.956 38.085,69.003 38.258,68.689C38.403,68.43 38.311,68.023 38.472,67.796C38.621,67.586 38.959,67.573 39.108,67.369C39.282,67.118 39.019,66.816 39.407,66.733C39.613,67.018 40.089,66.835 40.472,66.945C40.67,67.006 40.905,67.204 41.067,67.329C41.189,67.422 41.173,67.61 41.279,67.709C41.352,67.784 41.487,67.74 41.533,67.837L41.533,68.181C41.578,68.277 41.764,68.394 41.832,68.476C42.099,68.799 42.226,69.279 42.469,69.625C42.529,69.71 42.652,69.729 42.725,69.797C43.171,70.212 43.582,70.576 44.086,70.944C44.382,71.16 44.382,71.458 44.894,71.498C44.959,71.454 45.079,71.46 45.152,71.413C45.253,71.341 45.401,71.127 45.49,71.028C46.239,70.982 46.363,71.276 46.765,71.666C46.866,71.741 46.964,71.81 47.064,71.881C47.21,72.073 47.317,72.366 47.531,72.479C47.793,72.611 48.251,72.399 48.552,72.519C48.626,72.547 48.738,72.691 48.807,72.733C49.063,72.887 49.481,73.033 49.744,73.116C50.086,73.222 50.624,73.053 50.933,73.116C51.283,73.186 51.83,73.765 52.338,73.412C52.555,73.339 53.192,72.641 53.277,72.434C53.397,72.135 53.381,70.507 53.317,70.219L53.317,69.242C53.246,68.973 53.054,68.491 53.104,68.135C53.242,67.202 53.283,65.943 53.53,64.907L53.53,63.541C53.739,62.596 53.728,61.488 53.489,60.607C53.382,60.228 53.47,59.722 53.402,59.415C53.36,59.234 53.435,59.035 53.444,58.909C53.49,58.421 53.435,56.408 53.277,56.139C53.125,55.889 52.134,56.023 51.871,55.971C51.539,55.901 51.306,55.623 51.02,55.501C50.71,55.371 50.396,55.457 50.001,55.376C49.889,55.349 49.581,55.281 49.404,55.331C49.099,55.421 49,55.676 48.637,55.716C48.565,55.645 48.402,55.622 48.341,55.545C48.208,55.376 48.211,55.124 48.087,54.951C47.986,54.877 47.887,54.808 47.788,54.738C46.858,54.718 46.555,55.315 45.959,55.632C45.57,55.835 45.249,55.826 44.766,55.971C44.39,56.081 43.927,56.307 43.534,56.437C43.377,56.465 43.221,56.494 43.064,56.525C42.297,56.847 41.499,57.297 40.81,57.714C40.684,57.757 40.555,57.8 40.428,57.84C39.86,58.201 38.99,58.7 38.046,58.522C37.953,58.353 37.829,58.096 37.747,57.925C37.443,57.283 37.843,57.023 38.215,56.777C38.338,56.698 38.452,56.542 38.599,56.479C39.3,56.186 40.477,56.127 40.852,55.545C41.073,55.206 40.843,54.863 40.938,54.568C41.016,54.327 41.418,53.802 41.62,53.673C42.055,53.394 43.284,53.591 43.361,52.99C43.297,52.944 43.329,52.947 43.236,52.905C43.021,52.767 42.354,52.859 42.045,52.862ZM43.874,54.395C43.843,54.792 43.281,54.915 42.853,54.908C42.869,54.384 43.408,54.349 43.874,54.395ZM7.754,62.397C7.406,62.622 6.966,62.608 6.563,62.776C6.312,62.883 6.244,63.146 6.052,63.287C5.721,63.531 5.409,63.267 5.413,63.885C5.77,63.971 6.103,63.976 6.435,64.094C6.59,64.152 6.821,64.345 6.988,64.396C7.264,64.476 7.971,64.195 8.222,64.14C8.322,64.024 8.421,63.914 8.519,63.797C8.527,63.395 8.344,63.312 8.264,63.076C8.16,62.764 8.417,62.567 8.052,62.439C7.986,62.391 7.878,62.394 7.754,62.397ZM57.659,73.965C57.161,74.322 55.69,74.354 55.488,74.902C55.356,75.118 55.534,75.41 55.445,75.625C55.166,76.299 54.778,76.201 54.849,77.243C55.057,77.377 55.314,77.614 55.488,77.793L55.914,77.793C56.027,77.617 56.163,77.539 56.466,77.539C56.602,77.674 56.88,77.904 57.061,77.967C57.672,78.171 57.856,77.661 58.425,77.793C58.912,77.909 59.512,78.006 59.999,78.178C60.16,78.234 60.535,78.409 60.766,78.349C61.119,78.256 61.239,77.84 61.531,77.711C62.09,77.455 62.981,77.596 63.614,77.452C64.165,77.331 64.782,77.572 65.189,77.668C65.628,77.638 66.07,77.61 66.506,77.585C67.181,77.735 67.663,78.121 68.42,78.136L68.42,78.094L68.463,78.094C68.482,77.933 68.439,77.564 68.506,77.37C68.573,77.178 68.702,77.217 68.719,76.905C68.533,76.761 68.347,76.483 68.124,76.39C67.645,76.191 67.189,76.342 66.718,76.221C66.38,76.094 66.041,75.967 65.698,75.838C65.136,75.674 64.597,76.356 64.508,76.264C64.29,76.173 64.35,76.056 63.999,76.052C63.818,75.939 63.594,76.086 63.401,76.052C63.242,76.025 62.724,75.92 62.593,75.838C62.353,75.688 62.076,75.298 61.956,75.03C61.943,74.956 61.928,74.89 61.913,74.818C61.831,74.697 61.064,74.344 60.891,74.307C60.754,74.275 60.562,74.367 60.467,74.391C60.223,74.45 60.078,74.391 59.872,74.476C59.64,74.575 59.321,74.962 58.85,74.818C58.441,74.691 58.485,74.201 58.211,74.051C58.099,73.95 57.881,73.958 57.659,73.965Z" style="fill:rgb(34,30,31);fill-rule:nonzero;"/>
        <path d="M80.61,16.722L80.61,12.221L84.981,12.221L84.981,6.083L90.277,6.083L90.277,12.221L96.105,12.221L96.105,16.722L90.277,16.722L90.277,25.993C90.277,28.111 90.895,29.436 93.234,29.436C94.162,29.436 95.441,29.26 96.105,28.773L96.105,33.231C95.002,33.763 93.147,33.937 91.911,33.937C86.304,33.937 84.981,31.425 84.981,26.434L84.981,16.722L80.61,16.722Z" style="fill:rgb(3,4,4);fill-rule:nonzero;"/>
        <path d="M105.554,15.177L105.64,15.177C106.48,13.412 108.598,11.691 111.865,11.691C117.559,11.691 119.59,15.708 119.59,20.034L119.59,33.409L114.292,33.409L114.292,22.682C114.292,20.344 114.117,16.458 110.409,16.458C106.922,16.458 105.554,19.017 105.554,21.844L105.554,33.409L100.255,33.409L100.255,0.036L105.554,0.036L105.554,15.177Z" style="fill:rgb(3,4,4);fill-rule:nonzero;"/>
        <path d="M138.484,20.695C138.439,17.606 136.41,15.665 133.097,15.665C129.964,15.665 128.022,17.65 127.625,20.695L138.484,20.695ZM127.625,24.669C127.977,27.802 130.36,29.701 133.317,29.701C135.968,29.701 137.688,28.466 139.014,26.831L142.81,29.701C140.339,32.746 137.203,33.937 133.85,33.937C127.448,33.937 122.329,29.481 122.329,22.817C122.329,16.149 127.448,11.691 133.85,11.691C139.765,11.691 143.78,15.84 143.78,23.212L143.78,24.669L127.625,24.669Z" style="fill:rgb(3,4,4);fill-rule:nonzero;"/>
        <path d="M172.473,20.695C172.431,17.606 170.399,15.665 167.09,15.665C163.954,15.665 162.013,17.65 161.615,20.695L172.473,20.695ZM161.615,24.669C161.969,27.802 164.352,29.701 167.311,29.701C169.958,29.701 171.679,28.466 173.003,26.831L176.801,29.701C174.328,32.746 171.193,33.937 167.84,33.937C161.439,33.937 156.317,29.481 156.317,22.817C156.317,16.149 161.439,11.691 167.84,11.691C173.756,11.691 177.77,15.84 177.77,23.212L177.77,24.669L161.615,24.669Z" style="fill:rgb(3,4,4);fill-rule:nonzero;"/>
        <path d="M177.64,12.221L183.422,12.221L189.073,27.054L189.161,27.054L194.855,12.221L200.287,12.221L191.94,33.409L186.293,33.409L177.64,12.221Z" style="fill:rgb(3,4,4);fill-rule:nonzero;"/>
        <path d="M216.269,20.695C216.222,17.606 214.192,15.665 210.88,15.665C207.748,15.665 205.804,17.65 205.407,20.695L216.269,20.695ZM205.407,24.669C205.76,27.802 208.147,29.701 211.101,29.701C213.752,29.701 215.473,28.466 216.799,26.831L220.594,29.701C218.123,32.746 214.986,33.937 211.631,33.937C205.231,33.937 200.109,29.481 200.109,22.817C200.109,16.149 205.231,11.691 211.631,11.691C217.548,11.691 221.563,15.84 221.563,23.212L221.563,24.669L205.407,24.669Z" style="fill:rgb(3,4,4);fill-rule:nonzero;"/>
        <path d="M224.964,12.221L230.261,12.221L230.261,15.574L230.35,15.574C231.496,13.146 233.838,11.691 236.618,11.691C237.281,11.691 237.898,11.825 238.515,11.999L238.515,17.12C237.632,16.898 236.796,16.722 235.955,16.722C230.967,16.722 230.261,20.917 230.261,22.064L230.261,33.409L224.964,33.409L224.964,12.221Z" style="fill:rgb(3,4,4);fill-rule:nonzero;"/>
        <path d="M245.006,22.771C245.006,26.125 247.654,28.907 251.229,28.907C255.157,28.907 257.542,26.215 257.542,22.682C257.542,19.017 255.114,16.458 251.273,16.458C247.566,16.458 245.006,19.017 245.006,22.771ZM262.573,12.221L262.573,31.511C262.573,39.148 258.864,44.006 250.611,44.006C246.683,44.006 243.109,43.165 240.105,40.517L243.283,36.191C245.404,38.133 247.609,39.236 250.565,39.236C255.688,39.236 257.28,36.323 257.28,32.129L257.28,30.584L257.191,30.584C255.646,32.659 252.907,33.676 250.257,33.676C243.9,33.676 239.711,28.818 239.711,22.817C239.711,16.545 243.641,11.691 250.168,11.691C253.123,11.691 255.908,12.838 257.45,15.397L257.542,15.397L257.542,12.221L262.573,12.221Z" style="fill:rgb(3,4,4);fill-rule:nonzero;"/>
        <path d="M265.889,12.221L271.181,12.221L271.181,15.574L271.274,15.574C272.419,13.146 274.759,11.691 277.543,11.691C278.204,11.691 278.818,11.825 279.439,11.999L279.439,17.12C278.557,16.898 277.716,16.722 276.877,16.722C271.891,16.722 271.181,20.917 271.181,22.064L271.181,33.409L265.889,33.409L265.889,12.221Z" style="fill:rgb(3,4,4);fill-rule:nonzero;"/>
        <path d="M296.832,20.695C296.786,17.606 294.755,15.665 291.445,15.665C288.313,15.665 286.37,17.65 285.974,20.695L296.832,20.695ZM285.974,24.669C286.324,27.802 288.712,29.701 291.665,29.701C294.313,29.701 296.035,28.466 297.359,26.831L301.157,29.701C298.684,32.746 295.552,33.937 292.193,33.937C285.798,33.937 280.676,29.481 280.676,22.817C280.676,16.149 285.798,11.691 292.193,11.691C298.11,11.691 302.13,15.84 302.13,23.212L302.13,24.669L285.974,24.669Z" style="fill:rgb(3,4,4);fill-rule:nonzero;"/>
        <path d="M320.844,20.695C320.801,17.606 318.771,15.665 315.459,15.665C312.324,15.665 310.383,17.65 309.988,20.695L320.844,20.695ZM309.988,24.669C310.336,27.802 312.721,29.701 315.68,29.701C318.328,29.701 320.051,28.466 321.371,26.831L325.171,29.701C322.697,32.746 319.566,33.937 316.209,33.937C309.811,33.937 304.688,29.481 304.688,22.817C304.688,16.149 309.811,11.691 316.209,11.691C322.123,11.691 326.141,15.84 326.141,23.212L326.141,24.669L309.988,24.669Z" style="fill:rgb(3,4,4);fill-rule:nonzero;"/>
        <path d="M329.41,12.221L334.439,12.221L334.439,15.62L334.531,15.62C335.501,13.501 337.488,11.691 341.019,11.691C346.716,11.691 348.747,15.708 348.747,20.034L348.747,33.409L343.447,33.409L343.447,22.682C343.447,20.344 343.271,16.458 339.563,16.458C336.077,16.458 334.707,19.017 334.707,21.844L334.707,33.409L329.41,33.409L329.41,12.221Z" style="fill:rgb(3,4,4);fill-rule:nonzero;"/>
        <path d="M118.188,57.898C117.172,56.486 115.847,55.736 114.039,55.736C112.625,55.736 110.948,56.398 110.948,57.987C110.948,61.785 122.381,58.694 122.381,66.947C122.381,71.981 117.568,73.747 113.243,73.747C109.976,73.747 107.154,72.909 104.989,70.478L108.52,67.169C109.888,68.669 111.3,69.775 113.551,69.775C115.098,69.775 117.084,69.023 117.084,67.346C117.084,62.977 105.65,66.418 105.65,58.34C105.65,53.617 109.888,51.498 114.17,51.498C116.997,51.498 119.996,52.382 121.718,54.718L118.188,57.898Z" style="fill:rgb(3,4,4);fill-rule:nonzero;"/>
        <path d="M124.015,56.531L124.015,52.026L128.384,52.026L128.384,45.893L133.683,45.893L133.683,52.026L139.51,52.026L139.51,56.531L133.683,56.531L133.683,65.801C133.683,67.917 134.298,69.244 136.64,69.244C137.567,69.244 138.847,69.064 139.51,68.58L139.51,73.041C138.406,73.571 136.551,73.747 135.314,73.747C129.707,73.747 128.384,71.23 128.384,66.243L128.384,56.531L124.015,56.531Z" style="fill:rgb(3,4,4);fill-rule:nonzero;"/>
        <path d="M156.592,63.725L155.49,63.725C152.575,63.725 147.543,63.948 147.543,66.994C147.543,68.936 149.529,69.775 151.252,69.775C154.872,69.775 156.592,67.874 156.592,64.917L156.592,63.725ZM156.901,70.304L156.771,70.304C155.269,72.69 152.797,73.747 149.971,73.747C146.042,73.747 142.246,71.583 142.246,67.391C142.246,60.505 150.28,60.018 155.578,60.018L156.901,60.018L156.901,59.444C156.901,56.839 154.872,55.469 152.046,55.469C149.838,55.469 147.807,56.356 146.396,57.678L143.616,54.899C145.955,52.514 149.264,51.498 152.62,51.498C161.668,51.498 161.668,58.033 161.668,61.033L161.668,73.218L156.901,73.218L156.901,70.304Z" style="fill:rgb(3,4,4);fill-rule:nonzero;"/>
        <path d="M164.451,56.531L164.451,52.026L168.822,52.026L168.822,45.893L174.118,45.893L174.118,52.026L179.943,52.026L179.943,56.531L174.118,56.531L174.118,65.801C174.118,67.917 174.737,69.244 177.077,69.244C178.002,69.244 179.281,69.064 179.943,68.58L179.943,73.041C178.839,73.571 176.986,73.747 175.754,73.747C170.145,73.747 168.822,71.23 168.822,66.243L168.822,56.531L164.451,56.531Z" style="fill:rgb(3,4,4);fill-rule:nonzero;"/>
        <path d="M199.192,60.505C199.148,57.411 197.116,55.469 193.807,55.469C190.674,55.469 188.729,57.457 188.334,60.505L199.192,60.505ZM188.334,64.476C188.686,67.608 191.071,69.508 194.028,69.508C196.675,69.508 198.398,68.274 199.723,66.639L203.517,69.508C201.046,72.556 197.913,73.747 194.559,73.747C188.157,73.747 183.034,69.287 183.034,62.622C183.034,55.956 188.157,51.498 194.559,51.498C200.47,51.498 204.489,55.649 204.489,63.021L204.489,64.476L188.334,64.476Z" style="fill:rgb(3,4,4);fill-rule:nonzero;"/>
        <path d="M234.772,58.385C233.538,57.106 232.168,56.267 230.757,56.267C226.871,56.267 224.531,59.311 224.531,62.622C224.531,65.932 226.871,68.979 230.757,68.979C232.391,68.979 233.891,68.274 234.863,66.994L238.394,70.788C236.231,72.951 232.61,73.747 230.757,73.747C224.356,73.747 219.238,69.287 219.238,62.622C219.238,55.956 224.356,51.498 230.757,51.498C233.449,51.498 236.407,52.47 238.438,54.718L234.772,58.385Z" style="fill:rgb(3,4,4);fill-rule:nonzero;"/>
        <path d="M251.591,68.979C255.478,68.979 257.816,65.932 257.816,62.622C257.816,59.311 255.478,56.267 251.591,56.267C247.707,56.267 245.369,59.311 245.369,62.622C245.369,65.932 247.707,68.979 251.591,68.979ZM251.591,51.498C257.993,51.498 263.117,55.956 263.117,62.622C263.117,69.287 257.993,73.747 251.591,73.747C245.192,73.747 240.071,69.287 240.071,62.622C240.071,55.956 245.192,51.498 251.591,51.498Z" style="fill:rgb(3,4,4);fill-rule:nonzero;"/>
        <rect x="266.028" y="39.844" width="5.297" height="33.374" style="fill:rgb(3,4,4);fill-rule:nonzero;"/>
        <rect x="277.327" y="39.844" width="5.299" height="33.374" style="fill:rgb(3,4,4);fill-rule:nonzero;"/>
        <path d="M302.224,60.505C302.182,57.411 300.149,55.469 296.84,55.469C293.704,55.469 291.765,57.457 291.365,60.505L302.224,60.505ZM291.365,64.476C291.72,67.608 294.104,69.508 297.063,69.508C299.711,69.508 301.43,68.274 302.755,66.639L306.555,69.508C304.084,72.556 300.947,73.747 297.591,73.747C291.189,73.747 286.071,69.287 286.071,62.622C286.071,55.956 291.189,51.498 297.591,51.498C303.507,51.498 307.523,55.649 307.523,63.021L307.523,64.476L291.365,64.476Z" style="fill:rgb(3,4,4);fill-rule:nonzero;"/>
        <path d="M315.248,62.578C315.248,65.932 317.896,68.714 321.471,68.714C325.402,68.714 327.786,66.021 327.786,62.491C327.786,58.825 325.356,56.267 321.518,56.267C317.813,56.267 315.248,58.825 315.248,62.578ZM332.82,52.026L332.82,71.318C332.82,78.957 329.11,83.811 320.852,83.811C316.926,83.811 313.354,82.972 310.348,80.326L313.527,76C315.646,77.943 317.854,79.044 320.807,79.044C325.928,79.044 327.521,76.131 327.521,71.934L327.521,70.393L327.435,70.393C325.887,72.467 323.15,73.483 320.502,73.483C314.146,73.483 309.953,68.624 309.953,62.622C309.953,56.356 313.879,51.498 320.416,51.498C323.369,51.498 326.15,52.645 327.699,55.206L327.786,55.206L327.786,52.026L332.82,52.026Z" style="fill:rgb(3,4,4);fill-rule:nonzero;"/>
        <path d="M351.799,60.505C351.757,57.411 349.725,55.469 346.412,55.469C343.279,55.469 341.34,57.457 340.94,60.505L351.799,60.505ZM340.94,64.476C341.294,67.608 343.677,69.508 346.635,69.508C349.284,69.508 351.006,68.274 352.328,66.639L356.129,69.508C353.655,72.556 350.521,73.747 347.166,73.747C340.765,73.747 335.648,69.287 335.648,62.622C335.648,55.956 340.765,51.498 347.166,51.498C353.08,51.498 357.1,55.649 357.1,63.021L357.1,64.476L340.94,64.476Z" style="fill:rgb(3,4,4);fill-rule:nonzero;"/>
    </g>
</svg>
