<?xml version="1.0" standalone="no"?>
<!DOCTYPE svg PUBLIC "-//W3C//DTD SVG 1.1//EN" "http://www.w3.org/Graphics/SVG/1.1/DTD/svg11.dtd">
<svg width="100%" height="100%" viewBox="0 0 1142 175" version="1.1" xmlns="http://www.w3.org/2000/svg" xmlns:xlink="http://www.w3.org/1999/xlink" xml:space="preserve" style="fill-rule:evenodd;clip-rule:evenodd;stroke-linejoin:round;stroke-miterlimit:1.41421;">
    <g transform="matrix(4.16667,0,0,4.16667,-107.025,-127.396)">
        <path d="M143.818,41.176C143.387,41.176 143.022,41.039 142.732,40.769C142.435,40.492 142.285,40.127 142.285,39.685C142.285,39.25 142.431,38.878 142.719,38.583C143.009,38.281 143.379,38.13 143.818,38.13C144.253,38.13 144.629,38.278 144.934,38.574C145.241,38.872 145.397,39.245 145.397,39.685C145.397,40.133 145.237,40.498 144.919,40.777C144.616,41.042 144.246,41.176 143.818,41.176ZM267.38,41.176C266.946,41.176 266.58,41.039 266.292,40.768C265.996,40.492 265.845,40.128 265.845,39.685C265.845,39.248 265.992,38.878 266.28,38.581C266.569,38.282 266.94,38.13 267.38,38.13C267.814,38.13 268.189,38.28 268.493,38.574C268.801,38.872 268.958,39.245 268.958,39.685C268.958,40.131 268.798,40.498 268.48,40.777C268.178,41.042 267.808,41.176 267.38,41.176ZM143.818,61.82C143.094,61.82 142.823,61.482 142.724,61.197C142.62,60.907 142.569,60.537 142.569,60.065L142.569,45.982C142.569,45.573 142.63,45.21 142.748,44.904C142.861,44.615 143.145,44.272 143.863,44.272C144.568,44.272 144.817,44.674 144.903,44.913C145.012,45.217 145.068,45.561 145.068,45.937L145.068,60.065C145.068,60.266 145.061,60.456 145.045,60.635C145.027,60.839 144.985,61.023 144.921,61.181C144.838,61.381 144.704,61.538 144.52,61.653C144.341,61.764 144.111,61.82 143.818,61.82ZM229.599,61.82C229.29,61.82 229.043,61.741 228.864,61.586C228.709,61.452 228.59,61.282 228.508,61.082C228.435,60.896 228.393,60.685 228.383,60.454C228.376,60.258 228.373,60.063 228.373,59.867L228.373,52.277C228.373,51.164 228.288,50.185 228.128,49.366C227.972,48.585 227.669,47.931 227.225,47.421C226.782,46.913 226.151,46.525 225.351,46.269C224.522,46.005 223.412,45.87 222.053,45.87C221.209,45.87 220.306,45.94 219.363,46.075C218.431,46.209 217.529,46.445 216.681,46.777C215.847,47.104 215.101,47.544 214.461,48.086C213.861,48.596 213.433,49.242 213.189,50.009L213.189,59.867C213.189,60.067 213.18,60.266 213.166,60.465C213.147,60.693 213.102,60.9 213.03,61.081C212.949,61.283 212.829,61.454 212.675,61.586C212.497,61.741 212.273,61.82 212.006,61.82C211.718,61.82 211.476,61.745 211.285,61.6C211.11,61.464 210.978,61.295 210.887,61.095C210.806,60.913 210.752,60.706 210.726,60.481C210.702,60.277 210.691,60.073 210.691,59.867L210.691,45.653C210.691,45.35 210.755,45.063 210.88,44.8C211.051,44.449 211.421,44.272 211.984,44.272C212.628,44.272 212.896,44.547 213.009,44.777C213.128,45.026 213.189,45.319 213.189,45.653L213.189,47.019C213.51,46.581 213.881,46.198 214.302,45.874C215.063,45.287 215.908,44.84 216.814,44.543C217.707,44.25 218.628,44.056 219.548,43.967C220.453,43.878 221.295,43.833 222.053,43.833C223.657,43.833 225.026,43.973 226.126,44.25C227.258,44.535 228.192,45.019 228.9,45.689C229.614,46.364 230.127,47.258 230.43,48.351C230.723,49.408 230.87,50.73 230.87,52.277L230.87,59.867C230.87,60.08 230.854,60.291 230.822,60.497C230.788,60.715 230.731,60.918 230.651,61.094C230.562,61.292 230.436,61.458 230.274,61.592C230.087,61.744 229.86,61.82 229.599,61.82ZM267.38,61.82C266.653,61.82 266.382,61.482 266.283,61.197C266.183,60.907 266.13,60.526 266.13,60.065L266.13,45.982C266.13,45.573 266.19,45.21 266.309,44.904C266.422,44.615 266.706,44.272 267.424,44.272C268.13,44.272 268.38,44.674 268.465,44.913C268.575,45.211 268.629,45.546 268.629,45.937L268.629,60.065C268.629,60.268 268.62,60.457 268.605,60.637C268.588,60.841 268.547,61.025 268.48,61.184C268.401,61.378 268.267,61.537 268.082,61.653C267.9,61.766 267.671,61.82 267.38,61.82ZM163.177,45.87C161.813,45.87 160.634,46.013 159.671,46.294C158.733,46.566 157.951,46.997 157.346,47.576C156.745,48.147 156.297,48.89 156.018,49.783C155.731,50.699 155.585,51.815 155.585,53.099C155.585,54.426 155.784,55.543 156.176,56.42C156.567,57.286 157.102,57.985 157.766,58.502C158.437,59.021 159.243,59.401 160.161,59.63C161.098,59.862 162.112,59.98 163.177,59.98C164.041,59.98 164.993,59.918 166.006,59.797C167.017,59.678 167.996,59.462 168.917,59.155C169.823,58.852 170.636,58.426 171.331,57.892C171.991,57.383 172.431,56.739 172.677,55.924L172.677,48.38C172.375,48.14 172.005,47.889 171.574,47.628C171.079,47.33 170.446,47.044 169.689,46.777C168.936,46.514 168.012,46.294 166.947,46.123C165.878,45.956 164.61,45.87 163.177,45.87ZM163.177,61.972C161.841,61.972 160.554,61.833 159.354,61.559C158.132,61.281 157.045,60.792 156.122,60.108C155.192,59.419 154.444,58.489 153.901,57.346C153.36,56.208 153.086,54.771 153.086,53.077C153.086,51.407 153.312,49.969 153.758,48.804C154.211,47.621 154.881,46.646 155.752,45.911C156.619,45.176 157.693,44.64 158.947,44.315C160.175,43.995 161.599,43.833 163.177,43.833C164.746,43.833 166.111,43.934 167.234,44.133C168.365,44.333 169.338,44.588 170.121,44.891C170.911,45.197 171.574,45.541 172.091,45.911C172.305,46.065 172.501,46.214 172.677,46.356L172.677,38.599C172.677,38.399 172.681,38.201 172.688,38.003C172.697,37.765 172.739,37.553 172.811,37.368C172.895,37.155 173.018,36.984 173.175,36.856C173.354,36.711 173.599,36.638 173.905,36.638C174.199,36.638 174.44,36.7 174.619,36.824C174.792,36.942 174.923,37.101 175.011,37.296C175.088,37.47 175.136,37.669 175.152,37.892C175.167,38.081 175.177,38.293 175.177,38.523L175.177,60.262C175.177,60.846 175.044,61.247 174.775,61.484C174.523,61.706 174.244,61.82 173.949,61.82C173.614,61.82 173.321,61.718 173.076,61.518C172.806,61.294 172.677,60.9 172.677,60.316L172.677,58.933C172.611,59.021 172.543,59.104 172.47,59.186C172.037,59.676 171.516,60.1 170.92,60.443C170.339,60.778 169.69,61.061 168.994,61.282C168.299,61.5 167.6,61.671 166.915,61.79C166.219,61.911 165.532,61.972 164.877,61.972L163.177,61.972ZM108.505,51.622L108.505,50.809C108.505,50.13 108.378,49.484 108.129,48.89C107.884,48.309 107.475,47.79 106.914,47.349C106.342,46.898 105.574,46.537 104.63,46.273C103.674,46.007 102.475,45.87 101.066,45.87C99.74,45.87 98.55,45.986 97.527,46.212C96.528,46.434 95.668,46.795 94.972,47.284C94.288,47.764 93.749,48.393 93.369,49.154C93.03,49.831 92.816,50.66 92.733,51.622L108.505,51.622ZM99.903,62.038C98.172,62.038 96.676,61.817 95.457,61.381C94.224,60.94 93.203,60.312 92.421,59.515C91.637,58.715 91.062,57.742 90.709,56.623C90.362,55.526 90.187,54.308 90.187,53.001C90.187,51.257 90.471,49.779 91.034,48.606C91.601,47.429 92.39,46.47 93.379,45.758C94.36,45.05 95.528,44.546 96.853,44.258C98.152,43.976 99.57,43.833 101.066,43.833C104.177,43.833 106.551,44.438 108.125,45.632C109.729,46.847 110.542,48.606 110.542,50.857C110.542,51.072 110.527,51.31 110.496,51.573C110.464,51.833 110.422,52.08 110.368,52.315C110.31,52.568 110.246,52.774 110.172,52.946C110.124,53.056 109.976,53.394 109.644,53.394L92.698,53.394C92.749,54.525 92.918,55.503 93.2,56.305C93.509,57.172 93.962,57.886 94.551,58.424C95.141,58.966 95.884,59.366 96.758,59.615C97.655,59.872 98.72,60.001 99.925,60.001C101.289,60.001 102.492,59.914 103.506,59.744C104.52,59.572 105.403,59.362 106.127,59.121C106.849,58.88 107.444,58.63 107.896,58.38C108.372,58.116 108.726,57.906 108.977,57.739L109.018,57.71L109.066,57.694C109.201,57.648 109.284,57.632 109.359,57.632C109.544,57.632 109.819,57.692 110.084,57.984C110.287,58.208 110.389,58.459 110.389,58.727C110.389,59.012 110.259,59.254 110.011,59.427C109.909,59.537 109.621,59.748 109.155,60.049C108.694,60.345 108.064,60.634 107.223,60.931C106.406,61.221 105.383,61.482 104.184,61.703C102.982,61.926 101.541,62.038 99.903,62.038ZM125.69,62.038C125.236,62.038 124.886,61.886 124.651,61.589C124.477,61.365 124.342,61.17 124.245,60.989L115.695,46.388C115.588,46.214 115.515,46.04 115.478,45.879C115.443,45.73 115.425,45.58 115.425,45.433C115.425,45.08 115.536,44.793 115.759,44.583C115.973,44.379 116.242,44.272 116.542,44.272C116.773,44.272 117.007,44.346 117.243,44.492C117.47,44.636 117.667,44.853 117.83,45.141L125.69,59.089L133.548,45.141C133.709,44.854 133.907,44.636 134.134,44.493C134.372,44.346 134.608,44.272 134.836,44.272C135.136,44.272 135.407,44.379 135.62,44.583C135.843,44.795 135.955,45.08 135.955,45.433C135.955,45.726 135.866,46.043 135.693,46.374L127.129,60.999C127.009,61.187 126.859,61.387 126.673,61.602C126.429,61.886 126.088,62.038 125.69,62.038ZM201.14,51.622L201.14,50.809C201.14,50.13 201.013,49.484 200.762,48.89C200.517,48.307 200.11,47.79 199.549,47.349C198.978,46.9 198.208,46.537 197.264,46.273C196.309,46.007 195.11,45.87 193.701,45.87C192.375,45.87 191.183,45.986 190.162,46.212C189.161,46.435 188.303,46.795 187.608,47.283C186.925,47.764 186.384,48.393 186.004,49.154C185.665,49.832 185.451,50.66 185.368,51.622L201.14,51.622ZM192.538,62.038C190.807,62.038 189.31,61.817 188.092,61.381C186.858,60.94 185.837,60.312 185.056,59.515C184.271,58.713 183.695,57.742 183.344,56.623C182.997,55.526 182.822,54.308 182.822,53.001C182.822,51.256 183.106,49.777 183.67,48.606C184.236,47.429 185.025,46.47 186.014,45.758C186.993,45.051 188.16,44.546 189.486,44.258C190.786,43.976 192.205,43.833 193.701,43.833C196.81,43.833 199.184,44.438 200.759,45.632C202.363,46.847 203.176,48.606 203.176,50.857C203.176,51.072 203.16,51.31 203.13,51.573C203.099,51.831 203.057,52.079 203.003,52.313C202.945,52.566 202.88,52.771 202.805,52.946C202.758,53.055 202.612,53.394 202.277,53.394L185.333,53.394C185.384,54.528 185.553,55.506 185.835,56.305C186.143,57.172 186.597,57.886 187.186,58.424C187.776,58.966 188.52,59.366 189.394,59.615C190.289,59.872 191.355,60.001 192.56,60.001C193.922,60.001 195.127,59.914 196.14,59.744C197.155,59.572 198.036,59.362 198.76,59.121C199.482,58.88 200.077,58.63 200.531,58.38C201.008,58.115 201.361,57.905 201.61,57.739L201.654,57.71L201.7,57.694C201.837,57.648 201.919,57.632 201.993,57.632C202.178,57.632 202.454,57.692 202.717,57.984C202.921,58.208 203.023,58.459 203.023,58.727C203.023,59.011 202.892,59.253 202.646,59.426C202.541,59.54 202.253,59.751 201.788,60.049C201.329,60.345 200.698,60.634 199.857,60.931C199.042,61.221 198.017,61.482 196.818,61.703C195.617,61.926 194.177,62.038 192.538,62.038ZM245.382,62.038C244.557,62.038 243.776,61.922 243.062,61.691C242.331,61.455 241.684,61.068 241.141,60.54C240.597,60.012 240.167,59.306 239.864,58.445C239.566,57.596 239.414,56.546 239.414,55.326L239.414,46.397L237.857,46.397C237.545,46.397 237.299,46.301 237.124,46.113C236.958,45.937 236.871,45.724 236.871,45.5C236.871,45.275 236.958,45.063 237.124,44.884C237.3,44.696 237.547,44.601 237.857,44.601L239.414,44.601L239.414,39.509C239.414,38.903 239.563,38.511 239.867,38.312C240.119,38.147 240.387,38.064 240.664,38.064C240.993,38.064 241.279,38.151 241.511,38.323C241.786,38.526 241.914,38.903 241.914,39.509L241.914,44.601L248.826,44.601C249.146,44.601 249.401,44.693 249.582,44.875C249.807,45.102 249.856,45.339 249.856,45.5C249.856,45.728 249.761,45.944 249.582,46.123C249.401,46.304 249.146,46.397 248.826,46.397L241.914,46.397L241.914,55.326C241.914,56.349 242.019,57.181 242.225,57.799C242.423,58.396 242.691,58.864 243.02,59.186C243.346,59.507 243.721,59.716 244.165,59.825C244.637,59.942 245.15,60.001 245.687,60.001C246.343,60.001 246.993,59.883 247.621,59.652C248.278,59.408 249.044,59.054 249.901,58.597C250.138,58.479 250.363,58.421 250.581,58.421C250.942,58.421 251.167,58.569 251.292,58.693C251.473,58.874 251.566,59.105 251.566,59.363C251.566,59.665 251.449,60.087 250.888,60.392C250.269,60.731 249.71,61.009 249.225,61.218C248.738,61.428 248.281,61.595 247.865,61.716C247.444,61.838 247.029,61.924 246.63,61.97C246.238,62.015 245.817,62.038 245.382,62.038ZM257.084,62.038C256.56,62.038 256.13,61.878 255.804,61.56C255.475,61.241 255.309,60.819 255.309,60.307C255.309,59.784 255.472,59.35 255.797,59.017C256.122,58.68 256.556,58.509 257.084,58.509C257.573,58.509 258.001,58.676 258.355,59.003C258.719,59.338 258.903,59.777 258.903,60.307C258.903,60.826 258.716,61.253 258.347,61.575C257.993,61.882 257.568,62.038 257.084,62.038ZM287.923,45.87C286.348,45.87 284.986,46.004 283.873,46.268C282.785,46.522 281.879,46.938 281.18,47.499C280.49,48.055 279.976,48.784 279.65,49.663C279.316,50.57 279.147,51.693 279.147,53.001C279.147,53.588 279.185,54.174 279.262,54.739C279.34,55.296 279.491,55.838 279.717,56.352C279.94,56.86 280.251,57.34 280.642,57.778C281.025,58.209 281.544,58.595 282.18,58.923C282.826,59.257 283.624,59.522 284.554,59.713C285.489,59.904 286.622,60.001 287.923,60.001C289.223,60.001 290.356,59.904 291.293,59.713C292.22,59.524 293.017,59.258 293.663,58.923C294.3,58.595 294.817,58.209 295.202,57.778C295.591,57.341 295.903,56.862 296.127,56.35C296.351,55.838 296.504,55.296 296.581,54.739C296.659,54.159 296.699,53.574 296.699,53.001C296.699,51.694 296.53,50.571 296.195,49.663C295.871,48.782 295.355,48.054 294.666,47.5C293.968,46.938 293.057,46.522 291.962,46.268C290.84,46.004 289.482,45.87 287.923,45.87ZM287.923,62.038C285.879,62.038 284.125,61.83 282.708,61.42C281.273,61.005 280.091,60.401 279.198,59.621C278.299,58.839 277.641,57.87 277.242,56.747C276.847,55.642 276.649,54.382 276.649,53.001C276.649,51.409 276.876,50.023 277.32,48.884C277.773,47.724 278.483,46.753 279.43,45.998C280.37,45.251 281.561,44.696 282.973,44.349C284.363,44.006 286.028,43.833 287.923,43.833C289.816,43.833 291.481,44.006 292.869,44.349C294.283,44.696 295.474,45.251 296.412,45.998C297.361,46.753 298.07,47.724 298.525,48.886C298.971,50.031 299.198,51.416 299.198,53.001C299.198,54.385 298.998,55.645 298.605,56.747C298.206,57.867 297.547,58.836 296.646,59.621C295.751,60.401 294.57,61.007 293.137,61.42C291.721,61.83 289.967,62.038 287.923,62.038Z" style="fill:rgb(34,30,31);fill-rule:nonzero;"/>
        <path d="M69.976,35.28C70.096,32.965 68.111,30.575 64.871,30.575L31.098,30.602L30.75,30.602C28.056,30.602 25.686,32.524 25.686,35.403C25.686,47.053 31.634,60.392 41.626,68.763C41.711,68.827 43.554,70.267 43.648,70.338C44.114,70.688 44.679,71.112 45.25,71.457C46.895,72.577 48.718,72.62 50.359,71.746C50.533,71.66 50.705,71.572 50.866,71.464C51.43,71.089 52.058,70.64 52.731,70.12C62.744,62.556 68.795,50.203 69.832,37.734L69.836,37.734C69.836,37.734 69.887,37.018 69.976,35.28Z" style="fill:rgb(44,169,225);fill-rule:nonzero;"/>
        <path d="M63.884,44.173C64.374,42.168 64.684,40.012 64.809,37.741C64.871,36.613 63.756,35.28 61.939,35.28L33.933,35.28C32.224,35.28 31.013,35.987 31.102,37.758C31.794,51.578 40.419,60.774 45.108,64.784C46.884,66.304 49.327,66.278 51.083,64.784C53.29,62.908 56.326,59.937 58.794,56.088L52.597,56.088C51.615,57.338 50.692,58.376 49.941,59.167L46.623,59.167C45.206,57.682 43.086,55.207 41.272,52.398L60.928,52.398C61.594,51.075 62.407,49.273 62.962,47.486L38.697,47.481C37.774,45.22 36.956,42.894 36.887,40.367L59.206,40.367C59.217,41.633 59.046,42.939 58.771,44.173L63.884,44.173Z" style="fill:white;fill-rule:nonzero;"/>
    </g>
</svg>
