<?xml version="1.0" standalone="no"?>
<!DOCTYPE svg PUBLIC "-//W3C//DTD SVG 1.1//EN" "http://www.w3.org/Graphics/SVG/1.1/DTD/svg11.dtd">
<svg width="100%" height="100%" viewBox="0 0 509 109" version="1.1" xmlns="http://www.w3.org/2000/svg" xmlns:xlink="http://www.w3.org/1999/xlink" xml:space="preserve" style="fill-rule:evenodd;clip-rule:evenodd;stroke-linejoin:round;stroke-miterlimit:1.41421;">
    <g transform="matrix(4.16667,0,0,4.16667,0,0)">
        <path d="M29.185,9.393L35.161,9.393L35.161,6.395L26.027,6.395L26.027,20.567L29.206,20.567L29.206,15.27L34.443,15.27L34.443,12.391L29.185,12.391L29.185,9.393Z" style="fill:rgb(197,60,50);fill-rule:nonzero;"/>
        <path d="M40.124,18.068C38.986,18.068 37.886,17.249 37.886,15.589C37.886,13.911 38.986,13.131 40.124,13.131C41.284,13.131 42.365,13.911 42.365,15.589C42.365,17.269 41.284,18.068 40.124,18.068ZM40.124,10.333C37.167,10.333 34.849,12.511 34.849,15.589C34.849,18.668 37.167,20.867 40.124,20.867C43.103,20.867 45.402,18.668 45.402,15.589C45.402,12.511 43.103,10.333 40.124,10.333Z" style="fill:rgb(197,60,50);fill-rule:nonzero;"/>
        <path d="M49.306,11.971L49.306,10.632L46.366,10.632L46.366,20.567L49.406,20.567L49.406,16.229C49.406,14.251 50.505,13.531 51.724,13.531C52.025,13.531 52.345,13.55 52.685,13.63L52.685,10.632C52.484,10.573 52.185,10.533 51.884,10.533C51.085,10.533 49.825,10.852 49.306,11.971Z" style="fill:rgb(197,60,50);fill-rule:nonzero;"/>
        <path d="M65.302,10.333C63.962,10.333 63.003,10.772 62.222,11.892C61.724,10.913 60.704,10.333 59.284,10.333C58.204,10.333 56.925,10.892 56.425,11.772L56.425,10.632L53.527,10.632L53.527,20.567L56.566,20.567L56.566,14.85C56.566,13.951 57.146,13.131 58.204,13.131C59.304,13.131 59.804,13.871 59.804,14.81L59.804,20.567L62.802,20.567L62.802,14.83C62.802,13.951 63.382,13.131 64.462,13.131C65.54,13.131 66.04,13.871 66.04,14.81L66.04,20.567L68.98,20.567L68.98,14.13C68.98,11.432 67.181,10.333 65.302,10.333Z" style="fill:rgb(197,60,50);fill-rule:nonzero;"/>
        <rect x="70.546" y="10.632" width="3.039" height="9.935" style="fill:rgb(197,60,50);fill-rule:nonzero;"/>
        <path d="M72.046,5.815C71.087,5.815 70.286,6.615 70.286,7.594C70.286,8.574 71.087,9.373 72.046,9.373C73.046,9.373 73.845,8.574 73.845,7.594C73.845,6.615 73.046,5.815 72.046,5.815Z" style="fill:rgb(197,60,50);fill-rule:nonzero;"/>
        <path d="M79.824,18.068C78.644,18.068 77.585,17.229 77.585,15.589C77.585,13.93 78.644,13.131 79.824,13.131C81.003,13.131 82.062,13.93 82.062,15.589C82.062,17.229 81.003,18.068 79.824,18.068ZM85.021,6.095L82.023,6.095L82.023,11.412C81.782,11.032 81.042,10.392 79.345,10.392C76.525,10.392 74.527,12.611 74.527,15.57C74.527,18.629 76.646,20.787 79.445,20.787C80.644,20.787 81.642,20.287 82.103,19.607C82.103,20.007 82.163,20.447 82.183,20.567L85.101,20.567C85.081,20.347 85.021,19.687 85.021,18.788L85.021,6.095Z" style="fill:rgb(197,60,50);fill-rule:nonzero;"/>
        <path d="M92.064,16.67C92.064,18.209 91.144,18.648 90.243,18.648C89.406,18.648 89.066,18.148 89.066,17.629C89.066,16.929 89.544,16.629 90.185,16.529L92.064,16.229L92.064,16.67ZM95.021,14.171C95.021,12.131 93.843,10.333 90.624,10.333C87.706,10.333 86.386,12.212 86.267,13.63L88.906,14.171C88.964,13.431 89.544,12.712 90.605,12.712C91.564,12.712 92.064,13.211 92.064,13.791C92.064,14.13 91.884,14.39 91.343,14.47L89.005,14.83C87.366,15.07 86.066,16.07 86.066,17.829C86.066,19.408 87.325,20.847 89.505,20.847C90.824,20.847 91.782,20.287 92.304,19.448C92.304,20.128 92.382,20.487 92.404,20.567L95.142,20.567C95.122,20.467 95.021,19.807 95.021,19.028L95.021,14.171Z" style="fill:rgb(197,60,50);fill-rule:nonzero;"/>
        <path d="M101.783,18.068C100.605,18.068 99.525,17.229 99.525,15.589C99.525,13.911 100.605,13.131 101.783,13.131C102.963,13.131 104.023,13.911 104.023,15.589C104.023,17.249 102.963,18.068 101.783,18.068ZM102.443,10.392C101.084,10.392 99.984,10.953 99.564,11.572L99.564,6.095L96.585,6.095L96.585,20.567L99.525,20.567L99.525,19.448C99.984,20.208 101.004,20.787 102.324,20.787C105.101,20.787 107.06,18.608 107.06,15.57C107.06,12.591 105.322,10.392 102.443,10.392Z" style="fill:rgb(197,60,50);fill-rule:nonzero;"/>
        <rect x="108.025" y="6.095" width="3.039" height="14.472" style="fill:rgb(197,60,50);fill-rule:nonzero;"/>
        <path d="M115.045,14.411C115.105,13.671 115.744,12.731 117.023,12.731C118.463,12.731 118.982,13.651 119.023,14.411L115.045,14.411ZM121.961,15.43C121.961,12.232 120.062,10.333 116.984,10.333C114.404,10.333 112.027,12.372 112.027,15.57C112.027,18.908 114.465,20.867 117.203,20.867C119.722,20.867 121.301,19.427 121.781,17.709L119.242,16.989C118.963,17.768 118.343,18.289 117.244,18.289C116.064,18.289 115.045,17.489 114.984,16.37L121.9,16.37C121.922,16.309 121.961,15.849 121.961,15.43Z" style="fill:rgb(197,60,50);fill-rule:nonzero;"/>
        <path d="M5.579,0.681L0,23.631L5.579,16.863L5.579,0.681Z" style="fill:rgb(197,60,50);fill-rule:nonzero;"/>
        <path d="M5.579,0.681L18.413,12.678L5.579,16.863L5.579,0.681Z" style="fill:rgb(245,220,210);fill-rule:nonzero;"/>
        <path d="M5.579,26L18.413,12.678L5.579,16.863L5.579,26Z" style="fill:rgb(225,160,140);fill-rule:nonzero;"/>
        <path d="M0,23.631L5.579,16.863L5.579,26L0,23.631Z" style="fill:rgb(211,117,95);fill-rule:nonzero;"/>
    </g>
</svg>
