<?xml version="1.0" standalone="no"?>
<!DOCTYPE svg PUBLIC "-//W3C//DTD SVG 1.1//EN" "http://www.w3.org/Graphics/SVG/1.1/DTD/svg11.dtd">
<svg width="100%" height="100%" viewBox="0 0 2005 542" version="1.1" xmlns="http://www.w3.org/2000/svg" xmlns:xlink="http://www.w3.org/1999/xlink" xml:space="preserve" style="fill-rule:evenodd;clip-rule:evenodd;stroke-linejoin:round;stroke-miterlimit:1.41421;">
    <g transform="matrix(4.16667,0,0,4.16667,0,0)">
        <path d="M92.497,55.713L52.14,55.713C51.099,55.713 50.254,56.558 50.254,57.6L50.254,77.33C50.254,78.371 51.099,79.219 52.14,79.219L67.883,79.219L67.883,103.732C67.883,103.732 64.348,104.937 54.576,104.937C43.045,104.937 26.939,100.724 26.939,65.306C26.939,29.881 43.71,25.22 59.457,25.22C73.086,25.22 78.959,27.619 82.695,28.776C83.869,29.135 84.955,27.966 84.955,26.925L89.457,7.861C89.457,7.373 89.292,6.786 88.736,6.388C87.218,5.305 77.961,0.125 54.576,0.125C27.634,0.125 0,11.587 0,66.687C0,121.789 31.639,130 58.301,130C80.377,130 93.77,120.566 93.77,120.566C94.322,120.261 94.381,119.49 94.381,119.136L94.381,57.6C94.381,56.558 93.538,55.713 92.497,55.713Z" style="fill:rgb(14,13,13);fill-rule:nonzero;"/>
        <path d="M300.475,6.728C300.475,5.678 299.643,4.831 298.602,4.831L275.879,4.831C274.841,4.831 273.997,5.678 273.997,6.728C273.997,6.732 274.003,50.64 274.003,50.64L238.584,50.64L238.584,6.728C238.584,5.678 237.748,4.831 236.709,4.831L213.987,4.831C212.953,4.831 212.11,5.678 212.11,6.728L212.11,125.63C212.11,126.679 212.953,127.533 213.987,127.533L236.709,127.533C237.748,127.533 238.584,126.679 238.584,125.63L238.584,74.771L274.003,74.771C274.003,74.771 273.941,125.626 273.941,125.63C273.941,126.679 274.784,127.533 275.823,127.533L298.6,127.533C299.641,127.533 300.473,126.679 300.475,125.63L300.475,6.728Z" style="fill:rgb(14,13,13);fill-rule:nonzero;"/>
        <path d="M135.376,22.33C135.376,14.148 128.815,7.537 120.723,7.537C112.638,7.537 106.073,14.148 106.073,22.33C106.073,30.504 112.638,37.134 120.723,37.134C128.815,37.134 135.376,30.504 135.376,22.33Z" style="fill:rgb(14,13,13);fill-rule:nonzero;"/>
        <path d="M133.751,100.548C133.751,97.502 133.751,45.663 133.751,45.663C133.751,44.621 132.91,43.769 131.871,43.769L109.22,43.769C108.181,43.769 107.251,44.84 107.251,45.882C107.251,45.882 107.251,111.927 107.251,124.517C107.251,126.828 108.691,127.515 110.555,127.515C110.555,127.515 120.223,127.515 130.963,127.515C133.202,127.515 133.751,126.416 133.751,124.48C133.751,120.265 133.751,103.753 133.751,100.548Z" style="fill:rgb(14,13,13);fill-rule:nonzero;"/>
        <path d="M386.832,43.947L364.283,43.947C363.249,43.947 362.407,44.8 362.407,45.849L362.407,104.15C362.407,104.15 356.679,108.341 348.548,108.341C340.418,108.341 338.26,104.652 338.26,96.691C338.26,88.721 338.26,45.849 338.26,45.849C338.26,44.8 337.42,43.947 336.385,43.947L313.5,43.947C312.467,43.947 311.621,44.8 311.621,45.849C311.621,45.849 311.621,76.896 311.621,100.541C311.621,124.187 324.8,129.972 342.93,129.972C357.803,129.972 369.795,121.755 369.795,121.755C369.795,121.755 370.366,126.085 370.624,126.599C370.883,127.111 371.556,127.628 372.283,127.628L386.842,127.564C387.875,127.564 388.721,126.71 388.721,125.666L388.714,45.849C388.714,44.8 387.871,43.947 386.832,43.947Z" style="fill:rgb(14,13,13);fill-rule:nonzero;"/>
        <path d="M439.567,108.269C431.746,108.031 426.441,104.482 426.441,104.482L426.441,66.828C426.441,66.828 431.675,63.621 438.096,63.047C446.216,62.32 454.04,64.773 454.04,84.143C454.04,104.568 450.509,108.599 439.567,108.269ZM448.461,41.276C435.654,41.276 426.943,46.99 426.943,46.99L426.943,6.728C426.943,5.678 426.104,4.831 425.068,4.831L402.281,4.831C401.245,4.831 400.403,5.678 400.403,6.728L400.403,125.63C400.403,126.679 401.245,127.533 402.284,127.533C402.286,127.533 418.089,127.533 418.094,127.533C418.806,127.533 419.345,127.166 419.743,126.523C420.136,125.884 420.703,121.041 420.703,121.041C420.703,121.041 430.021,129.871 447.66,129.871C468.368,129.871 480.244,119.367 480.244,82.717C480.244,46.066 461.277,41.276 448.461,41.276Z" style="fill:rgb(14,13,13);fill-rule:nonzero;"/>
        <path d="M199.058,43.758L182.013,43.758C182.013,43.758 181.987,21.245 181.987,21.24C181.987,20.387 181.548,19.961 180.563,19.961L157.335,19.961C156.432,19.961 155.947,20.359 155.947,21.227L155.947,44.496C155.947,44.496 144.307,47.306 143.52,47.533C142.736,47.761 142.159,48.483 142.159,49.346L142.159,63.968C142.159,65.02 142.999,65.868 144.038,65.868L155.947,65.868C155.947,65.868 155.947,81.162 155.947,101.046C155.947,127.175 174.275,129.743 186.643,129.743C192.294,129.743 199.054,127.927 200.17,127.515C200.845,127.267 201.237,126.568 201.237,125.81L201.256,109.724C201.256,108.675 200.37,107.826 199.372,107.826C198.379,107.826 195.838,108.23 193.222,108.23C184.85,108.23 182.013,104.337 182.013,99.299C182.013,94.264 182.012,65.868 182.012,65.868L199.058,65.868C200.097,65.868 200.938,65.02 200.938,63.968L200.938,45.652C200.938,44.603 200.097,43.758 199.058,43.758Z" style="fill:rgb(14,13,13);fill-rule:nonzero;"/>
    </g>
</svg>
