<?xml version="1.0" standalone="no"?>
<!DOCTYPE svg PUBLIC "-//W3C//DTD SVG 1.1//EN" "http://www.w3.org/Graphics/SVG/1.1/DTD/svg11.dtd">
<svg width="100%" height="100%" viewBox="0 0 1567 438" version="1.1" xmlns="http://www.w3.org/2000/svg" xmlns:xlink="http://www.w3.org/1999/xlink" xml:space="preserve" style="fill-rule:evenodd;clip-rule:evenodd;stroke-linejoin:round;stroke-miterlimit:1.41421;">
    <g transform="matrix(4.16667,0,0,4.16667,-275.671,-46.1791)">
        <path d="M209.877,82.188C209.877,78.294 206.817,75.094 202.922,75.094C199.027,75.094 195.967,78.294 195.967,82.188C195.967,86.083 199.027,89.212 202.922,89.212C206.817,89.212 209.877,86.083 209.877,82.188ZM221.978,82.258C221.978,92.342 213.493,100.409 202.922,100.409C192.351,100.409 183.866,92.342 183.866,82.258C183.866,72.104 192.351,63.897 202.922,63.897C213.493,63.897 221.978,72.104 221.978,82.258Z" style="fill:rgb(66,62,63);fill-rule:nonzero;"/>
        <path d="M259.92,74.885C259.92,68.07 255.192,62.158 248.237,62.158L238.57,62.158L238.57,87.891L248.237,87.891C255.192,87.891 259.92,81.701 259.92,74.885ZM272.996,74.885C272.996,89.421 262.842,99.367 248.515,99.367L227.79,99.367C226.816,99.367 226.051,98.601 226.051,97.628L226.051,52.352C226.051,51.448 226.816,50.683 227.79,50.683L248.515,50.683C262.842,50.683 272.996,60.35 272.996,74.885Z" style="fill:rgb(66,62,63);fill-rule:nonzero;"/>
        <path d="M293.234,89.282C297.129,89.282 300.189,86.083 300.189,82.188C300.189,78.294 297.129,75.094 293.234,75.094C289.34,75.094 286.28,78.294 286.28,82.188C286.28,86.083 289.34,89.282 293.234,89.282ZM291.426,63.897C295.529,63.897 298.798,65.427 300.258,67.583L300.258,66.54C300.258,65.636 301.024,64.94 301.858,64.94L310.552,64.94C311.456,64.94 312.151,65.636 312.151,66.54L312.151,97.767C312.151,98.671 311.456,99.367 310.552,99.367L301.858,99.367C300.954,99.367 300.258,98.671 300.258,97.767L300.258,96.724C298.798,98.88 295.46,100.409 291.356,100.409C282.593,100.409 274.178,93.385 274.178,82.049C274.178,70.713 282.663,63.897 291.426,63.897Z" style="fill:rgb(66,62,63);fill-rule:nonzero;"/>
        <path d="M332.808,89.282C336.702,89.282 339.762,86.083 339.762,82.188C339.762,78.294 336.702,75.094 332.808,75.094C328.913,75.094 325.853,78.294 325.853,82.188C325.853,86.083 328.913,89.282 332.808,89.282ZM330.721,63.897C334.964,63.897 338.232,65.497 339.693,67.374L339.693,52.283C339.693,51.378 340.458,50.683 341.292,50.683L350.125,50.683C351.029,50.683 351.724,51.378 351.724,52.283L351.724,97.767C351.724,98.671 351.029,99.367 350.125,99.367L341.431,99.367C340.527,99.367 339.832,98.671 339.832,97.767L339.832,96.724C338.093,98.88 335.033,100.409 330.93,100.409C322.167,100.409 313.751,93.385 313.751,82.049C313.751,70.713 322.097,63.897 330.721,63.897Z" style="fill:rgb(66,62,63);fill-rule:nonzero;"/>
        <path d="M372.381,89.282C376.275,89.282 379.335,86.083 379.335,82.188C379.335,78.294 376.275,75.094 372.381,75.094C368.486,75.094 365.426,78.294 365.426,82.188C365.426,86.083 368.486,89.282 372.381,89.282ZM370.294,63.897C374.536,63.897 377.805,65.497 379.266,67.374L379.266,52.283C379.266,51.378 380.031,50.683 380.865,50.683L389.698,50.683C390.602,50.683 391.297,51.378 391.297,52.283L391.297,97.767C391.297,98.671 390.602,99.367 389.698,99.367L381.004,99.367C380.1,99.367 379.405,98.671 379.405,97.767L379.405,96.724C377.666,98.88 374.606,100.409 370.503,100.409C361.739,100.409 353.324,93.385 353.324,82.049C353.324,70.713 361.67,63.897 370.294,63.897Z" style="fill:rgb(66,62,63);fill-rule:nonzero;"/>
        <path d="M420.369,104.373C418.213,111.676 413.136,115.779 405.208,115.779C400.896,115.779 396.723,114.319 394.01,111.954C393.593,111.537 393.315,110.981 393.315,110.494C393.315,110.076 393.523,109.52 393.871,109.033L397.14,104.026C397.627,103.33 398.392,103.261 398.531,103.261C399.296,103.261 399.644,103.47 400.339,103.956C401.382,104.652 402.773,105.486 404.373,105.486C405.694,105.486 407.502,104.93 408.129,102.843L409.241,99.367L403.956,99.367C402.843,99.367 402.147,98.601 401.869,97.697L393.037,67.653C392.828,66.888 392.758,66.47 392.758,66.192C392.758,65.497 393.245,64.94 394.219,64.94L404.651,64.94C405.555,64.94 406.111,65.775 406.32,66.609L412.093,88.169L412.51,88.169L417.17,66.609C417.378,65.775 417.935,64.94 418.839,64.94L429.41,64.94C430.384,64.94 430.871,65.497 430.871,66.192C430.871,66.47 430.801,66.888 430.592,67.653L420.369,104.373Z" style="fill:rgb(66,62,63);fill-rule:nonzero;"/>
        <path d="M171.486,92.62C167.313,98.462 160.358,100.409 154.238,100.409C140.12,100.409 129.688,89.769 129.688,75.025C129.688,60.907 140.954,49.64 155.699,49.64C166.617,49.64 175.381,54.299 179.345,63.201C179.832,64.245 180.18,65.914 177.258,66.47L169.539,67.861C167.73,68.209 166.757,67.027 166.409,66.54C164.114,63.41 160.428,61.254 155.977,61.254C148.257,61.254 142.763,67.166 142.763,75.094C142.763,83.857 149.022,88.934 155.768,88.934C160.289,88.934 164.044,87.196 166.479,83.996L159.663,83.996C158.689,83.996 157.924,83.231 157.924,82.258L157.924,75.72C157.924,74.747 158.689,73.981 159.663,73.981L180.458,73.981C181.431,73.981 182.196,74.747 182.196,75.72L182.196,97.628C182.196,98.602 181.431,99.366 180.458,99.366L173.225,99.366C172.251,99.366 171.486,98.602 171.486,97.628L171.486,92.62Z" style="fill:rgb(66,62,63);fill-rule:nonzero;"/>
        <path d="M92.081,20.009C92.06,19.873 92.052,19.724 92.052,19.576C92.009,17.433 94.044,15.086 94.107,12.704L94.119,12.694L94.119,12.639C94.099,12.217 93.803,11.943 93.51,11.812C93.208,11.676 92.857,11.621 92.47,11.621C91.54,11.632 90.381,11.967 89.761,12.917C88.756,15.014 87.161,17.22 87.146,19.495C87.138,20.214 87.322,20.944 87.746,21.636C88.625,23.575 89.814,25.315 90.733,27.396C90.895,27.774 90.967,28.115 90.967,28.432C90.967,29.054 90.688,29.631 90.192,30.19C90.041,30.396 89.038,30.353 88.527,31.188L88.503,31.24L88.495,31.3C88.472,31.406 88.461,31.509 88.461,31.613C88.468,32.485 89.148,33.034 89.88,33.317C90.31,33.481 90.717,33.546 91.121,33.546C92.662,33.538 93.961,32.581 94.637,31.495C95.144,30.64 95.354,29.789 95.354,28.954C95.3,25.717 92.427,22.883 92.081,20.009Z" style="fill:rgb(232,132,46);fill-rule:nonzero;"/>
        <path d="M103.892,23.948C102.233,21.562 101.977,21.204 101.078,19.395C100.87,18.962 100.463,18.315 100.463,17.571C100.475,17.003 100.677,16.356 101.498,15.619C101.964,15.195 102.138,14.545 102.138,13.887C102.138,13.096 101.871,12.25 101.225,11.704C100.605,11.288 100.059,11.083 99.534,11.083C98.428,11.093 97.723,11.951 97.216,12.961C96.692,14 96.302,15.308 95.908,16.53C95.754,17.033 95.676,17.526 95.676,18.014C95.733,21.711 99.693,24.588 100.563,28.018C100.664,28.365 100.713,28.711 100.713,29.036C100.713,29.846 100.436,30.673 100.091,31.611C99.994,31.868 99.941,32.132 99.941,32.371C99.949,33.496 100.957,34.089 101.86,34.089L101.871,34.089C102.376,34.089 102.913,33.908 103.304,33.502C105.174,31.572 105.888,29.937 105.888,28.482C105.883,26.633 104.787,25.237 103.892,23.948Z" style="fill:rgb(232,132,46);fill-rule:nonzero;"/>
        <path d="M71.318,23.628C70.989,22.973 70.887,22.2 70.887,21.369C70.887,20.261 71.079,19.057 71.079,17.907C71.079,17.25 71.023,16.615 70.81,16.021C70.617,15.54 70.143,15.413 69.751,15.413C68.692,15.45 67.161,16.191 66.769,17.608C66.59,19.219 66.169,20.965 66.161,22.596C66.158,24.044 66.584,25.382 67.747,26.492C69.539,28.202 71.433,29.553 72.496,31.055C72.929,31.668 73.178,32.139 73.184,32.68C73.184,33.045 73.093,33.424 72.922,33.838C72.631,34.329 71.879,35.445 71.75,36.228L71.739,36.285L71.75,36.346C71.75,36.715 72.115,37.096 72.449,37.096C72.469,37.096 72.489,37.091 72.514,37.091C72.922,37.069 73.215,36.923 73.557,36.923C73.585,36.923 73.604,36.923 73.612,36.927L73.815,36.927C75.873,36.923 77.216,35.269 77.564,33.751C77.64,33.393 77.663,33.061 77.663,32.739C77.586,28.628 72.792,26.683 71.318,23.628Z" style="fill:rgb(232,132,46);fill-rule:nonzero;"/>
        <path d="M83.344,22.854C81.82,20.326 79.723,18.046 79.502,15.567C79.508,15.559 79.508,15.539 79.593,15.495C79.902,15.234 80.946,15.121 81.645,14.838C82.073,14.721 82.651,14.487 83.155,14.183C83.637,13.871 84.141,13.554 84.18,12.894C84.186,12.596 84.002,12.303 83.745,12.122C82.927,11.637 82.032,11.429 81.133,11.429C78.429,11.437 75.59,13.246 74.898,15.834C74.802,16.244 74.745,16.645 74.745,17.037C74.816,20.88 79.122,23.58 80.218,27.038L80.227,27.059C80.377,27.481 80.435,27.875 80.441,28.282C80.441,29.025 80.227,29.797 79.971,30.672C79.902,30.847 79.882,31.044 79.882,31.222C79.867,31.7 80.128,32.106 80.479,32.313C80.821,32.526 81.232,32.611 81.652,32.611C82.454,32.604 83.326,32.33 83.86,31.748C84.763,30.586 85.121,29.346 85.118,28.136C85.115,26.209 84.266,24.359 83.344,22.854Z" style="fill:rgb(232,132,46);fill-rule:nonzero;"/>
        <path d="M113.018,89.86C112.968,89.86 112.903,89.855 112.851,89.851" style="fill:rgb(79,70,69);fill-rule:nonzero;"/>
        <path d="M74.859,66.734C74.866,65.798 75.177,64.719 75.641,64.134C76.012,63.674 76.458,63.157 77.06,62.639L77.586,64.858C76.451,65.42 75.578,66.046 74.859,66.734ZM124.152,54.206C122.33,53.259 119.949,52.724 117.326,52.724C117.293,52.724 117.262,52.728 117.23,52.728C114.803,46.65 111.734,42.116 108.07,39.25C103.412,35.633 97.413,33.723 90.721,33.723C87.397,33.723 83.965,34.229 80.541,35.115C80.296,34.468 80.057,33.812 79.766,33.213C79.622,32.916 79.144,32.741 78.814,33.021C78.52,33.298 78.273,33.815 78.409,34.392C78.498,34.828 78.499,35.266 78.475,35.702C76.575,36.291 74.683,36.963 72.826,37.81L71.873,38.255C71.564,38.399 71.399,38.74 71.476,39.072L72.674,44.128C72.153,44.598 71.634,45.089 71.077,45.509C70.58,45.872 70.513,46.945 70.931,47.068C71.786,47.288 72.621,47.376 73.447,47.387L74.685,52.614C74.666,52.661 74.652,52.713 74.633,52.76C74.492,53.106 74.278,53.462 74.159,53.737C73.871,54.379 74.429,55.122 74.764,54.929C74.906,54.843 75.028,54.73 75.164,54.636L76.524,60.375C75.314,61.203 74.518,62.082 73.951,62.84C73.091,63.985 72.735,65.435 72.724,66.8C72.724,67.586 72.848,68.343 73.163,69.031C73.177,69.061 73.209,69.086 73.224,69.117C72.9,69.984 72.751,70.897 72.755,71.821C72.755,72.183 72.778,72.559 72.808,72.941C72.965,74.989 74.221,76.544 75.84,77.451C77.293,78.262 79.052,78.653 80.875,78.738L86.427,102.166C86.48,102.384 86.63,102.567 86.836,102.658C86.928,102.699 87.029,102.72 87.128,102.72C87.248,102.72 87.367,102.69 87.475,102.633L88.941,101.831C90.32,101.074 92.536,99.778 95.256,97.887C96.232,97.212 97.083,96.934 98.307,96.922C99.281,96.922 100.386,97.212 101.665,97.551C103.311,97.987 105.177,98.481 107.352,98.5C108.279,98.5 109.215,98.397 110.133,98.191C112.502,97.674 114.442,96.261 115.454,94.32C116.124,93.046 116.468,91.586 116.478,89.973C116.478,89.523 116.444,89.179 116.425,88.96C116.374,86.665 115.161,84.243 113.988,81.9L113.613,81.147C111.599,77.269 111.209,75.829 111.236,75.294C111.239,75.239 111.241,75.195 111.228,75.186C111.659,74.855 113.462,74.185 115.814,73.62C116.883,73.355 117.902,73.092 118.737,72.82C119.155,72.674 119.566,72.521 119.949,72.289C120.223,72.143 120.456,71.962 120.697,71.704C121.077,71.267 121.288,70.725 121.288,70.172C121.281,68.941 121.036,66.682 120.487,63.877C121.849,63.627 123.101,63.237 124.152,62.697C125.93,61.771 127.315,60.341 127.344,58.451C127.315,56.555 125.93,55.141 124.152,54.206Z" style="fill:rgb(66,62,63);fill-rule:nonzero;"/>
        <path d="M77.611,52.51C78.045,51.983 78.5,51.396 79.003,50.715L79.116,50.565C79.586,49.942 80.119,49.237 80.65,49.237C80.667,49.237 80.685,49.238 80.703,49.24C82.23,49.404 83.316,50.153 84.572,51.019C84.913,51.255 85.267,51.499 85.646,51.743C85.879,51.895 86.11,52.069 86.333,52.236C86.997,52.733 87.683,53.247 88.492,53.247C88.601,53.247 88.711,53.238 88.819,53.22L88.823,53.22C89.069,53.22 89.211,52.955 89.361,52.675C89.438,52.53 89.518,52.381 89.617,52.26L89.629,52.244L89.638,52.226C89.772,51.929 89.589,51.626 89.479,51.445C89.459,51.41 89.44,51.38 89.427,51.354C89.316,51.13 89.218,50.92 89.123,50.721C88.797,50.029 88.514,49.433 87.958,48.713C87.326,47.896 86.733,47.092 86.159,46.314C85.833,45.874 85.506,45.431 85.169,44.981C85.934,44.382 86.762,44.105 87.635,43.811C88.041,43.675 88.459,43.535 88.87,43.359C89.215,43.231 89.449,42.635 89.352,42.111C89.291,41.81 89.074,41.58 88.89,41.466L88.859,41.447L88.823,41.443C87.915,41.366 87.068,41.147 85.994,40.71C85.47,40.595 84.976,40.588 84.499,40.582C83.807,40.572 83.154,40.563 82.499,40.271C82.191,40.122 82.082,39.617 81.986,39.171C81.959,39.048 81.934,38.929 81.905,38.821C81.841,38.581 81.768,38.35 81.696,38.119C81.663,38.016 81.631,37.912 81.599,37.809C84.806,37.006 87.873,36.599 90.719,36.599C96.776,36.599 102.163,38.303 106.299,41.524C109.323,43.873 111.96,47.681 114.141,52.843C112.704,53.08 111.464,53.456 110.452,53.96C109.204,54.565 108.251,55.443 107.691,56.501C107.498,56.476 107.313,56.468 107.14,56.464C106.599,56.471 106.076,56.556 105.691,56.631C104.844,53.019 101.076,50.408 96.663,50.401C91.955,50.408 88.061,53.36 87.541,57.289C84.195,57.429 81.436,57.948 79.118,58.873L77.611,52.51Z" style="fill:white;fill-rule:nonzero;"/>
        <path d="M74.679,40.13C75.647,39.709 76.63,39.348 77.563,39.019C77.438,39.414 77.321,39.793 77.222,40.173C77.13,40.338 76.948,40.487 76.772,40.63C76.729,40.667 76.592,40.782 76.592,40.782L76.592,41.165C76.179,41.51 75.732,41.835 75.169,42.201L74.679,40.13Z" style="fill:white;fill-rule:nonzero;"/>
        <path d="M79.681,61.25C81.692,60.396 84.304,59.893 87.656,59.715C88.547,63.263 92.31,65.832 96.662,65.843C101.276,65.832 105.169,62.937 105.77,59.094L105.771,59.094C106.295,58.974 106.804,58.903 107.136,58.903C107.168,58.903 107.196,58.904 107.221,58.905C107.409,60.583 108.552,62.017 110.452,62.952C112.266,63.853 114.643,64.329 117.326,64.329C117.408,64.329 117.487,64.324 117.566,64.318C117.584,64.317 117.602,64.315 117.621,64.314C118.064,66.527 118.35,68.584 118.394,69.868C117.867,70.125 116.477,70.486 115.447,70.753L115.401,70.765C113.086,71.362 110.473,72.037 109.244,73.107C107.217,74.891 109.054,78.506 110.998,82.333C111.905,84.121 112.696,85.726 113.16,87.153C108.89,86.522 106.051,85.421 103.675,83.476C101.385,81.606 99.508,78.897 97.334,75.76C97.069,75.376 96.632,75.147 96.163,75.147C95.871,75.147 95.589,75.235 95.347,75.401C95.034,75.613 94.823,75.937 94.754,76.314C94.684,76.693 94.767,77.075 94.987,77.388L95.12,77.58C97.338,80.781 99.254,83.546 101.864,85.698C104.672,88.001 108.157,89.369 112.831,90.002C113.136,90.044 113.379,90.074 113.611,90.101C113.605,91.792 113.037,94.591 109.507,95.396C108.876,95.538 108.194,95.61 107.481,95.61C105.822,95.61 104.151,95.23 102.592,94.818C101.079,94.422 99.672,94.053 98.188,94.053C96.508,94.053 95.033,94.538 93.547,95.58C92.717,96.152 90.825,97.453 88.564,98.757L79.681,61.25Z" style="fill:white;fill-rule:nonzero;"/>
        <path d="M80.153,76.358C78.89,76.22 77.798,75.898 76.985,75.421C75.799,74.738 75.223,73.911 75.114,72.739C75.085,72.359 75.071,72.066 75.071,71.821C75.082,70.421 75.379,69.54 76.128,68.68C76.56,68.191 77.188,67.71 77.996,67.249L80.153,76.358Z" style="fill:white;fill-rule:nonzero;"/>
        <path d="M117.314,61.908C115.049,61.901 112.956,61.488 111.539,60.775C110.243,60.113 109.585,59.331 109.585,58.451C109.585,57.579 110.243,56.8 111.54,56.135C112.465,55.671 113.724,55.331 115.178,55.15C115.965,55.052 116.637,55.006 117.291,55.006L117.333,55.006C117.478,55.006 117.618,55.016 117.758,55.026C117.847,55.033 117.937,55.039 118.028,55.043C119.958,55.127 121.805,55.559 123.095,56.23C124.575,57.001 125.08,57.88 125.06,58.446C125.08,59.02 124.575,59.898 123.094,60.674C122.287,61.092 121.222,61.43 120.015,61.65C119.064,61.824 118.184,61.908 117.326,61.908L117.314,61.908Z" style="fill:rgb(0,142,115);fill-rule:nonzero;"/>
        <path d="M96.663,63.399C94.829,63.399 93.043,62.807 91.763,61.775C90.547,60.779 89.877,59.479 89.877,58.114C89.877,56.76 90.547,55.46 91.764,54.454C93.052,53.423 94.838,52.83 96.663,52.83C98.485,52.83 100.273,53.423 101.567,54.456C102.787,55.462 103.46,56.762 103.46,58.114C103.46,59.477 102.787,60.777 101.565,61.776C100.267,62.822 98.525,63.399 96.663,63.399Z" style="fill:rgb(0,142,115);fill-rule:nonzero;"/>
        <path d="M76.424,51.399C76.621,50.671 76.753,49.968 76.856,49.374C76.901,49.114 76.945,48.851 76.989,48.583C77.045,48.25 77.102,47.908 77.165,47.552C77.222,47.315 77.339,47.088 77.463,46.848C77.549,46.681 77.639,46.508 77.717,46.314C77.886,45.879 77.857,45.443 77.64,45.147L77.627,45.13L77.612,45.118C77.466,45.002 77.288,44.944 77.081,44.944C76.725,44.944 76.373,45.118 76.194,45.222C76.134,45.251 76.051,45.264 75.965,45.278C75.89,45.29 75.814,45.303 75.74,45.326C75.323,45.459 74.895,45.526 74.468,45.526C74.153,45.526 73.834,45.489 73.518,45.416C73.734,45.158 74.011,45.009 74.281,44.863C74.409,44.794 74.532,44.727 74.644,44.653C74.936,44.506 75.233,44.356 75.528,44.182C75.752,44.05 76.044,43.866 76.314,43.615C76.379,43.561 76.478,43.523 76.575,43.487C76.718,43.433 76.879,43.373 76.958,43.226C77.047,43.13 77.141,43.04 77.237,42.95C77.503,42.697 77.778,42.436 77.984,42.015C78.569,41.088 78.835,39.988 79.092,38.924C79.136,38.742 79.18,38.56 79.226,38.378C79.326,37.979 79.439,37.559 79.584,37.145C79.718,37.429 79.847,37.742 79.981,38.106C80.213,38.735 80.405,39.379 80.607,40.06C80.843,40.855 81.087,41.677 81.403,42.48C81.418,42.544 81.484,42.683 81.696,42.683C81.732,42.683 81.771,42.679 81.81,42.675C81.842,42.672 81.875,42.668 81.907,42.668C81.97,42.668 81.998,42.68 82.025,42.747L82.101,42.939L82.262,42.81C82.662,42.49 83.11,42.447 83.494,42.447C83.647,42.447 83.8,42.454 83.953,42.462C84.111,42.469 84.268,42.476 84.423,42.476C84.508,42.476 84.597,42.469 84.689,42.462C84.778,42.455 84.871,42.447 84.964,42.447C85.145,42.447 85.35,42.474 85.54,42.645C85.325,42.757 85.113,42.874 84.902,42.99C84.303,43.321 83.736,43.633 83.14,43.822L83.118,43.829L83.099,43.842C82.895,43.983 82.644,44.345 82.58,44.739C82.538,45.001 82.586,45.238 82.72,45.427C82.812,45.665 83.01,45.8 83.186,45.92C83.297,45.996 83.402,46.068 83.472,46.157C84.635,47.282 85.678,48.606 86.667,50.215C86.656,50.218 86.645,50.219 86.633,50.219C86.504,50.219 86.351,50.059 86.202,49.906L86.104,49.804C85.4,49.225 84.686,48.825 83.996,48.438C83.223,48.004 82.423,47.556 81.647,46.865C81.45,46.69 81.241,46.602 81.028,46.602C80.476,46.602 80.018,47.167 79.535,47.766C79.289,48.069 79.036,48.383 78.781,48.599C78.207,49.102 77.737,49.715 77.282,50.308C77.168,50.456 77.054,50.605 76.939,50.751C76.886,50.819 76.834,50.887 76.781,50.956C76.662,51.113 76.547,51.264 76.424,51.402L76.424,51.399Z" style="fill:rgb(253,216,74);fill-rule:nonzero;"/>
        <path d="M430.904,56.417C430.904,56.317 430.973,56.24 431.074,56.24L435.331,56.24C435.431,56.24 435.5,56.317 435.5,56.417L435.5,57.086C435.5,57.187 435.431,57.256 435.331,57.256L433.776,57.256L433.776,61.452C433.776,61.551 433.691,61.628 433.599,61.628L432.798,61.628C432.706,61.628 432.629,61.551 432.629,61.452L432.629,57.256L431.074,57.256C430.973,57.256 430.904,57.187 430.904,57.086L430.904,56.417Z" style="fill:rgb(66,62,63);fill-rule:nonzero;"/>
        <path d="M438.951,59.088L440.145,56.394C440.198,56.27 440.298,56.24 440.391,56.24L441.669,56.24C441.769,56.24 441.838,56.317 441.838,56.409L441.838,61.459C441.838,61.559 441.769,61.628 441.677,61.628L440.914,61.628C440.814,61.628 440.745,61.559 440.745,61.459L440.745,57.649L439.498,60.42C439.436,60.558 439.367,60.589 439.244,60.589L438.628,60.589C438.513,60.589 438.443,60.558 438.382,60.42L437.135,57.649L437.135,61.459C437.135,61.559 437.057,61.628 436.973,61.628L436.203,61.628C436.111,61.628 436.041,61.559 436.041,61.459L436.041,56.409C436.041,56.317 436.111,56.24 436.211,56.24L437.519,56.24C437.619,56.24 437.712,56.27 437.766,56.394L438.951,59.088Z" style="fill:rgb(66,62,63);fill-rule:nonzero;"/>
    </g>
</svg>
