<?xml version="1.0" encoding="UTF-8" standalone="no"?>
<!DOCTYPE svg PUBLIC "-//W3C//DTD SVG 1.1//EN" "http://www.w3.org/Graphics/SVG/1.1/DTD/svg11.dtd">
<svg width="100%" height="100%" viewBox="0 0 309 85" version="1.1" xmlns="http://www.w3.org/2000/svg" xmlns:xlink="http://www.w3.org/1999/xlink" xml:space="preserve" style="fill-rule:evenodd;clip-rule:evenodd;stroke-linejoin:round;stroke-miterlimit:1.41421;">
    <g transform="matrix(1,0,0,1,-50.3095,-339.777)">
        <path d="M346.37,379.38L346.37,378.66C346.37,372.74 346.37,366.82 346.37,360.9C346.344,359.759 346.444,358.619 346.67,357.5C346.862,356.557 347.228,355.658 347.75,354.85C348.495,353.692 349.686,352.892 351.04,352.64C352.372,352.347 353.762,352.444 355.04,352.92C356.134,353.338 357.048,354.128 357.62,355.15C358.18,356.129 358.521,357.217 358.62,358.34C358.69,359.06 358.72,359.78 358.72,360.5C358.72,379.167 358.72,397.863 358.72,416.59C358.759,417.911 358.563,419.228 358.14,420.48C357.263,422.967 354.759,424.528 352.14,424.22C349.518,424.045 347.323,422.118 346.81,419.54C346.594,418.555 346.487,417.549 346.49,416.54C346.49,416.31 346.49,416.08 346.49,415.7C346.23,415.96 346.08,416.11 345.93,416.27C344.63,417.74 343.19,419.08 341.63,420.27C335.28,425.014 326.698,425.591 319.77,421.74C316.641,419.92 314.042,417.313 312.23,414.18C310.541,411.27 309.368,408.09 308.76,404.78C308.263,402.187 308.039,399.55 308.09,396.91C308.077,393.308 308.62,389.726 309.7,386.29C310.999,382.117 313.556,378.445 317.02,375.78C319.58,373.84 322.591,372.581 325.77,372.12C328.543,371.703 331.364,371.726 334.13,372.19C337.411,372.772 340.475,374.226 343,376.4C344,377.21 344.89,378.12 345.83,378.99L346.29,379.43L346.37,379.38ZM345.7,397.38C345.63,396.6 345.56,395.14 345.35,393.7C344.979,390.87 343.864,388.189 342.12,385.93C339.274,382.08 334.242,380.488 329.7,382C327.147,382.859 325.005,384.643 323.7,387C322.269,389.415 321.401,392.123 321.16,394.92C320.91,397.269 320.947,399.64 321.27,401.98C321.528,404.128 322.19,406.208 323.22,408.11C325.59,412.32 329.16,414.48 334.03,414.29C336.391,414.217 338.662,413.366 340.49,411.87C342.378,410.287 343.788,408.209 344.56,405.87C345.413,403.114 345.798,400.234 345.7,397.35L345.7,397.38Z" style="fill:rgb(34,101,243);fill-rule:nonzero;"/>
    </g>
    <g transform="matrix(1,0,0,1,-50.3095,-339.777)">
        <path d="M188.3,379.45L188.3,378.79C188.3,372.65 188.3,366.51 188.3,360.37C188.263,359.013 188.463,357.659 188.89,356.37C189.332,354.842 190.433,353.588 191.89,352.95C193.608,352.218 195.56,352.254 197.25,353.05C198.441,353.608 199.365,354.615 199.82,355.85C200.283,357.069 200.507,358.366 200.48,359.67L200.48,416.78C200.51,418.022 200.327,419.26 199.94,420.44C199.061,422.928 196.562,424.494 193.94,424.2C191.163,424.01 188.883,421.87 188.52,419.11C188.399,418.322 188.322,417.527 188.29,416.73C188.29,416.4 188.29,416.06 188.29,415.6L186.69,417.28C184.671,419.453 182.258,421.224 179.58,422.5C177.327,423.493 174.909,424.059 172.45,424.17C169.928,424.329 167.4,423.989 165.01,423.17C160.909,421.766 157.374,419.066 154.94,415.48C152.768,412.333 151.288,408.761 150.6,405C150.046,402.111 149.815,399.17 149.91,396.23C149.932,392.426 150.609,388.654 151.91,385.08C153.459,380.857 156.347,377.253 160.13,374.82C162.642,373.239 165.487,372.26 168.44,371.96C170.926,371.673 173.44,371.734 175.91,372.14C179.036,372.688 181.972,374.024 184.44,376.02C185.673,376.978 186.827,378.035 187.89,379.18C187.973,379.29 188.047,379.407 188.11,379.53L188.3,379.45ZM163,397.95C163,398.69 163,399.43 163,400.17C163.115,402.269 163.557,404.337 164.31,406.3C165.095,408.454 166.445,410.358 168.22,411.81C170.62,413.744 173.72,414.592 176.77,414.15C179.833,413.808 182.613,412.187 184.42,409.69C185.681,407.977 186.558,406.012 186.99,403.93C187.777,400.387 187.849,396.721 187.2,393.15C186.783,390.47 185.677,387.944 183.99,385.82C182.002,383.197 178.947,381.591 175.66,381.44C172.476,381.228 169.362,382.473 167.2,384.82C165.78,386.349 164.714,388.172 164.08,390.16C163.252,392.67 162.886,395.309 163,397.95L163,397.95Z" style="fill:rgb(34,100,243);fill-rule:nonzero;"/>
    </g>
    <g transform="matrix(1,0,0,1,-50.3095,-339.777)">
        <path d="M270.06,401.18C270.13,402.07 270.16,402.88 270.26,403.69C270.439,405.243 270.85,406.76 271.48,408.19C272.95,411.87 276.179,414.572 280.06,415.37C283.718,416.194 287.559,415.493 290.69,413.43C292.388,412.332 293.982,411.08 295.45,409.69C296.16,409.02 296.9,408.37 297.6,407.69C298.199,407.091 298.98,406.707 299.82,406.6C300.674,406.464 301.546,406.512 302.38,406.74C304.396,407.245 305.664,409.289 305.22,411.32C304.89,413.141 304.071,414.839 302.85,416.23C300.757,418.779 298.057,420.763 295,422C291.847,423.343 288.475,424.095 285.05,424.22C281.51,424.403 277.962,424.066 274.52,423.22C270.408,422.242 266.656,420.12 263.7,417.1C260.875,414.184 258.865,410.576 257.87,406.64C256.992,403.186 256.655,399.617 256.87,396.06C257.009,392.658 257.712,389.302 258.95,386.13C261.53,379.179 267.507,374.019 274.76,372.48C279.573,371.253 284.617,371.253 289.43,372.48C299.208,374.87 306.107,383.755 306,393.82C305.995,394.862 305.833,395.897 305.52,396.89C305.083,398.37 303.969,399.559 302.52,400.09C301.195,400.599 299.805,400.916 298.39,401.03C297.16,401.13 295.92,401.18 294.68,401.18C286.76,401.18 278.84,401.18 270.92,401.18L270.07,401.18L270.06,401.18ZM270.06,393.8L293.48,393.8C293.381,391.125 292.698,388.504 291.48,386.12C290.289,383.842 288.259,382.113 285.82,381.3C283.668,380.572 281.358,380.447 279.14,380.94C276.277,381.558 273.816,383.382 272.39,385.94C271.44,387.564 270.789,389.346 270.47,391.2C270.32,392 270.2,392.89 270.06,393.81L270.06,393.8Z" style="fill:rgb(34,100,243);fill-rule:nonzero;"/>
    </g>
    <g transform="matrix(1,0,0,1,-50.3095,-339.777)">
        <path d="M218.38,401.18C218.354,402.649 218.522,404.115 218.88,405.54C219.463,408.173 220.809,410.577 222.75,412.45C224.63,414.248 227.068,415.353 229.66,415.58C233.2,415.973 236.764,415.043 239.66,412.97C241.58,411.563 243.404,410.029 245.12,408.38L245.64,407.89C247.219,406.43 249.553,406.106 251.47,407.08C252.98,407.894 253.793,409.605 253.47,411.29C253.293,412.398 252.902,413.461 252.32,414.42C250.993,416.718 249.121,418.655 246.87,420.06C243.872,421.994 240.503,423.281 236.98,423.84C234.948,424.173 232.889,424.314 230.83,424.26C227.468,424.251 224.128,423.718 220.93,422.68C213.66,420.16 208.93,415.13 206.51,407.89C205.728,405.45 205.267,402.919 205.14,400.36C205.012,398.606 205.012,396.844 205.14,395.09C205.397,391.171 206.445,387.344 208.22,383.84C210.956,378.448 215.842,374.451 221.67,372.84C225.238,371.803 228.965,371.42 232.67,371.71C235.671,371.85 238.618,372.552 241.36,373.78C247.903,376.633 252.593,382.59 253.83,389.62C254.224,391.504 254.302,393.44 254.06,395.35C253.963,396.166 253.73,396.961 253.37,397.7C252.891,398.733 252.047,399.552 251,400C249.61,400.554 248.143,400.892 246.65,401C245.44,401.1 244.22,401.15 243,401.15C235.04,401.15 227.083,401.15 219.13,401.15L218.35,401.15L218.38,401.18ZM218.38,393.76C219.15,393.89 241.38,393.86 241.81,393.76C241.692,391.04 240.975,388.38 239.71,385.97C238.537,383.848 236.631,382.223 234.35,381.4C232.136,380.598 229.738,380.445 227.44,380.96C224.499,381.582 221.985,383.487 220.59,386.15C219.622,387.924 218.969,389.853 218.66,391.85C218.53,392.48 218.45,393.12 218.36,393.77L218.38,393.76Z" style="fill:rgb(34,100,243);fill-rule:nonzero;"/>
    </g>
    <g transform="matrix(1,0,0,1,-50.3095,-339.777)">
        <path d="M112,380.3L112.43,379.8C113.68,378.238 115.102,376.823 116.67,375.58C119.089,373.685 121.96,372.451 125,372C127.768,371.53 130.601,371.605 133.34,372.22C136.442,372.841 139.277,374.41 141.45,376.71C143.707,379.151 145.141,382.241 145.55,385.54C145.803,387.664 145.92,389.801 145.9,391.94C145.9,400.06 145.9,408.18 145.9,416.3C145.944,417.742 145.696,419.177 145.17,420.52C144.171,422.991 141.641,424.514 138.99,424.24C135.964,424.039 133.498,421.666 133.18,418.65C133.055,417.859 132.991,417.06 132.99,416.26C132.99,409.18 132.99,402.1 132.99,395.02C133.042,392.92 132.861,390.82 132.45,388.76C132.23,387.786 131.946,386.827 131.6,385.89C130.861,383.768 129.001,382.225 126.78,381.89C121.216,380.665 115.561,383.888 113.78,389.3C113.381,390.558 113.145,391.862 113.08,393.18C112.87,395.59 112.82,398.01 112.82,400.43C112.82,405.73 112.82,411.03 112.82,416.33C112.849,417.695 112.615,419.053 112.13,420.33C111.11,422.858 108.522,424.418 105.81,424.14C102.915,423.927 100.537,421.712 100.12,418.84C99.965,418.036 99.885,417.219 99.88,416.4C99.88,403.86 99.88,391.32 99.88,378.78C99.862,377.658 100.024,376.541 100.36,375.47C101.049,373.2 103.147,371.63 105.52,371.61C107.75,371.395 109.908,372.519 111.01,374.47C111.488,375.261 111.782,376.15 111.87,377.07C111.93,378.2 112,379.19 112,380.3Z" style="fill:rgb(34,100,243);fill-rule:nonzero;"/>
    </g>
    <g transform="matrix(1,0,0,1,-50.3095,-339.777)">
        <path d="M77.21,384.84C79.644,385.09 82.102,384.969 84.5,384.48C86.897,383.965 89.196,383.071 91.31,381.83L91.31,415.98C91.342,417.384 91.097,418.78 90.59,420.09C89.733,422.422 87.578,424.043 85.1,424.22C84.146,424.344 83.176,424.273 82.25,424.01C80.086,423.399 78.386,421.71 77.76,419.55C77.358,418.256 77.172,416.904 77.21,415.55C77.21,405.51 77.21,395.47 77.21,385.43L77.21,384.8L77.21,384.84Z" style="fill:rgb(34,100,243);fill-rule:nonzero;"/>
    </g>
    <g transform="matrix(1,0,0,1,-50.3095,-339.777)">
        <path d="M94.47,366.64C94.47,372.477 89.667,377.28 83.83,377.28C77.993,377.28 73.19,372.477 73.19,366.64C73.19,360.803 77.993,356 83.83,356C83.84,356 83.85,356 83.86,356C83.863,356 83.867,356 83.87,356C89.685,356 94.47,360.785 94.47,366.6C94.47,366.613 94.47,366.627 94.47,366.64Z" style="fill:rgb(34,100,243);fill-rule:nonzero;"/>
    </g>
    <g transform="matrix(1,0,0,1,-50.3095,-339.777)">
        <path d="M50.38,382.49C50.329,382.159 50.306,381.825 50.31,381.49C50.45,380.1 50.56,378.7 50.79,377.33C51.895,370.892 54.212,364.723 57.62,359.15C60.935,353.549 65.467,348.764 70.88,345.15C74.526,342.675 78.658,341.005 83,340.25C87.684,339.345 92.527,339.743 97,341.4C100.072,342.569 102.817,344.462 105,346.92C105.764,347.741 106.38,348.688 106.82,349.72C106.94,350.016 107.024,350.324 107.07,350.64C107.081,350.676 107.086,350.713 107.086,350.751C107.086,350.965 106.91,351.141 106.696,351.141C106.653,351.141 106.611,351.134 106.57,351.12C106.335,351.084 106.108,351.006 105.9,350.89C105.38,350.59 104.9,350.28 104.38,349.89C102.053,348.232 99.518,346.887 96.84,345.89C95.049,345.255 93.19,344.832 91.3,344.63C89.751,344.443 88.188,344.39 86.63,344.47C83.334,344.653 80.093,345.401 77.05,346.68C72.975,348.443 69.249,350.922 66.05,354C61.475,358.296 57.815,363.474 55.29,369.22C53.59,373.01 52.182,376.925 51.08,380.93C50.97,381.497 50.73,382.031 50.38,382.49L50.38,382.49Z" style="fill:rgb(35,102,243);fill-rule:nonzero;"/>
    </g>
</svg>
