<?xml version="1.0" encoding="UTF-8" standalone="no"?>
<!DOCTYPE svg PUBLIC "-//W3C//DTD SVG 1.1//EN" "http://www.w3.org/Graphics/SVG/1.1/DTD/svg11.dtd">
<svg width="100%" height="100%" viewBox="0 0 426 305" version="1.1" xmlns="http://www.w3.org/2000/svg" xmlns:xlink="http://www.w3.org/1999/xlink" xml:space="preserve" style="fill-rule:evenodd;clip-rule:evenodd;stroke-linejoin:round;stroke-miterlimit:1.41421;">
    <g transform="matrix(1,0,0,1,-4.55501,-2.46851)">
        <g id="Layer-1">
            <g>
                <path d="M140.937,205.337C140.35,205.375 140.128,204.865 139.805,204.544C132.722,197.5 125.648,190.447 118.576,183.393C104.944,169.796 91.315,156.195 77.681,142.599C65.585,130.537 53.493,118.47 41.361,106.443C40.465,105.555 40.434,105.127 41.348,104.216C74.168,71.449 106.962,38.656 139.727,5.835C140.686,4.874 141.148,4.955 142.054,5.863C166.565,30.423 191.105,54.953 215.642,79.487C216.051,79.895 216.484,80.278 216.906,80.672C217.028,80.821 217.139,80.981 217.274,81.116C225.117,88.962 232.961,96.806 240.809,104.647C241.039,104.876 241.218,105.201 241.611,105.205C241.71,105.787 242.218,106.054 242.581,106.417C259.29,123.14 276.016,139.845 292.697,156.596C293.709,157.612 294.237,157.667 295.266,156.635C311.994,139.864 328.753,123.123 345.548,106.419C346.505,105.467 346.352,105.045 345.497,104.192C331.018,89.743 316.573,75.259 302.118,60.786C299.496,58.161 296.859,55.549 294.229,52.931C294.223,51.243 294.214,49.554 294.213,47.866C294.206,32.764 294.201,17.662 294.195,2.56C294.51,2.306 294.609,2.649 294.743,2.785C300.394,8.528 306.026,14.289 311.685,20.024C326.968,35.514 342.266,50.989 357.551,66.476C369.582,78.667 381.593,90.876 393.649,103.042C394.485,103.886 394.516,104.298 393.661,105.156C380.587,118.285 367.549,131.45 354.51,144.613C343.067,156.165 331.631,167.724 320.195,179.283C311.779,187.789 303.352,196.284 294.979,204.832C294.067,205.763 293.632,205.694 292.751,204.811C268.139,180.148 243.497,155.515 218.857,130.88C218.348,130.371 217.806,129.895 217.28,129.403C211.159,123.248 205.044,117.087 198.914,110.94C196.94,108.961 194.929,107.02 192.935,105.061C192.717,104.807 192.514,104.536 192.278,104.3C175.426,87.443 158.561,70.599 141.742,53.709C140.801,52.764 140.405,53.194 139.736,53.865C122.959,70.66 106.179,87.453 89.359,104.204C88.426,105.133 88.538,105.548 89.399,106.406C106.587,123.539 123.741,140.707 140.902,157.868C140.902,159.46 140.902,161.052 140.903,162.644C140.914,176.875 140.926,191.106 140.937,205.337" style="fill:rgb(41,79,254);fill-rule:nonzero;"/>
                <path d="M294.196,2.56C294.201,17.662 294.207,32.764 294.213,47.866C294.215,49.554 294.224,51.243 294.23,52.931C294.118,53.022 293.996,53.103 293.895,53.203C276.465,70.536 259.039,87.87 241.611,105.205C241.217,105.201 241.039,104.876 240.81,104.647C232.961,96.806 225.118,88.962 217.275,81.116C217.14,80.981 217.028,80.821 216.907,80.672C223.788,73.718 230.671,66.764 237.552,59.808C241.383,55.935 245.21,52.059 249.04,48.185C259.172,37.935 269.303,27.682 279.439,17.436C284.35,12.471 289.277,7.518 294.196,2.56" style="fill:rgb(254,73,92);fill-rule:nonzero;"/>
                <path d="M192.935,105.061C194.929,107.019 196.941,108.96 198.914,110.939C205.044,117.086 211.159,123.248 217.28,129.403C210.376,136.279 203.472,143.156 196.567,150.031C196.259,150.338 195.942,150.634 195.634,150.94C180.432,166.102 165.234,181.268 150.024,196.423C147.019,199.417 143.967,202.366 140.937,205.336C140.926,191.106 140.914,176.874 140.903,162.643C140.902,161.051 140.902,159.459 140.902,157.867C144.808,153.872 148.699,149.864 152.622,145.886C160.876,137.517 169.148,129.166 177.408,120.803C182.587,115.559 187.76,110.309 192.935,105.061" style="fill:rgb(254,73,92);fill-rule:nonzero;"/>
                <path d="M109.218,283.757C109.223,276.912 103.765,271.392 96.985,271.386C90.211,271.38 84.711,276.91 84.705,283.732C84.7,290.476 90.145,295.957 96.89,295.997C103.717,296.038 109.213,290.582 109.218,283.757M120.323,283.749C120.302,296.776 109.861,307.029 96.642,307.004C83.997,306.981 73.587,296.439 73.6,283.669C73.613,270.634 84.149,260.343 97.446,260.379C109.939,260.413 120.344,271.042 120.323,283.749" style="fill:rgb(1,1,1);fill-rule:nonzero;"/>
                <path d="M344.261,283.487C344.261,281.589 344.261,280.017 344.261,278.446C344.261,272.994 344.291,267.541 344.235,262.09C344.224,261.057 344.511,260.813 345.512,260.837C348.501,260.906 351.495,260.9 354.485,260.839C355.429,260.819 355.677,261.08 355.675,262.027C355.644,276.694 355.655,291.362 355.643,306.029C355.643,306.429 355.883,306.975 355.421,307.207C354.955,307.441 354.649,306.953 354.327,306.688C347.285,300.908 340.245,295.123 333.205,289.34C330.983,287.515 328.761,285.69 326.31,283.676L326.31,285.298C326.31,291.764 326.271,298.229 326.343,304.694C326.357,305.951 325.974,306.196 324.812,306.163C321.871,306.078 318.926,306.112 315.983,306.15C315.179,306.16 314.794,306.066 314.796,305.084C314.83,290.368 314.819,275.652 314.824,260.937C314.824,260.564 314.672,260.072 315.081,259.878C315.634,259.615 315.936,260.181 316.275,260.46C324.953,267.592 333.619,274.74 342.288,281.884C342.863,282.357 343.444,282.823 344.261,283.487" style="fill:rgb(1,1,1);fill-rule:nonzero;"/>
                <path d="M184.934,273.699C182.654,271.036 179.777,270.135 176.454,270.446C174.304,270.648 172.962,272.054 173.181,273.879C173.363,275.402 174.485,276.075 175.742,276.523C178.049,277.346 180.387,278.08 182.706,278.869C185.548,279.836 188.207,281.123 190.564,283.036C196.387,287.761 196.102,300.834 187.297,304.896C179.974,308.274 166.796,307.734 159.784,300.058C159.654,299.915 159.524,299.772 159.384,299.64C158.567,298.873 158.311,298.323 159.524,297.515C161.848,295.967 164.058,294.24 166.241,292.495C167.026,291.867 167.425,291.92 168.065,292.663C170.903,295.962 174.518,297.233 178.81,296.537C179.417,296.439 180.041,296.275 180.59,296.004C182.907,294.864 183.072,292.063 180.904,290.656C179.189,289.543 177.191,289.099 175.289,288.446C172.469,287.478 169.614,286.619 167.106,284.921C158.995,279.426 159.44,267.33 167.93,262.459C174.188,258.869 185.905,259.665 191.224,265.495C191.785,266.11 191.912,266.428 191.27,267.075C189.134,269.229 187.071,271.454 184.934,273.699" style="fill:rgb(1,1,1);fill-rule:nonzero;"/>
                <path d="M254.079,282.838C252.558,286.38 251.13,289.706 249.679,293.084L258.622,293.084C257.107,289.668 255.648,286.377 254.079,282.838M277.01,306.134C272.866,306.134 268.929,306.118 264.992,306.148C264.236,306.153 264.084,305.598 263.98,305.142C263.421,302.68 261.89,302.138 259.502,302.261C255.317,302.476 251.113,302.351 246.918,302.298C246.006,302.286 245.452,302.507 245.258,303.418C244.766,305.742 243.382,306.408 241.034,306.196C238.166,305.937 235.257,306.134 232.141,306.134C233.328,303.642 234.448,301.282 235.574,298.925C241.623,286.266 247.67,273.607 253.736,260.957C253.948,260.515 253.984,259.761 254.616,259.776C255.231,259.79 255.254,260.522 255.471,260.977C262.345,275.37 269.215,289.764 276.085,304.158C276.369,304.752 276.643,305.349 277.01,306.134" style="fill:rgb(1,1,1);fill-rule:nonzero;"/>
                <path d="M412.216,260.862C417.812,260.862 423.408,260.901 429.003,260.831C430.182,260.816 430.422,261.18 430.389,262.269C430.312,264.871 430.331,267.478 430.383,270.082C430.4,270.914 430.138,271.124 429.333,271.113C426.102,271.07 422.869,271.139 419.638,271.07C418.608,271.048 418.37,271.361 418.373,272.357C418.409,283.018 418.356,293.679 418.438,304.339C418.45,305.918 417.966,306.22 416.529,306.167C413.59,306.059 410.643,306.073 407.703,306.165C406.522,306.201 406.192,305.925 406.199,304.694C406.255,294.033 406.205,283.372 406.264,272.712C406.271,271.379 405.923,271.021 404.605,271.063C401.472,271.164 398.334,271.069 395.199,271.113C394.378,271.125 394.131,270.885 394.146,270.06C394.195,267.408 394.215,264.753 394.139,262.102C394.109,261.066 394.437,260.831 395.429,260.839C401.024,260.886 406.62,260.862 412.216,260.862" style="fill:rgb(1,1,1);fill-rule:nonzero;"/>
                <path d="M4.584,283.428C4.584,276.339 4.612,269.249 4.555,262.16C4.546,261.052 4.849,260.811 5.908,260.835C9.09,260.909 12.276,260.93 15.455,260.828C16.676,260.788 16.82,261.235 16.817,262.281C16.783,273.035 16.811,283.79 16.773,294.544C16.769,295.611 16.951,295.999 18.144,295.983C23.689,295.908 29.236,295.971 34.781,295.929C35.7,295.922 36.008,296.127 35.982,297.099C35.909,299.75 35.912,302.405 35.981,305.055C36.005,305.981 35.713,306.157 34.848,306.154C25.154,306.123 15.46,306.115 5.767,306.162C4.67,306.168 4.56,305.769 4.564,304.841C4.6,297.703 4.584,290.566 4.584,283.428" style="fill:rgb(1,1,1);fill-rule:nonzero;"/>
                <path d="M241.611,105.204C259.038,87.87 276.465,70.536 293.894,53.203C293.995,53.102 294.117,53.021 294.229,52.931C296.859,55.549 299.496,58.16 302.118,60.786C316.573,75.259 331.018,89.742 345.497,104.191C346.352,105.044 346.505,105.467 345.548,106.419C328.753,123.123 311.994,139.864 295.266,156.635C294.237,157.667 293.709,157.611 292.697,156.595C276.016,139.844 259.29,123.139 242.581,106.416C242.218,106.053 241.71,105.786 241.611,105.204" style="fill:rgb(254,254,254);fill-rule:nonzero;"/>
                <path d="M192.935,105.061C187.76,110.309 182.587,115.559 177.408,120.803C169.148,129.166 160.876,137.517 152.622,145.886C148.699,149.864 144.808,153.872 140.902,157.867C123.741,140.707 106.587,123.539 89.399,106.405C88.538,105.547 88.426,105.133 89.359,104.204C106.179,87.453 122.959,70.66 139.736,53.864C140.406,53.194 140.802,52.764 141.742,53.709C158.561,70.599 175.426,87.443 192.278,104.3C192.515,104.536 192.717,104.807 192.935,105.061" style="fill:rgb(254,254,254);fill-rule:nonzero;"/>
                <path d="M109.218,283.757C109.213,290.582 103.717,296.038 96.89,295.997C90.145,295.957 84.7,290.476 84.705,283.732C84.711,276.91 90.211,271.38 96.985,271.386C103.765,271.392 109.223,276.912 109.218,283.757" style="fill:rgb(254,254,254);fill-rule:nonzero;"/>
                <path d="M254.079,282.838C255.648,286.377 257.107,289.668 258.622,293.084L249.679,293.084C251.13,289.706 252.558,286.38 254.079,282.838" style="fill:rgb(254,254,254);fill-rule:nonzero;"/>
            </g>
        </g>
    </g>
</svg>
