<?xml version="1.0" encoding="UTF-8" standalone="no"?>
<!DOCTYPE svg PUBLIC "-//W3C//DTD SVG 1.1//EN" "http://www.w3.org/Graphics/SVG/1.1/DTD/svg11.dtd">
<svg width="100%" height="100%" viewBox="0 0 3721 971" version="1.1" xmlns="http://www.w3.org/2000/svg" xmlns:xlink="http://www.w3.org/1999/xlink" xml:space="preserve" style="fill-rule:evenodd;clip-rule:evenodd;stroke-linejoin:round;stroke-miterlimit:1.41421;">
    <g transform="matrix(4.16667,0,0,4.16667,-494.8,-437.833)">
        <path d="M155.526,171.578C158.231,175.754 159.424,179.479 160.935,187.338C171.514,177.012 184.559,171.578 198.797,171.578C211.656,171.578 222.209,175.754 230.375,184.277C232.575,186.413 234.697,189.169 236.527,191.874C250.737,177.319 263.464,171.578 280.513,171.578C292.655,171.578 304.163,175.209 311.19,181.255C319.966,188.839 322.749,197.957 322.749,219.185L322.749,329.628L283.297,329.628L283.297,227.098C283.297,208.512 281.097,204.918 270.517,204.918C262.934,204.918 252.276,210.09 243.526,217.977L243.526,329.628L205.027,329.628L205.027,228.555C205.027,209.175 202.218,204.625 190.923,204.625C183.419,204.625 173.025,208.512 164.276,216.439L164.276,329.628L124.558,329.628L124.558,221.29C124.558,198.859 123.02,189.169 118.752,181.548L155.526,171.578Z" style="fill:rgb(85,87,92);fill-rule:nonzero;"/>
        <path d="M394.895,217.048C392.11,225.268 390.627,236.179 390.627,251.663C390.627,269.519 392.455,282.937 395.769,290.797C399.428,299.296 408.577,303.538 416.396,303.538C434.003,303.538 441.533,287.776 441.533,251.068C441.533,230.119 438.801,216.439 433.367,209.441C429.467,204.323 423.132,201.275 415.814,201.275C406.084,201.275 398.182,207.318 394.895,217.048ZM467.992,194.619C480.401,209.175 485.943,226.156 485.943,251.333C485.943,278.032 479.819,296.271 466.428,311.412C454.657,324.749 439.146,332.969 415.23,332.969C372.994,332.969 345.446,301.403 345.446,252.578C345.446,203.71 373.285,171.232 415.23,171.232C437.369,171.232 454.657,178.843 467.992,194.619Z" style="fill:rgb(85,87,92);fill-rule:nonzero;"/>
        <path d="M616.708,174.283L616.708,202.199L548.092,301.403L619.387,301.403L609.656,329.628L495.33,329.628L495.33,304.453L568.376,202.813L501.426,202.813L501.426,174.283L616.708,174.283Z" style="fill:rgb(85,87,92);fill-rule:nonzero;"/>
        <path d="M680.69,170.623L680.69,329.628L640.042,329.628L640.042,177.012L680.69,170.623ZM685.461,131.514C685.461,145.49 674.351,156.65 660.3,156.65C646.697,156.65 635.51,145.49 635.51,131.514C635.51,117.568 647.07,106.313 660.986,106.313C674.616,106.313 685.461,117.568 685.461,131.514Z" style="fill:rgb(85,87,92);fill-rule:nonzero;"/>
        <path d="M754.715,145.49L754.715,266.525C754.715,293.263 755.034,296.857 757.474,301.099C759.011,303.855 762.298,305.342 765.693,305.342C767.151,305.342 768.025,305.342 770.226,304.783L777.173,329.029C770.226,331.747 761.716,333.262 752.915,333.262C735.573,333.262 721.627,325.092 716.799,312.074C713.751,304.174 713.088,299.296 713.088,277.157L713.088,161.209C713.088,140.9 712.56,128.491 711.045,114.479L752.622,105.08C754.079,113.566 754.715,123.587 754.715,145.49Z" style="fill:rgb(85,87,92);fill-rule:nonzero;"/>
        <path d="M839.028,145.49L839.028,266.525C839.028,293.263 839.375,296.857 841.868,301.099C843.298,303.855 846.585,305.342 849.981,305.342C851.518,305.342 852.446,305.342 854.593,304.783L861.515,329.029C854.593,331.747 846.081,333.262 837.252,333.262C819.941,333.262 805.968,325.092 801.116,312.074C798.014,304.174 797.509,299.296 797.509,277.157L797.509,161.209C797.509,140.9 796.901,128.491 795.335,114.479L836.855,105.08C838.527,113.566 839.028,123.587 839.028,145.49Z" style="fill:rgb(85,87,92);fill-rule:nonzero;"/>
        <path d="M955.505,261.673C927.4,261.673 917.538,266.79 917.538,285.376C917.538,297.465 925.227,305.658 935.539,305.658C943.096,305.658 950.734,301.708 956.753,295.053L957.416,261.673L955.505,261.673ZM902.821,180.061C917.936,173.671 930.93,170.966 945.246,170.966C971.389,170.966 989.259,180.646 995.382,197.957C997.398,204.323 998.326,209.175 998.141,225.876L997.158,278.032C997.158,278.947 997.158,279.912 997.158,280.787C997.158,297.465 999.917,303.855 1011.8,312.633L990.214,337.555C980.719,333.578 972.264,326.579 968.311,318.716C965.316,321.779 961.948,324.749 958.872,326.896C951.343,332.36 940.341,335.408 927.612,335.408C893.014,335.408 874.216,317.775 874.216,286.887C874.216,250.418 899.457,233.407 948.876,233.407C951.847,233.407 954.657,233.407 958.025,233.753L958.025,227.417C958.025,210.09 954.657,204.323 939.704,204.323C926.818,204.323 911.519,210.658 894.867,221.913L877.554,192.776C885.8,187.604 891.873,184.596 902.821,180.061Z" style="fill:rgb(85,87,92);fill-rule:nonzero;"/>
    </g>
</svg>
