<?xml version="1.0" encoding="UTF-8" standalone="no"?>
<!DOCTYPE svg PUBLIC "-//W3C//DTD SVG 1.1//EN" "http://www.w3.org/Graphics/SVG/1.1/DTD/svg11.dtd">
<svg width="100%" height="100%" viewBox="0 0 882 295" version="1.1" xmlns="http://www.w3.org/2000/svg" xmlns:xlink="http://www.w3.org/1999/xlink" xml:space="preserve" style="fill-rule:evenodd;clip-rule:evenodd;stroke-linejoin:round;stroke-miterlimit:1.41421;">
    <g transform="matrix(1,0,0,1,-98.78,-68.5)">
        <g>
            <path d="M525.464,180.064L513.279,180.064L513.279,110.223C513.279,104.71 513.618,97.993 514.295,90.061L514.005,90.061C512.844,94.751 511.805,98.111 510.886,100.142L475.422,180.064L469.475,180.064L433.938,100.722C432.971,98.594 431.931,95.04 430.819,90.061L430.53,90.061C430.917,94.221 431.109,100.988 431.109,110.368L431.109,180.064L419.36,180.064L419.36,76.064L435.46,76.064L467.371,148.588C469.788,154.1 471.36,158.26 472.086,161.062L472.593,161.062C475.011,154.39 476.679,150.137 477.597,148.298L510.161,76.064L525.464,76.064L525.464,180.064Z" style="fill:rgb(0,137,207);fill-rule:nonzero;"/>
            <path d="M561.051,79.182C561.051,81.407 560.278,83.255 558.73,84.73C557.183,86.208 555.346,86.943 553.218,86.943C551.043,86.943 549.205,86.229 547.706,84.803C546.207,83.378 545.458,81.503 545.458,79.182C545.458,77.105 546.195,75.302 547.67,73.779C549.145,72.257 550.994,71.495 553.218,71.495C555.443,71.495 557.304,72.247 558.803,73.743C560.301,75.242 561.051,77.055 561.051,79.182ZM559.02,180.064L547.126,180.064L547.126,105.798L559.02,105.798L559.02,180.064Z" style="fill:rgb(0,137,207);fill-rule:nonzero;"/>
            <path d="M629.131,176.655C623.377,180.136 616.584,181.878 608.752,181.878C601.982,181.878 595.902,180.318 590.512,177.199C585.121,174.081 580.927,169.669 577.929,163.964C574.931,158.261 573.432,151.853 573.432,144.745C573.432,132.464 576.95,122.6 583.985,115.155C591.02,107.711 600.387,103.986 612.089,103.986C618.568,103.986 624.297,105.245 629.277,107.757L629.277,119.941C623.716,116.073 617.818,114.139 611.581,114.139C603.893,114.139 597.644,116.885 592.833,122.37C588.022,127.857 585.617,134.953 585.617,143.656C585.617,152.312 587.901,159.152 592.471,164.18C597.04,169.21 603.168,171.722 610.856,171.722C617.335,171.722 623.427,169.595 629.132,165.34L629.132,176.655L629.131,176.655Z" style="fill:rgb(0,137,207);fill-rule:nonzero;"/>
            <path d="M681.834,117.837C679.707,116.242 676.686,115.444 672.769,115.444C667.498,115.444 663.22,117.922 659.932,122.878C656.645,127.836 655,134.276 655,142.206L655,180.063L643.106,180.063L643.106,105.797L655,105.797L655,121.1L655.29,121.1C656.934,115.977 659.473,111.926 662.905,108.953C666.337,105.98 670.278,104.493 674.726,104.493C677.821,104.493 680.19,104.831 681.833,105.509L681.833,117.837L681.834,117.837Z" style="fill:rgb(0,137,207);fill-rule:nonzero;"/>
            <path d="M756.295,142.641C756.295,154.439 752.946,163.927 746.25,171.107C739.554,178.287 730.572,181.878 719.308,181.878C708.332,181.878 699.569,178.386 693.018,171.398C686.466,164.412 683.191,155.215 683.191,143.802C683.191,131.522 686.551,121.818 693.271,114.684C699.992,107.552 709.251,103.987 721.048,103.987C732.071,103.987 740.702,107.432 746.94,114.322C753.176,121.21 756.295,130.651 756.295,142.641ZM744.11,143.077C744.11,133.747 742.044,126.59 737.91,121.609C733.776,116.631 727.865,114.139 720.178,114.139C712.538,114.139 706.494,116.69 702.046,121.79C697.598,126.893 695.374,134.083 695.374,143.366C695.374,152.262 697.61,159.213 702.083,164.217C706.555,169.221 712.587,171.723 720.178,171.723C727.914,171.723 733.836,169.257 737.947,164.326C742.056,159.394 744.11,152.313 744.11,143.077Z" style="fill:rgb(0,137,207);fill-rule:nonzero;"/>
            <path d="M811.248,160.192C811.248,166.623 808.77,171.844 803.814,175.858C798.858,179.873 792.27,181.878 784.051,181.878C777.04,181.878 770.9,180.379 765.629,177.381L765.629,164.616C771.48,169.357 777.91,171.723 784.921,171.723C794.349,171.723 799.064,168.268 799.064,161.353C799.064,158.55 798.145,156.266 796.307,154.499C794.47,152.733 790.288,150.354 783.761,147.354C777.185,144.552 772.543,141.542 769.836,138.325C767.128,135.11 765.774,130.846 765.774,125.525C765.774,119.386 768.24,114.259 773.171,110.149C778.103,106.042 784.363,103.985 791.955,103.985C797.805,103.985 803.1,105.145 807.838,107.466L807.838,119.432C803.003,115.905 797.395,114.138 791.012,114.138C787.096,114.138 783.941,115.107 781.548,117.039C779.154,118.973 777.957,121.463 777.957,124.509C777.957,127.799 778.876,130.322 780.714,132.087C782.551,133.855 786.346,135.943 792.1,138.361C799.16,141.36 804.115,144.501 806.968,147.789C809.821,151.081 811.248,155.214 811.248,160.192Z" style="fill:rgb(0,137,207);fill-rule:nonzero;"/>
            <path d="M892.091,142.641C892.091,154.439 888.743,163.927 882.046,171.107C875.35,178.287 866.369,181.878 855.104,181.878C844.128,181.878 835.366,178.386 828.814,171.398C822.262,164.412 818.987,155.215 818.987,143.802C818.987,131.522 822.347,121.818 829.068,114.684C835.789,107.552 845.047,103.987 856.844,103.987C867.867,103.987 876.498,107.432 882.736,114.322C888.974,121.212 892.091,130.651 892.091,142.641ZM879.907,143.077C879.907,133.747 877.84,126.59 873.706,121.609C869.572,116.631 863.661,114.139 855.974,114.139C848.334,114.139 842.291,116.69 837.843,121.79C833.395,126.893 831.17,134.083 831.17,143.366C831.17,152.262 833.406,159.213 837.879,164.217C842.352,169.221 848.383,171.723 855.974,171.723C863.71,171.723 869.633,169.257 873.743,164.326C877.853,159.395 879.907,152.313 879.907,143.077Z" style="fill:rgb(0,137,207);fill-rule:nonzero;"/>
            <path d="M940.516,80.56C938.195,79.254 935.56,78.602 932.611,78.602C924.295,78.602 920.136,83.85 920.136,94.339L920.136,105.798L937.542,105.798L937.542,115.879L920.136,115.879L920.136,180.064L908.241,180.064L908.241,115.879L895.622,115.879L895.622,105.798L908.241,105.798L908.241,93.76C908.241,86.217 910.466,80.125 914.914,75.484C919.362,70.843 925.018,68.521 931.885,68.521C935.511,68.521 938.388,68.957 940.516,69.827L940.516,80.56Z" style="fill:rgb(0,137,207);fill-rule:nonzero;"/>
            <path d="M980.746,179.338C977.893,180.934 974.171,181.732 969.577,181.732C956.62,181.732 950.14,174.433 950.14,159.83L950.14,115.88L937.376,115.88L937.376,105.799L950.14,105.799L950.14,87.667L962.035,83.823L962.035,105.798L980.746,105.798L980.746,115.879L962.035,115.879L962.035,157.798C962.035,162.778 962.881,166.32 964.573,168.423C966.265,170.527 969.094,171.578 973.058,171.578C976.007,171.578 978.57,170.78 980.746,169.184L980.746,179.338Z" style="fill:rgb(0,137,207);fill-rule:nonzero;"/>
            <path d="M474.479,328.594L419.36,328.594L419.36,224.594L472.086,224.594L472.086,235.617L431.544,235.617L431.544,270.212L469.112,270.212L469.112,281.235L431.544,281.235L431.544,317.57L474.479,317.57L474.479,328.594Z" style="fill:rgb(0,137,207);fill-rule:nonzero;"/>
            <path d="M551.694,328.594L539.8,328.594L539.8,315.975L539.51,315.975C533.998,325.596 525.489,330.408 513.982,330.408C504.602,330.408 497.132,327.035 491.572,320.291C486.012,313.546 483.231,304.543 483.231,293.275C483.231,280.994 486.314,271.131 492.478,263.685C498.643,256.241 506.899,252.516 517.246,252.516C527.399,252.516 534.821,256.531 539.511,264.555L539.801,264.555L539.801,218.647L551.695,218.647L551.695,328.594L551.694,328.594ZM539.801,295.015L539.801,284.064C539.801,277.926 537.759,272.823 533.673,268.761C529.587,264.7 524.619,262.669 518.77,262.669C511.614,262.669 505.933,265.316 501.726,270.61C497.52,275.904 495.416,283.242 495.416,292.622C495.416,301.133 497.398,307.864 501.363,312.819C505.328,317.777 510.67,320.254 517.391,320.254C523.917,320.254 529.285,317.887 533.491,313.147C537.698,308.409 539.801,302.367 539.801,295.015Z" style="fill:rgb(0,137,207);fill-rule:nonzero;"/>
            <path d="M634.57,322.647C634.57,349.869 621.515,363.479 595.407,363.479C586.317,363.479 578.291,361.762 571.329,358.33L571.329,346.435C579.644,351.077 587.599,353.398 595.189,353.398C613.513,353.398 622.675,343.704 622.675,324.316L622.675,316.121L622.386,316.121C616.729,325.647 608.219,330.408 596.857,330.408C590.862,330.408 585.519,328.909 580.83,325.911C576.14,322.914 572.514,318.635 569.951,313.074C567.389,307.516 566.107,301.108 566.107,293.855C566.107,281.19 569.189,271.131 575.354,263.685C581.518,256.241 589.774,252.516 600.121,252.516C610.13,252.516 617.552,256.531 622.387,264.555L622.676,264.555L622.676,254.33L634.571,254.33L634.571,322.647L634.57,322.647ZM622.676,295.015L622.676,284.064C622.676,278.071 620.621,273.004 616.512,268.871C612.403,264.738 607.494,262.67 601.789,262.67C594.392,262.67 588.626,265.354 584.492,270.721C580.358,276.087 578.291,283.557 578.291,293.131C578.291,301.253 580.273,307.807 584.238,312.785C588.203,317.764 593.497,320.255 600.121,320.255C606.745,320.255 612.16,317.898 616.366,313.184C620.573,308.468 622.676,302.413 622.676,295.015Z" style="fill:rgb(0,137,207);fill-rule:nonzero;"/>
            <path d="M713.745,294.435L661.31,294.435C661.503,302.802 663.715,309.194 667.946,313.618C672.177,318.043 678.04,320.255 685.534,320.255C693.946,320.255 701.61,317.547 708.524,312.132L708.524,323.228C702.045,328.015 693.439,330.409 682.705,330.409C672.117,330.409 663.849,326.99 657.902,320.146C651.955,313.305 648.981,303.84 648.981,291.752C648.981,284.403 650.468,277.694 653.442,271.627C656.415,265.561 660.512,260.857 665.734,257.521C670.956,254.185 676.758,252.517 683.14,252.517C692.762,252.517 700.268,255.648 705.659,261.909C711.051,268.173 713.746,276.934 713.746,288.199L713.746,294.435L713.745,294.435ZM701.561,284.355C701.464,277.491 699.809,272.161 696.593,268.363C693.378,264.568 688.845,262.67 682.995,262.67C677.482,262.67 672.768,264.654 668.852,268.617C664.936,272.582 662.47,277.828 661.455,284.355L701.561,284.355Z" style="fill:rgb(0,137,207);fill-rule:nonzero;"/>
        </g>
        <path d="M98.819,191.535C106.226,133.231 145.974,80.342 217.262,79.639C260.301,80.461 295.717,99.96 316.763,137.148C327.351,156.557 330.654,176.937 331.356,199.41L331.356,225.829L173.159,225.829C173.884,291.072 269.153,288.85 310.192,260.087L310.192,313.193C286.165,327.633 231.679,340.495 189.469,323.951C153.515,310.446 127.909,272.855 128.084,236.668C126.915,189.723 151.41,158.68 189.469,141.024C181.402,151.039 175.263,162.07 172.047,181.128L261.377,181.128C261.377,181.128 266.602,127.747 210.825,127.747C158.21,129.606 120.268,160.199 98.812,191.528L98.819,191.535Z" style="fill:rgb(0,137,207);fill-rule:nonzero;"/>
    </g>
</svg>
