<?xml version="1.0" encoding="UTF-8" standalone="no"?>
<!DOCTYPE svg PUBLIC "-//W3C//DTD SVG 1.1//EN" "http://www.w3.org/Graphics/SVG/1.1/DTD/svg11.dtd">
<svg width="100%" height="100%" viewBox="0 0 3075 555" version="1.1" xmlns="http://www.w3.org/2000/svg" xmlns:xlink="http://www.w3.org/1999/xlink" xml:space="preserve" style="fill-rule:evenodd;clip-rule:evenodd;stroke-linejoin:round;stroke-miterlimit:1.41421;">
    <g transform="matrix(4.16667,0,0,4.16667,0,0)">
        <path d="M257.961,104.959L237.774,62.633C232.956,52.605 228.007,41.275 226.313,35.935L225.923,36.326C226.574,43.879 226.705,53.386 226.835,61.33L227.355,104.959L212.64,104.959L212.64,14.837L229.569,14.837L251.449,58.856C255.616,67.192 259.523,77.869 260.695,82.037L261.086,81.647C260.695,77.088 259.784,64.196 259.784,55.991L259.523,14.837L273.719,14.837L273.719,104.959L257.961,104.959Z" style="fill:rgb(34,30,31);fill-rule:nonzero;"/>
        <path d="M313.177,48.307C305.103,48.307 300.675,54.689 300.675,65.368L325.028,65.368C325.028,54.689 320.34,48.307 313.177,48.307ZM300.544,75.916L300.544,76.958C300.544,86.075 303.931,95.712 316.823,95.712C322.944,95.712 328.284,93.498 333.233,89.201L338.833,97.926C331.931,103.787 323.986,106.651 315.131,106.651C296.507,106.651 284.786,93.238 284.786,72.14C284.786,60.549 287.261,52.866 292.991,46.354C298.33,40.233 304.842,37.498 313.177,37.498C319.688,37.498 325.68,39.191 331.279,44.27C337.01,49.479 339.875,57.553 339.875,72.921L339.875,75.916L300.544,75.916Z" style="fill:rgb(34,30,31);fill-rule:nonzero;"/>
        <path d="M416.057,105.219L402.643,105.219L394.568,74.875C392.484,67.061 390.271,56.903 390.271,56.903L390.01,56.903C390.01,56.903 388.968,63.414 385.712,75.526L377.768,105.219L364.354,105.219L346.382,39.972L360.577,38.019L367.74,69.926C369.563,78.131 371.126,87.246 371.126,87.246L371.517,87.246C371.517,87.246 372.819,78.652 375.293,69.535L383.759,39.061L397.824,39.061L405.247,68.754C407.982,79.433 409.415,87.508 409.415,87.508L409.806,87.508C409.806,87.508 411.368,77.479 413.062,69.795L419.833,39.061L434.68,39.061L416.057,105.219Z" style="fill:rgb(34,30,31);fill-rule:nonzero;"/>
        <path d="M497.316,26.949L489.111,26.949L489.111,55.47L496.796,55.47C504.609,55.47 508.777,54.428 511.512,51.694C513.986,49.219 515.549,45.442 515.549,40.754C515.549,31.637 510.601,26.949 497.316,26.949ZM518.153,104.959L510.34,91.024C504.089,79.953 499.921,73.703 494.973,68.754C493.279,67.061 491.977,66.149 489.111,66.019L489.111,104.959L474.396,104.959L474.396,14.837L501.875,14.837C522.06,14.837 531.177,26.558 531.177,40.623C531.177,53.516 522.841,65.368 508.777,65.368C512.033,67.061 518.023,75.786 522.711,83.34L535.996,104.959L518.153,104.959Z" style="fill:rgb(34,30,31);fill-rule:nonzero;"/>
        <path d="M568.29,48.307C560.216,48.307 555.788,54.689 555.788,65.368L580.142,65.368C580.142,54.689 575.453,48.307 568.29,48.307ZM555.657,75.916L555.657,76.958C555.657,86.075 559.044,95.712 571.937,95.712C578.058,95.712 583.397,93.498 588.347,89.201L593.946,97.926C587.044,103.787 579.1,106.651 570.244,106.651C551.62,106.651 539.899,93.238 539.899,72.14C539.899,60.549 542.374,52.866 548.104,46.354C553.443,40.233 559.955,37.498 568.29,37.498C574.802,37.498 580.793,39.191 586.393,44.27C592.123,49.479 594.988,57.553 594.988,72.921L594.988,75.916L555.657,75.916Z" style="fill:rgb(34,30,31);fill-rule:nonzero;"/>
        <path d="M621.813,106.391C607.356,106.391 607.356,93.368 607.356,87.768L607.356,31.637C607.356,22.651 606.966,17.832 606.054,12.363L620.771,9.107C621.813,13.144 621.942,18.614 621.942,27.209L621.942,83.079C621.942,91.936 622.333,93.368 623.375,94.931C624.156,96.103 626.37,96.754 628.063,95.973L630.407,104.828C627.803,105.87 625.068,106.391 621.813,106.391Z" style="fill:rgb(34,30,31);fill-rule:nonzero;"/>
        <path d="M639.521,104.959L639.521,40.102L653.978,37.498L653.978,104.959L639.521,104.959ZM646.685,29.293C641.475,29.293 637.438,24.995 637.438,19.785C637.438,14.446 641.604,10.149 646.944,10.149C652.023,10.149 656.321,14.317 656.321,19.785C656.321,24.995 652.023,29.293 646.685,29.293Z" style="fill:rgb(34,30,31);fill-rule:nonzero;"/>
        <path d="M694.999,106.651C677.027,106.651 666.999,94.02 666.999,72.791C666.999,48.828 681.325,37.368 696.041,37.368C703.204,37.368 708.413,39.061 714.273,44.53L707.111,54.037C703.204,50.522 699.818,48.958 696.041,48.958C691.483,48.958 687.706,51.303 685.622,55.6C683.669,59.637 682.888,65.758 682.888,73.963C682.888,82.95 684.32,88.68 687.315,91.936C689.399,94.28 692.524,95.712 696.041,95.712C700.6,95.712 705.027,93.498 709.325,89.201L716.097,97.926C710.106,103.916 703.855,106.651 694.999,106.651Z" style="fill:rgb(34,30,31);fill-rule:nonzero;"/>
        <path d="M729.07,93.141C728.836,93.063 728.368,92.985 727.848,92.985L727.067,92.985L727.067,95.922L727.796,95.922C728.731,95.922 729.147,95.819 729.434,95.559C729.694,95.299 729.85,94.909 729.85,94.467C729.85,93.79 729.59,93.348 729.07,93.141ZM730.214,102.084C729.798,101.356 729.616,101.07 729.2,100.291C728.134,98.34 727.796,97.795 727.406,97.639C727.302,97.586 727.198,97.561 727.067,97.561L727.067,102.084L724.936,102.084L724.936,91.243L728.966,91.243C730.89,91.243 732.164,92.516 732.164,94.414C732.164,96.053 731.072,97.379 729.746,97.405C729.954,97.586 730.058,97.69 730.188,97.872C730.812,98.653 732.788,102.084 732.788,102.084L730.214,102.084ZM728.315,88.981C724.208,88.981 720.905,92.412 720.905,96.729C720.905,101.045 724.208,104.528 728.315,104.528C732.424,104.528 735.752,101.045 735.752,96.729C735.752,92.412 732.424,88.981 728.315,88.981ZM728.315,106.4C723.038,106.4 718.695,102.137 718.695,96.729C718.695,91.346 723.038,87.056 728.315,87.056C733.594,87.056 737.937,91.346 737.937,96.729C737.937,102.137 733.594,106.4 728.315,106.4Z" style="fill:rgb(34,30,31);fill-rule:nonzero;"/>
        <path d="M81.511,99.388C63.615,99.388 49.107,84.881 49.107,66.984C49.107,49.092 63.615,34.587 81.511,34.587C99.4,34.587 113.908,49.092 113.908,66.984C113.908,84.881 99.4,99.388 81.511,99.388ZM161.819,49.524C154.177,14.375 112.024,-6.3 67.668,3.343C23.316,12.987 -6.444,49.301 1.196,84.45C8.838,119.598 50.994,140.275 95.344,130.631C139.701,120.988 169.462,84.672 161.819,49.524Z" style="fill:rgb(49,137,154);fill-rule:nonzero;"/>
        <path d="M81.51,95.289C65.878,95.289 53.207,82.618 53.207,66.985C53.207,51.357 65.878,38.686 81.51,38.686C97.136,38.686 109.809,51.357 109.809,66.985C109.809,82.618 97.136,95.289 81.51,95.289ZM88.676,21.629C62.985,21.629 42.155,42.457 42.155,68.151C42.155,93.844 62.985,114.674 88.676,114.674C114.372,114.674 135.202,93.844 135.202,68.151C135.202,42.457 114.372,21.629 88.676,21.629Z" style="fill:rgb(156,216,218);fill-rule:nonzero;"/>
    </g>
</svg>
