<?xml version="1.0" encoding="UTF-8" standalone="no"?>
<!DOCTYPE svg PUBLIC "-//W3C//DTD SVG 1.1//EN" "http://www.w3.org/Graphics/SVG/1.1/DTD/svg11.dtd">
<svg width="100%" height="100%" viewBox="0 0 3542 634" version="1.1" xmlns="http://www.w3.org/2000/svg" xmlns:xlink="http://www.w3.org/1999/xlink" xml:space="preserve" style="fill-rule:evenodd;clip-rule:evenodd;stroke-linejoin:round;stroke-miterlimit:1.41421;">
    <g transform="matrix(4.16667,0,0,4.16667,0,0)">
        <path d="M849.316,67.913C846.963,66.91 844.764,66.175 842.68,65.714C840.635,65.211 837.779,64.981 834.151,64.981C830.562,64.981 827.244,65.867 824.194,67.72C821.185,69.572 818.214,72.428 815.28,76.249L815.28,149.415L788.73,149.415L788.73,41.44L815.28,41.44L815.28,47.653C821.84,41.788 829.019,38.854 836.891,38.854C838.318,38.854 840.017,38.97 842.023,39.201C844.03,39.394 846.462,39.819 849.316,40.436L849.316,67.913ZM676.439,73.315C679.604,50.354 695.427,38.854 723.906,38.854C730.853,38.854 737.066,39.472 742.623,40.705C748.141,41.941 752.888,44.141 756.747,47.306C760.645,50.507 763.617,54.792 765.701,60.195C767.745,65.636 768.788,72.543 768.788,80.917L768.788,149.415L742.354,149.415L742.354,143.782C737.953,146.407 733.245,148.45 728.151,149.879C723.058,151.307 717.616,152 711.828,152C706.387,152 701.332,151.19 696.662,149.571C691.992,147.95 687.94,145.672 684.506,142.739C681.072,139.807 678.369,136.293 676.439,132.243C674.472,128.151 673.469,123.676 673.469,118.774C673.469,92.61 695.003,79.528 738.031,79.528L742.354,79.528C742.275,76.595 742.006,74.009 741.62,71.81C741.195,69.572 740.308,67.682 738.957,66.138C737.606,64.595 735.638,63.435 733.053,62.626C730.505,61.853 727.071,61.467 722.788,61.467C717.424,61.467 713.18,62.278 710.054,63.937C706.928,65.597 704.805,68.723 703.686,73.315L676.439,73.315ZM742.354,101.372L734.52,101.372C711.905,101.372 700.638,106.85 700.638,117.887C700.638,121.475 702.104,124.331 705.035,126.338C707.969,128.384 711.905,129.388 716.883,129.388C721.86,129.388 726.646,128.422 731.238,126.416C735.87,124.409 739.535,121.475 742.354,117.655L742.354,101.372ZM596.605,119.778C599.925,122.942 603.398,125.334 607.025,126.956C610.613,128.578 614.436,129.388 618.41,129.388C624.623,129.388 629.523,126.454 633.189,120.588C636.818,114.723 638.67,106.04 638.67,94.579C638.67,83.581 636.933,75.321 633.46,69.764C629.986,64.207 625.201,61.467 619.104,61.467C611.348,61.467 603.822,66.214 596.605,75.708L596.605,119.778ZM596.605,46.881C603.706,41.516 611.695,38.854 620.57,38.854C627.826,38.854 634.271,40.166 639.905,42.868C645.577,45.53 650.323,49.313 654.222,54.174C658.08,59.038 661.014,64.903 663.021,71.733C665.027,78.602 666.03,86.204 666.03,94.579C666.03,103.26 664.834,111.133 662.479,118.196C660.088,125.297 656.808,131.354 652.639,136.372C648.433,141.35 643.531,145.249 637.859,147.95C632.225,150.651 626.089,152 619.452,152C614.936,152 610.846,151.54 607.18,150.612C603.515,149.647 600.003,148.18 596.605,146.135L596.605,149.415L570.056,149.415L570.056,0.186L596.605,0.186L596.605,46.881ZM550.113,149.415L523.677,149.415L523.677,0.186L550.113,0.186L550.113,149.415ZM503.736,149.415L477.301,149.415L477.301,0.186L503.736,0.186L503.736,149.415ZM412.401,129.388C415.836,129.388 419.039,128.692 422.012,127.264C424.943,125.836 427.452,123.676 429.498,120.821C431.581,117.963 433.202,114.413 434.359,110.168C435.556,105.963 436.136,101.024 436.136,95.39C436.136,89.716 435.556,84.776 434.359,80.571C433.202,76.325 431.581,72.814 429.498,69.997C427.452,67.18 424.943,65.018 422.012,63.59C419.039,62.163 415.836,61.467 412.401,61.467C408.851,61.467 405.609,62.163 402.677,63.59C399.706,65.018 397.197,67.18 395.152,69.997C393.067,72.814 391.448,76.325 390.29,80.571C389.094,84.776 388.514,89.716 388.514,95.39C388.514,101.024 389.094,105.963 390.29,110.168C391.448,114.413 393.067,117.963 395.152,120.821C397.197,123.676 399.706,125.836 402.677,127.264C405.609,128.692 408.851,129.388 412.401,129.388ZM412.401,38.854C420.235,38.854 427.298,40.127 433.588,42.674C439.878,45.26 445.242,48.925 449.681,53.749C454.158,58.574 457.553,64.517 459.984,71.502C462.377,78.524 463.611,86.476 463.611,95.39C463.611,104.264 462.377,112.213 459.907,119.237C457.476,126.221 454.041,132.165 449.564,137.028C445.127,141.889 439.763,145.596 433.396,148.18C427.066,150.727 420.082,152 412.401,152C404.762,152 397.813,150.766 391.523,148.219C385.233,145.709 379.831,142.045 375.355,137.26C370.878,132.473 367.405,126.569 364.896,119.506C362.427,112.446 361.153,104.418 361.153,95.39C361.153,86.476 362.389,78.524 364.857,71.502C367.289,64.517 370.725,58.574 375.2,53.749C379.639,48.925 385.041,45.26 391.37,42.674C397.699,40.127 404.684,38.854 412.401,38.854ZM252.029,63.706L289.114,63.706C294.092,63.706 298.375,63.398 301.887,62.703C305.438,62.008 308.333,60.889 310.609,59.307C312.886,57.725 314.545,55.679 315.587,53.133C316.63,50.623 317.169,47.498 317.169,43.831C317.169,37.194 315.125,32.332 310.995,29.246C306.905,26.158 300.538,24.615 291.971,24.615L252.029,24.615L252.029,63.706ZM308.217,108.819C307.252,106.04 305.901,103.454 304.165,101.1C302.428,98.708 300.421,96.663 298.184,94.927C295.907,93.19 293.398,91.839 290.658,90.837C287.918,89.87 284.984,89.368 281.897,89.368L252.029,89.368L252.029,149.415L224.128,149.415L224.128,0.186L291.044,0.186C295.058,0.186 298.839,0.264 302.467,0.456C306.095,0.65 309.568,1.075 312.886,1.769C316.205,2.424 319.37,3.467 322.379,4.817C325.389,6.168 328.284,8.02 331.063,10.335C335.963,14.503 339.629,19.558 342.1,25.501C344.529,31.444 345.765,37.58 345.765,43.831C345.765,52.939 343.566,60.773 339.166,67.296C334.729,73.817 328.708,78.794 321.028,82.268C324.231,84.661 327.165,87.747 329.711,91.491C332.259,95.196 334.535,99.788 336.503,105.19L352.557,149.415L322.496,149.415L308.217,108.819ZM187.584,147.139C187.584,103.834 187.584,60.532 187.584,17.227C187.246,8.766 187.006,-4.105 168.091,3.588C136.533,15.135 104.792,26.254 73.517,38.545C49.82,47.861 23.865,58.069 10.505,107.936C7.004,121.002 3.502,134.071 0,147.139C10.028,147.139 20.056,147.139 30.083,147.139C32.914,136.571 35.747,126.004 38.579,115.436C48.145,79.726 66.934,72.338 84.086,65.596C108.703,55.924 133.647,47.086 158.488,37.997C158.488,74.378 158.488,110.758 158.488,147.139C168.188,147.139 177.886,147.139 187.584,147.139Z" style="fill:rgb(58,71,88);fill-rule:nonzero;"/>
        <path d="M72.689,79.645C69.622,81.351 66.69,83.327 63.938,85.776C54.67,94.024 49.646,105.799 46.497,117.557L38.569,147.137L72.689,147.137L72.689,79.645Z" style="fill:rgb(247,147,29);"/>
        <path d="M110.686,64.206C102.796,67.15 94.924,70.145 87.085,73.224C84.989,74.049 82.919,74.866 80.887,75.724L80.887,147.137L110.686,147.137L110.686,64.206Z" style="fill:rgb(190,215,48);"/>
        <path d="M150.291,147.137C150.291,114.663 150.291,82.186 150.291,49.71C139.818,53.518 129.338,57.309 118.883,61.165L118.883,147.137L150.291,147.137Z" style="fill:rgb(0,186,218);"/>
    </g>
</svg>
