<?xml version="1.0" standalone="no"?>
<!DOCTYPE svg PUBLIC "-//W3C//DTD SVG 1.1//EN" "http://www.w3.org/Graphics/SVG/1.1/DTD/svg11.dtd">
<svg width="100%" height="100%" viewBox="0 0 324 46" version="1.1" xmlns="http://www.w3.org/2000/svg" xmlns:xlink="http://www.w3.org/1999/xlink" xml:space="preserve" style="fill-rule:evenodd;clip-rule:evenodd;stroke-linejoin:round;stroke-miterlimit:1.41421;">
    <g id="Layer 1">
        <g transform="matrix(1,0,0,1,-34.9998,-34.0911)">
            <path d="M40.514,63.222C39.198,59.917 39.309,56.68 39.309,56.68C39.309,46.595 47.541,38.39 57.626,38.39C58.503,38.39 59.354,38.453 60.218,38.576L58.153,40.645C57.964,40.639 57.778,40.634 57.589,40.634C48.742,40.634 41.544,47.832 41.544,56.68C41.544,56.68 41.502,58.871 42.145,61.045L56.186,61.045L50.322,72.105L64.514,57.771L45.215,57.771L66.891,36.096C64.053,34.808 60.903,34.091 57.589,34.091C45.134,34.091 35,44.224 35,56.68C35,64.823 39.332,71.974 45.812,75.949L52.558,63.227L40.514,63.222Z" style="fill:rgb(226,35,26);fill-rule:nonzero;"/>
        </g>
        <g transform="matrix(1,0,0,1,-34.9998,-34.0911)">
            <path d="M69.366,37.411L62.621,50.132L74.659,50.132C74.659,50.132 75.879,52.963 75.879,56.68C75.879,66.765 67.674,74.97 57.589,74.97C56.693,74.97 55.798,74.904 54.915,74.775L56.958,72.712C57.168,72.72 57.379,72.725 57.589,72.725C66.437,72.725 73.637,65.527 73.637,56.68C73.637,56.68 73.635,54.346 73.034,52.315L58.992,52.315L64.856,41.255L50.446,55.589L69.797,55.589L48.288,77.264C51.126,78.551 54.275,79.269 57.589,79.269C70.045,79.269 80.178,69.136 80.178,56.68C80.178,48.536 75.846,41.386 69.366,37.411" style="fill:rgb(226,35,26);fill-rule:nonzero;"/>
        </g>
        <g transform="matrix(1,0,0,1,-34.9998,-34.0911)">
            <path d="M91.371,70.629L93.314,67.789C93.763,67.091 94.46,67.241 94.859,67.59C96.104,68.636 97.998,70.181 101.037,70.181C103.279,70.181 105.472,68.436 105.472,65.946C105.472,63.753 103.977,62.308 101.187,60.464C97.898,58.322 94.012,55.482 94.012,50.499C94.012,45.517 97.45,40.135 105.273,40.135C109.906,40.135 113.294,42.527 114.142,43.374C114.74,43.971 114.789,44.669 114.291,45.367L112.348,48.107C111.949,48.706 111.302,48.755 110.604,48.207C109.059,46.961 107.515,46.015 104.973,46.015C102.432,46.015 100.738,47.958 100.738,49.901C100.738,51.894 102.084,52.891 105.073,54.884C108.362,57.076 112.747,59.817 112.747,65.297C112.747,71.127 108.212,76.011 100.838,76.011C96.154,76.011 92.915,73.569 91.371,72.124C91.072,71.825 90.823,71.376 91.371,70.629" style="fill:rgb(71,76,85);fill-rule:nonzero;"/>
        </g>
        <g transform="matrix(1,0,0,1,-34.9998,-34.0911)">
            <path d="M136.367,63.604L134.025,52.741L133.925,52.741L128.494,63.604L136.367,63.604ZM115.888,74.217L134.623,40.683C134.822,40.334 135.071,40.135 135.47,40.135L135.918,40.135C136.267,40.135 136.517,40.384 136.616,40.683L145.784,74.217C145.983,74.864 145.535,75.512 144.837,75.512L140.503,75.512C139.755,75.512 139.356,75.263 139.207,74.515L137.961,68.985L125.554,68.985L122.665,74.515C122.415,75.014 121.867,75.512 121.07,75.512L116.486,75.512C115.789,75.512 115.539,74.864 115.888,74.217" style="fill:rgb(71,76,85);fill-rule:nonzero;"/>
        </g>
        <g transform="matrix(1,0,0,1,-34.9998,-34.0911)">
            <path d="M155.354,41.579C155.404,41.082 155.902,40.634 156.351,40.634L161.283,40.634C161.782,40.634 162.08,41.082 162.031,41.579L159.041,62.557C158.942,63.104 158.942,63.652 158.942,64.152C158.942,67.44 160.636,69.434 164.024,69.434C168.11,69.434 170.402,66.792 171,62.607L173.989,41.579C174.039,41.082 174.488,40.634 174.986,40.634L179.919,40.634C180.367,40.634 180.716,41.082 180.666,41.579L177.627,62.906C176.58,70.48 171.299,76.011 163.526,76.011C156.849,76.011 152.165,71.427 152.165,64.899C152.165,64.251 152.215,63.604 152.315,62.906L155.354,41.579Z" style="fill:rgb(71,76,85);fill-rule:nonzero;"/>
        </g>
        <g transform="matrix(1,0,0,1,-34.9998,-34.0911)">
            <path d="M204.686,40.135C209.17,40.135 212.708,42.128 215.05,44.868C215.349,45.267 215.299,45.865 214.851,46.264L212.16,48.855C211.612,49.353 210.964,49.303 210.516,48.855C209.22,47.609 207.078,46.363 204.337,46.363C198.358,46.363 193.176,52.542 193.176,59.667C193.176,64.948 196.016,69.483 200.8,69.483C203.69,69.483 205.931,68.038 207.626,66.543C208.273,65.995 208.822,66.095 209.22,66.593L211.811,69.832C212.06,70.181 211.911,70.828 211.562,71.177C208.074,74.515 204.287,76.01 200.301,76.01C191.681,76.01 186.101,69.084 186.101,60.514C186.101,48.805 194.372,40.135 204.686,40.135" style="fill:rgb(71,76,85);fill-rule:nonzero;"/>
        </g>
        <g transform="matrix(1,0,0,1,-34.9998,-34.0911)">
            <path d="M224.42,41.579C224.47,41.082 224.918,40.634 225.366,40.634L243.803,40.634C244.301,40.634 244.6,41.082 244.55,41.579L243.952,45.665C243.903,46.164 243.454,46.611 242.955,46.611L230.2,46.611L229.054,54.784L239.617,54.784C240.066,54.784 240.415,55.232 240.365,55.73L239.766,59.866C239.667,60.415 239.218,60.813 238.77,60.813L228.207,60.813L226.961,69.533L239.766,69.533C240.265,69.533 240.514,69.982 240.465,70.48L239.916,74.565C239.866,75.063 239.417,75.512 238.919,75.512L220.484,75.512C219.986,75.512 219.687,75.063 219.786,74.565L224.42,41.579Z" style="fill:rgb(71,76,85);fill-rule:nonzero;"/>
        </g>
        <g transform="matrix(1,0,0,1,-34.9998,-34.0911)">
            <path d="M256.412,41.579C256.511,41.082 256.91,40.634 257.408,40.634L259.551,40.634C259.999,40.634 260.348,41.082 260.298,41.579L255.963,72.173L268.67,72.173C269.118,72.173 269.417,72.623 269.367,73.121L269.168,74.565C269.068,75.063 268.67,75.512 268.171,75.512L252.525,75.512C252.027,75.512 251.728,75.063 251.778,74.565L256.412,41.579Z" style="fill:rgb(226,35,26);fill-rule:nonzero;"/>
        </g>
        <g transform="matrix(1,0,0,1,-34.9998,-34.0911)">
            <path d="M295.977,63.653L292.041,47.31L291.742,47.31L283.221,63.653L295.977,63.653ZM273.455,74.217L291.842,40.683C291.991,40.384 292.29,40.135 292.689,40.135L293.137,40.135C293.486,40.135 293.735,40.384 293.834,40.683L302.704,74.217C302.853,74.864 302.405,75.512 301.757,75.512L299.664,75.512C299.216,75.512 298.967,75.213 298.917,74.964L296.924,66.743L281.378,66.743L277.143,74.964C276.993,75.213 276.694,75.512 276.196,75.512L274.054,75.512C273.356,75.512 273.106,74.864 273.455,74.217" style="fill:rgb(226,35,26);fill-rule:nonzero;"/>
        </g>
        <g transform="matrix(1,0,0,1,-34.9998,-34.0911)">
            <path d="M322.039,56.279C325.726,56.279 328.118,53.339 328.118,48.955C328.118,46.065 326.623,44.071 323.733,44.071L316.857,44.071L315.113,56.279L322.039,56.279ZM320.544,72.174C323.982,72.174 326.872,68.985 326.872,65.098C326.872,62.01 324.581,59.717 321.541,59.717L314.565,59.717L312.821,72.174L320.544,72.174ZM326.822,57.973C328.766,59.02 331.058,61.112 331.058,64.749C331.058,70.878 326.723,75.512 319.846,75.512L309.532,75.512C309.034,75.512 308.735,75.063 308.785,74.565L313.419,41.58C313.519,41.082 313.918,40.633 314.416,40.633L324.332,40.633C329.264,40.633 332.353,44.221 332.353,48.556C332.353,53.389 329.712,56.329 326.822,57.823L326.822,57.973Z" style="fill:rgb(226,35,26);fill-rule:nonzero;"/>
        </g>
        <g transform="matrix(1,0,0,1,-34.9998,-34.0911)">
            <path d="M337.19,70.28L337.987,69.434C338.585,68.835 338.984,68.636 339.582,69.184C341.076,70.529 342.771,72.672 346.956,72.672C350.244,72.672 353.234,70.48 353.234,66.643C353.234,63.504 350.892,61.66 346.757,59.269C342.771,56.976 340.08,54.784 340.08,50.2C340.08,46.015 342.721,40.135 350.892,40.135C354.529,40.135 357.17,41.58 358.615,42.676C358.864,42.876 359.313,43.423 358.665,44.37L358.117,45.168C357.619,45.865 357.121,46.065 356.473,45.616C354.828,44.47 352.935,43.473 350.543,43.473C346.259,43.473 343.866,46.862 343.866,49.752C343.866,52.542 345.76,54.385 348.899,56.08C353.683,58.671 357.32,61.112 357.32,66.245C357.32,71.775 353.334,76.011 346.408,76.011C341.425,76.011 338.535,73.171 337.09,71.725C336.741,71.376 336.542,70.928 337.19,70.28" style="fill:rgb(226,35,26);fill-rule:nonzero;"/>
        </g>
    </g>
</svg>
