<?xml version="1.0" standalone="no"?>
<!DOCTYPE svg PUBLIC "-//W3C//DTD SVG 1.1//EN" "http://www.w3.org/Graphics/SVG/1.1/DTD/svg11.dtd">
<svg width="100%" height="100%" viewBox="0 0 7717 2080" version="1.1" xmlns="http://www.w3.org/2000/svg" xmlns:xlink="http://www.w3.org/1999/xlink" xml:space="preserve" style="fill-rule:evenodd;clip-rule:evenodd;stroke-linejoin:round;stroke-miterlimit:1.41421;">
    <g transform="matrix(4.16667,0,0,4.16667,0,0)">
        <path d="M765.176,243.322C806.585,253.397 828.156,268.239 828.156,300.968C828.156,337.908 799.327,359.738 758.202,359.738C728.234,359.738 699.973,349.392 676.494,328.389L697.184,303.772C715.939,320.007 734.695,329.243 759.028,329.243C780.288,329.243 793.72,319.452 793.72,304.34C793.72,290.054 785.893,282.512 749.522,274.116C707.828,264.041 684.32,251.718 684.32,215.346C684.32,181.208 712.296,158.255 751.202,158.255C779.747,158.255 802.4,166.936 822.265,182.874L803.794,208.9C786.179,195.767 768.562,188.765 750.632,188.765C730.482,188.765 718.729,199.111 718.729,212.273C718.729,227.655 727.694,234.372 765.176,243.322Z" style="fill:rgb(51,52,51);fill-rule:nonzero;"/>
        <rect x="904.229" y="161.046" width="34.437" height="195.903" style="fill:rgb(51,52,51);fill-rule:nonzero;"/>
        <path d="M1109.79,293.981L1058.4,217.025L1058.4,356.949L1024.56,356.949L1024.56,161.046L1061.21,161.046L1120.81,253.682L1180.4,161.046L1217.06,161.046L1217.06,356.949L1182.65,356.949L1182.65,216.457L1130.74,293.981L1109.79,293.981Z" style="fill:rgb(51,52,51);fill-rule:nonzero;"/>
        <path d="M1375.41,192.408L1335.4,192.408L1335.4,262.931L1375.41,262.931C1401.45,262.931 1417.67,248.645 1417.67,227.655C1417.67,204.432 1401.17,192.408 1375.41,192.408ZM1374.3,293.981L1335.4,293.981L1335.4,356.949L1300.99,356.949L1300.99,161.046L1378.23,161.046C1423.82,161.046 1452.65,186.801 1452.65,226.816C1452.65,271.043 1417.39,293.981 1374.3,293.981Z" style="fill:rgb(51,52,51);fill-rule:nonzero;"/>
        <path d="M1513.07,161.046L1547.51,161.046L1547.51,325.6L1650.48,325.6L1650.48,356.949L1513.07,356.949L1513.07,161.046Z" style="fill:rgb(51,52,51);fill-rule:nonzero;"/>
        <path d="M1851.91,191.838L1739.67,191.838L1739.67,242.768L1848.3,242.768L1848.3,273.548L1739.67,273.548L1739.67,326.155L1851.91,326.155L1851.91,356.949L1705.26,356.949L1705.26,161.046L1851.91,161.046L1851.91,191.838Z" style="fill:rgb(51,52,51);fill-rule:nonzero;"/>
        <path d="M176.672,49.054C172.215,49.054 167.799,49.272 163.436,49.712C134.362,52.622 106.147,65.814 86.017,85.906C65.915,106.007 52.684,134.21 49.724,163.277C47.016,189.859 52.612,218.728 65.482,244.57C78.554,270.76 96.974,290.287 109.692,302.695C117.431,310.231 124.854,316.992 132.031,323.53C139.86,330.661 147.256,337.397 154.405,344.532C161.575,351.716 168.333,359.155 175.488,367.03C181.987,374.182 188.707,381.579 196.187,389.275C215.837,409.472 234.293,423.548 254.27,433.57C280.058,446.45 308.923,452.076 335.533,449.398C364.606,446.465 392.825,433.262 412.949,413.176C433.077,393.099 446.304,364.909 449.241,335.83C451.971,309.271 446.378,280.412 433.492,254.544C423.472,234.516 409.422,216.042 389.276,196.406C381.564,188.889 374.159,182.146 366.998,175.625C359.15,168.477 351.735,161.726 344.581,154.57C337.45,147.433 330.735,140.043 323.626,132.219C317.089,125.024 310.329,117.585 302.787,109.846C283.137,89.631 264.674,75.552 244.672,65.529C223.158,54.749 199.452,49.054 176.672,49.054ZM322.441,471.903C296.274,471.903 269.105,465.411 244.486,453.116C222.245,441.957 201.924,426.516 180.518,404.513C172.777,396.55 165.931,389.014 159.311,381.727C152.333,374.047 145.743,366.793 138.95,359.987C132.168,353.22 124.953,346.647 117.313,339.688C110.002,333.03 102.444,326.144 94.435,318.347C80.575,304.824 60.476,283.483 45.921,254.323C31.228,224.82 24.857,191.703 27.98,161.062C31.44,127.077 46.963,94.048 70.569,70.444C94.21,46.847 127.259,31.367 161.25,27.964C191.976,24.861 225.083,31.265 254.464,45.988C276.721,57.141 297.053,72.588 318.45,94.602C326.249,102.603 333.14,110.187 339.803,117.52C346.733,125.147 353.278,132.351 360.04,139.119C366.83,145.91 374.06,152.494 381.715,159.465C389.01,166.108 396.554,172.978 404.532,180.754C426.481,202.146 441.894,222.486 453.04,244.765L453.048,244.781C467.763,274.312 474.133,307.433 470.985,338.046C467.552,372.04 452.025,405.072 428.387,428.649C404.766,452.225 371.72,467.716 337.724,471.145C332.688,471.652 327.582,471.903 322.441,471.903Z" style="fill:rgb(229,119,94);fill-rule:nonzero;"/>
        <path d="M277.226,21.96C268.713,21.96 260.174,22.815 251.784,24.53C242.457,26.435 233.212,29.428 224.304,33.427C199.9,44.382 177.717,63.659 161.839,87.707C152.962,101.119 145.816,115.969 139.984,133.115C137.677,139.987 135.586,147.171 133.603,155.035C130.938,165.458 128.81,175.206 126.752,184.633C124.477,195.057 122.327,204.905 119.666,214.72C116.661,225.97 113.094,237.095 109.316,248.873L107.499,254.579C105.611,260.584 103.66,266.793 101.815,273.278C94.162,300.375 91.212,323.393 92.535,345.699C93.64,364.474 98.035,382.966 105.244,399.183C109.121,407.926 113.899,416.28 119.451,424.02C136.5,447.704 162.03,465.536 189.484,472.928C208.124,477.92 228.068,478.493 247.146,474.583C256.575,472.642 265.845,469.643 274.687,465.672C299.125,454.676 321.311,435.399 337.153,411.392C345.938,398.131 353.265,382.873 358.942,366.024C361.283,359.176 363.387,352.006 365.39,344.06C368.04,333.652 370.168,323.902 372.226,314.473C374.501,304.048 376.65,294.203 379.293,284.392C382.24,273.461 385.673,262.711 389.307,251.33L390.902,246.328C392.828,240.265 395.055,233.183 397.111,225.854C404.814,198.721 407.781,175.702 406.457,153.381C405.33,134.695 400.932,116.193 393.737,99.886C389.847,91.161 385.062,82.796 379.533,75.063C362.441,51.373 336.89,33.538 309.459,26.171C299.02,23.367 288.146,21.96 277.226,21.96ZM221.801,498.999C208.963,498.999 196.153,497.341 183.816,494.038C151.574,485.356 121.65,464.485 101.7,436.774C95.269,427.806 89.744,418.148 85.267,408.053C77.007,389.471 71.973,368.352 70.716,346.988C69.243,322.175 72.443,296.858 80.785,267.318C82.718,260.524 84.715,254.169 86.647,248.024L88.503,242.198C92.195,230.684 95.683,219.809 98.56,209.04C101.089,199.711 103.182,190.123 105.397,179.972C107.496,170.358 109.666,160.418 112.418,149.656C114.53,141.28 116.776,133.568 119.277,126.118C125.734,107.133 133.688,90.64 143.606,75.654C161.732,48.2 187.214,26.118 215.352,13.487C225.725,8.83 236.51,5.34 247.409,3.115C269.872,-1.475 293.289,-0.802 315.128,5.062C347.33,13.711 377.276,34.578 397.286,62.312C403.695,71.276 409.213,80.923 413.717,91.024C421.965,109.718 426.993,130.816 428.276,152.076C429.749,176.932 426.53,202.258 418.146,231.792C416.006,239.42 413.713,246.714 411.732,252.949L411.73,252.955L410.128,257.979C406.572,269.114 403.213,279.633 400.398,290.08C397.891,299.379 395.797,308.975 393.58,319.134C391.483,328.744 389.315,338.681 386.577,349.428C384.433,357.937 382.162,365.671 379.64,373.048C373.373,391.649 365.207,408.62 355.385,423.447C337.303,450.85 311.823,472.931 283.649,485.607C273.345,490.235 262.545,493.729 251.544,495.993C241.756,497.999 231.769,498.999 221.801,498.999Z" style="fill:rgb(59,131,145);fill-rule:nonzero;"/>
        <path d="M163.557,428.571C159.724,428.571 155.824,428.461 151.861,428.22C140.714,427.557 129.6,425.849 118.85,423.175C113.554,415.673 108.981,407.609 105.244,399.183C104.673,397.9 104.121,396.602 103.585,395.291C118.934,401.551 135.984,405.38 153.169,406.403C156.664,406.614 160.117,406.711 163.513,406.711C169.812,406.712 175.924,406.376 181.782,405.806C188.723,412.871 195.557,419.249 202.385,425.017C190.736,427.084 177.619,428.571 163.557,428.571ZM229.801,418.714C222.764,413.661 215.781,407.946 208.714,401.466C215.012,400.074 220.7,398.572 225.636,397.185C231.753,395.454 238.054,393.531 246.049,390.957L249.28,389.928C261.325,386.089 272.704,382.463 284.197,379.389C293.947,376.783 303.704,374.661 314.034,372.414C323.528,370.349 333.344,368.213 343.809,365.553C349.812,364.047 355.363,362.491 360.651,360.833C360.095,362.588 359.526,364.316 358.942,366.024C356.57,373.065 353.909,379.829 350.974,386.285C350.374,386.439 349.771,386.592 349.163,386.745C338.361,389.491 328.355,391.667 318.679,393.772C308.608,395.963 299.096,398.031 289.844,400.505C278.85,403.446 267.71,406.996 255.915,410.754L252.712,411.774C244.497,414.418 237.966,416.41 231.57,418.221C230.99,418.384 230.4,418.549 229.801,418.714ZM87.016,411.861C78.259,407.699 69.905,402.751 62.127,397.121C34.377,377.129 13.521,347.165 4.925,314.925C-0.926,293.056 -1.577,269.641 3.045,247.22C5.264,236.385 8.769,225.601 13.462,215.184C17.368,206.493 22.177,198.055 27.771,190.007C28.694,201.07 30.736,212.207 33.849,223.154C33.696,223.487 33.544,223.819 33.395,224.153C29.359,233.109 26.354,242.347 24.456,251.619C20.512,270.741 21.062,290.675 26.042,309.285C33.362,336.741 51.178,362.295 74.924,379.401C75.183,379.589 75.444,379.776 75.704,379.962C78.117,389.738 81.324,399.184 85.267,408.053C85.833,409.33 86.416,410.599 87.016,411.861ZM377.881,378.087C378.483,376.421 379.069,374.742 379.64,373.048C381.986,366.184 384.116,359.01 386.128,351.191C395.122,347.12 403.433,342.55 411.229,337.4C425.639,327.889 438.335,316.128 448.56,302.991C450.037,313.694 450.32,324.37 449.35,334.711C441.392,342.415 432.647,349.452 423.274,355.639C409.886,364.484 394.636,372.023 377.881,378.087ZM471.206,309.069C470.284,298.015 468.24,286.883 465.125,275.938C465.276,275.61 465.425,275.283 465.573,274.955C469.583,266.112 472.585,256.876 474.509,247.477L474.512,247.464C478.447,228.369 477.906,208.427 472.947,189.797C465.599,162.331 447.784,136.78 424.074,119.711C423.801,119.513 423.527,119.315 423.252,119.119C420.841,109.37 417.644,99.925 413.717,91.024C413.151,89.756 412.57,88.495 411.972,87.241C420.824,91.464 429.181,96.414 436.876,101.995C464.577,121.937 485.433,151.894 494.065,184.162C499.895,206.062 500.535,229.466 495.923,251.862C493.671,262.858 490.162,273.654 485.492,283.952C481.593,292.619 476.791,301.038 471.206,309.069ZM50.415,196.083C48.941,185.385 48.655,174.709 49.618,164.368C57.575,156.664 66.321,149.626 75.693,143.442C89.13,134.589 104.371,127.058 121.07,121.016C120.46,122.697 119.863,124.397 119.277,126.118C116.95,133.051 114.843,140.209 112.86,147.92C103.838,152.009 95.431,156.612 87.725,161.689C73.326,171.191 60.635,182.947 50.415,196.083ZM138.313,138.27C138.858,136.529 139.415,134.813 139.984,133.115C142.416,125.965 145.076,119.214 147.996,112.8C148.585,112.648 149.177,112.496 149.773,112.344C160.627,109.593 170.654,107.414 180.35,105.307C190.408,103.122 199.908,101.058 209.133,98.603C220.132,95.642 231.251,92.09 243.022,88.33L246.217,87.31C252.86,85.21 259.946,82.992 267.443,80.885C268.023,80.721 268.603,80.559 269.18,80.4C276.218,85.454 283.203,91.172 290.268,97.654C284.8,98.864 279.178,100.285 273.366,101.923C266.173,103.946 259.278,106.104 252.833,108.142L249.673,109.151C237.654,112.99 226.301,116.616 214.786,119.715C205.042,122.31 195.302,124.426 184.991,126.666C175.475,128.734 165.635,130.872 155.148,133.53C149.139,135.056 143.585,136.619 138.313,138.27ZM395.39,103.793C379.983,97.481 363.313,93.747 345.789,92.694C342.309,92.484 338.808,92.378 335.281,92.378C329.347,92.378 323.328,92.677 317.163,93.284C310.235,86.228 303.412,79.857 296.593,74.096C310.041,71.692 322.764,70.518 335.219,70.518C339.204,70.518 343.159,70.638 347.104,70.877C358.429,71.557 369.457,73.229 380.109,75.874C385.395,83.38 389.982,91.465 393.737,99.886C394.306,101.175 394.857,102.478 395.39,103.793Z" style="fill:rgb(120,159,172);fill-rule:nonzero;"/>
        <path d="M202.385,425.017C195.557,419.249 188.723,412.871 181.782,405.806C191.565,404.855 200.64,403.251 208.714,401.466C215.781,407.946 222.764,413.661 229.801,418.714C222.092,420.845 212.828,423.164 202.385,425.017ZM449.35,334.711C450.32,324.37 450.037,313.694 448.56,302.991C455.19,294.473 460.782,285.374 465.125,275.938C468.24,286.883 470.284,298.015 471.206,309.069C464.87,318.183 457.525,326.798 449.35,334.711ZM33.849,223.154C30.736,212.207 28.694,201.07 27.771,190.007C34.106,180.892 41.447,172.278 49.618,164.368C48.655,174.709 48.941,185.385 50.415,196.083C43.784,204.605 38.192,213.709 33.849,223.154ZM290.268,97.654C283.203,91.172 276.218,85.454 269.18,80.4C278.711,77.763 287.808,75.667 296.593,74.096C303.412,79.857 310.235,86.228 317.163,93.284C308.541,94.132 299.631,95.582 290.268,97.654Z" style="fill:rgb(125,129,131);fill-rule:nonzero;"/>
        <path d="M118.85,423.175C109.129,420.758 99.706,417.551 90.827,413.613C89.549,413.046 88.278,412.461 87.016,411.861C86.416,410.599 85.833,409.33 85.267,408.053C81.324,399.184 78.117,389.738 75.704,379.962C83.173,385.287 91.232,389.88 99.689,393.633C100.976,394.204 102.274,394.756 103.585,395.291C104.121,396.602 104.673,397.9 105.244,399.183C108.981,407.609 113.554,415.673 118.85,423.175ZM350.974,386.285C353.909,379.829 356.57,373.065 358.942,366.024C359.526,364.316 360.095,362.588 360.651,360.833C362.397,360.286 364.113,359.728 365.807,359.157C372.967,356.736 379.721,354.09 386.128,351.191C384.116,359.01 381.986,366.184 379.64,373.048C379.069,374.742 378.483,376.421 377.881,378.087C376.202,378.695 374.508,379.288 372.8,379.866C365.935,382.18 358.78,384.285 350.974,386.285ZM112.86,147.92C114.843,140.209 116.95,133.051 119.277,126.118C119.863,124.397 120.46,122.697 121.07,121.016C122.745,120.41 124.435,119.819 126.138,119.243C132.976,116.944 140.14,114.833 147.996,112.8C145.076,119.214 142.416,125.965 139.984,133.115C139.415,134.813 138.858,136.529 138.313,138.27C136.553,138.821 134.824,139.382 133.12,139.955C126.075,142.337 119.31,144.997 112.86,147.92ZM423.252,119.119C415.878,113.858 407.828,109.27 399.28,105.453C397.993,104.881 396.696,104.328 395.39,103.793C394.857,102.478 394.306,101.175 393.737,99.886C389.982,91.465 385.395,83.38 380.109,75.874C389.797,78.279 399.172,81.488 408.173,85.487C409.449,86.057 410.716,86.642 411.972,87.241C412.57,88.495 413.151,89.756 413.717,91.024C417.644,99.925 420.841,109.37 423.252,119.119Z" style="fill:rgb(59,131,145);fill-rule:nonzero;"/>
    </g>
</svg>
