<?xml version="1.0" standalone="no"?>
<!DOCTYPE svg PUBLIC "-//W3C//DTD SVG 1.1//EN" "http://www.w3.org/Graphics/SVG/1.1/DTD/svg11.dtd">
<svg width="100%" height="100%" viewBox="0 0 2071 542" version="1.1" xmlns="http://www.w3.org/2000/svg" xmlns:xlink="http://www.w3.org/1999/xlink" xml:space="preserve" style="fill-rule:evenodd;clip-rule:evenodd;stroke-linejoin:round;stroke-miterlimit:1.41421;">
    <g transform="matrix(4.16667,0,0,4.16667,0,0)">
        <path d="M0,115.935L7.79,106.602C13.188,111.054 18.839,113.88 25.686,113.88C31.084,113.88 34.337,111.74 34.337,108.229L34.337,108.058C34.337,104.718 32.28,103.005 22.263,100.438C10.188,97.354 2.398,94.014 2.398,82.112L2.398,81.942C2.398,71.066 11.131,63.873 23.376,63.873C32.109,63.873 39.558,66.613 45.639,71.494L38.789,81.427C33.48,77.746 28.256,75.518 23.205,75.518C18.152,75.518 15.498,77.831 15.498,80.742L15.498,80.913C15.498,84.853 18.067,86.137 28.426,88.792C40.589,91.959 47.437,96.327 47.437,106.773L47.437,106.944C47.437,118.848 38.362,125.526 25.433,125.526C16.352,125.526 7.192,122.358 0,115.935Z" style="fill:rgb(95,102,108);fill-rule:nonzero;"/>
        <path d="M79.161,94.957C85.755,94.957 89.606,91.018 89.606,85.879L89.606,85.708C89.606,79.799 85.498,76.632 78.904,76.632L68.716,76.632L68.716,94.957L79.161,94.957ZM55.528,64.729L80.018,64.729C94.317,64.729 102.965,73.207 102.965,85.452L102.965,85.623C102.965,99.495 92.175,106.688 78.733,106.688L68.716,106.688L68.716,124.67L55.528,124.67L55.528,64.729Z" style="fill:rgb(95,102,108);fill-rule:nonzero;"/>
        <path d="M135.504,99.58L127.537,80.143L119.575,99.58L135.504,99.58ZM121.629,64.301L133.789,64.301L159.479,124.67L145.692,124.67L140.212,111.225L114.867,111.225L109.387,124.67L95.939,124.67L121.629,64.301Z" style="fill:rgb(95,102,108);fill-rule:nonzero;"/>
        <path d="M192.264,93.844C198.684,93.844 202.367,90.418 202.367,85.367L202.367,85.194C202.367,79.543 198.428,76.632 192.004,76.632L178.905,76.632L178.905,93.844L192.264,93.844ZM165.717,64.729L193.118,64.729C200.741,64.729 206.648,66.871 210.587,70.809C213.926,74.148 215.726,78.858 215.726,84.509L215.726,84.682C215.726,94.358 210.502,100.438 202.88,103.263L217.523,124.67L202.111,124.67L189.264,105.489L178.905,105.489L178.905,124.67L165.717,124.67L165.717,64.729Z" style="fill:rgb(95,102,108);fill-rule:nonzero;"/>
        <path d="M306.727,98.21C317.858,98.21 325.392,92.388 325.392,83.482L325.392,83.312C325.392,73.807 318.029,68.839 307.239,68.839L290.286,68.839L290.286,98.21L306.727,98.21ZM285.834,64.729L307.581,64.729C320.769,64.729 329.847,71.494 329.847,83.054L329.847,83.226C329.847,95.813 318.972,102.32 306.47,102.32L290.286,102.32L290.286,124.67L285.834,124.67L285.834,64.729Z" style="fill:rgb(95,102,108);fill-rule:nonzero;"/>
        <path d="M401.165,115.935L404.076,112.595C410.67,118.675 416.749,121.501 425.567,121.501C434.56,121.501 440.726,116.449 440.726,109.599L440.726,109.428C440.726,103.09 437.385,99.409 423.77,96.669C409.385,93.758 403.56,88.877 403.56,79.799L403.56,79.629C403.56,70.723 411.695,63.873 422.827,63.873C431.563,63.873 437.3,66.271 443.381,71.152L440.552,74.662C434.901,69.782 429.25,67.897 422.656,67.897C413.837,67.897 408.015,72.949 408.015,79.201L408.015,79.372C408.015,85.708 411.268,89.562 425.482,92.473C439.356,95.299 445.178,100.265 445.178,108.999L445.178,109.17C445.178,118.848 436.872,125.526 425.311,125.526C415.72,125.526 408.357,122.358 401.165,115.935Z" style="fill:rgb(95,102,108);fill-rule:nonzero;"/>
        <path d="M470.857,68.839L449.961,68.839L449.961,64.729L496.202,64.729L496.202,68.839L475.309,68.839L475.309,124.67L470.857,124.67L470.857,68.839Z" style="fill:rgb(95,102,108);fill-rule:nonzero;"/>
        <path d="M237.921,89.947L258.673,64.729L274.769,64.729L250.426,93.201L276.522,124.671L259.566,124.671L237.921,97.911L237.921,124.671L224.736,124.671L224.736,64.73L237.921,64.73L237.921,89.947Z" style="fill:rgb(95,102,108);fill-rule:nonzero;"/>
        <path d="M366.167,117.066C354.571,117.066 345.169,107.665 345.169,96.069C345.169,84.472 354.571,75.071 366.167,75.071C377.764,75.071 387.165,84.472 387.165,96.069C387.165,107.665 377.764,117.066 366.167,117.066ZM387.469,51.068C380.792,56.105 379.5,64.994 379.303,71.002C368.75,58.798 398.847,22.894 364.647,0.703C385.817,28.101 334.524,55.036 334.524,95.396C334.524,111.217 344.41,125.16 366.124,130C387.424,125.465 397.934,111.217 397.934,95.397C397.934,71.808 383.248,63.915 387.469,51.068Z" style="fill:rgb(242,101,33);fill-rule:nonzero;"/>
    </g>
</svg>
