<?xml version="1.0" standalone="no"?>
<!DOCTYPE svg PUBLIC "-//W3C//DTD SVG 1.1//EN" "http://www.w3.org/Graphics/SVG/1.1/DTD/svg11.dtd">
<svg width="100%" height="100%" viewBox="0 0 855 209" version="1.1" xmlns="http://www.w3.org/2000/svg" xmlns:xlink="http://www.w3.org/1999/xlink" xml:space="preserve" style="fill-rule:evenodd;clip-rule:evenodd;stroke-linejoin:round;stroke-miterlimit:1.41421;">
    <g transform="matrix(4.16667,0,0,4.16667,0,0)">
        <rect x="0.797" y="33.062" width="168.294" height="0.694" style="fill:rgb(125,191,66);fill-rule:nonzero;"/>
        <path d="M59.482,15.395C59.482,16.751 59.284,17.987 58.89,19.104C58.496,20.218 57.939,21.171 57.216,21.959C56.495,22.746 55.626,23.358 54.608,23.796C53.59,24.234 52.469,24.453 51.244,24.453C50.018,24.453 48.902,24.234 47.896,23.796C46.889,23.358 46.026,22.746 45.304,21.959C44.582,21.171 44.019,20.218 43.613,19.104C43.209,17.987 43.006,16.751 43.006,15.395C43.006,14.039 43.209,12.808 43.613,11.703C44.019,10.598 44.587,9.652 45.32,8.865C46.053,8.076 46.923,7.469 47.929,7.042C48.935,6.616 50.04,6.403 51.244,6.403C52.447,6.403 53.557,6.616 54.575,7.042C55.592,7.469 56.462,8.076 57.184,8.865C57.906,9.652 58.469,10.598 58.874,11.703C59.278,12.808 59.482,14.039 59.482,15.395ZM55.411,15.395C55.411,13.688 55.045,12.338 54.312,11.343C53.58,10.347 52.557,9.848 51.244,9.848C49.931,9.848 48.908,10.347 48.175,11.343C47.442,12.338 47.076,13.688 47.076,15.395C47.076,17.124 47.442,18.49 48.175,19.497C48.908,20.503 49.931,21.006 51.244,21.006C52.557,21.006 53.58,20.503 54.312,19.497C55.045,18.49 55.411,17.124 55.411,15.395Z" style="fill:rgb(16,89,45);fill-rule:nonzero;"/>
        <path d="M62.955,7.387C63.721,7.169 64.716,6.961 65.942,6.764C67.166,6.567 68.523,6.469 70.011,6.469C71.411,6.469 72.581,6.66 73.523,7.042C74.463,7.426 75.213,7.962 75.771,8.651C76.329,9.34 76.722,10.172 76.952,11.145C77.182,12.119 77.296,13.186 77.296,14.345L77.296,23.994L73.325,23.994L73.325,14.968C73.325,14.05 73.265,13.267 73.145,12.622C73.025,11.976 72.828,11.452 72.554,11.047C72.281,10.642 71.909,10.347 71.438,10.161C70.968,9.975 70.393,9.881 69.715,9.881C69.212,9.881 68.687,9.914 68.14,9.98C67.593,10.046 67.188,10.101 66.926,10.143L66.926,23.994L62.955,23.994L62.955,7.387Z" style="fill:rgb(16,89,45);fill-rule:nonzero;"/>
        <path d="M114.199,20.416L114.199,23.993L100.869,23.993L100.869,1.25L105.004,1.25L105.004,20.416L114.199,20.416Z" style="fill:rgb(16,89,45);fill-rule:nonzero;"/>
        <path d="M131.867,15.395C131.867,16.751 131.669,17.987 131.275,19.104C130.881,20.218 130.324,21.171 129.602,21.959C128.88,22.746 128.011,23.358 126.993,23.796C125.975,24.234 124.854,24.453 123.629,24.453C122.403,24.453 121.287,24.234 120.281,23.796C119.274,23.358 118.411,22.746 117.689,21.959C116.967,21.171 116.404,20.218 115.998,19.104C115.594,17.987 115.391,16.751 115.391,15.395C115.391,14.039 115.594,12.808 115.998,11.703C116.404,10.598 116.972,9.652 117.705,8.865C118.438,8.076 119.308,7.469 120.314,7.042C121.321,6.616 122.425,6.403 123.629,6.403C124.832,6.403 125.942,6.616 126.96,7.042C127.977,7.469 128.847,8.076 129.569,8.865C130.291,9.652 130.854,10.598 131.259,11.703C131.663,12.808 131.867,14.039 131.867,15.395ZM127.796,15.395C127.796,13.688 127.43,12.338 126.697,11.343C125.965,10.347 124.942,9.848 123.629,9.848C122.316,9.848 121.293,10.347 120.56,11.343C119.827,12.338 119.461,13.688 119.461,15.395C119.461,17.124 119.827,18.49 120.56,19.497C121.293,20.503 122.316,21.006 123.629,21.006C124.942,21.006 125.965,20.503 126.697,19.497C127.43,18.49 127.796,17.124 127.796,15.395Z" style="fill:rgb(16,89,45);fill-rule:nonzero;"/>
        <path d="M150.394,15.395C150.394,16.751 150.197,17.987 149.803,19.104C149.409,20.218 148.852,21.171 148.129,21.959C147.408,22.746 146.539,23.358 145.521,23.796C144.503,24.234 143.382,24.453 142.157,24.453C140.931,24.453 139.815,24.234 138.809,23.796C137.802,23.358 136.939,22.746 136.217,21.959C135.495,21.171 134.932,20.218 134.526,19.104C134.122,17.987 133.919,16.751 133.919,15.395C133.919,14.039 134.122,12.808 134.526,11.703C134.932,10.598 135.5,9.652 136.233,8.865C136.966,8.076 137.836,7.469 138.842,7.042C139.848,6.616 140.953,6.403 142.157,6.403C143.36,6.403 144.47,6.616 145.488,7.042C146.505,7.469 147.375,8.076 148.097,8.865C148.819,9.652 149.382,10.598 149.787,11.703C150.192,12.808 150.394,14.039 150.394,15.395ZM146.324,15.395C146.324,13.688 145.958,12.338 145.225,11.343C144.493,10.347 143.469,9.848 142.157,9.848C140.844,9.848 139.821,10.347 139.088,11.343C138.355,12.338 137.989,13.688 137.989,15.395C137.989,17.124 138.355,18.49 139.088,19.497C139.821,20.503 140.844,21.006 142.157,21.006C143.469,21.006 144.493,20.503 145.225,19.497C145.958,18.49 146.324,17.124 146.324,15.395Z" style="fill:rgb(16,89,45);fill-rule:nonzero;"/>
        <path d="M168.81,15.428C168.81,16.74 168.64,17.944 168.301,19.038C167.962,20.132 167.476,21.072 166.841,21.86C166.206,22.647 165.414,23.261 164.462,23.697C163.509,24.135 162.432,24.354 161.229,24.354C160.42,24.354 159.675,24.256 158.997,24.058C158.319,23.862 157.761,23.642 157.324,23.402L157.324,27.587L153.352,29.876L153.352,7.388C154.162,7.17 155.158,6.96 156.339,6.763C157.521,6.567 158.767,6.469 160.08,6.469C161.436,6.469 162.651,6.677 163.723,7.093C164.795,7.509 165.709,8.104 166.464,8.88C167.219,9.657 167.798,10.599 168.203,11.703C168.608,12.808 168.81,14.05 168.81,15.428ZM164.74,15.493C164.74,13.721 164.341,12.343 163.543,11.358C162.744,10.374 161.459,9.881 159.687,9.881C159.315,9.881 158.926,9.898 158.522,9.931C158.116,9.964 157.718,10.034 157.324,10.144L157.324,19.956C157.673,20.198 158.138,20.422 158.719,20.628C159.298,20.838 159.916,20.941 160.573,20.941C162.017,20.941 163.072,20.449 163.74,19.463C164.407,18.48 164.74,17.156 164.74,15.493Z" style="fill:rgb(16,89,45);fill-rule:nonzero;"/>
        <path d="M28.359,20.33C28.035,20.457 27.604,20.596 27.063,20.744C26.505,20.897 25.865,20.974 25.143,20.974C24.093,20.974 23.348,20.679 22.911,20.088C22.473,19.498 22.255,18.513 22.255,17.134L22.255,10.143L28.359,10.143L28.359,6.83L22.255,6.83L22.255,1.243L18.284,3.54L18.284,17.168C18.284,18.304 18.383,19.316 18.58,20.202C18.777,21.089 19.116,21.844 19.597,22.467C20.078,23.091 20.729,23.566 21.549,23.895C22.37,24.222 23.392,24.387 24.618,24.387C25.624,24.387 26.499,24.282 27.243,24.075C27.662,23.958 28.03,23.842 28.359,23.73L28.359,20.33Z" style="fill:rgb(16,89,45);fill-rule:nonzero;"/>
        <path d="M41.635,6.86C41.615,6.855 41.601,6.851 41.581,6.846C41.253,6.769 40.913,6.704 40.563,6.649C40.213,6.594 39.863,6.55 39.513,6.517C39.164,6.485 38.856,6.469 38.594,6.469C37.194,6.469 35.92,6.594 34.771,6.846C33.622,7.098 32.665,7.365 31.9,7.65L31.9,23.993L35.87,23.993L35.87,10.242C36.067,10.177 36.411,10.101 36.904,10.012C37.397,9.925 37.861,9.881 38.299,9.881C39.065,9.881 39.737,9.942 40.317,10.063C40.873,10.178 41.31,10.288 41.635,10.393L41.635,6.86Z" style="fill:rgb(16,89,45);fill-rule:nonzero;"/>
        <path d="M92.683,6.764C91.523,6.567 90.298,6.469 89.007,6.469C87.672,6.469 86.48,6.677 85.43,7.093C84.38,7.508 83.487,8.088 82.755,8.831C82.022,9.576 81.464,10.472 81.081,11.523C80.698,12.572 80.507,13.721 80.507,14.968C80.507,16.303 80.687,17.479 81.049,18.497C81.41,19.514 81.913,20.361 82.558,21.04C83.203,21.718 83.981,22.233 84.889,22.583C85.796,22.932 86.797,23.107 87.891,23.107C88.723,23.107 89.46,23.009 90.107,22.811C90.751,22.615 91.272,22.417 91.665,22.221L91.665,22.591C91.665,23.881 91.326,24.856 90.648,25.513C89.969,26.169 88.831,26.496 87.235,26.496C86.228,26.496 85.293,26.409 84.428,26.234C83.575,26.06 82.812,25.834 82.14,25.554L82.14,29.149C82.752,29.329 83.395,29.49 84.101,29.615C85.096,29.789 86.119,29.878 87.169,29.878C90.035,29.878 92.163,29.242 93.552,27.973C94.941,26.704 95.636,24.703 95.636,21.967L95.636,7.387C94.827,7.169 93.842,6.961 92.683,6.764ZM91.665,18.938C91.315,19.181 90.861,19.388 90.304,19.563C89.745,19.738 89.149,19.825 88.515,19.825C87.355,19.825 86.409,19.437 85.676,18.66C84.942,17.884 84.577,16.653 84.577,14.968C84.577,13.415 84.96,12.162 85.725,11.211C86.491,10.259 87.596,9.783 89.04,9.783C89.674,9.783 90.2,9.81 90.616,9.865C91.031,9.92 91.38,9.98 91.665,10.046L91.665,18.938Z" style="fill:rgb(16,89,45);fill-rule:nonzero;"/>
        <path d="M14.899,15.28C14.592,14.525 14.149,13.869 13.569,13.311C12.99,12.753 12.278,12.272 11.436,11.867C10.595,11.462 9.636,11.063 8.565,10.67C7.952,10.451 7.389,10.221 6.875,9.98C6.36,9.739 5.912,9.477 5.529,9.192C5.146,8.908 4.85,8.585 4.644,8.224C4.435,7.864 4.332,7.431 4.332,6.927C4.332,6.097 4.644,5.451 5.266,4.991C5.89,4.533 6.761,4.303 7.876,4.303C8.816,4.303 9.73,4.412 10.616,4.631C11.502,4.85 12.489,5.289 13.06,5.582C13.372,5.742 13.719,5.958 13.973,6.123L13.973,2.042C13.383,1.744 12.641,1.462 11.732,1.202C10.627,0.885 9.363,0.725 7.941,0.725C5.491,0.725 3.555,1.31 2.133,2.482C0.71,3.653 0,5.265 0,7.322C0,8.306 0.169,9.149 0.508,9.849C0.847,10.549 1.296,11.151 1.854,11.653C2.412,12.157 3.057,12.578 3.79,12.917C4.523,13.256 5.284,13.568 6.071,13.852C6.859,14.115 7.558,14.383 8.171,14.657C8.783,14.93 9.304,15.226 9.73,15.542C10.157,15.86 10.484,16.215 10.715,16.609C10.945,17.003 11.059,17.475 11.059,18.02C11.059,18.938 10.72,19.651 10.042,20.154C9.363,20.657 8.28,20.909 6.793,20.909C5.371,20.909 4.156,20.744 3.149,20.416C2.143,20.088 1.258,19.694 0.755,19.432C0.573,19.337 0.406,19.236 0.257,19.138L0.257,23.17C0.366,23.219 0.467,23.268 0.591,23.32C1.028,23.507 1.547,23.687 2.149,23.863C2.751,24.036 3.439,24.184 4.216,24.305C4.993,24.424 5.852,24.485 6.793,24.485C9.593,24.485 11.721,23.923 13.176,22.795C14.63,21.668 15.358,20.077 15.358,18.02C15.358,16.948 15.205,16.035 14.899,15.28Z" style="fill:rgb(16,89,45);fill-rule:nonzero;"/>
        <path d="M184.752,23.83L186.443,22.854L188.132,23.83L188.132,25.779L186.443,26.755L184.752,25.779L184.752,23.83Z" style="fill:rgb(125,191,66);fill-rule:nonzero;"/>
        <path d="M194.993,7.151L190.527,9.728L190.527,12.053L191.782,12.778L191.782,15.606L194.834,17.368L194.834,12.162L199.252,9.611L194.993,7.151Z" style="fill:rgb(125,191,66);fill-rule:nonzero;"/>
        <path d="M183.454,17.884L181.593,18.958L180.679,18.43L179.42,19.157L179.42,22.756L182.54,24.556L185.654,22.756L185.654,19.157L183.454,17.884Z" style="fill:rgb(125,191,66);fill-rule:nonzero;"/>
        <path d="M172.575,10.154L173.312,9.728L174.049,10.154L174.049,11.004L173.312,11.429L172.575,11.004L172.575,10.154Z" style="fill:rgb(125,191,66);fill-rule:nonzero;"/>
        <path d="M176.695,15.064L175.622,15.683L175.622,15.143L174.885,14.719L174.149,15.143L174.149,15.994L174.885,16.42L175.346,16.153L175.346,17.4L176.695,18.18L178.043,17.4L178.043,15.842L176.695,15.064Z" style="fill:rgb(125,191,66);fill-rule:nonzero;"/>
        <path d="M183.555,8.634L183.555,7.344L182.394,6.673L179.421,8.389L179.421,11.821L182.394,13.537L185.366,11.821L185.366,9.678L183.555,8.634Z" style="fill:rgb(125,191,66);fill-rule:nonzero;"/>
        <path d="M180.494,25.058L180.082,25.058L180.082,26.231L179.922,26.231L179.922,25.058L179.509,25.058L179.509,24.934L180.494,24.934L180.494,25.058ZM182.064,26.231L181.904,26.231L181.904,25.07L181.897,25.07L181.452,26.231L181.347,26.231L180.9,25.07L180.894,25.07L180.894,26.231L180.734,26.231L180.734,24.934L181.03,24.934L181.399,25.892L181.405,25.892L181.768,24.934L182.064,24.934L182.064,26.231Z" style="fill:rgb(168,169,172);fill-rule:nonzero;"/>
        <path d="M193.68,20.915L197.102,18.938L200.523,20.915L200.523,24.866L197.102,26.84L193.68,24.866L193.68,20.915Z" style="fill:rgb(125,191,66);fill-rule:nonzero;"/>
        <path d="M194.518,5.883L194.518,2.772L191.824,1.215L189.125,2.772L189.125,5.883L191.824,7.439L194.518,5.883Z" style="fill:rgb(16,89,45);fill-rule:nonzero;"/>
        <path d="M190.527,9.728L193.157,8.21L191.824,7.44L188.533,9.338L188.533,10.901L188.531,10.9L185.277,12.777L185.277,16.534L188.531,18.414L191.782,16.534L191.782,12.777L190.527,12.053L190.527,9.728Z" style="fill:rgb(16,89,45);fill-rule:nonzero;"/>
        <path d="M179.421,15.195L181.593,13.94L183.768,15.195L183.768,17.704L181.593,18.958L179.421,17.704L179.421,15.195Z" style="fill:rgb(16,89,45);fill-rule:nonzero;"/>
        <path d="M174.693,8.431L176.043,7.652L177.393,8.431L177.393,9.99L176.043,10.769L174.693,9.99L174.693,8.431Z" style="fill:rgb(16,89,45);fill-rule:nonzero;"/>
        <path d="M173.169,17.988L173.906,17.563L174.642,17.988L174.642,18.84L173.906,19.264L173.169,18.84L173.169,17.988Z" style="fill:rgb(16,89,45);fill-rule:nonzero;"/>
        <path d="M169.276,7.02L170.012,6.595L170.749,7.02L170.749,7.871L170.012,8.296L169.276,7.871L169.276,7.02Z" style="fill:rgb(16,89,45);fill-rule:nonzero;"/>
        <path d="M183.555,6.019L185.823,4.711L188.085,6.019L188.085,8.634L185.823,9.941L183.555,8.634L183.555,6.019Z" style="fill:rgb(16,89,45);fill-rule:nonzero;"/>
        <path d="M197.763,4.64L194.992,6.239L194.992,7.151L199.252,9.611L194.834,12.162L194.834,19.136L191.836,17.405L186.444,20.52L186.444,22.855L188.132,23.83L188.132,25.78L186.453,26.75L191.836,29.859L197.085,26.829L193.68,24.866L193.68,20.914L197.102,18.938L200.522,20.914L200.522,24.866L204.253,22.711L204.253,8.382L197.763,4.64Z" style="fill:rgb(16,89,45);fill-rule:nonzero;"/>
        <path d="M73.603,39.054L73.629,39.054L75.176,43.383L72.03,43.383L73.603,39.054ZM69.326,47.218L70.6,47.218L71.64,44.423L75.566,44.423L76.58,47.218L77.945,47.218L74.318,37.936L72.953,37.936L69.326,47.218Z" style="fill:rgb(3,4,4);fill-rule:nonzero;"/>
        <path d="M78.816,47.218L79.921,47.218L79.921,43.422C79.921,42.213 80.571,41.316 81.91,41.316C82.755,41.316 83.275,41.836 83.275,42.668L83.275,47.218L84.38,47.218L84.38,42.798C84.38,41.355 83.834,40.341 82.066,40.341C81.091,40.341 80.35,40.731 79.882,41.563L79.856,41.563L79.856,40.497L78.816,40.497L78.816,47.218Z" style="fill:rgb(3,4,4);fill-rule:nonzero;"/>
        <rect x="89.086" y="37.936" width="1.235" height="9.282" style="fill:rgb(3,4,4);fill-rule:nonzero;"/>
        <path d="M93.376,38.976L95.846,38.976C96.925,38.976 97.822,39.145 97.822,40.445C97.822,41.433 97.25,41.927 95.846,41.927L93.376,41.927L93.376,38.976ZM92.141,47.218L96.626,47.218C98.459,47.218 99.447,45.905 99.447,44.553C99.447,43.409 98.823,42.564 97.679,42.317L97.679,42.291C98.55,41.94 99.057,41.199 99.057,40.211C99.057,39.288 98.576,38.638 97.965,38.274C97.419,37.936 96.314,37.936 95.508,37.936L92.141,37.936L92.141,47.218ZM93.376,42.967L96.197,42.967C97.237,42.967 98.212,43.305 98.212,44.514C98.212,45.541 97.549,46.178 96.47,46.178L93.376,46.178L93.376,42.967Z" style="fill:rgb(3,4,4);fill-rule:nonzero;"/>
        <path d="M100.759,47.218L101.929,47.218L101.929,39.496L101.955,39.496L104.854,47.218L105.907,47.218L108.806,39.496L108.832,39.496L108.832,47.218L110.002,47.218L110.002,37.936L108.312,37.936L105.374,45.736L102.449,37.936L100.759,37.936L100.759,47.218Z" style="fill:rgb(3,4,4);fill-rule:nonzero;"/>
        <path d="M122.638,40.731C122.365,38.755 120.753,37.715 118.816,37.715C115.956,37.715 114.422,39.899 114.422,42.603C114.422,45.307 115.839,47.439 118.712,47.439C121.065,47.439 122.482,46.048 122.729,43.721L121.494,43.721C121.39,45.255 120.428,46.399 118.816,46.399C116.593,46.399 115.657,44.631 115.657,42.512C115.657,40.575 116.593,38.755 118.803,38.755C120.103,38.755 121.13,39.418 121.403,40.731L122.638,40.731Z" style="fill:rgb(3,4,4);fill-rule:nonzero;"/>
        <path d="M124.835,43.864C124.835,42.239 125.771,41.316 126.928,41.316C128.085,41.316 129.021,42.239 129.021,43.864C129.021,45.489 128.085,46.399 126.928,46.399C125.771,46.399 124.835,45.489 124.835,43.864ZM123.665,43.864C123.665,45.827 124.796,47.374 126.928,47.374C129.06,47.374 130.191,45.827 130.191,43.864C130.191,41.888 129.06,40.341 126.928,40.341C124.796,40.341 123.665,41.888 123.665,43.864Z" style="fill:rgb(3,4,4);fill-rule:nonzero;"/>
        <path d="M131.309,47.218L132.414,47.218L132.414,43.032C132.414,42.512 132.908,41.316 134.208,41.316C135.196,41.316 135.469,41.94 135.469,42.811L135.469,47.218L136.574,47.218L136.574,43.032C136.574,41.992 137.25,41.316 138.329,41.316C139.408,41.316 139.629,41.979 139.629,42.811L139.629,47.218L140.734,47.218L140.734,42.291C140.734,40.9 139.837,40.341 138.498,40.341C137.627,40.341 136.847,40.757 136.392,41.485C136.119,40.653 135.378,40.341 134.546,40.341C133.597,40.341 132.882,40.718 132.375,41.485L132.349,41.485L132.349,40.497L131.309,40.497L131.309,47.218Z" style="fill:rgb(3,4,4);fill-rule:nonzero;"/>
        <path d="M142.151,49.792L143.256,49.792L143.256,46.321L143.282,46.321C143.763,47.114 144.777,47.374 145.453,47.374C147.507,47.374 148.521,45.788 148.521,43.877C148.521,41.979 147.494,40.341 145.427,40.341C144.491,40.341 143.646,40.666 143.282,41.407L143.256,41.407L143.256,40.497L142.151,40.497L142.151,49.792ZM147.351,43.799C147.351,45.112 146.844,46.399 145.336,46.399C143.815,46.399 143.217,45.164 143.217,43.851C143.217,42.603 143.776,41.316 145.271,41.316C146.701,41.316 147.351,42.538 147.351,43.799Z" style="fill:rgb(3,4,4);fill-rule:nonzero;"/>
        <path d="M155.606,46.334C155.489,46.373 155.372,46.399 155.268,46.399C154.917,46.399 154.917,46.165 154.917,45.645L154.917,42.187C154.917,40.614 153.604,40.341 152.395,40.341C150.887,40.341 149.613,40.926 149.548,42.59L150.653,42.59C150.705,41.602 151.394,41.316 152.33,41.316C153.019,41.316 153.825,41.459 153.825,42.434C153.825,43.279 152.772,43.175 151.563,43.422C150.419,43.63 149.288,43.968 149.288,45.489C149.288,46.841 150.289,47.374 151.511,47.374C152.447,47.374 153.266,47.062 153.877,46.334C153.877,47.062 154.241,47.374 154.813,47.374C155.138,47.374 155.411,47.309 155.606,47.192L155.606,46.334ZM153.812,44.878C153.812,45.502 153.214,46.399 151.758,46.399C151.082,46.399 150.458,46.139 150.458,45.411C150.458,43.76 152.954,44.384 153.812,43.747L153.812,44.878Z" style="fill:rgb(3,4,4);fill-rule:nonzero;"/>
        <path d="M156.633,47.218L157.738,47.218L157.738,43.422C157.738,42.213 158.388,41.316 159.727,41.316C160.572,41.316 161.092,41.836 161.092,42.668L161.092,47.218L162.197,47.218L162.197,42.798C162.197,41.355 161.651,40.341 159.883,40.341C158.908,40.341 158.167,40.731 157.699,41.563L157.673,41.563L157.673,40.497L156.633,40.497L156.633,47.218Z" style="fill:rgb(3,4,4);fill-rule:nonzero;"/>
        <path d="M168.957,40.497L167.787,40.497L165.902,45.996L165.876,45.996L163.913,40.497L162.665,40.497L165.33,47.179L164.875,48.323C164.667,48.726 164.42,48.934 163.965,48.934C163.744,48.934 163.523,48.843 163.315,48.778L163.315,49.792C163.562,49.883 163.822,49.909 164.082,49.909C165.07,49.909 165.512,49.415 166.032,48.115L168.957,40.497Z" style="fill:rgb(3,4,4);fill-rule:nonzero;"/>
    </g>
</svg>
