<?xml version="1.0" standalone="no"?>
<!DOCTYPE svg PUBLIC "-//W3C//DTD SVG 1.1//EN" "http://www.w3.org/Graphics/SVG/1.1/DTD/svg11.dtd">
<svg width="100%" height="100%" viewBox="0 0 3334 1005" version="1.1" xmlns="http://www.w3.org/2000/svg" xmlns:xlink="http://www.w3.org/1999/xlink" xml:space="preserve" style="fill-rule:evenodd;clip-rule:evenodd;stroke-linejoin:round;stroke-miterlimit:1.41421;">
    <g transform="matrix(4.16667,0,0,4.16667,0,0)">
        <path d="M563.962,47.379L521.354,47.379C520.175,47.379 519.21,48.344 519.21,49.524L519.21,74.172C519.21,75.351 520.175,76.316 521.354,76.316L563.962,76.316C565.142,76.316 566.107,75.351 566.107,74.172L566.107,49.524C566.107,48.344 565.142,47.379 563.962,47.379Z" style="fill:rgb(226,35,41);fill-rule:nonzero;"/>
        <path d="M563.166,84.1L481.457,84.1C480.277,84.1 479.068,85.034 478.77,86.175L468.281,126.327L467.739,128.402L454.982,85.754C454.643,84.624 453.402,83.7 452.223,83.7L420.39,83.7C419.21,83.7 417.97,84.625 417.634,85.756L405.686,125.948L405.686,125.949L405.075,128.004L404.546,125.926L399.487,106.052L394.428,86.178C394.138,85.035 392.934,84.1 391.755,84.1L327.521,84.1L327.521,49.523C327.521,48.344 326.009,47.138 324.693,47.606L284.365,60.196C283.154,60.594 282.221,61.161 282.221,62.341L282.221,84.1L271.593,84.1C270.414,84.1 269.449,85.065 269.449,86.245L269.449,116.879C269.449,118.058 270.414,119.023 271.593,119.023L282.221,119.023L282.221,156.541C282.221,183.083 296.588,195.457 323.331,195.457C334.307,195.457 345.084,193.062 352.267,189.27L352.267,187.125C352.267,187.125 352.267,164.427 352.267,157.122C352.267,155.491 350.907,155.023 350,155.415C345.713,157.271 342.275,157.738 338.497,157.738C331.313,157.738 327.521,154.745 327.521,146.563L327.521,119.023L350.523,119.023C351.702,119.023 352.667,118.058 352.667,116.879L352.667,91.014L382.905,191.806C383.244,192.936 384.486,193.86 385.666,193.86L419.095,193.86C420.275,193.86 421.534,192.941 421.894,191.818L436.207,147.162L443.491,170.511L450.136,191.813C450.487,192.939 451.74,193.86 452.92,193.86L486.549,193.86C487.728,193.86 488.973,192.937 489.316,191.809L520.008,90.725L520.008,191.757C520.008,192.937 520.973,193.902 522.153,193.902L563.166,193.902C564.345,193.902 565.31,192.937 565.31,191.757L565.31,86.245C565.31,85.065 564.345,84.1 563.166,84.1Z" style="fill:rgb(226,35,41);fill-rule:nonzero;"/>
        <path d="M617.14,47.379L576.127,47.379C574.948,47.379 573.983,48.344 573.983,49.524L573.983,191.757C573.983,192.937 574.948,193.902 576.127,193.902L617.14,193.902C618.319,193.902 619.284,192.937 619.284,191.757L619.284,49.524C619.284,48.344 618.319,47.379 617.14,47.379Z" style="fill:rgb(226,35,41);fill-rule:nonzero;"/>
        <path d="M671.867,47.379L629.259,47.379C628.08,47.379 627.115,48.344 627.115,49.524L627.115,74.172C627.115,75.351 628.08,76.316 629.259,76.316L671.867,76.316C673.047,76.316 674.012,75.351 674.012,74.172L674.012,49.524C674.012,48.344 673.047,47.379 671.867,47.379Z" style="fill:rgb(226,35,41);fill-rule:nonzero;"/>
        <path d="M671.07,84.1L630.058,84.1C628.878,84.1 627.913,85.065 627.913,86.245L627.913,191.757C627.913,192.937 628.878,193.902 630.058,193.902L671.07,193.902C672.25,193.902 673.215,192.937 673.215,191.757L673.215,86.245C673.215,85.065 672.25,84.1 671.07,84.1Z" style="fill:rgb(226,35,41);fill-rule:nonzero;"/>
        <path d="M756.494,138.98C756.494,149.357 749.111,157.939 738.933,157.939C728.955,157.939 720.972,149.357 720.972,138.58L720.972,138.181C720.972,127.803 728.355,119.222 738.534,119.222C748.513,119.222 756.494,127.803 756.494,138.58L756.494,138.98ZM738.933,81.506C703.012,81.506 677.467,107.848 677.467,138.58L677.467,138.98C677.467,169.712 702.811,195.656 738.534,195.656C774.456,195.656 800,169.313 800,138.58L800,138.181C800,107.448 774.655,81.506 738.933,81.506Z" style="fill:rgb(226,35,41);fill-rule:nonzero;"/>
        <path d="M120.368,209.278C71.41,209.278 31.722,169.59 31.722,120.633C31.722,71.676 71.41,31.988 120.368,31.988C169.325,31.988 209.013,71.676 209.013,120.633C209.013,169.59 169.325,209.278 120.368,209.278ZM120.368,0.265C53.89,0.265 0,54.156 0,120.633C0,187.11 53.89,241 120.368,241C186.845,241 240.735,187.11 240.735,120.633C240.735,54.156 186.845,0.265 120.368,0.265Z" style="fill:rgb(226,35,41);fill-rule:nonzero;"/>
        <path d="M125.316,90.656C125.316,76.833 136.522,65.628 150.344,65.628C164.167,65.628 175.372,76.833 175.372,90.656C175.372,104.478 164.167,115.683 150.344,115.683C136.522,115.683 125.316,104.478 125.316,90.656Z" style="fill:rgb(226,35,41);fill-rule:nonzero;"/>
        <path d="M125.316,150.609C125.316,136.787 136.522,125.581 150.344,125.581C164.167,125.581 175.372,136.787 175.372,150.609C175.372,164.432 164.167,175.637 150.344,175.637C136.522,175.637 125.316,164.432 125.316,150.609Z" style="fill:rgb(226,35,41);fill-rule:nonzero;"/>
        <path d="M65.363,150.609C65.363,136.787 76.568,125.581 90.391,125.581C104.214,125.581 115.419,136.787 115.419,150.609C115.419,164.432 104.214,175.637 90.391,175.637C76.568,175.637 65.363,164.432 65.363,150.609Z" style="fill:rgb(226,35,41);fill-rule:nonzero;"/>
        <path d="M65.363,90.657C65.363,76.834 76.568,65.629 90.391,65.629C104.214,65.629 115.419,76.834 115.419,90.657C115.419,104.479 104.214,115.684 90.391,115.684C76.568,115.684 65.363,104.479 65.363,90.657Z" style="fill:rgb(226,35,41);fill-rule:nonzero;"/>
    </g>
</svg>
