<?xml version="1.0" standalone="no"?>
<!DOCTYPE svg PUBLIC "-//W3C//DTD SVG 1.1//EN" "http://www.w3.org/Graphics/SVG/1.1/DTD/svg11.dtd">
<svg width="100%" height="100%" viewBox="0 0 450 50" version="1.1" xmlns="http://www.w3.org/2000/svg" xmlns:xlink="http://www.w3.org/1999/xlink" xml:space="preserve" style="fill-rule:evenodd;clip-rule:evenodd;stroke-linejoin:round;stroke-miterlimit:1.41421;">
    <g transform="matrix(0.714074,0,0,0.714074,16.1906,22.4689)">
        <path d="M28.907,7.736L28.907,3.683C28.939,1.03 29.216,-0.801 29.737,-1.81C29.737,-1.81 30.038,-2.27 30.64,-3.189C31.242,-4.109 32.52,-6.107 34.473,-9.183C36.182,-10.436 38.388,-11.738 41.089,-13.089C42.261,-13.626 43.23,-13.903 43.995,-13.919L46.241,-13.968L49.61,-14.408C49.789,-14.408 50.904,-14.107 52.955,-13.504C54.354,-13.081 55.445,-12.658 56.226,-12.235C57.121,-11.779 58,-11.315 58.863,-10.843C59.384,-10.648 59.644,-10.436 59.644,-10.208C59.644,-9.981 59.335,-9.557 58.716,-8.939C58.114,-8.337 57.479,-7.458 56.812,-6.302C56.487,-5.749 56.226,-5.472 56.031,-5.472C55.982,-5.472 55.933,-5.497 55.884,-5.545C53.248,-7.612 50.717,-8.646 48.292,-8.646C45.655,-8.646 42.953,-7.767 40.186,-6.009C39.682,-5.7 38.379,-4.243 36.28,-1.639C35.531,-0.728 35.047,0.115 34.827,0.888C34.607,1.661 34.498,2.869 34.498,4.513C34.498,7.166 35.206,9.567 36.622,11.715C37.647,13.262 38.738,14.539 39.893,15.548C40.837,16.378 42.847,17.152 45.923,17.868C46.884,18.096 47.697,18.21 48.365,18.21C48.886,18.21 49.862,18.071 51.294,17.794C51.799,17.713 52.597,17.379 53.687,16.794L55.665,15.817C55.99,15.54 56.242,15.402 56.421,15.402C56.584,15.402 56.796,15.646 57.056,16.134C57.577,17.143 58.073,17.892 58.545,18.38C59.197,19.048 59.522,19.536 59.522,19.845C59.522,20.106 59.302,20.301 58.863,20.431C58.196,20.659 57.65,21.017 57.227,21.505C56.723,22.108 55.982,22.547 55.005,22.824C54.289,23.003 52.466,23.336 49.537,23.825C46.509,23.76 44.711,23.711 44.141,23.678C43.555,23.629 42.807,23.393 41.895,22.97C41.342,22.71 40.78,22.441 40.211,22.165L37.818,21.261L34.18,18.21C32.911,17.217 32.032,16.338 31.544,15.573C31.023,14.905 30.445,13.53 29.81,11.447C29.208,9.445 28.907,8.208 28.907,7.736ZM57.447,-10.306L54.615,-11.942L53.882,-12.259L53.077,-12.528L52.295,-12.772L52.466,-12.552L52.881,-12.406L55.25,-11.307L55.762,-11.039L56.128,-10.721L57.447,-10.306ZM43.262,-9.403L43.36,-9.305L43.702,-9.354L43.628,-9.623L43.189,-9.671L43.091,-9.476L43.262,-9.403ZM32.203,-4.837L31.934,-4.373L32.276,-4.398L32.471,-4.691L32.203,-4.837ZM32.203,3.805L32.056,5.587L32.129,6.662L32.349,7.174L32.496,6.759L32.349,6.393L32.374,5.734L32.203,3.805ZM31.446,12.863L31.666,13.693L31.959,14.694L32.422,15.28L32.789,15.573L33.228,15.719L33.008,15.377L32.74,15.182L32.325,14.767L32.129,14.425L31.714,13.253L31.446,12.863ZM38.648,18.136L38.965,18.6L39.844,19.04L40.601,19.284L41.065,19.577L41.749,19.796L41.968,19.65L41.797,19.43L41.431,19.406L39.307,18.429L38.648,18.136ZM44.434,21.457L44.8,21.676L45.557,21.652L45.948,21.676L46.338,21.774L46.729,21.798L47.364,21.701L46.216,21.481L45.704,21.408L44.434,21.457ZM52.686,18.795L52.881,18.942L53.223,18.942L53.15,18.625L52.833,18.478L52.686,18.795ZM56.739,20.138L57.276,19.87L57.862,19.455L57.52,19.357L57.007,19.65L56.812,19.821L56.739,20.138ZM39.21,-10.282L36.011,-8.597L35.377,-8.109L35.352,-7.718L35.645,-7.889L35.914,-8.133L36.377,-8.499L37.452,-9.183L38.233,-9.549L39.21,-10.282Z" style="fill:rgb(0,146,207);fill-rule:nonzero;"/>
        <path d="M83.521,21.505L83.521,21.261C83.505,21.245 83.318,21.465 82.96,21.92C82.683,22.279 82.081,22.588 81.153,22.848C78.549,23.629 76.742,24.02 75.733,24.02C73.894,24.02 71.843,23.459 69.581,22.335C66.879,21.001 65.048,19.284 64.087,17.184C63.42,15.736 63.086,14.084 63.086,12.228C63.086,9.575 63.469,7.386 64.234,5.661C65.211,3.463 66.944,1.567 69.434,-0.028C71.241,-1.2 73.194,-1.786 75.294,-1.786C77.54,-1.786 79.533,-1.444 81.275,-0.76C82.007,-0.484 82.593,-0.077 83.033,0.46C83.212,0.672 83.326,0.778 83.375,0.778C83.554,0.778 83.643,0.615 83.643,0.29C83.643,0.192 83.635,0.054 83.619,-0.125C83.619,-0.239 83.619,-0.361 83.619,-0.492C83.619,-1.143 84.148,-1.468 85.206,-1.468C85.547,-1.468 85.946,-1.436 86.402,-1.371C87.004,-1.289 87.476,-1.248 87.818,-1.248C87.932,-1.248 88.054,-1.265 88.184,-1.297C88.396,-1.362 88.542,-1.395 88.624,-1.395C88.884,-1.395 89.014,-1.24 89.014,-0.931C89.014,-0.785 88.974,-0.516 88.892,-0.125C88.843,0.151 88.819,0.591 88.819,1.193C88.819,1.584 88.9,3.154 89.063,5.905C89.112,6.637 89.136,7.353 89.136,8.053C89.136,8.737 89.112,9.396 89.063,10.031C88.884,12.521 88.794,14.01 88.794,14.499C88.794,14.873 88.851,15.337 88.965,15.89C89.161,16.753 89.258,17.192 89.258,17.209L88.746,21.432L88.843,22.873C88.843,23.459 88.575,23.752 88.038,23.752C87.566,23.752 86.947,23.686 86.182,23.556C85.84,23.507 85.547,23.483 85.303,23.483C85.059,23.483 84.774,23.516 84.449,23.581C84.253,23.613 84.083,23.629 83.936,23.629C83.838,23.629 83.7,23.011 83.521,21.774L83.521,21.505ZM76.563,3.683C74.447,3.683 72.706,4.228 71.338,5.319C70.508,5.986 69.817,6.922 69.263,8.127C68.808,9.152 68.58,10.12 68.58,11.032C68.58,12.513 69.336,14.238 70.85,16.208C72.006,17.705 73.731,18.454 76.026,18.454C77.702,18.454 79.509,17.681 81.446,16.134C82.097,15.63 82.626,14.58 83.033,12.985C83.261,12.122 83.375,11.422 83.375,10.885C83.375,10.088 83.163,9.16 82.74,8.102C81.568,5.156 79.509,3.683 76.563,3.683ZM87.086,3.268L87.134,4.513L87.623,5.343L87.867,3.952L87.086,3.268ZM87.574,-0.077L87.012,1.071L87.574,1.193L87.574,-0.077ZM87.159,14.889L86.915,15.793L87.208,18.136L87.208,20.236L87.623,20.822L87.403,17.233L87.159,14.889ZM77.002,22.433L77.466,22.213L75.709,21.945L73.658,21.774L71.485,21.115L70.679,20.651L69.459,20.407L72.608,22.018L77.002,22.433ZM65.04,13.693L65.455,14.767L66.114,14.303L65.04,13.693ZM67.969,4.831L66.627,5.563L67.139,5.88L67.969,4.831ZM67.066,2.804L68.067,2.682L67.261,2.316L67.066,2.804ZM77.588,-0.54L78.394,0.07L80.25,1.022L81.299,1.437L81.788,1.266L77.588,-0.54ZM84.937,22.116L84.888,22.311L85.035,22.36L85.206,22.287L85.279,22.238L85.01,22.091L84.937,22.116Z" style="fill:rgb(0,146,207);fill-rule:nonzero;"/>
        <path d="M99.927,-2.005C101.327,-2.005 102.662,-1.55 103.931,-0.638C104.175,-0.459 104.721,0.184 105.567,1.291C106.039,1.909 106.275,2.308 106.275,2.487C106.275,2.682 106.023,2.886 105.518,3.097C104.753,3.439 104.249,3.773 104.004,4.098C103.419,4.814 102.947,5.172 102.588,5.172C102.507,5.172 102.336,4.953 102.076,4.513C101.734,3.96 101.156,3.683 100.342,3.683C98.698,3.683 97.877,4.196 97.877,5.221C97.877,6.23 98.633,7.142 100.147,7.956C101.889,8.867 103.378,10.08 104.615,11.593C106.047,13.335 106.763,14.824 106.763,16.061C106.763,16.956 106.511,18.136 106.006,19.601C105.03,22.466 102.523,23.898 98.487,23.898C97.982,23.898 97.632,23.841 97.437,23.727L95.801,22.751C94.857,22.246 94.271,21.88 94.044,21.652C93.067,20.708 92.579,19.919 92.579,19.284C92.579,19.04 92.937,18.763 93.653,18.454C95.134,17.786 95.85,17.371 95.801,17.209C96.111,16.899 96.347,16.745 96.509,16.745C96.753,16.745 97.014,16.964 97.291,17.404C97.779,18.218 98.462,18.625 99.341,18.625C99.846,18.625 100.269,18.486 100.611,18.21C101.197,17.738 101.49,17.07 101.49,16.208C101.49,15.833 101.319,15.459 100.977,15.085C100.196,14.206 99.732,13.717 99.586,13.62C99.374,13.441 98.796,13.099 97.852,12.594C94.434,10.706 92.725,8.338 92.725,5.49C92.725,3.097 93.425,1.25 94.825,-0.052C95.59,-0.752 96.68,-1.297 98.096,-1.688C98.861,-1.9 99.472,-2.005 99.927,-2.005ZM102.515,1.144L102.637,1.974L103.199,2.292L103.394,1.852L102.515,1.144ZM101.197,-0.54L98.243,-0.394L96.338,0.168L95.557,1.12L96.607,0.631L97.12,0.314L99.293,-0.15L100.586,-0.223L101.197,-0.54ZM94.825,4.831L94.385,4.44L94.19,4.782L94.703,5.368L94.825,4.831ZM95.069,8.346L95.728,9.176L97.584,9.762L98.536,10.397L98.682,9.933L97.95,9.616L96.876,9.225L96.045,9.03L95.069,8.346ZM101.563,11.374L102.149,12.252L102.686,12.716L103.516,13.546L104.2,14.157L104.688,14.938L104.688,14.181L103.956,13.351L103.077,12.472L101.563,11.374ZM104.835,18.405L104.297,19.626L104.664,19.845L104.835,18.405ZM101.026,20.7L100.196,20.089L100.196,20.7L101.026,20.7ZM96.802,21.92L95.63,20.48L95.289,20.016L94.434,19.577L95.215,20.553L96.802,21.92Z" style="fill:rgb(0,146,207);fill-rule:nonzero;"/>
        <path d="M122.925,-1.932C124.846,-1.932 126.75,-1.501 128.638,-0.638C130.477,0.192 131.771,1.25 132.52,2.536C132.748,2.894 132.886,3.113 132.935,3.195C133.163,3.455 133.277,3.61 133.277,3.659C133.277,3.821 132.756,4.253 131.714,4.953C130.998,5.441 130.42,5.872 129.981,6.247C129.655,6.523 129.436,6.662 129.322,6.662C129.24,6.662 129.07,6.523 128.809,6.247C128.305,5.693 127.369,5.14 126.002,4.586C124.634,4.017 123.601,3.732 122.901,3.732C121.078,3.732 119.475,4.375 118.091,5.661C116.659,6.995 115.943,8.826 115.943,11.154C115.943,12.847 116.138,14.043 116.529,14.743C116.789,15.198 117.505,15.915 118.677,16.891C119.833,17.868 121.29,18.356 123.047,18.356C124.48,18.356 125.603,18.12 126.417,17.648C126.563,17.55 127.116,17.021 128.077,16.061C128.532,15.67 128.777,15.369 128.809,15.158C128.923,14.637 129.127,14.377 129.419,14.377C129.696,14.377 130.347,14.718 131.373,15.402L133.106,16.232L134.424,16.891L133.35,18.21C131.999,20.163 131.12,21.286 130.713,21.579C128.549,23.125 126.124,23.898 123.438,23.898C120.476,23.898 118.238,23.377 116.724,22.335C113.55,20.155 111.622,18.128 110.938,16.256C110.726,15.687 110.442,14.165 110.084,11.691C109.986,11.024 109.937,10.633 109.937,10.519C109.937,9.25 110.466,7.28 111.524,4.611C111.703,4.171 111.98,3.789 112.354,3.463L113.062,2.853C114.104,1.584 114.808,0.786 115.174,0.46C115.54,0.135 116.195,-0.248 117.139,-0.687C118.93,-1.517 120.858,-1.932 122.925,-1.932ZM130.933,3.097L130.591,3.708L131.275,3.341L130.933,3.097ZM125.562,-0.833L122.217,-1.102L121.241,-0.931L122.022,-0.565L123.829,-0.663L125.904,-0.418L126.734,-0.028L128.272,0.168L125.562,-0.833ZM112.256,6.613L112.916,6.002L111.524,6.149L112.256,6.613ZM116.382,20.114L114.356,17.453L113.868,16.305L113.282,15.402L113.282,16.232L113.721,17.135L114.307,17.917L116.382,20.114ZM125.904,21.432L125.464,21.701L124.976,21.92L123.975,22.018L123.414,22.409L125.709,22.116L125.904,21.432ZM131.959,16.891L131.47,17.16L131.348,17.502L131.812,17.843L131.959,16.891ZM117.042,18.502L117.066,18.649L117.139,18.673L117.286,18.673L117.383,18.6L117.237,18.454L117.042,18.502Z" style="fill:rgb(0,146,207);fill-rule:nonzero;"/>
        <path d="M157.886,21.505L157.886,21.261C157.87,21.245 157.683,21.465 157.325,21.92C157.048,22.279 156.446,22.588 155.518,22.848C152.914,23.629 151.107,24.02 150.098,24.02C148.259,24.02 146.208,23.459 143.946,22.335C141.244,21.001 139.413,19.284 138.453,17.184C137.785,15.736 137.452,14.084 137.452,12.228C137.452,9.575 137.834,7.386 138.599,5.661C139.576,3.463 141.309,1.567 143.799,-0.028C145.606,-1.2 147.559,-1.786 149.659,-1.786C151.905,-1.786 153.899,-1.444 155.64,-0.76C156.373,-0.484 156.959,-0.077 157.398,0.46C157.577,0.672 157.691,0.778 157.74,0.778C157.919,0.778 158.008,0.615 158.008,0.29C158.008,0.192 158,0.054 157.984,-0.125C157.984,-0.239 157.984,-0.361 157.984,-0.492C157.984,-1.143 158.513,-1.468 159.571,-1.468C159.913,-1.468 160.311,-1.436 160.767,-1.371C161.369,-1.289 161.841,-1.248 162.183,-1.248C162.297,-1.248 162.419,-1.265 162.549,-1.297C162.761,-1.362 162.907,-1.395 162.989,-1.395C163.249,-1.395 163.379,-1.24 163.379,-0.931C163.379,-0.785 163.339,-0.516 163.257,-0.125C163.209,0.151 163.184,0.591 163.184,1.193C163.184,1.584 163.266,3.154 163.428,5.905C163.477,6.637 163.502,7.353 163.502,8.053C163.502,8.737 163.477,9.396 163.428,10.031C163.249,12.521 163.16,14.01 163.16,14.499C163.16,14.873 163.217,15.337 163.331,15.89C163.526,16.753 163.624,17.192 163.624,17.209L163.111,21.432L163.209,22.873C163.209,23.459 162.94,23.752 162.403,23.752C161.931,23.752 161.312,23.686 160.547,23.556C160.206,23.507 159.913,23.483 159.669,23.483C159.424,23.483 159.14,23.516 158.814,23.581C158.619,23.613 158.448,23.629 158.301,23.629C158.204,23.629 158.065,23.011 157.886,21.774L157.886,21.505ZM150.928,3.683C148.812,3.683 147.071,4.228 145.704,5.319C144.874,5.986 144.182,6.922 143.628,8.127C143.173,9.152 142.945,10.12 142.945,11.032C142.945,12.513 143.702,14.238 145.215,16.208C146.371,17.705 148.096,18.454 150.391,18.454C152.068,18.454 153.874,17.681 155.811,16.134C156.462,15.63 156.991,14.58 157.398,12.985C157.626,12.122 157.74,11.422 157.74,10.885C157.74,10.088 157.528,9.16 157.105,8.102C155.933,5.156 153.874,3.683 150.928,3.683ZM161.451,3.268L161.5,4.513L161.988,5.343L162.232,3.952L161.451,3.268ZM161.939,-0.077L161.377,1.071L161.939,1.193L161.939,-0.077ZM161.524,14.889L161.28,15.793L161.573,18.136L161.573,20.236L161.988,20.822L161.768,17.233L161.524,14.889ZM151.368,22.433L151.832,22.213L150.074,21.945L148.023,21.774L145.85,21.115L145.044,20.651L143.824,20.407L146.973,22.018L151.368,22.433ZM139.405,13.693L139.82,14.767L140.479,14.303L139.405,13.693ZM142.335,4.831L140.992,5.563L141.504,5.88L142.335,4.831ZM141.431,2.804L142.432,2.682L141.627,2.316L141.431,2.804ZM151.954,-0.54L152.759,0.07L154.615,1.022L155.665,1.437L156.153,1.266L151.954,-0.54ZM159.302,22.116L159.253,22.311L159.4,22.36L159.571,22.287L159.644,22.238L159.376,22.091L159.302,22.116Z" style="fill:rgb(0,146,207);fill-rule:nonzero;"/>
        <path d="M187.305,22.995L187.305,22.335L187.378,21.505C187.362,21.473 187.313,21.457 187.232,21.457C187.102,21.457 186.825,21.627 186.402,21.969C185.36,22.767 184.433,23.255 183.619,23.434C182.675,23.629 181.015,23.727 178.638,23.727C176.539,23.727 174.773,23.288 173.34,22.409C171.078,21.009 169.483,19.715 168.555,18.527C167.888,17.648 167.367,16.387 166.993,14.743C166.797,13.864 166.7,13.131 166.7,12.545C166.7,10.527 167.09,8.208 167.872,5.587C168.572,3.227 170.386,1.348 173.316,-0.052C175.709,-1.208 177.987,-1.786 180.152,-1.786L187.012,0.558C187.126,0.558 187.183,0.444 187.183,0.216C187.183,0.184 187.167,-0.166 187.134,-0.833C187.232,-2.217 187.297,-3.047 187.33,-3.324C187.346,-3.486 187.354,-3.568 187.354,-3.568C187.191,-5 187.11,-5.871 187.11,-6.18C187.11,-6.538 187.118,-6.913 187.134,-7.303C187.183,-8.312 187.208,-8.882 187.208,-9.012C187.208,-9.321 187.183,-9.875 187.134,-10.672C187.118,-10.835 187.11,-10.982 187.11,-11.112C187.11,-11.388 187.151,-11.519 187.232,-11.502L188.624,-11.331L189.478,-11.429L190.503,-11.551L191.163,-11.624L192.237,-11.429C192.497,-11.429 192.627,-11.34 192.627,-11.161C192.627,-10.998 192.603,-10.77 192.554,-10.477C192.505,-10.2 192.481,-9.972 192.481,-9.793L192.652,-5.301L192.335,1.046L192.579,6.002L192.408,11.032L192.652,14.645L192.725,17.794L192.896,20.919C192.717,21.912 192.627,22.458 192.627,22.555C192.627,22.637 192.636,22.751 192.652,22.897C192.668,23.027 192.676,23.141 192.676,23.239C192.676,23.434 192.583,23.548 192.396,23.581C192.208,23.613 191.537,23.654 190.381,23.703L189.6,23.776L187.671,23.654C187.606,23.654 187.484,23.662 187.305,23.678C187.273,23.678 187.248,23.678 187.232,23.678C187.167,23.678 187.134,23.67 187.134,23.654L187.305,22.995ZM179.444,3.708C178.5,3.708 177.597,3.805 176.734,4.001C175.757,4.228 174.651,5.229 173.414,7.003C172.763,7.931 172.429,8.615 172.413,9.054C172.396,9.754 172.388,10.413 172.388,11.032C172.388,13.294 173.064,15.052 174.415,16.305C175.993,17.786 177.833,18.527 179.932,18.527C182.292,18.527 184.091,17.632 185.328,15.841C186.434,14.23 186.988,12.48 186.988,10.592C186.988,8.883 186.353,7.362 185.084,6.027C183.635,4.481 181.755,3.708 179.444,3.708ZM190.284,6.295L190.894,2.047L190.43,-1.371L190.259,-4.471L189.844,-1.859L190.552,1.803L190.137,4.611L190.284,6.295ZM190.723,-5.716L190.528,-9.281L190.015,-7.767L190.406,-6.79L190.723,-5.716ZM191.993,15.304L191.309,15.67L191.749,16.525L192.188,15.573L191.993,15.304ZM191.529,22.14L191.138,19.577L191.041,20.993L191.529,22.14ZM172.071,19.65L170.85,18.82L172.022,20.138L173.292,21.066L174.561,22.116L175.22,22.116L174.268,21.212L172.071,19.65ZM168.409,13.449L168.262,14.596L168.873,14.987L168.409,13.449ZM175.245,0.534L177.808,0.094L179.859,-0.467L182.154,-0.052L184.4,0.68L185.108,0.607L182.618,-0.467L179.737,-0.809L175.245,0.534ZM170.728,2.731L171.973,2.487L171.778,1.95L170.728,2.731Z" style="fill:rgb(0,146,207);fill-rule:nonzero;"/>
        <path d="M196.216,21.017L196.558,15.963L196.216,11.032L196.387,5.49L196.216,2.609C196.2,2.3 196.192,1.868 196.192,1.315C196.192,0.892 196.216,0.477 196.265,0.07C196.281,0.021 196.29,-0.028 196.29,-0.077C196.29,-0.207 196.265,-0.402 196.216,-0.663C196.168,-1.021 196.143,-1.232 196.143,-1.297C196.143,-1.574 196.428,-1.712 196.998,-1.712C197.242,-1.712 197.502,-1.68 197.779,-1.615C198.137,-1.517 198.373,-1.468 198.487,-1.468L199.854,-1.688L201.172,-1.688C201.644,-1.688 201.88,-1.501 201.88,-1.126C201.88,-0.833 201.832,-0.443 201.734,0.045C201.653,0.452 201.612,0.827 201.612,1.169C201.612,1.315 201.685,1.6 201.832,2.023C202.059,2.658 202.157,3.244 202.125,3.781L201.832,9.958L202.002,14.084L201.734,17.526L201.88,20.138C201.913,21.05 201.954,21.725 202.002,22.165C202.019,22.441 202.027,22.685 202.027,22.897C202.027,23.353 201.579,23.581 200.684,23.581L199.17,23.556C198.438,23.556 197.868,23.589 197.461,23.654C197.022,23.719 196.688,23.752 196.461,23.752C196.233,23.752 196.119,23.581 196.119,23.239C196.119,23.109 196.176,22.637 196.29,21.823L196.143,21.286L196.216,21.017ZM199.024,-9.696C199.789,-9.696 200.448,-9.419 201.002,-8.866C201.522,-8.345 201.783,-7.661 201.783,-6.815C201.783,-6.066 201.474,-5.423 200.855,-4.886C200.302,-4.398 199.667,-4.154 198.951,-4.154C198.218,-4.154 197.641,-4.357 197.217,-4.764C196.517,-5.431 196.168,-6.205 196.168,-7.083C196.168,-7.686 196.493,-8.288 197.144,-8.89C197.73,-9.427 198.357,-9.696 199.024,-9.696ZM200.855,-7.157L200.733,-6.205L200.611,-6.034L200.733,-5.765L201.075,-5.96L200.855,-7.157ZM197.584,-8.28L197.144,-7.547L197.413,-7.45L197.706,-7.694L197.584,-8.28ZM199.195,-5.374L199.366,-4.691L199.732,-4.959L199.195,-5.374ZM198.829,1.413L198.755,6.002L198.389,7.76L198.877,7.321L198.926,6.393L199.122,5.514L199.073,3.512L199.122,1.706L198.926,-0.174L198.829,1.413ZM199.561,-1.126L199.341,-0.296L199.805,-0.492L199.561,-1.126ZM200.025,12.252L200.098,15.255L200.44,16.94L200.586,15.939L200.025,12.252ZM197.291,22.311L197.657,22.995L198.145,22.14L197.291,22.311ZM199.61,21.335L199,21.945L199.903,21.725L199.61,21.335Z" style="fill:rgb(0,146,207);fill-rule:nonzero;"/>
        <path d="M225.635,21.505L225.635,21.261C225.619,21.245 225.432,21.465 225.074,21.92C224.797,22.279 224.195,22.588 223.267,22.848C220.663,23.629 218.856,24.02 217.847,24.02C216.008,24.02 213.957,23.459 211.695,22.335C208.993,21.001 207.162,19.284 206.202,17.184C205.534,15.736 205.201,14.084 205.201,12.228C205.201,9.575 205.583,7.386 206.348,5.661C207.325,3.463 209.058,1.567 211.548,-0.028C213.355,-1.2 215.308,-1.786 217.408,-1.786C219.654,-1.786 221.648,-1.444 223.389,-0.76C224.122,-0.484 224.708,-0.077 225.147,0.46C225.326,0.672 225.44,0.778 225.489,0.778C225.668,0.778 225.757,0.615 225.757,0.29C225.757,0.192 225.749,0.054 225.733,-0.125C225.733,-0.239 225.733,-0.361 225.733,-0.492C225.733,-1.143 226.262,-1.468 227.32,-1.468C227.662,-1.468 228.06,-1.436 228.516,-1.371C229.118,-1.289 229.59,-1.248 229.932,-1.248C230.046,-1.248 230.168,-1.265 230.298,-1.297C230.51,-1.362 230.656,-1.395 230.738,-1.395C230.998,-1.395 231.128,-1.24 231.128,-0.931C231.128,-0.785 231.088,-0.516 231.006,-0.125C230.958,0.151 230.933,0.591 230.933,1.193C230.933,1.584 231.015,3.154 231.177,5.905C231.226,6.637 231.251,7.353 231.251,8.053C231.251,8.737 231.226,9.396 231.177,10.031C230.998,12.521 230.909,14.01 230.909,14.499C230.909,14.873 230.966,15.337 231.08,15.89C231.275,16.753 231.373,17.192 231.373,17.209L230.86,21.432L230.958,22.873C230.958,23.459 230.689,23.752 230.152,23.752C229.68,23.752 229.061,23.686 228.296,23.556C227.955,23.507 227.662,23.483 227.418,23.483C227.173,23.483 226.889,23.516 226.563,23.581C226.368,23.613 226.197,23.629 226.05,23.629C225.953,23.629 225.814,23.011 225.635,21.774L225.635,21.505ZM218.677,3.683C216.561,3.683 214.82,4.228 213.453,5.319C212.623,5.986 211.931,6.922 211.377,8.127C210.922,9.152 210.694,10.12 210.694,11.032C210.694,12.513 211.451,14.238 212.964,16.208C214.12,17.705 215.845,18.454 218.14,18.454C219.817,18.454 221.623,17.681 223.56,16.134C224.211,15.63 224.74,14.58 225.147,12.985C225.375,12.122 225.489,11.422 225.489,10.885C225.489,10.088 225.277,9.16 224.854,8.102C223.682,5.156 221.623,3.683 218.677,3.683ZM229.2,3.268L229.249,4.513L229.737,5.343L229.981,3.952L229.2,3.268ZM229.688,-0.077L229.127,1.071L229.688,1.193L229.688,-0.077ZM229.273,14.889L229.029,15.793L229.322,18.136L229.322,20.236L229.737,20.822L229.517,17.233L229.273,14.889ZM219.117,22.433L219.581,22.213L217.823,21.945L215.772,21.774L213.599,21.115L212.794,20.651L211.573,20.407L214.722,22.018L219.117,22.433ZM207.154,13.693L207.569,14.767L208.228,14.303L207.154,13.693ZM210.084,4.831L208.741,5.563L209.253,5.88L210.084,4.831ZM209.18,2.804L210.181,2.682L209.376,2.316L209.18,2.804ZM219.703,-0.54L220.508,0.07L222.364,1.022L223.414,1.437L223.902,1.266L219.703,-0.54ZM227.051,22.116L227.002,22.311L227.149,22.36L227.32,22.287L227.393,22.238L227.125,22.091L227.051,22.116Z" style="fill:rgb(0,146,207);fill-rule:nonzero;"/>
        <path d="M241.553,-13.895C243.474,-14.123 245.175,-14.237 246.656,-14.237C247.323,-14.237 248.015,-14.147 248.731,-13.968C249.187,-13.871 249.431,-13.822 249.463,-13.822L252.271,-14.139C253.036,-13.993 253.671,-13.911 254.175,-13.895C254.81,-13.862 255.127,-13.521 255.127,-12.87C255.127,-12.723 255.111,-12.568 255.079,-12.406C254.851,-10.973 254.737,-10.241 254.737,-10.208C254.737,-10.192 254.786,-10.029 254.883,-9.72C254.997,-9.378 255.054,-9.102 255.054,-8.89C255.054,-8.369 254.476,-8.109 253.321,-8.109C252.849,-8.109 252.312,-8.141 251.71,-8.206C250.033,-8.369 249.032,-8.451 248.707,-8.451C248.365,-8.451 247.217,-8.337 245.264,-8.109C244.662,-8.044 244.109,-8.011 243.604,-8.011C243.246,-8.011 242.92,-8.044 242.627,-8.109C242.188,-8.206 241.879,-8.255 241.7,-8.255C241.57,-8.255 241.472,-8.182 241.407,-8.036C241.374,-7.938 241.285,-7.116 241.138,-5.57L241.309,-3.324C241.309,-3.291 241.195,-2.355 240.967,-0.516C240.935,-0.256 240.919,-0.003 240.919,0.241C240.919,1.348 241.683,1.901 243.213,1.901C243.376,1.901 244.735,1.868 247.291,1.803L250.049,1.73L252.393,1.999C252.605,1.999 252.898,1.917 253.272,1.754C253.679,1.575 253.98,1.486 254.175,1.486C254.403,1.486 254.607,1.608 254.786,1.852C254.932,2.047 255.005,2.243 255.005,2.438L254.932,4.098L254.932,6.002C254.932,6.833 254.818,7.378 254.59,7.638C254.493,7.768 254.265,7.834 253.907,7.834C253.663,7.834 253.394,7.825 253.101,7.809C252.238,7.76 251.661,7.736 251.368,7.736C250.407,7.687 249.398,7.622 248.34,7.541L244.752,7.736L242.457,7.541C241.561,7.541 241.114,8.021 241.114,8.981C241.114,9.388 241.146,10.096 241.211,11.105C241.244,11.528 241.26,11.968 241.26,12.423C241.26,12.863 241.244,13.245 241.211,13.571C240.967,16.728 240.845,18.323 240.845,18.356C240.845,18.454 240.943,18.869 241.138,19.601C241.317,20.285 241.407,20.838 241.407,21.261C241.407,22.108 241.35,22.71 241.236,23.068C241.106,23.459 240.748,23.654 240.162,23.654C239.755,23.654 239.34,23.597 238.917,23.483C238.51,23.385 238.257,23.336 238.16,23.336C237.883,23.336 237.566,23.377 237.208,23.459C236.833,23.556 236.508,23.605 236.231,23.605C235.499,23.605 235.132,22.515 235.132,20.334C235.132,19.862 235.157,19.349 235.206,18.795C235.466,16.077 235.596,14.539 235.596,14.181C235.596,13.742 235.507,13.017 235.328,12.008C235.149,10.999 235.059,10.299 235.059,9.909C235.059,9.567 235.132,8.924 235.279,7.98C235.572,6.092 235.718,4.033 235.718,1.803C235.718,0.143 235.629,-1.322 235.45,-2.591C235.254,-3.991 235.157,-4.723 235.157,-4.789L235.621,-11.673C235.49,-12.861 235.425,-13.521 235.425,-13.651C235.425,-14.041 235.588,-14.237 235.914,-14.237C236.174,-14.237 236.76,-14.18 237.671,-14.066C237.932,-14.033 238.2,-14.017 238.477,-14.017C238.705,-14.017 239.014,-14.033 239.405,-14.066C239.893,-14.098 240.308,-14.115 240.65,-14.115C240.927,-14.115 241.228,-14.041 241.553,-13.895ZM250.66,-9.598L248.267,-9.525L247.242,-9.403L248.511,-9.256L249.781,-9.256L251.246,-9.378L252.515,-9.33L250.66,-9.598ZM251.441,-11.795L251.734,-11.502L252.271,-11.551L251.929,-12.015L251.441,-11.795ZM244.044,-10.746L242.481,-10.819L241.334,-10.77L241.504,-10.404L241.968,-10.501L244.044,-10.746ZM236.5,-8.597L236.5,-5.863L236.377,-4.618L236.744,-4.935L236.744,-7.181L236.5,-8.597ZM238.892,-1.566L238.99,-0.394L239.356,-0.858L239.136,-1.566L238.892,-1.566ZM241.236,5.514L245.289,5.294L243.677,5.172L241.627,5.343L241.236,5.514ZM247.339,5.929L249.268,5.685L247.559,5.612L247.339,5.929ZM252.149,3.463L252.93,3.61L252.857,3.146L252.149,3.463ZM236.573,22.262L236.89,21.896L236.939,21.335L236.939,19.821L236.817,18.454L236.866,14.962L236.939,13.937L236.646,13.815L236.548,17.843L236.646,20.724L236.573,22.262Z" style="fill:rgb(0,146,207);fill-rule:nonzero;"/>
        <path d="M276.197,17.55L278.126,17.55C278.972,17.55 279.395,17.705 279.395,18.014C279.395,18.161 279.379,18.332 279.346,18.527C279.151,19.536 279.053,20.334 279.053,20.919C279.053,21.05 279.061,21.188 279.078,21.335C279.257,22.392 279.346,22.946 279.346,22.995C279.346,23.516 278.931,23.776 278.101,23.776C277.824,23.776 276.653,23.678 274.586,23.483L269.019,23.727L265.601,23.483C265.324,23.483 265.007,23.54 264.649,23.654C264.096,23.833 263.819,23.922 263.819,23.922L261.182,23.483L259.791,23.581C259.677,23.516 259.62,23.328 259.62,23.019C259.62,22.921 259.652,22.531 259.717,21.847C259.799,20.871 259.839,20.146 259.839,19.674C259.839,19.284 259.766,18.576 259.62,17.55L259.961,10.788C259.961,10.527 259.848,9.567 259.62,7.907C259.473,6.849 259.4,6.035 259.4,5.465C259.4,5.01 259.489,3.154 259.669,-0.101C259.815,-2.559 259.888,-5.252 259.888,-8.182C259.888,-8.768 259.693,-9.623 259.302,-10.746L259.693,-12.577L259.62,-13.553C259.652,-13.895 259.929,-14.066 260.45,-14.066C260.938,-14.066 261.532,-13.984 262.232,-13.822C262.85,-13.692 263.322,-13.626 263.648,-13.626C264.201,-13.626 264.975,-13.748 265.967,-13.993C266.456,-14.107 266.749,-14.164 266.846,-14.164C266.895,-14.164 268.555,-14.025 271.827,-13.748C272.136,-13.716 272.437,-13.7 272.73,-13.7C273.251,-13.7 274.219,-13.822 275.635,-14.066C277.849,-13.984 278.98,-13.936 279.029,-13.919C279.175,-13.822 279.249,-13.529 279.249,-13.04C279.249,-12.308 279.183,-11.633 279.053,-11.014C278.956,-10.607 278.907,-10.347 278.907,-10.233C278.907,-10.054 278.972,-9.761 279.102,-9.354C279.183,-9.094 279.224,-8.849 279.224,-8.622C279.224,-8.198 278.589,-7.987 277.32,-7.987C276.669,-7.987 275.749,-8.044 274.561,-8.158C273.601,-8.239 273.039,-8.28 272.877,-8.28C270.63,-8.15 269.32,-8.084 268.946,-8.084C268.588,-8.084 268.173,-8.093 267.701,-8.109C267.294,-8.125 267.001,-8.133 266.822,-8.133C265.829,-8.133 265.333,-7.686 265.333,-6.79C265.333,-6.53 265.422,-5.781 265.601,-4.544L265.211,-1.712C265.471,-0.72 265.601,-0.085 265.601,0.192C265.601,0.306 265.593,0.428 265.577,0.558C265.512,0.851 265.479,1.046 265.479,1.144C265.479,1.584 265.837,1.803 266.553,1.803C268.572,1.803 270.11,1.746 271.168,1.632C272.177,1.535 272.811,1.486 273.072,1.486C273.544,1.486 274.122,1.584 274.805,1.779C275.228,1.909 275.513,1.974 275.66,1.974C275.822,1.974 276.172,1.901 276.71,1.754C277.279,1.608 277.735,1.535 278.077,1.535C278.288,1.535 278.492,1.624 278.687,1.803C279.078,2.145 279.273,2.65 279.273,3.317C279.273,3.708 279.216,4.163 279.102,4.684C279.021,5.042 278.98,5.294 278.98,5.441C278.98,5.587 278.996,5.799 279.029,6.076C279.045,6.304 279.053,6.523 279.053,6.735C279.053,7.467 278.736,7.834 278.101,7.834C277.808,7.834 277.149,7.768 276.124,7.638C275.798,7.589 275.456,7.565 275.098,7.565C274.594,7.565 273.837,7.63 272.828,7.76C271.981,7.874 271.347,7.931 270.923,7.931C270.549,7.931 270.215,7.891 269.922,7.809C269.336,7.63 269.044,7.541 269.044,7.541L266.944,8.053L265.552,7.882C265.422,7.899 265.357,8.037 265.357,8.297C265.357,8.509 265.398,8.81 265.479,9.201C265.56,9.608 265.601,9.998 265.601,10.373C265.601,10.584 265.503,11.488 265.308,13.083L265.406,14.914L265.308,16.476C265.308,17.469 265.959,17.965 267.261,17.965C267.652,17.965 268.132,17.933 268.702,17.868C269.906,17.77 271.664,17.721 273.975,17.721L276.197,17.55ZM273.169,-12.357L270.337,-12.406L270.215,-12.113L270.533,-12.064L271.363,-12.162L272.999,-12.088L275.513,-12.21L273.169,-12.357ZM276.856,-9.818L277.637,-9.793L277.442,-10.233L277.125,-10.208L276.856,-9.818ZM261.109,-12.772L261.28,-11.722L261.231,-10.184L261.231,-9.427L261.451,-9.745L261.451,-10.599L261.524,-11.185L261.5,-11.624L261.402,-12.284L261.109,-12.772ZM261.085,-6.351L261.231,-4.666L261.5,-4.886L261.426,-5.179L261.353,-5.545L261.085,-6.351ZM261.939,-1.175L261.988,0.485L262.159,2.047L262.403,1.51L262.208,0.021L262.183,-1.175L261.988,-1.932L261.939,-1.175ZM266.041,6.1L267.774,6.1L268.091,6.173L268.873,6.076L268.311,5.88L267.579,5.856L265.894,5.856L266.041,6.1ZM271.314,2.926L271.729,3.268L271.949,3.073L271.827,2.78L271.314,2.926ZM275.196,4.098L276.343,4.196L277.149,4.123L277.271,3.854L276.417,3.903L275.196,4.098ZM260.816,11.374L260.621,12.79L260.743,16.256L260.84,17.257L261.109,16.891L261.011,16.33L261.011,15.011L260.914,13.937L260.889,12.936L260.987,12.033L260.816,11.374ZM261.622,7.907L261.963,8.102L262.232,6.93L261.768,7.516L261.622,7.907ZM261.866,20.797L261.988,21.994L262.232,22.482L262.476,22.213L261.866,20.797ZM266.089,20.138L266.651,20.431L267.603,20.407L268.897,20.407L269.825,20.358L270.215,20.407L270.167,20.114L266.089,20.138ZM273.975,20.065L274.683,20.163L274.439,19.796L273.926,19.772L273.975,20.065ZM275.855,22.702L277.198,22.628L277.979,22.165L276.978,22.36L275.245,22.482L275.855,22.702Z" style="fill:rgb(0,146,207);fill-rule:nonzero;"/>
        <path d="M295.411,-14.261C297.527,-14.261 299.496,-13.488 301.319,-11.942C302.719,-10.754 303.419,-9.834 303.419,-9.183C303.419,-8.841 303.296,-8.573 303.052,-8.377C302.987,-8.329 302.662,-8.215 302.076,-8.036C301.669,-7.922 301.262,-7.678 300.855,-7.303C300.399,-6.88 300.123,-6.66 300.025,-6.644L298.951,-6.4L298.218,-6.058C297.958,-6.058 297.624,-6.392 297.217,-7.059C296.566,-8.101 295.809,-8.622 294.947,-8.622C293.759,-8.622 292.505,-8.125 291.187,-7.132C290.162,-6.367 289.649,-5.391 289.649,-4.203C289.649,-1.843 290.951,-0.117 293.555,0.973C297.868,2.796 300.432,4.155 301.246,5.05C302.45,6.369 303.394,7.76 304.078,9.225C304.68,10.511 304.981,11.528 304.981,12.277C304.981,13.693 304.476,15.654 303.467,18.161C302.686,20.146 301.514,21.579 299.952,22.458C298.308,23.385 296.778,23.849 295.362,23.849C294.206,23.849 292.448,23.605 290.088,23.117C288.477,22.791 287.297,22.238 286.548,21.457C286.386,21.294 285.767,20.488 284.693,19.04C283.993,18.112 283.643,17.526 283.643,17.282C283.643,17.005 283.716,16.777 283.863,16.598C283.928,16.533 284.31,16.435 285.01,16.305L286.231,15.744L287.574,15.402L287.964,15.231L288.55,15.158L289.307,14.914C289.389,14.946 289.486,15.166 289.6,15.573C289.779,16.321 290.3,16.891 291.163,17.282C291.342,17.363 292.025,17.542 293.213,17.819C293.93,17.998 294.393,18.087 294.605,18.087C294.914,18.087 295.582,17.925 296.607,17.599C297.046,17.453 297.319,17.339 297.425,17.257C297.531,17.176 297.665,16.948 297.828,16.574C298.528,15.011 298.877,13.725 298.877,12.716C298.877,11.235 298.3,10.071 297.144,9.225C295.614,8.102 292.863,6.662 288.892,4.904C287.492,4.302 286.532,3.618 286.011,2.853C285.1,1.486 284.489,0.371 284.18,-0.492C283.904,-1.273 283.765,-2.193 283.765,-3.25C283.765,-6.929 285.108,-9.899 287.794,-12.162C289.454,-13.561 291.993,-14.261 295.411,-14.261ZM300.904,-10.721L299.952,-11.82L299.244,-12.381L299.097,-12.162L299.39,-12.015L300.464,-10.892L300.904,-10.721ZM300.757,-8.329L301.026,-8.915L300.635,-8.841L300.757,-8.329ZM295.63,-12.528L296.192,-13.04L295.167,-13.016L294.19,-12.748L295.313,-12.748L295.63,-12.796L295.63,-12.528ZM290.284,-12.528L288.77,-11.234L288.038,-10.526L287.574,-9.842L287.72,-9.671L288.233,-10.379L288.697,-10.868L289.21,-11.258L290.015,-12.015L290.284,-12.528ZM286.475,-5.033L286.695,-7.157L286.353,-5.96L286.475,-5.033ZM286.841,-1.322L288.355,1.169L288.599,1.413L288.941,1.535L289.6,1.828L289.771,1.974L290.064,1.901L289.551,1.51L288.672,1.193L286.841,-1.322ZM292.579,5.075L294.629,5.27L293.775,4.757L293.262,4.953L292.847,4.855L292.579,5.075ZM298.096,5.319L299.634,6.759L301.099,7.638L301.002,7.321L299.878,6.686L299.537,6.295L298.829,5.734L298.096,5.319ZM302.247,15.402L301.539,17.868L300.171,19.162L299.756,19.503L300.049,19.65L300.44,19.333L301.075,18.722L301.441,18.258L301.856,17.892L302.247,15.402ZM297.169,19.552L296.9,19.284L296.461,19.21L296.412,19.943L297.169,19.552ZM294.41,22.726L291.138,22.043L289.307,21.09L289.039,20.773L288.819,20.919L289.014,21.188L290.186,21.847L290.992,22.189L291.578,22.409L294.41,22.726ZM286.304,17.77L286.67,18.771L286.939,18.405L286.304,17.77Z" style="fill:rgb(0,146,207);fill-rule:nonzero;"/>
        <path d="M314.283,-7.962L311.719,-8.133C311.654,-8.133 311.589,-8.133 311.524,-8.133C310.824,-8.133 310.287,-8.101 309.913,-8.036C309.359,-7.938 308.977,-7.889 308.765,-7.889C308.602,-7.889 308.521,-7.987 308.521,-8.182C308.521,-8.329 308.545,-8.581 308.594,-8.939C308.611,-9.102 308.619,-9.338 308.619,-9.647C308.619,-10.021 308.586,-10.542 308.521,-11.209C308.733,-13.032 308.871,-13.984 308.936,-14.066C309.001,-14.147 309.131,-14.188 309.327,-14.188C309.506,-14.188 309.896,-14.147 310.499,-14.066L317.017,-14.188C317.147,-14.188 317.839,-14.164 319.092,-14.115C321.42,-14.017 323.218,-13.968 324.488,-13.968C327.987,-13.968 329.948,-14.001 330.372,-14.066C331.169,-14.18 331.698,-14.237 331.959,-14.237C332.317,-14.237 332.496,-14.115 332.496,-13.871C332.496,-13.724 332.479,-13.512 332.447,-13.236C332.414,-13.024 332.398,-12.804 332.398,-12.577C332.398,-12.251 332.439,-11.73 332.52,-11.014C332.65,-9.989 332.715,-9.256 332.715,-8.817C332.715,-8.166 332.268,-7.84 331.373,-7.84C330.201,-7.84 329.289,-7.905 328.638,-8.036C327.824,-8.215 327.344,-8.304 327.198,-8.304C327.1,-8.304 326.807,-8.247 326.319,-8.133C325.733,-8.003 325.294,-7.938 325.001,-7.938C324.935,-7.938 324.83,-7.946 324.683,-7.962C324.455,-7.995 324.252,-8.011 324.073,-8.011C323.682,-8.011 323.487,-7.555 323.487,-6.644C323.487,-6.156 323.528,-5.602 323.609,-4.984C323.951,-2.315 324.105,-0.76 324.073,-0.321C323.877,2.837 323.78,5.229 323.78,6.857L323.78,12.399C323.78,13.701 323.707,15.011 323.56,16.33C323.479,17.143 323.438,17.648 323.438,17.843C323.438,18.022 323.495,18.909 323.609,20.504C323.625,20.732 323.633,20.936 323.633,21.115C323.633,21.278 323.593,21.693 323.511,22.36C323.511,22.409 323.511,22.449 323.511,22.482C323.511,22.547 323.519,22.637 323.536,22.751C323.552,22.881 323.56,22.987 323.56,23.068C323.56,23.54 323.08,23.776 322.12,23.776C321.892,23.776 321.29,23.711 320.313,23.581L319.312,23.581C318.84,23.516 318.58,23.483 318.531,23.483C318.482,23.483 318.441,23.483 318.409,23.483C318.295,23.499 318.23,23.507 318.213,23.507C317.953,23.507 317.823,23.28 317.823,22.824L317.847,21.408L317.823,15.768C317.823,14.726 317.855,13.774 317.92,12.912C317.986,11.886 318.018,11.357 318.018,11.325L317.505,4.831C317.701,1.299 317.798,-0.76 317.798,-1.346C317.798,-1.786 317.782,-2.485 317.75,-3.446C317.733,-4.097 317.725,-4.593 317.725,-4.935C317.725,-5.277 317.733,-5.578 317.75,-5.838C317.798,-6.685 317.823,-7.23 317.823,-7.474C317.823,-7.979 317.4,-8.231 316.553,-8.231C316.114,-8.231 315.691,-8.198 315.284,-8.133L314.283,-7.962ZM330.811,-12.577L328.541,-12.577L327.564,-12.43L328.077,-12.21L328.394,-12.284L330.396,-12.357L330.811,-12.235L330.811,-12.577ZM327.515,-9.476L326.612,-9.72L325.806,-9.549L327.515,-9.476ZM320.679,-12.674L322.022,-13.138L321.07,-13.504L321.021,-13.065L320.679,-12.674ZM314.112,-10.208L313.16,-10.501L312.134,-10.501L309.913,-10.575L311.255,-10.257L314.112,-10.208ZM319.507,-6.131L319.556,-2.323L319.605,-1.786L319.825,-2.03L319.752,-2.616L319.727,-3.69L319.752,-5.106L319.507,-6.131ZM321.412,-2.933L321.265,-1.81L321.216,-1.029L321.314,-0.077L321.29,0.387L321.363,0.753L321.558,0.387L321.461,-0.663L321.412,-2.933ZM320.997,9.103L320.533,11.471L320.582,12.741L320.923,11.496L320.997,9.103ZM319.556,22.238L319.483,21.969L319.556,21.774L319.288,21.335L318.897,21.945L319.556,22.238Z" style="fill:rgb(0,146,207);fill-rule:nonzero;"/>
        <path d="M362.037,17.917L364.112,17.917C365.544,17.786 366.537,17.721 367.09,17.721C367.497,17.721 368.368,17.738 369.703,17.77C370.858,17.786 372.323,17.811 374.097,17.843L375.196,17.843C375.652,17.827 375.912,17.819 375.977,17.819C376.661,17.819 377.002,18.405 377.002,19.577L376.978,21.359L376.978,23.288C376.978,23.613 376.889,23.776 376.71,23.776C376.547,23.776 376.36,23.752 376.148,23.703C374.862,23.393 373.698,23.239 372.657,23.239C372.299,23.239 370.199,23.393 366.358,23.703C362.045,23.638 359.156,23.524 357.691,23.361C357.544,23.345 357.422,23.336 357.325,23.336C356.95,23.336 356.519,23.385 356.031,23.483C355.477,23.613 355.03,23.678 354.688,23.678C353.907,23.678 353.5,23.052 353.467,21.798C353.435,21.147 353.353,20.602 353.223,20.163C353.093,19.772 353.028,19.512 353.028,19.381C353.028,18.877 353.475,18.226 354.371,17.428C355.966,16.012 357.642,14.417 359.4,12.643C362.053,9.941 364.283,7.825 366.089,6.295C366.968,5.53 367.583,4.924 367.933,4.477C368.283,4.029 368.816,3.146 369.532,1.828C370.736,-0.353 371.338,-2.022 371.338,-3.177C371.338,-4.789 370.549,-6.18 368.97,-7.352C367.619,-8.345 366.317,-8.841 365.064,-8.841C364.283,-8.841 363.2,-8.353 361.817,-7.376C360.629,-6.546 359.807,-5.692 359.351,-4.813C358.961,-4.081 358.708,-3.714 358.594,-3.714C358.497,-3.714 358.309,-3.958 358.033,-4.447C356.682,-5.765 355.811,-6.652 355.42,-7.108C355.29,-7.287 355.184,-7.417 355.103,-7.498C354.957,-7.629 354.883,-7.718 354.883,-7.767C354.883,-8.06 355.51,-8.923 356.763,-10.355C357.528,-11.218 358.086,-11.779 358.436,-12.04C358.786,-12.3 359.433,-12.625 360.377,-13.016C362.199,-13.748 364.153,-14.115 366.236,-14.115C369.247,-14.115 371.64,-13.26 373.414,-11.551C375.643,-9.403 376.758,-6.546 376.758,-2.982C376.758,0.941 375.342,4.473 372.51,7.614C372.038,8.135 370.386,9.673 367.554,12.228C367.261,12.505 366.244,13.546 364.502,15.353C363.607,16.313 363.086,16.81 362.94,16.842C362.354,17.298 362.053,17.656 362.037,17.917ZM358.033,-5.887L358.961,-6.62L358.545,-6.986L358.35,-6.522L358.033,-5.887ZM361.744,-12.21L361.231,-11.405L362.867,-12.284L364.82,-12.503L366.285,-12.479L367.066,-12.894L364.576,-12.845L361.744,-12.21ZM373.609,-6.058L374.293,-5.081L374.659,-4.007L375.123,-3.397L374.976,-4.203L374.463,-5.545L373.926,-6.107L373.609,-6.058ZM374.537,-0.125L375.025,-0.003L374.976,-1.273L374.537,-0.125ZM370.85,5.075L367.994,7.809L367.066,9.274L367.335,9.396L367.627,8.908L368.189,8.175L369.092,7.174L370.508,5.978L370.85,5.075ZM361.036,16.501L360.401,16.891L360.108,17.16L359.669,17.526L359.107,18.527L360.108,17.624L361.036,16.501ZM354.786,22.946L355.25,22.287L354.883,21.896L354.639,22.433L354.786,22.946ZM362.72,22.213L364.6,22.165L367.579,22.018L368.213,22.238L367.92,21.774L367.701,21.75L366.138,21.847L363.941,21.896L361.597,21.994L362.72,22.213ZM374.146,21.335L375.171,20.407L374.39,20.553L374.146,21.335Z" style="fill:rgb(0,175,116);fill-rule:nonzero;"/>
        <path d="M393.653,-14.383C397.575,-13.716 400.318,-12.804 401.88,-11.649C403.98,-10.086 405.437,-7.295 406.251,-3.275C406.446,-2.315 406.544,-1.322 406.544,-0.296L406.519,0.705L406.47,4.22C406.438,6.857 406.421,8.371 406.421,8.761C406.421,9.119 406.454,9.958 406.519,11.276C406.015,13.376 405.697,14.775 405.567,15.475C405.29,16.745 405.058,17.575 404.871,17.965C404.684,18.356 404.249,18.877 403.565,19.528C402.035,21.042 400.863,22.075 400.049,22.628C398.617,23.605 396.989,24.093 395.167,24.093C392.758,24.093 390.39,23.491 388.062,22.287C386.141,21.278 384.433,19.585 382.935,17.209C382.056,15.809 381.617,14.556 381.617,13.449C381.617,12.733 381.674,11.154 381.788,8.712C381.82,8.061 381.836,7.329 381.836,6.515C381.836,5.929 381.82,4.741 381.788,2.951C381.755,1.844 381.739,0.932 381.739,0.216C381.739,-3.283 382.341,-6.148 383.545,-8.377C384.506,-10.184 385.604,-11.519 386.841,-12.381C387.737,-13 389.21,-13.504 391.26,-13.895C392.107,-14.058 392.904,-14.22 393.653,-14.383ZM394.532,-8.353C393.62,-8.353 392.522,-8.076 391.236,-7.523C389.576,-6.823 388.51,-5.497 388.038,-3.543C387.794,-2.485 387.671,-1.216 387.671,0.265C387.671,0.672 387.745,2.21 387.891,4.879C387.696,7.532 387.598,9.111 387.598,9.616C387.598,11.52 387.777,12.871 388.135,13.669C388.298,14.043 388.786,14.751 389.6,15.793C390.219,16.606 390.658,17.054 390.919,17.135C392.009,17.51 393.539,17.697 395.508,17.697C396.843,17.697 397.86,17.257 398.56,16.378C399.048,15.76 399.496,15.028 399.903,14.181C400.473,12.944 400.749,12.171 400.733,11.862L400.586,8.81L400.953,3.561C400.806,2.08 400.684,0.387 400.586,-1.517C400.489,-3.682 400.294,-5 400.001,-5.472C399.708,-5.96 399.073,-6.481 398.096,-7.035C396.583,-7.914 395.394,-8.353 394.532,-8.353ZM395.118,-13.187L395.972,-13.211L395.313,-13.919L394.874,-13.553L395.118,-13.187ZM400.416,-10.55L402.125,-8.792L402.466,-6.937L402.833,-5.863L402.784,-6.79L402.637,-7.596L402.515,-8.67L402.271,-9.11L401.294,-9.964L400.416,-10.55ZM404.468,-1.444L404.273,-2.152L404.175,-1.322L404.517,0.412L404.395,3.341L404.566,4.001L404.712,2.56L404.761,0.534L404.468,-1.444ZM403.199,17.306L402.711,17.624L402.613,17.55L402.027,18.039L402.588,18.332L403.199,17.306ZM401.026,20.309L401.929,19.87L401.978,19.406L401.026,20.309ZM399.39,20.871L396.583,22.433L393.628,22.409L391.749,22.458L393.409,22.653L394.288,22.677L395.85,22.751L396.778,22.726L399.39,20.871ZM384.424,16.794L384.156,15.866L384.058,15.109L383.423,15.28L384.424,16.794Z" style="fill:rgb(0,175,116);fill-rule:nonzero;"/>
        <path d="M424.219,23.898C424.105,23.8 423.991,23.703 423.877,23.605C423.812,23.459 423.78,22.978 423.78,22.165L423.609,20.773L423.609,18.283L423.292,14.572L423.707,7.15L423.78,2.707L423.902,-1.932L423.56,-6.546C423.56,-6.579 423.617,-7.108 423.731,-8.133C423.731,-8.182 423.731,-8.215 423.731,-8.231C423.731,-8.508 423.593,-8.646 423.316,-8.646C423.169,-8.646 422.966,-8.63 422.706,-8.597C422.657,-8.597 422.445,-8.581 422.071,-8.548C421.892,-8.532 421.705,-8.508 421.509,-8.475C421.119,-8.426 420.842,-8.402 420.679,-8.402C420.63,-8.402 420.484,-8.41 420.24,-8.426C419.947,-8.459 419.638,-8.475 419.312,-8.475C419.019,-8.475 418.718,-8.467 418.409,-8.451C418.262,-8.434 418.148,-8.426 418.067,-8.426C417.92,-8.426 417.823,-8.467 417.774,-8.548C417.758,-8.548 417.75,-8.695 417.75,-8.988C417.75,-9.069 417.684,-9.663 417.554,-10.77C417.668,-11.356 417.725,-11.787 417.725,-12.064C417.725,-12.536 417.684,-12.992 417.603,-13.431C417.571,-13.643 417.554,-13.781 417.554,-13.846C417.554,-14.058 417.636,-14.164 417.798,-14.164L418.091,-14.139L420.972,-14.139C421.119,-14.139 421.42,-14.115 421.876,-14.066C422.478,-14.001 422.917,-13.968 423.194,-13.968C425.912,-13.968 427.401,-14.001 427.662,-14.066C428.443,-14.277 428.923,-14.383 429.102,-14.383C429.444,-14.383 429.615,-14.164 429.615,-13.724C429.615,-13.382 429.574,-12.951 429.493,-12.43C429.411,-11.991 429.371,-11.608 429.371,-11.283C429.371,-11.136 429.485,-10.241 429.712,-8.597L429.395,-2.079L429.639,7.223L429.468,15.304C429.468,16.037 429.607,17.933 429.883,20.993C429.932,21.546 429.957,22.01 429.957,22.384C429.957,23.28 429.737,23.727 429.297,23.727C429.232,23.727 429.086,23.719 428.858,23.703C428.565,23.67 428.191,23.654 427.735,23.654C427.377,23.654 426.807,23.629 426.026,23.581L424.219,23.898ZM419.434,-12.772L419.044,-12.357L419.727,-12.308L419.922,-12.772L419.434,-12.772ZM423.438,-11.234L425.416,-11.234L425.416,-11.649L423.609,-11.576L421.387,-11.331L423.438,-11.234ZM427.076,-6.302L426.319,-4.984L426.661,-4.569L427.076,-6.302ZM427.32,-0.809L426.783,2.145L426.905,3.585L426.905,5.807L426.978,7.077L427.271,7.907L427.32,6.222L427.125,2.804L427.32,-0.809ZM425.635,11.984L425.635,13.107L425.757,16.452L426.075,16.208L425.953,15.011L425.831,13.156L425.904,10.446L425.635,11.984ZM427.857,21.359L427.369,22.043L428.052,22.482L427.857,21.359Z" style="fill:rgb(0,175,116);fill-rule:nonzero;"/>
        <path d="M451.832,-10.355C452.401,-10.892 452.784,-11.307 452.979,-11.6C453.06,-11.714 453.272,-12.178 453.614,-12.992C454.004,-13.936 454.428,-14.408 454.883,-14.408C455.437,-14.408 456.234,-13.968 457.276,-13.089C457.732,-12.699 458.366,-12.332 459.18,-11.991C459.457,-11.877 459.595,-11.722 459.595,-11.527C459.595,-11.315 459.489,-11.136 459.278,-10.99C458.871,-10.713 458.179,-9.509 457.203,-7.376C456.877,-6.709 455.99,-5.309 454.542,-3.177C454.004,-2.412 453.736,-1.9 453.736,-1.639C453.736,-1.395 454.037,-1.273 454.639,-1.273L456.031,-1.273C458.033,-1.273 459.693,-0.939 461.011,-0.272C462.606,0.526 464.112,2.121 465.528,4.513C466.553,6.238 467.066,7.825 467.066,9.274C467.066,11.585 466.48,14.222 465.308,17.184C464.771,18.551 464.234,19.463 463.697,19.919C462.623,20.797 461.247,21.603 459.571,22.335C457.422,23.28 455.233,23.752 453.003,23.752C450.66,23.752 448.292,22.807 445.899,20.919C443.978,19.422 442.717,17.803 442.115,16.061C441.496,14.32 441.187,12.342 441.187,10.128C441.187,9.071 441.26,8.379 441.407,8.053L442.847,4.757L443.848,2.194C443.962,1.95 444.507,1.177 445.484,-0.125C446.884,-1.981 449,-5.391 451.832,-10.355ZM455.323,3.854C454.574,3.61 454.053,3.488 453.76,3.488C453.077,3.488 452.002,3.854 450.538,4.586C447.885,5.921 446.558,7.915 446.558,10.568C446.558,12.261 447.063,13.799 448.072,15.182C449.618,17.266 451.628,18.307 454.102,18.307C455.583,18.307 457.007,17.835 458.375,16.891C460.377,15.524 461.377,13.774 461.377,11.642C461.377,10.194 460.995,8.704 460.23,7.174C459.514,5.758 457.878,4.652 455.323,3.854ZM456.788,-10.794L457.593,-11.283L457.178,-11.795L456.788,-10.794ZM454.249,-9.476L453.663,-9.012L452.54,-7.206L451.88,-6.571L451.368,-6.107L451.392,-5.667L453.101,-7.45L454.249,-9.476ZM451.587,-3.885L451.075,-3.763L450.855,-2.787L451.587,-3.885ZM460.035,0.607L458.814,-0.174L457.276,-0.125L455.86,-0.272L454.932,-0.077L453.809,0.387L455.176,0.094C455.502,0.029 456.015,-0.003 456.714,-0.003C457.919,-0.003 459.026,0.2 460.035,0.607ZM462.696,4.025L463.77,4.074L463.282,3.683L462.696,4.025ZM464.258,16.208L463.184,17.502L461.622,19.113L460.425,19.943L461.036,20.187L461.451,19.821L463.819,17.477L464.258,16.208ZM451.099,22.116L454.053,22.726L455.616,22.458L454.712,22.36L453.516,22.311L451.099,22.116ZM450.001,20.041L449.805,19.186L448.975,19.503L450.001,20.041ZM444.19,16.818L444.361,16.037L444.19,15.402L443.799,14.377L443.262,12.13L443.653,14.889L444.19,16.818ZM443.726,9.445L443.799,9.396L443.824,7.736L443.336,8.346L443.726,9.445ZM448.682,1.51L449.366,0.631L448.658,0.534L447.584,0.168L448.682,0.9L448.682,1.51Z" style="fill:rgb(0,175,116);fill-rule:nonzero;"/>
        <path d="M486.133,7.736L486.133,3.683C486.166,1.03 486.443,-0.801 486.963,-1.81C486.963,-1.81 487.265,-2.27 487.867,-3.189C488.469,-4.109 489.747,-6.107 491.7,-9.183C493.409,-10.436 495.614,-11.738 498.316,-13.089C499.488,-13.626 500.456,-13.903 501.221,-13.919L503.467,-13.968L506.836,-14.408C507.016,-14.408 508.13,-14.107 510.181,-13.504C511.581,-13.081 512.671,-12.658 513.453,-12.235C514.348,-11.779 515.227,-11.315 516.089,-10.843C516.61,-10.648 516.871,-10.436 516.871,-10.208C516.871,-9.981 516.561,-9.557 515.943,-8.939C515.341,-8.337 514.706,-7.458 514.039,-6.302C513.713,-5.749 513.453,-5.472 513.257,-5.472C513.209,-5.472 513.16,-5.497 513.111,-5.545C510.474,-7.612 507.943,-8.646 505.518,-8.646C502.881,-8.646 500.18,-7.767 497.413,-6.009C496.908,-5.7 495.606,-4.243 493.506,-1.639C492.758,-0.728 492.273,0.115 492.054,0.888C491.834,1.661 491.724,2.869 491.724,4.513C491.724,7.166 492.432,9.567 493.848,11.715C494.874,13.262 495.964,14.539 497.12,15.548C498.064,16.378 500.074,17.152 503.15,17.868C504.11,18.096 504.924,18.21 505.591,18.21C506.112,18.21 507.089,18.071 508.521,17.794C509.026,17.713 509.823,17.379 510.914,16.794L512.891,15.817C513.217,15.54 513.469,15.402 513.648,15.402C513.811,15.402 514.022,15.646 514.283,16.134C514.804,17.143 515.3,17.892 515.772,18.38C516.423,19.048 516.749,19.536 516.749,19.845C516.749,20.106 516.529,20.301 516.089,20.431C515.422,20.659 514.877,21.017 514.454,21.505C513.949,22.108 513.209,22.547 512.232,22.824C511.516,23.003 509.693,23.336 506.763,23.825C503.736,23.76 501.937,23.711 501.368,23.678C500.782,23.629 500.033,23.393 499.122,22.97C498.568,22.71 498.007,22.441 497.437,22.165L495.044,21.261L491.407,18.21C490.137,17.217 489.258,16.338 488.77,15.573C488.249,14.905 487.671,13.53 487.037,11.447C486.434,9.445 486.133,8.208 486.133,7.736ZM514.673,-10.306L511.841,-11.942L511.109,-12.259L510.303,-12.528L509.522,-12.772L509.693,-12.552L510.108,-12.406L512.476,-11.307L512.989,-11.039L513.355,-10.721L514.673,-10.306ZM500.489,-9.403L500.586,-9.305L500.928,-9.354L500.855,-9.623L500.416,-9.671L500.318,-9.476L500.489,-9.403ZM489.429,-4.837L489.161,-4.373L489.502,-4.398L489.698,-4.691L489.429,-4.837ZM489.429,3.805L489.283,5.587L489.356,6.662L489.576,7.174L489.722,6.759L489.576,6.393L489.6,5.734L489.429,3.805ZM488.672,12.863L488.892,13.693L489.185,14.694L489.649,15.28L490.015,15.573L490.455,15.719L490.235,15.377L489.966,15.182L489.551,14.767L489.356,14.425L488.941,13.253L488.672,12.863ZM495.875,18.136L496.192,18.6L497.071,19.04L497.828,19.284L498.292,19.577L498.975,19.796L499.195,19.65L499.024,19.43L498.658,19.406L496.534,18.429L495.875,18.136ZM501.661,21.457L502.027,21.676L502.784,21.652L503.174,21.676L503.565,21.774L503.956,21.798L504.59,21.701L503.443,21.481L502.93,21.408L501.661,21.457ZM509.913,18.795L510.108,18.942L510.45,18.942L510.377,18.625L510.059,18.478L509.913,18.795ZM513.965,20.138L514.502,19.87L515.088,19.455L514.747,19.357L514.234,19.65L514.039,19.821L513.965,20.138ZM496.436,-10.282L493.238,-8.597L492.603,-8.109L492.579,-7.718L492.872,-7.889L493.14,-8.133L493.604,-8.499L494.678,-9.183L495.46,-9.549L496.436,-10.282Z" style="fill:white;fill-rule:nonzero;"/>
        <path d="M527.466,-13.895C529.387,-14.123 531.088,-14.237 532.569,-14.237C533.236,-14.237 533.928,-14.147 534.644,-13.968C535.1,-13.871 535.344,-13.822 535.377,-13.822L538.184,-14.139C538.949,-13.993 539.584,-13.911 540.088,-13.895C540.723,-13.862 541.041,-13.521 541.041,-12.87C541.041,-12.723 541.024,-12.568 540.992,-12.406C540.764,-10.973 540.65,-10.241 540.65,-10.208C540.65,-10.192 540.699,-10.029 540.796,-9.72C540.91,-9.378 540.967,-9.102 540.967,-8.89C540.967,-8.369 540.39,-8.109 539.234,-8.109C538.762,-8.109 538.225,-8.141 537.623,-8.206C535.946,-8.369 534.945,-8.451 534.62,-8.451C534.278,-8.451 533.13,-8.337 531.177,-8.109C530.575,-8.044 530.022,-8.011 529.517,-8.011C529.159,-8.011 528.834,-8.044 528.541,-8.109C528.101,-8.206 527.792,-8.255 527.613,-8.255C527.483,-8.255 527.385,-8.182 527.32,-8.036C527.287,-7.938 527.198,-7.116 527.051,-5.57L527.222,-3.324C527.222,-3.291 527.108,-2.355 526.88,-0.516C526.848,-0.256 526.832,-0.003 526.832,0.241C526.832,1.348 527.597,1.901 529.127,1.901C529.289,1.901 530.648,1.868 533.204,1.803L535.962,1.73L538.306,1.999C538.518,1.999 538.811,1.917 539.185,1.754C539.592,1.575 539.893,1.486 540.088,1.486C540.316,1.486 540.52,1.608 540.699,1.852C540.845,2.047 540.919,2.243 540.919,2.438L540.845,4.098L540.845,6.002C540.845,6.833 540.731,7.378 540.503,7.638C540.406,7.768 540.178,7.834 539.82,7.834C539.576,7.834 539.307,7.825 539.014,7.809C538.152,7.76 537.574,7.736 537.281,7.736C536.321,7.687 535.311,7.622 534.253,7.541L530.665,7.736L528.37,7.541C527.475,7.541 527.027,8.021 527.027,8.981C527.027,9.388 527.059,10.096 527.125,11.105C527.157,11.528 527.173,11.968 527.173,12.423C527.173,12.863 527.157,13.245 527.125,13.571C526.88,16.728 526.758,18.323 526.758,18.356C526.758,18.454 526.856,18.869 527.051,19.601C527.23,20.285 527.32,20.838 527.32,21.261C527.32,22.108 527.263,22.71 527.149,23.068C527.019,23.459 526.661,23.654 526.075,23.654C525.668,23.654 525.253,23.597 524.83,23.483C524.423,23.385 524.17,23.336 524.073,23.336C523.796,23.336 523.479,23.377 523.121,23.459C522.746,23.556 522.421,23.605 522.144,23.605C521.412,23.605 521.045,22.515 521.045,20.334C521.045,19.862 521.07,19.349 521.119,18.795C521.379,16.077 521.509,14.539 521.509,14.181C521.509,13.742 521.42,13.017 521.241,12.008C521.062,10.999 520.972,10.299 520.972,9.909C520.972,9.567 521.045,8.924 521.192,7.98C521.485,6.092 521.631,4.033 521.631,1.803C521.631,0.143 521.542,-1.322 521.363,-2.591C521.168,-3.991 521.07,-4.723 521.07,-4.789L521.534,-11.673C521.404,-12.861 521.338,-13.521 521.338,-13.651C521.338,-14.041 521.501,-14.237 521.827,-14.237C522.087,-14.237 522.673,-14.18 523.585,-14.066C523.845,-14.033 524.113,-14.017 524.39,-14.017C524.618,-14.017 524.927,-14.033 525.318,-14.066C525.806,-14.098 526.221,-14.115 526.563,-14.115C526.84,-14.115 527.141,-14.041 527.466,-13.895ZM536.573,-9.598L534.18,-9.525L533.155,-9.403L534.424,-9.256L535.694,-9.256L537.159,-9.378L538.428,-9.33L536.573,-9.598ZM537.354,-11.795L537.647,-11.502L538.184,-11.551L537.842,-12.015L537.354,-11.795ZM529.957,-10.746L528.394,-10.819L527.247,-10.77L527.418,-10.404L527.881,-10.501L529.957,-10.746ZM522.413,-8.597L522.413,-5.863L522.291,-4.618L522.657,-4.935L522.657,-7.181L522.413,-8.597ZM524.805,-1.566L524.903,-0.394L525.269,-0.858L525.049,-1.566L524.805,-1.566ZM527.149,5.514L531.202,5.294L529.59,5.172L527.54,5.343L527.149,5.514ZM533.252,5.929L535.181,5.685L533.472,5.612L533.252,5.929ZM538.062,3.463L538.843,3.61L538.77,3.146L538.062,3.463ZM522.486,22.262L522.803,21.896L522.852,21.335L522.852,19.821L522.73,18.454L522.779,14.962L522.852,13.937L522.559,13.815L522.461,17.843L522.559,20.724L522.486,22.262Z" style="fill:white;fill-rule:nonzero;"/>
        <path d="M548.536,23.825L546.729,23.41L545.557,23.629L545.679,21.945L545.582,20.919C545.565,20.789 545.557,20.627 545.557,20.431C545.557,20.285 545.565,20.065 545.582,19.772C545.728,15.801 545.801,13.432 545.801,12.668C545.801,10.307 545.72,7.899 545.557,5.441C545.443,3.634 545.386,2.487 545.386,1.999C545.386,1.364 545.476,-0.028 545.655,-2.176C545.801,-3.804 545.875,-5.366 545.875,-6.864C545.875,-7.645 545.834,-8.345 545.752,-8.963C545.557,-10.363 545.46,-11.185 545.46,-11.429C545.46,-11.543 545.484,-11.779 545.533,-12.137C545.582,-12.528 545.606,-12.845 545.606,-13.089C545.606,-13.22 545.59,-13.358 545.557,-13.504C545.541,-13.602 545.533,-13.675 545.533,-13.724C545.533,-14.017 545.736,-14.164 546.143,-14.164C546.159,-14.164 546.192,-14.164 546.241,-14.164C547.25,-13.984 548.381,-13.895 549.634,-13.895C549.748,-13.895 550.163,-13.911 550.879,-13.944C551.628,-13.976 552.515,-13.993 553.541,-13.993C556.682,-13.993 559.31,-13.382 561.426,-12.162C563.412,-11.022 564.747,-9.509 565.43,-7.621C566.065,-5.83 566.382,-4.032 566.382,-2.225C566.382,0.265 565.56,2.495 563.917,4.464C561.882,6.89 559.978,8.273 558.204,8.615C557.455,8.761 556.023,8.835 553.907,8.835C553.809,8.835 553.581,8.818 553.223,8.786C552.93,8.769 552.67,8.761 552.442,8.761C551.726,8.761 551.368,9.42 551.368,10.739C551.368,11.146 551.392,11.601 551.441,12.106C551.653,14.385 551.758,15.679 551.758,15.988C551.758,16.427 551.677,17.16 551.514,18.185C551.335,19.21 551.246,19.951 551.246,20.407C551.246,20.7 551.311,21.367 551.441,22.409C551.474,22.637 551.49,22.84 551.49,23.019C551.49,23.556 551.083,23.825 550.269,23.825L548.536,23.825ZM554.175,-8.06L552.32,-8.06C551.701,-8.06 551.392,-7.946 551.392,-7.718C551.392,-7.637 551.408,-7.515 551.441,-7.352C551.49,-7.157 551.514,-6.953 551.514,-6.742C551.514,-6.53 551.506,-6.318 551.49,-6.107C551.441,-5.472 551.417,-5.098 551.417,-4.984C551.417,-4.854 551.433,-4.593 551.465,-4.203C551.482,-3.861 551.49,-2.624 551.49,-0.492L551.539,1.754C551.425,2.113 551.368,2.357 551.368,2.487C551.368,2.861 551.685,3.048 552.32,3.048L553.199,3.048C553.768,3.048 554.712,2.967 556.031,2.804C557.479,2.609 558.423,2.259 558.863,1.754C559.953,0.436 560.499,-0.956 560.499,-2.42C560.499,-3.771 560.173,-5 559.522,-6.107C559.164,-6.742 558.578,-7.254 557.764,-7.645C557.146,-7.954 556.511,-8.109 555.86,-8.109C555.795,-8.109 555.648,-8.109 555.42,-8.109L554.175,-8.06ZM551.368,-10.086L552.515,-9.793L554.151,-9.793L555.396,-9.72L555.567,-9.964L553.687,-10.086L551.368,-10.086ZM556.959,-12.479L558.521,-11.649L558.35,-12.381L557.764,-12.381L556.959,-12.479ZM563.892,-6.864L564.502,-4.935L564.332,-3.446L564.063,-2.347L564.478,-2.811L564.527,-3.324L564.747,-4.593L563.892,-6.864ZM561.793,1.999L562.769,1.535L562.72,0.973L562.281,1.413L561.793,1.999ZM557.74,6.393L554.932,6.613L553.638,6.637L553.003,6.613L552.491,6.881L555.323,6.881L557.74,6.393ZM547.217,-6.571L547.071,-7.498L546.973,-6.864L547.022,-6.107L547.12,-3.763L547.242,-3.031L547.413,-3.299L547.217,-6.571ZM548.56,1.803L548.951,1.681L548.731,0.778L548.292,1.193L548.56,1.803ZM549.903,11.3L549.586,12.13L549.805,15.475L549.732,16.476L550.098,15.841L549.878,12.79L549.903,11.3ZM546.729,-11.624L547.193,-13.114L546.753,-13.529L546.485,-12.918L546.729,-11.624ZM546.876,21.457L546.705,21.603L546.827,21.872L546.949,21.579L546.876,21.457Z" style="fill:white;fill-rule:nonzero;"/>
    </g>
    <g transform="matrix(-0.0269309,0,0,0.0269309,27.4439,4.48343)">
        <g id="Layer1">
            <path id="Layer11" d="M374.812,1633.81L69.527,1585.15L0,1280.78L109.845,1301.37L28.798,1204.9L39.139,1044.55L135.608,900.664L65.091,606.499L170.099,587.497L143.814,484.334L254.326,445.607L178.85,352.44L414,0L649.145,352.481L573.818,445.581L684.161,484.343L657.878,587.509L762.899,606.515L692.377,900.674L788.859,1044.55L799.194,1204.92L718.157,1301.36L828.006,1280.79L758.473,1585.15L453.161,1633.76L484.526,2400L414,2400.04C414,2400.04 361.096,2400.1 343.472,2400L374.812,1633.81Z" style="fill:white;"/>
        </g>
    </g>
</svg>
