<svg width="440px" height="127px" viewBox="0 0 440 127" version="1.1" xmlns="http://www.w3.org/2000/svg" xmlns:xlink="http://www.w3.org/1999/xlink" xmlns:sketch="http://www.bohemiancoding.com/sketch/ns">
    <g id="Page-1" stroke="none" stroke-width="1" fill="none" fill-rule="evenodd" sketch:type="MSPage">
        <g id="slack" sketch:type="MSLayerGroup">
            <path d="M79.801,12.058 C77.947,6.352 71.818,3.229 66.111,5.083 C60.405,6.937 57.282,13.066 59.136,18.773 L87.229,105.205 C89.158,110.536 94.916,113.532 100.444,111.94 C106.21,110.281 109.726,104.157 107.885,98.493 C107.816,98.278 79.801,12.058 79.801,12.058" id="Fill-1" fill="#DFA22F" sketch:type="MSShapeGroup"/>
            <path d="M36.272,26.202 C34.418,20.495 28.289,17.372 22.582,19.227 C16.876,21.081 13.753,27.21 15.607,32.916 L43.7,119.348 C45.629,124.679 51.387,127.675 56.915,126.084 C62.681,124.424 66.197,118.3 64.356,112.636 C64.287,112.421 36.272,26.202 36.272,26.202" id="Fill-2" fill="#3CB187" sketch:type="MSShapeGroup"/>
            <path d="M115.161,83.641 C120.867,81.787 123.99,75.658 122.136,69.952 C120.282,64.245 114.153,61.122 108.446,62.976 L22.014,91.069 C16.683,92.998 13.687,98.756 15.279,104.285 C16.938,110.051 23.062,113.566 28.726,111.726 C28.941,111.656 115.161,83.641 115.161,83.641" id="Fill-3" fill="#CE1E5B" sketch:type="MSShapeGroup"/>
            <path d="M40.029,108.053 C45.655,106.225 52.906,103.869 60.686,101.341 C58.858,95.715 56.502,88.463 53.974,80.681 L33.315,87.396 L40.029,108.053" id="Fill-4" fill="#392538" sketch:type="MSShapeGroup"/>
            <path d="M83.558,93.91 C91.368,91.372 98.626,89.014 104.215,87.198 C102.387,81.571 100.03,74.317 97.501,66.534 L76.842,73.248 L83.558,93.91" id="Fill-5" fill="#BB242A" sketch:type="MSShapeGroup"/>
            <path d="M101.017,40.112 C106.724,38.258 109.847,32.129 107.992,26.423 C106.138,20.716 100.009,17.593 94.303,19.447 L7.871,47.54 C2.54,49.469 -0.456,55.227 1.135,60.756 C2.795,66.522 8.919,70.037 14.583,68.197 C14.798,68.127 101.017,40.112 101.017,40.112" id="Fill-6" fill="#72C5CD" sketch:type="MSShapeGroup"/>
            <path d="M25.881,64.525 C31.508,62.697 38.76,60.341 46.543,57.812 C44.005,50.002 41.646,42.742 39.83,37.152 L19.167,43.868 L25.881,64.525" id="Fill-7" fill="#248C73" sketch:type="MSShapeGroup"/>
            <path d="M69.41,50.382 C77.222,47.844 84.482,45.485 90.072,43.669 C87.533,35.856 85.174,28.595 83.358,23.005 L62.695,29.721 L69.41,50.382" id="Fill-8" fill="#62803A" sketch:type="MSShapeGroup"/>
            <path d="M202.834,34.809 C206.656,36.477 206.935,37.728 203.946,43.427 C200.888,49.265 200.124,49.613 196.371,48.084 C191.644,46.068 185.598,44.539 181.706,44.539 C175.312,44.539 171.072,46.833 171.072,50.308 C171.072,61.775 207.699,55.589 207.699,80.054 C207.699,92.355 197.135,100.556 181.289,100.556 C172.949,100.556 162.663,97.776 155.574,94.162 C152.03,92.355 151.821,91.313 154.879,85.475 C157.52,80.332 158.354,79.776 162.176,81.374 C168.223,84.015 175.868,86.031 181.012,86.031 C186.849,86.031 190.741,83.668 190.741,80.193 C190.741,69.073 153.489,74.355 153.489,50.655 C153.489,38.076 163.983,29.666 179.691,29.666 C187.058,29.666 196.371,31.89 202.834,34.809" id="Fill-9" fill="#373D40" sketch:type="MSShapeGroup"/>
            <path d="M232.374,5.758 L232.374,96.942 C232.374,98.332 230.915,99.792 228.83,99.792 L219.239,99.792 C217.154,99.792 215.694,98.332 215.694,96.942 L215.694,5.758 C215.694,1.241 216.945,0.823 224.034,0.823 C232.096,0.823 232.374,1.379 232.374,5.758" id="Fill-10" fill="#373D40" sketch:type="MSShapeGroup"/>
            <path d="M300.553,57.049 L300.553,96.317 C300.553,98.402 299.094,99.861 297.009,99.861 L287.557,99.861 C285.402,99.861 283.873,98.263 284.013,96.108 L284.152,91.869 C279.009,97.568 271.641,100.556 264.274,100.556 C249.957,100.556 240.366,92.286 240.366,79.915 C240.366,66.779 251.208,57.953 267.472,57.883 C273.657,57.883 279.286,58.995 283.873,60.872 L283.873,56.354 C283.873,49.126 278.174,44.817 268.514,44.817 C263.996,44.817 258.436,46.624 253.988,49.196 C250.583,51.142 249.748,51.003 246.065,45.512 C242.452,40.021 242.59,38.979 246.065,36.755 C252.737,32.446 261.773,29.666 270.113,29.666 C288.808,29.666 300.553,39.813 300.553,57.049 L300.553,57.049 Z M256.352,79.776 C256.352,84.432 260.313,87.56 266.29,87.56 C273.518,87.56 280.051,84.085 283.873,78.177 L283.873,72.061 C280.051,70.602 275.394,69.768 271.224,69.768 C262.328,69.768 256.352,74.007 256.352,79.776 L256.352,79.776 Z" id="Fill-11" fill="#373D40" sketch:type="MSShapeGroup"/>
            <path d="M365.61,34.948 C369.084,36.964 369.223,38.076 365.401,43.983 C361.787,49.543 361.162,49.891 357.339,47.945 C354.42,46.415 349.763,45.095 345.941,45.095 C333.918,45.095 325.925,53.018 325.925,64.972 C325.925,77.413 333.918,85.753 345.941,85.753 C350.111,85.753 355.323,84.154 358.729,82.278 C362.204,80.262 362.969,80.401 366.652,85.753 C369.988,90.757 369.918,91.938 366.93,94.023 C361.578,97.707 353.099,100.556 345.663,100.556 C323.423,100.556 308.549,86.309 308.549,64.972 C308.549,43.775 323.423,29.666 345.802,29.666 C352.613,29.666 360.606,31.96 365.61,34.948" id="Fill-12" fill="#373D40" sketch:type="MSShapeGroup"/>
            <path d="M438.17,91.174 C440.95,94.718 439.838,95.969 432.887,98.471 C425.799,101.043 424.826,100.904 422.324,97.637 L402.447,71.088 L393.551,79.706 L393.551,96.942 C393.551,98.332 392.091,99.792 390.007,99.792 L380.415,99.792 C378.331,99.792 376.871,98.332 376.871,96.942 L376.871,5.758 C376.871,1.241 378.122,0.823 385.211,0.823 C393.273,0.823 393.551,1.379 393.551,5.758 L393.551,57.605 L420.794,31.473 C423.783,28.624 425.451,28.832 430.803,32.377 C436.711,36.199 437.127,37.242 434.278,40.021 L413.983,59.76 L438.17,91.174" id="Fill-13" fill="#373D40" sketch:type="MSShapeGroup"/>
        </g>
    </g>
</svg>