<?xml version="1.0" standalone="no"?>
<!DOCTYPE svg PUBLIC "-//W3C//DTD SVG 1.1//EN" "http://www.w3.org/Graphics/SVG/1.1/DTD/svg11.dtd">
<svg width="100%" height="100%" viewBox="0 0 1800 1800" version="1.1" xmlns="http://www.w3.org/2000/svg" xmlns:xlink="http://www.w3.org/1999/xlink" xml:space="preserve" style="fill-rule:evenodd;clip-rule:evenodd;stroke-linejoin:round;stroke-miterlimit:1.41421;">
    <g id="Layer5">
        <clipPath id="_clip1">
            <path d="M900,0L1679.42,450L1679.42,1350L900,1800L120.577,1350L120.577,450L900,0Z"/>
        </clipPath>
        <g clip-path="url(#_clip1)">
            <g id="Layer6" transform="matrix(1,0,0,1,-0.2625,-4.925)">
                <g transform="matrix(3.00554,-4.93038e-32,1.97215e-31,3.00554,-311.403,-400.823)">
                    <path d="M403.144,135L662.472,284.723L662.472,584.17L403.144,733.894L143.815,584.17L143.815,284.723L403.144,135Z" style="fill:white;"/>
                </g>
                <g transform="matrix(0.506586,0,0,0.506586,541.841,-222.85)">
                    <path d="M707.524,449.628L1220.38,745.728L1220.38,1337.93L707.524,1634.03L194.664,1337.93L194.664,745.728L707.524,449.628Z" style="fill:rgb(128,0,255);fill-opacity:0.8;"/>
                </g>
                <g transform="matrix(0.506586,0,0,0.506586,282.357,-72.802)">
                    <path d="M707.524,449.628L1220.38,745.728L1220.38,1337.93L707.524,1634.03L194.664,1337.93L194.664,745.728L707.524,449.628Z" style="fill:rgb(0,94,255);fill-opacity:0.8;"/>
                </g>
                <g transform="matrix(0.506586,0,0,0.506586,22.8735,77.2462)">
                    <path d="M707.524,449.628L1220.38,745.728L1220.38,1337.93L707.524,1634.03L194.664,1337.93L194.664,745.728L707.524,449.628Z" style="fill:rgb(49,88,60);fill-opacity:0.8;"/>
                </g>
                <g transform="matrix(0.506586,0,0,0.506586,22.3176,376.626)">
                    <path d="M707.524,449.628L1220.38,745.728L1220.38,1337.93L707.524,1634.03L194.664,1337.93L194.664,745.728L707.524,449.628Z" style="fill:rgb(19,118,48);fill-opacity:0.8;"/>
                </g>
                <g transform="matrix(0.506586,0,0,0.506586,21.7616,676.005)">
                    <path d="M707.524,449.628L1220.38,745.728L1220.38,1337.93L707.524,1634.03L194.664,1337.93L194.664,745.728L707.524,449.628Z" style="fill:rgb(2,45,1);fill-opacity:0.8;"/>
                </g>
                <g transform="matrix(0.506586,0,0,0.506586,281.468,827.673)">
                    <path d="M707.524,449.628L1220.38,745.728L1220.38,1337.93L707.524,1634.03L194.664,1337.93L194.664,745.728L707.524,449.628Z" style="fill:rgb(4,255,0);fill-opacity:0.8;"/>
                </g>
                <g transform="matrix(0.506586,0,0,0.506586,541.841,977.15)">
                    <path d="M707.524,449.628L1220.38,745.728L1220.38,1337.93L707.524,1634.03L194.664,1337.93L194.664,745.728L707.524,449.628Z" style="fill:rgb(1,77,166);fill-opacity:0.8;"/>
                </g>
                <g transform="matrix(0.506586,0,0,0.506586,800.861,827.807)">
                    <path d="M707.524,449.628L1220.38,745.728L1220.38,1337.93L707.524,1634.03L194.664,1337.93L194.664,745.728L707.524,449.628Z" style="fill:rgb(51,81,117);fill-opacity:0.8;"/>
                </g>
                <g transform="matrix(0.506586,0,0,0.506586,1062.08,677.394)">
                    <path d="M707.524,449.628L1220.38,745.728L1220.38,1337.93L707.524,1634.03L194.664,1337.93L194.664,745.728L707.524,449.628Z" style="fill:rgb(255,0,43);fill-opacity:0.8;"/>
                </g>
                <g transform="matrix(0.506586,0,0,0.506586,1060.7,377.888)">
                    <path d="M707.524,449.628L1220.38,745.728L1220.38,1337.93L707.524,1634.03L194.664,1337.93L194.664,745.728L707.524,449.628Z" style="fill:rgb(153,0,26);fill-opacity:0.8;"/>
                </g>
                <g transform="matrix(0.506586,0,0,0.506586,1060.84,77.5591)">
                    <path d="M707.524,449.628L1220.38,745.728L1220.38,1337.93L707.524,1634.03L194.664,1337.93L194.664,745.728L707.524,449.628Z" style="fill:rgb(255,42,28);fill-opacity:0.8;"/>
                </g>
                <g transform="matrix(0.506586,0,0,0.506586,801.793,-72.8784)">
                    <path d="M707.524,449.628L1220.38,745.728L1220.38,1337.93L707.524,1634.03L194.664,1337.93L194.664,745.728L707.524,449.628Z" style="fill:rgb(187,102,96);fill-opacity:0.8;"/>
                </g>
                <g transform="matrix(0.506586,0,0,0.506586,802.28,228.108)">
                    <path d="M707.524,449.628L1220.38,745.728L1220.38,1337.93L707.524,1634.03L194.664,1337.93L194.664,745.728L707.524,449.628Z" style="fill:rgb(243,82,33);fill-opacity:0.8;"/>
                </g>
                <g transform="matrix(0.506586,0,0,0.506586,802.767,529.094)">
                    <path d="M707.524,449.628L1220.38,745.728L1220.38,1337.93L707.524,1634.03L194.664,1337.93L194.664,745.728L707.524,449.628Z" style="fill:rgb(119,70,102);fill-opacity:0.8;"/>
                </g>
                <g transform="matrix(0.506586,0,0,0.506586,541.571,679.359)">
                    <path d="M707.524,449.628L1220.38,745.728L1220.38,1337.93L707.524,1634.03L194.664,1337.93L194.664,745.728L707.524,449.628Z" style="fill:rgb(156,33,114);fill-opacity:0.8;"/>
                </g>
                <g transform="matrix(0.506586,0,0,0.506586,283.378,526.21)">
                    <path d="M707.524,449.628L1220.38,745.728L1220.38,1337.93L707.524,1634.03L194.664,1337.93L194.664,745.728L707.524,449.628Z" style="fill:rgb(237,115,29);fill-opacity:0.8;"/>
                </g>
                <g transform="matrix(0.506586,0,0,0.506586,282.529,226.449)">
                    <path d="M707.524,449.628L1220.38,745.728L1220.38,1337.93L707.524,1634.03L194.664,1337.93L194.664,745.728L707.524,449.628Z" style="fill:rgb(255,119,0);fill-opacity:0.8;"/>
                </g>
                <g transform="matrix(0.506586,0,0,0.506586,543.673,78.7551)">
                    <path d="M707.524,449.628L1220.38,745.728L1220.38,1337.93L707.524,1634.03L194.664,1337.93L194.664,745.728L707.524,449.628Z" style="fill:rgb(102,51,153);fill-opacity:0.8;"/>
                </g>
                <g transform="matrix(0.506586,0,0,0.506586,538.997,378.444)">
                    <path d="M707.524,449.628L1220.38,745.728L1220.38,1337.93L707.524,1634.03L194.664,1337.93L194.664,745.728L707.524,449.628Z" style="fill:rgb(180,116,96);fill-opacity:0.8;"/>
                </g>
                <g transform="matrix(-0.78256,1.37946e-16,1.37946e-16,0.78256,1224.24,110.206)">
                    <path d="M374.812,1633.81L69.527,1585.15L0,1280.78L109.845,1301.37L28.798,1204.9L39.139,1044.55L135.608,900.664L65.091,606.499L170.099,587.497L143.814,484.334L254.326,445.607L178.85,352.44L414,0L649.145,352.481L573.818,445.581L684.161,484.343L657.878,587.509L762.899,606.515L692.377,900.674L788.859,1044.55L799.194,1204.92L718.157,1301.36L828.006,1280.79L758.473,1585.15L453.161,1633.76L484.526,2400L414,2400.04C414,2400.04 361.096,2400.1 343.472,2400L374.812,1633.81Z" style="fill:white;"/>
                </g>
            </g>
        </g>
    </g>
</svg>
