<?xml version="1.0" encoding="utf-8"?>
<!-- Generator: Adobe Illustrator 18.1.1, SVG Export Plug-In . SVG Version: 6.00 Build 0)  -->
<svg version="1.1" id="Layer_1" xmlns:sketch="http://www.bohemiancoding.com/sketch/ns"
	 xmlns="http://www.w3.org/2000/svg" xmlns:xlink="http://www.w3.org/1999/xlink" x="0px" y="0px" viewBox="-217 355 177 83"
	 enable-background="new -217 355 177 83" xml:space="preserve">
<title>oddbird_logo</title>
<description>Created with Sketch.</description>
<g id="Page-1" sketch:type="MSPage">
	<g id="oddbird_logo" sketch:type="MSLayerGroup">
		<path id="egg" sketch:type="MSShapeGroup" fill="#FF8B3D" d="M-75.8,382.2c-3.8-1.7-14.6-6.6-19.6-4.9c-3.4,1.1-7.3,9.4-9.9,11.8
			c-0.3,0.2-0.6,0.5-1,0.8c-7.1-13.4-20.8-21-29.9-18.5c-6.2,1.7-11.9,8.9-14.5,18.1c-4.5-2.7-6.8-7.2-10.8-11.3
			c-3.1-3.2-7.3-1.9-10.9-0.2c-7.2,3.3-16.6,8.2-16.3,15.9c4.2-3,8.3-2.1,9.6,3.4c0.3,1,2.6-3.6,5.4-4.6c3.2-1.2,6.7,1.7,7.4,4.9
			c0.2,0.6,2.9-3.5,5.7-2.1c2,0.9,3.2,5.1,3.9,4.7c2-1.3,3.4-2.8,4.8-4c-0.5,4.7-0.2,9.7,1.2,14.7c0.1,0.3,0.2,0.6,0.2,0.8
			c1-8.9,5.9-16.2,11.4-17.7c7.7-2.2,20.1,5.8,23.8,18.9c2.7,9.7,0.8,19.3-4.2,24.6c0.6-0.1,1.2-0.2,1.8-0.4
			c13.1-3.7,19.6-21.4,14.5-39.5c-0.1-0.4-0.2-0.7-0.3-1c3.2,1.7,4.7,4.5,4.8,4.1c1.2-5.6,7.9-5.7,12.3-1.7c0.4,0.4,0.6-4.3,2.3-4.9
			c2.7-1,5.7,0.5,8.5,2.2c0.5,0.3,0.4-2.2,0.3-2.5c-0.2-1.2-0.1-2.5,1.3-2.9c2.1-0.6,4.5,0.5,6.4,0.9
			C-68.1,387.3-72.2,383.8-75.8,382.2L-75.8,382.2L-75.8,382.2z"/>
		<g id="bird" transform="translate(85.000000, 1.000000)" sketch:type="MSShapeGroup">
			<path id="Shape" fill="#FF8B3D" d="M-151.2,377.1h0.8c2.2,0,2.6-0.4,2.6-2.6v-15.2c0-2.2-0.4-2.6-2.6-2.6h-0.8v-1.8h6.9
				c0.5,0,1.2,0,2.2,0c1.3,0,2.6,0,3.3,0c4.9,0,7.8,1,10.1,3.7c2,2.2,3,5.1,3,8.6c0,4.4-1.8,8.1-4.9,10.2c-1.8,1.2-3.6,1.7-6.5,1.7
				h-14.2L-151.2,377.1L-151.2,377.1L-151.2,377.1z M-140,377.2c3.5,0,5.4-0.8,6.8-2.7c1.2-1.7,1.9-4.4,1.9-7.4c0-4.4-1.4-7.6-4-9.1
				c-1.8-1-2.8-1.2-7.3-1.2v18.1C-142.6,376.7-142.1,377.2-140,377.2L-140,377.2L-140,377.2z"/>
			<path id="Shape_1_" fill="#FF8B3D" d="M-175.3,359.4v14.8c1.7,0.3,3.5,0.7,5.2,1.3c0-0.3,0-0.6,0-0.9v-6.4c0.4,0,0.6,0,0.8,0
				c1.8,0,2.8,1,5.4,5.3c2.4,3.9,2.4,4,4.1,5.7h6.5v-1.7h-0.3c-1.4,0-1.8-0.3-3.5-2.9c-3.9-6-4.5-6.4-8.1-7c2.2-0.1,3.2-0.4,4.2-1.1
				c1.9-1.2,2.8-3.1,2.8-5.4c0-3.7-2.4-6-6.3-6h-14.3v1.8h0.9C-175.7,356.7-175.3,357.1-175.3,359.4L-175.3,359.4L-175.3,359.4z
				 M-170.1,356.7h2.3c1.5,0,2,0.1,2.7,0.6c1.1,0.7,1.7,2.1,1.7,4c0,3.3-1.5,4.8-4.8,4.8h-1.9L-170.1,356.7L-170.1,356.7
				L-170.1,356.7z"/>
			<path id="Shape_2_" fill="#FF8B3D" d="M-185.2,374.5v-15.2c0-1.4,0.1-1.7,0.4-2.1c0.4-0.4,1-0.5,2.2-0.5h0.8v-1.8h-12v1.8h0.8
				c1.2,0,1.8,0.2,2.2,0.5c0.4,0.4,0.4,0.7,0.4,2.1v15.2c0,2.2-0.4,2.6-2.6,2.6h-0.8v1.8h7.7c0.5-0.7,1.1-1.4,1.7-2
				C-185.1,376.6-185.2,375.9-185.2,374.5z"/>
			<path id="Shape_3_" fill="#FF8B3D" d="M-214.2,357.3c0.4,0.4,0.4,0.7,0.4,2.1v8.9c1.7,0.3,3.5,0.8,5.2,1.5v-2.3h1.3
				c2.2,0,2.8,0.1,3.6,0.8c1,0.8,1.6,2.3,1.6,4.2c0,0.3,0,0.6,0,0.9c1.4,1,2.8,2.1,4.1,3.3c1-1.1,1.5-2.6,1.5-4.3
				c0-3.6-2-5.6-6.3-6.4c1.3-0.1,1.9-0.3,2.7-0.8c1.5-0.9,2.3-2.6,2.3-4.4c0-3.3-2.6-5.9-6.1-5.9h-13.2v1.8h0.7
				C-215.2,356.7-214.6,356.9-214.2,357.3L-214.2,357.3L-214.2,357.3z M-208.6,357.1h0.7c2.3,0,2.8,0.1,3.6,0.6
				c0.9,0.6,1.3,1.7,1.3,3.4c0,1.4-0.3,2.7-0.9,3.4c-0.6,0.8-1.5,1.1-3.6,1.1h-1.1V357.1L-208.6,357.1z"/>
		</g>
		<g id="odd" sketch:type="MSShapeGroup">
			<path id="Shape_4_" fill="#FF8B3D" d="M-156.6,360.4v15.2c0,2.1-0.4,2.6-2.2,2.6c0.5,0.6,1,1.2,1.5,1.8h8.5
				c0.4-0.6,0.8-1.2,1.2-1.8c-0.4,0-0.8,0-1.2,0c-2.2,0-2.7-0.4-2.7-2.3v-18.1c4.5,0,5.6,0.2,7.3,1.2c2.6,1.6,4,4.8,4,9.1
				c0,1-0.1,2.1-0.2,3c1.2-0.7,2.4-1.3,3.7-1.6c0.7-0.2,1.4-0.3,2.1-0.4c0-0.3,0-0.6,0-0.9c0-3.4-1-6.4-3-8.6
				c-2.3-2.6-5.3-3.7-10.1-3.7c-0.8,0-2.1,0-3.3,0c-0.9,0-1.7,0-2.2,0h-6.9v1.8h0.8C-157,357.7-156.6,358.1-156.6,360.4
				L-156.6,360.4L-156.6,360.4z"/>
			<path id="Shape_5_" fill="#FF8B3D" d="M-177.2,378.2c-1.8-0.1-2.2-0.6-2.2-2.3v-18.1c4.5,0,5.6,0.2,7.3,1.2c2.6,1.6,4,4.8,4,9.1
				c0,2.6-0.5,5-1.5,6.7c1.1-0.3,2.3-0.5,3.5-0.5c0.7,0,1.4,0.1,2,0.2c1-1.9,1.6-4,1.6-6.4c0-3.4-1-6.4-3-8.6
				c-2.3-2.6-5.3-3.7-10.1-3.7c-0.8,0-2.1,0-3.3,0c-0.9,0-1.7,0-2.2,0h-6.9v1.8h0.8c2.2,0,2.6,0.4,2.6,2.6v15.2
				c0,2.2-0.4,2.6-2.6,2.6h-0.8v1.8h7.6C-179.3,379.3-178.2,378.7-177.2,378.2L-177.2,378.2L-177.2,378.2z"/>
			<path id="Shape_6_" fill="#FF8B3D" d="M-213.1,359.1c2.7-2.7,5.9-4,10-4c7.4,0,12.9,5.4,12.9,12.6c0,7.7-5.6,13.2-13.2,13.2
				c-7.6,0-13.1-5.4-13.1-12.7C-216.7,364.5-215.4,361.4-213.1,359.1L-213.1,359.1L-213.1,359.1z M-203.5,378.6
				c2.4,0,4.4-0.9,5.5-2.5c1.2-1.7,2-5.1,2-8.4c0-3.5-0.9-6.7-2.3-8.4c-1.2-1.3-3.1-2.1-5.2-2.1c-4.9,0-7.6,3.7-7.6,10.5
				C-211,374.8-208.4,378.6-203.5,378.6L-203.5,378.6L-203.5,378.6z"/>
		</g>
	</g>
</g>
</svg>
