<?xml version="1.0" encoding="utf-8"?>
<!-- Generator: Adobe Illustrator 16.0.4, SVG Export Plug-In . SVG Version: 6.00 Build 0)  -->
<!DOCTYPE svg PUBLIC "-//W3C//DTD SVG 1.1//EN" "http://www.w3.org/Graphics/SVG/1.1/DTD/svg11.dtd">
<svg version="1.1" id="Layer_1" xmlns:sketch="http://www.bohemiancoding.com/sketch/ns"
	 xmlns="http://www.w3.org/2000/svg" xmlns:xlink="http://www.w3.org/1999/xlink" x="0px" y="0px" width="1080px" height="432px"
	 viewBox="-0.22 0 1080 432" enable-background="new -0.22 0 1080 432" xml:space="preserve">
<g>
	<title>oddbird_logo</title>
	<description>Created with Sketch.</description>
	<g>
		<path fill="#0089CF" d="M525.464,180.064h-12.185v-69.841c0-5.513,0.339-12.23,1.016-20.162h-0.29
			c-1.161,4.69-2.2,8.05-3.119,10.081l-35.464,79.922h-5.947l-35.537-79.342c-0.967-2.128-2.007-5.682-3.119-10.661h-0.289
			c0.387,4.16,0.579,10.927,0.579,20.307v69.696H419.36v-104h16.1l31.911,72.524c2.417,5.512,3.989,9.672,4.715,12.474h0.507
			c2.418-6.672,4.086-10.925,5.004-12.764l32.564-72.234h15.303V180.064z"/>
		<path fill="#0089CF" d="M561.051,79.182c0,2.225-0.773,4.073-2.321,5.548c-1.547,1.478-3.384,2.213-5.512,2.213
			c-2.175,0-4.013-0.714-5.512-2.14c-1.499-1.425-2.248-3.3-2.248-5.621c0-2.077,0.737-3.88,2.212-5.403
			c1.475-1.522,3.324-2.284,5.548-2.284c2.225,0,4.086,0.752,5.585,2.248C560.301,75.242,561.051,77.055,561.051,79.182z
			 M559.02,180.064h-11.894v-74.266h11.894V180.064z"/>
		<path fill="#0089CF" d="M629.131,176.655c-5.754,3.481-12.547,5.223-20.379,5.223c-6.77,0-12.85-1.56-18.24-4.679
			c-5.391-3.118-9.585-7.53-12.583-13.235c-2.998-5.703-4.497-12.111-4.497-19.219c0-12.281,3.518-22.145,10.553-29.59
			c7.035-7.444,16.402-11.169,28.104-11.169c6.479,0,12.208,1.259,17.188,3.771v12.184c-5.561-3.868-11.459-5.802-17.696-5.802
			c-7.688,0-13.937,2.746-18.748,8.231c-4.811,5.487-7.216,12.583-7.216,21.286c0,8.656,2.284,15.496,6.854,20.524
			c4.569,5.03,10.697,7.542,18.385,7.542c6.479,0,12.571-2.127,18.276-6.382V176.655z"/>
		<path fill="#0089CF" d="M681.834,117.837c-2.127-1.595-5.148-2.393-9.065-2.393c-5.271,0-9.549,2.478-12.837,7.434
			c-3.287,4.958-4.932,11.398-4.932,19.328v37.857h-11.894v-74.266H655v15.303h0.29c1.644-5.123,4.183-9.174,7.615-12.147
			s7.373-4.46,11.821-4.46c3.095,0,5.464,0.338,7.107,1.016V117.837z"/>
		<path fill="#0089CF" d="M756.295,142.641c0,11.798-3.349,21.286-10.045,28.466s-15.678,10.771-26.942,10.771
			c-10.976,0-19.739-3.492-26.29-10.48c-6.552-6.986-9.827-16.183-9.827-27.596c0-12.28,3.36-21.984,10.08-29.118
			c6.721-7.132,15.98-10.697,27.777-10.697c11.023,0,19.654,3.445,25.892,10.335C753.176,121.21,756.295,130.651,756.295,142.641z
			 M744.11,143.077c0-9.33-2.066-16.487-6.2-21.468c-4.134-4.978-10.045-7.47-17.732-7.47c-7.64,0-13.684,2.551-18.132,7.651
			c-4.448,5.103-6.672,12.293-6.672,21.576c0,8.896,2.236,15.847,6.709,20.851c4.472,5.004,10.504,7.506,18.095,7.506
			c7.736,0,13.658-2.466,17.769-7.397C742.056,159.394,744.11,152.313,744.11,143.077z"/>
		<path fill="#0089CF" d="M811.248,160.192c0,6.431-2.478,11.652-7.434,15.666c-4.956,4.015-11.544,6.02-19.763,6.02
			c-7.011,0-13.151-1.499-18.422-4.497v-12.765c5.851,4.741,12.281,7.107,19.292,7.107c9.428,0,14.143-3.455,14.143-10.37
			c0-2.803-0.919-5.087-2.757-6.854c-1.837-1.766-6.019-4.145-12.546-7.145c-6.576-2.802-11.218-5.812-13.925-9.029
			c-2.708-3.215-4.062-7.479-4.062-12.8c0-6.139,2.466-11.266,7.397-15.376c4.932-4.107,11.192-6.164,18.784-6.164
			c5.85,0,11.145,1.16,15.883,3.481v11.966c-4.835-3.527-10.443-5.294-16.826-5.294c-3.916,0-7.071,0.969-9.464,2.901
			c-2.394,1.934-3.591,4.424-3.591,7.47c0,3.29,0.919,5.813,2.757,7.578c1.837,1.768,5.632,3.856,11.386,6.274
			c7.06,2.999,12.015,6.14,14.868,9.428C809.821,151.081,811.248,155.214,811.248,160.192z"/>
		<path fill="#0089CF" d="M892.091,142.641c0,11.798-3.348,21.286-10.045,28.466c-6.696,7.18-15.677,10.771-26.942,10.771
			c-10.976,0-19.738-3.492-26.29-10.48c-6.552-6.986-9.827-16.183-9.827-27.596c0-12.28,3.36-21.984,10.081-29.118
			c6.721-7.132,15.979-10.697,27.776-10.697c11.023,0,19.654,3.445,25.892,10.335S892.091,130.651,892.091,142.641z
			 M879.907,143.077c0-9.33-2.067-16.487-6.201-21.468c-4.134-4.978-10.045-7.47-17.732-7.47c-7.64,0-13.683,2.551-18.131,7.651
			c-4.448,5.103-6.673,12.293-6.673,21.576c0,8.896,2.236,15.847,6.709,20.851s10.504,7.506,18.095,7.506
			c7.736,0,13.659-2.466,17.769-7.397S879.907,152.313,879.907,143.077z"/>
		<path fill="#0089CF" d="M940.516,80.56c-2.321-1.306-4.956-1.958-7.905-1.958c-8.316,0-12.475,5.248-12.475,15.737v11.459h17.406
			v10.081h-17.406v64.185h-11.895v-64.185h-12.619v-10.081h12.619V93.76c0-7.543,2.225-13.635,6.673-18.276
			s10.104-6.963,16.971-6.963c3.626,0,6.503,0.436,8.631,1.306V80.56z"/>
		<path fill="#0089CF" d="M980.746,179.338c-2.853,1.596-6.575,2.394-11.169,2.394c-12.957,0-19.437-7.299-19.437-21.902v-43.95
			h-12.764v-10.081h12.764V87.667l11.895-3.844v21.975h18.711v10.081h-18.711v41.919c0,4.98,0.846,8.522,2.538,10.625
			c1.692,2.104,4.521,3.155,8.485,3.155c2.949,0,5.512-0.798,7.688-2.394V179.338z"/>
		<path fill="#0089CF" d="M474.479,328.594H419.36v-104h52.726v11.023h-40.542v34.595h37.568v11.023h-37.568v36.335h42.935V328.594z
			"/>
		<path fill="#0089CF" d="M551.694,328.594h-11.894v-12.619h-0.29c-5.512,9.621-14.021,14.433-25.528,14.433
			c-9.38,0-16.85-3.373-22.41-10.117c-5.56-6.745-8.341-15.748-8.341-27.016c0-12.281,3.083-22.144,9.247-29.59
			c6.165-7.444,14.421-11.169,24.768-11.169c10.153,0,17.575,4.015,22.265,12.039h0.29v-45.908h11.894V328.594z M539.801,295.015
			v-10.951c0-6.138-2.042-11.241-6.128-15.303c-4.086-4.061-9.054-6.092-14.903-6.092c-7.156,0-12.837,2.647-17.044,7.941
			c-4.206,5.294-6.31,12.632-6.31,22.012c0,8.511,1.982,15.242,5.947,20.197c3.965,4.958,9.307,7.435,16.028,7.435
			c6.526,0,11.894-2.367,16.1-7.107C537.698,308.409,539.801,302.367,539.801,295.015z"/>
		<path fill="#0089CF" d="M634.57,322.647c0,27.222-13.055,40.832-39.163,40.832c-9.09,0-17.116-1.717-24.078-5.149v-11.895
			c8.315,4.642,16.27,6.963,23.86,6.963c18.324,0,27.486-9.694,27.486-29.082v-8.195h-0.289
			c-5.657,9.526-14.167,14.287-25.529,14.287c-5.995,0-11.338-1.499-16.027-4.497c-4.69-2.997-8.316-7.276-10.879-12.837
			c-2.562-5.558-3.844-11.966-3.844-19.219c0-12.665,3.082-22.724,9.247-30.17c6.164-7.444,14.42-11.169,24.767-11.169
			c10.009,0,17.431,4.015,22.266,12.039h0.289V254.33h11.895V322.647z M622.676,295.015v-10.951c0-5.993-2.055-11.06-6.164-15.193
			s-9.018-6.201-14.723-6.201c-7.397,0-13.163,2.684-17.297,8.051c-4.134,5.366-6.201,12.836-6.201,22.41
			c0,8.122,1.982,14.676,5.947,19.654c3.965,4.979,9.259,7.47,15.883,7.47s12.039-2.357,16.245-7.071
			C620.573,308.468,622.676,302.413,622.676,295.015z"/>
		<path fill="#0089CF" d="M713.745,294.435H661.31c0.193,8.367,2.405,14.759,6.636,19.183c4.231,4.425,10.094,6.637,17.588,6.637
			c8.412,0,16.076-2.708,22.99-8.123v11.096c-6.479,4.787-15.085,7.181-25.819,7.181c-10.588,0-18.856-3.419-24.803-10.263
			c-5.947-6.841-8.921-16.306-8.921-28.394c0-7.349,1.487-14.058,4.461-20.125c2.973-6.066,7.07-10.77,12.292-14.106
			c5.222-3.336,11.024-5.004,17.406-5.004c9.622,0,17.128,3.131,22.519,9.392c5.392,6.264,8.087,15.025,8.087,26.29V294.435z
			 M701.561,284.355c-0.097-6.864-1.752-12.194-4.968-15.992c-3.215-3.795-7.748-5.693-13.598-5.693
			c-5.513,0-10.227,1.984-14.143,5.947c-3.916,3.965-6.382,9.211-7.397,15.738H701.561z"/>
	</g>
	<path fill="#0089CF" d="M98.819,191.535c7.407-58.304,47.155-111.193,118.443-111.896c43.039,0.822,78.455,20.321,99.501,57.509
		c10.588,19.409,13.891,39.789,14.593,62.262v26.419H173.159c0.725,65.243,95.994,63.021,137.033,34.258v53.106
		c-24.027,14.44-78.513,27.302-120.723,10.758c-35.954-13.505-61.56-51.096-61.385-87.283
		c-1.169-46.945,23.326-77.988,61.385-95.644c-8.067,10.015-14.206,21.046-17.422,40.104h89.33c0,0,5.225-53.381-50.552-53.381
		c-52.615,1.859-90.557,32.452-112.013,63.781L98.819,191.535z"/>
</g>
</svg>
