<?xml version="1.0" encoding="utf-8"?>
<svg version="1.1" id="Layer_1" xmlns="http://www.w3.org/2000/svg" xmlns:xlink="http://www.w3.org/1999/xlink" x="0px" y="0px"
	 width="537px" height="45px" viewBox="0 0 537 45" enable-background="new 0 0 537 45" xml:space="preserve">
<rect fill="#011440" width="537" height="45"/>
<path fill="#F2F1DF" d="M537,45V33.562c-0.544-0.019-1.127,0.047-1.77,0.241c-0.175,0.053-0.857-0.434-0.929-0.727
	c-1.258-5.199-7.733-7.092-11.482-10.705c-0.899-0.867-2.741-1.914-4.007-0.82c-2.383,2.06-4.252,0.736-5.477-0.401
	c-2.188-2.031-5.016-3.647-6.61-6.099c-0.631-0.97-2.06-1.692-3.733-1.144c-2.562,0.837-3.532,0.187-4.85-1.713
	c-1.509-2.175-2.685-5.48-7.154-5.158c-3.793,0.274-6.348-1.048-8.732-2.802c-4.944-3.636-2.314,3.926-9.208,2.315V3.204
	c-0.403,0.241-0.808,0.481-1.21,0.723c-1.241,0.748-2.609,1.203-4.205,0.402c-2.006-1.007-5.247-0.855-6.212-0.151
	c-2.353,1.717-4.485,0.745-6.75,0.816c-1.783,0.056-3.421-0.999-4.924-0.705c-3.758,0.735-6.837-1.202-10.427-1.018
	c-3.894,0.199-7.465-1.665-11.571-0.932c-3.506,0.625-7.241,3.036-10.682-0.148c-0.174-0.162-1.155,0.075-1.673,0.267
	c-0.67,0.248-1.347,0.412-2.027,0.522c0.009-0.18,0.021-0.365,0.036-0.565c0.021-0.246-0.067-0.566-0.27-0.738
	c-1.282-1.093-6.681-0.783-7.844,0.373c-0.214,0.211-0.429,0.421-0.642,0.633c-0.44-0.024-0.877-0.04-1.31-0.038
	c-5.591,0.029-10.597,1.231-15.771,2.145c-2.039,0.36-4.126,0.824-6.114,0.793c-6.969-0.107-12.897,2.478-18.832,4.597
	c-5.193,1.854-10.142,4.242-15.688,5.333c-2.646,0.521-5.6,0.489-8.188,1.253c-3.496,1.033-7.59,2.141-10.612,1.462
	c-4.127-0.926-7.46,0.508-11.125,0.472c-6.076-0.061-11.548-1.459-15.94-4.816c-0.673-0.515-1.515-1.226-2.537-0.623
	c-2.061,1.214-4.553,0.551-6.716,1.155c-2.806,0.784-5.554,0.715-8.511,0.552c-2.625-0.145-4.643,1.954-8.254,1.341
	c-1.375-0.233-2.89,0.471-4.554,1.112c-1.061-0.63-2.028-1.376-3.074-2c-2.172-1.295-3.342-3.524-6.444-3.976
	c-2.697-0.393-5.424-1.066-7.662,0.923c-0.487,0.434-0.859,0.237-1.143-0.103c-1.684-2.008-4.853-1.473-7.245-2.179
	c-0.947-0.279-2.739-1.023-2.812-0.941c-1.872,2.089-4.91,2.917-7.641,3.646c-2.681,0.715-4.111,2.698-7.375,3.107
	c-2.071,0.259-5.999-2.13-7.188,1.517c-0.127,0.389-1.229-0.269-1.684-0.673c-2.189-1.949-5.929-1.423-8.402-3.012
	c-0.416-0.267-1.979,0.179-2.726,0.598c-4.187,2.35-8.092,5.034-12.478,7.125c-3.354,1.6-4.817,4.404-8.001,6.109
	c-2.032,1.088-4.439,1.125-6.421,2.48c-3.921,2.68-9.535,2.494-14.299,3.86c-4.404,1.263-9.404-0.507-13.835-2.024
	c-2.339-0.803-3.886-3.281-7.212-2.027c-2.671,1.007-4.964-0.515-7.5-0.605c-2.711-0.099-5.962-0.813-7.824-2.182
	c-2.075-1.526-5.158-2.416-5.862-4.762c-1.596,0.097-0.673,1.407-1.544,1.468c-3.213,0.224-6.332,1.236-9.665,0.597
	c-1.479-0.283-3.06-0.271-4.69-0.167c-4.227,0.267-7.137,2.429-9.249,4.545c-2.102,2.104-5.661,2.521-7.443,4.884
	c-0.46,0.607-3.693,1.957-5.667,0.768c-2.863-1.723-4.697-0.891-6.588,0.999c-1.314,1.314-7.067,2.175-8.601,1.105
	c-2.802-1.952-4.895-0.277-7.529,0.227c-2.476,0.474-5.027-2.224-8.097-0.679c-0.202,0.102-0.328,0.318-0.54,0.385
	c-2.195,0.691-4.559,1.439-6.515-0.041c-2.379-1.8-5.317-1.186-7.872-0.973c-3.355,0.281-6.541,0.525-9.53-0.755
	c-1.12-0.479-2.292-0.937-3.417-0.573c-2.334,0.752-4.516,0.16-6.409-0.483c-2.126-0.722-3.442-0.244-4.8,0.819
	c-2.208,1.729-4.629,2.244-7.612,1.266c-2.341-0.768-4.115-2.854-7.29-1.891C0.508,33.835,0.227,33.677,0,33.481V45H537z"/>
</svg>
