<?xml version="1.0" encoding="utf-8"?>
<!-- Generator: Adobe Illustrator 16.0.4, SVG Export Plug-In . SVG Version: 6.00 Build 0)  -->
<!DOCTYPE svg PUBLIC "-//W3C//DTD SVG 1.1//EN" "http://www.w3.org/Graphics/SVG/1.1/DTD/svg11.dtd">
<svg version="1.1" id="Layer_1" xmlns="http://www.w3.org/2000/svg" xmlns:xlink="http://www.w3.org/1999/xlink" x="0px" y="0px"
	 width="200px" height="200px" viewBox="0 0 200 200" enable-background="new 0 0 200 200" xml:space="preserve">
<g>
	<defs>
		<polygon id="SVGID_1_" points="13.977,50.333 13.977,149.666 99.998,199.333 186.023,149.666 186.023,50.333 99.998,0.667 		"/>
	</defs>
	<clipPath id="SVGID_2_">
		<use xlink:href="#SVGID_1_"  overflow="visible"/>
	</clipPath>
	<polygon clip-path="url(#SVGID_2_)" fill="#137630" points="13.975,50.333 99.998,0.667 186.023,50.333 186.023,149.666 
		99.998,199.333 13.975,149.666 	"/>
	<path clip-path="url(#SVGID_2_)" fill="#FFFFFF" d="M103.535,164.79l27.536-4.389l6.27-27.454l-9.908,1.854l7.312-8.7l-0.932-14.46
		l-8.704-12.981l6.359-26.532l-9.468-1.714l2.371-9.306l-9.968-3.492l6.808-8.405L99.998,17.423L78.791,49.215l6.792,8.396
		l-9.95,3.496l2.371,9.306l-9.474,1.714l6.361,26.532l-8.7,12.981l-0.938,14.46l7.312,8.7l-9.907-1.854l6.269,27.454l27.541,4.38
		l-2.83,69.119h6.361c0,0,4.774,0.009,6.361,0L103.535,164.79z"/>
</g>
</svg>
